<svg width="18" height="14" fill="none" xmlns="http://www.w3.org/2000/svg"><path d="m9.482 5.643 1.17.545 1.74-.518V4.455c0-2.062-1.74-3.714-3.82-3.714C6.5.741 4.75 2.384 4.75 4.43v5.535c0 .51-.41.911-.91.911s-.911-.402-.911-.91v-2.34H0V10a3.83 3.83 0 0 0 3.83 3.83c2.099 0 3.83-1.687 3.83-3.776V4.589c0-.5.411-.91.911-.91s.911.41.911.91v1.054Zm4.732 1.982v2.455c0 .5-.41.902-.91.902s-.911-.402-.911-.902V7.67l-1.741.518-1.17-.545v2.393c0 2.098 1.723 3.794 3.83 3.794a3.83 3.83 0 0 0 3.83-3.83V7.625h-2.928Z" fill="#fff"/></svg>