<svg width="14" height="17" fill="none" xmlns="http://www.w3.org/2000/svg"><path d="M12.571 1.429h.858c.16 0 .285-.125.285-.286V.57a.282.282 0 0 0-.285-.285H.286A.282.282 0 0 0 0 .57v.572c0 .16.125.286.286.286h.857c0 3.303 1.58 5.696 3.33 6.857-1.75 1.16-3.33 3.553-3.33 6.857H.286a.282.282 0 0 0-.286.286V16c0 .16.125.286.286.286h13.143c.16 0 .285-.125.285-.286v-.571a.282.282 0 0 0-.285-.286h-.858c0-3.304-1.58-5.697-3.33-6.857 1.75-1.161 3.33-3.554 3.33-6.857Zm-1.142 0a7.915 7.915 0 0 1-.76 3.428H3.046a7.915 7.915 0 0 1-.76-3.428h9.144Zm-.51 10.857H2.796c.66-1.723 1.848-2.947 3.035-3.429h2.054c1.187.482 2.375 1.706 3.036 3.429Z" fill="#fff"/></svg>