<svg version="1.0" xmlns="http://www.w3.org/2000/svg" width="1365.333" height="1365.333" viewBox="0 0 1024 1024"><path d="m772.1 91.6-58.5 58.3 4 3.9c5.6 5.5 23.3 25 26.4 29.1.9 1.1 2.9 3.5 4.5 5.3 1.7 1.9 5.2 6.3 8 9.8 2.7 3.6 5.3 6.6 5.7 6.8.5.2.8 1 .8 1.7s.3 1.5.8 1.7c.7.3 7.7 9.6 9.7 12.9.6.9 3.1 4.7 5.6 8.5 6.1 9.1 10.3 15.8 10.4 16.4 0 .3 1.2 2.3 2.6 4.5 1.4 2.2 4.8 8 7.4 13 2.7 4.9 5.3 9.3 5.9 9.7.6.4.8.8.4.8s1.2 3.9 3.6 8.7c6.1 12.3 8.1 16.9 13.3 30.2 4.4 11.2 11.3 30.5 11.7 32.6.1.5.5 1.6.9 2.2.5.7.6 1.3.3 1.3s-.1 1.2.5 2.7c.6 1.6 1.2 3.5 1.4 4.3.2.8 1.7 6.7 3.4 13s3.8 15.1 4.7 19.5c.9 4.4 1.8 8.9 2 10 .2 1.1.7 3.6.9 5.5.3 1.9.8 4.6 1.1 5.9.3 1.3.7 4.4 1 7 .2 2.5.6 5.7.9 7.1 1.1 5.5 3.3 26.1 4.1 39.6.8 12.9.8 56 0 68.9-.8 12.5-.8 12.9-2.2 26-.5 4.4-.8 9.5-.9 11.2 0 1.8-.3 3.3-.6 3.3s-.6.6-.6 1.2c-.1 2.1-1.2 11.2-1.6 13.3-.3 1.1-.8 4.2-1.2 7-.8 4.9-1 5.7-1.5 7.2-.1.5-.2 1.1-.1 1.6.1.4-.4 2.6-.9 5-.6 2.3-1.3 5.3-1.6 6.7-.3 1.4-1.9 7.9-3.6 14.5-1.7 6.6-3.1 12.6-3.1 13.2 0 .7-.4 1.3-.9 1.3s-.7.4-.4.9c.4.5.1 2.2-.5 3.8-.7 1.5-1.3 3.3-1.4 3.9-.6 2.6-8.7 26.2-10.1 29.2-.9 1.8-1.7 4.1-1.9 5.1-.2 1-.8 2.7-1.4 3.7-.6 1.1-2.1 4.6-3.5 7.9-3.7 9.1-12.8 27.9-13.8 28.6-.6.3-.9.9-.9 1.3.1.6-4.3 9.5-6.6 13.1-.7 1.1-1.6 2.9-2.2 4.1-.9 2-15.8 25.9-17.3 27.9-.4.5-4.4 6.2-8.9 12.5-4.4 6.3-8.7 12-9.5 12.6-.7.6-1.1 1.4-.7 1.7.3.4.1.7-.5.7-.5 0-2 1.5-3.1 3.2-1.1 1.8-3 4.4-4.3 5.8-1.3 1.4-4.8 5.4-7.8 9-6.3 7.5-8.4 9.9-17.8 19.8l-6.9 7.4 9.4 9.1c5.2 5.1 16.5 16.1 25.1 24.5 34.6 33.9 72.1 70.4 78.4 76.6l6.8 6.5 5.7-6.1c3.2-3.4 7.2-7.6 8.8-9.3 1.7-1.7 5.7-6.2 9-9.9 3.3-3.8 6.9-7.8 8-9.1 7-7.8 25.7-31.4 33.5-42.5 4.1-5.8 7.7-10.7 8-11 .3-.3 1.7-2.3 3-4.5s2.7-4.2 3.1-4.5c.3-.3 2.1-3 4-6 4.4-7.2 7.6-12.2 8.9-13.7.5-.7 1-1.5 1-1.8 0-.5 3.6-6.6 7.7-13.1.7-1 2.7-4.6 4.4-7.9 1.7-3.3 3.5-6.2 3.9-6.5.4-.3 1.1-1.6 1.5-3 .4-1.4 1.1-3 1.6-3.6 1.9-2.4 11.8-22.4 11.1-22.4-.4 0-.2-.4.3-.8 1.5-1.1 8.5-16 8.5-18.1 0-.6.5-1.1 1-1.1.6 0 .9-.3.8-.8-.1-.7.6-2.8 2.2-6.7 4.4-10.2 13.2-32.7 13.6-34.8.1-.4.3-.9.4-1.2.1-.3.3-.8.4-1.3.1-.4 1.3-3.9 2.6-7.7 1.3-3.9 2.5-7.2 2.5-7.5.3-1.4 4.7-15.8 5.5-18 .5-1.4 1.1-3.6 1.4-5 .2-1.4.9-3.7 1.5-5.3.6-1.5.8-2.7.6-2.7-.2 0 0-1.2.6-2.8 1.1-2.8 1.8-5.2 2.3-8.7.2-1.1 1.3-5.8 2.4-10.5 2.3-9.5 3.1-13.3 3.7-17 .3-1.4.9-4.5 1.4-7 .5-2.5 1.2-6.3 1.5-8.4.4-2.1.9-4.8 1.1-6 .3-1.2.7-3.8 1-5.9.3-2 .7-5.4 1-7.5 1.3-8.9 1.6-10.9 2-14.7.3-2.2.7-5.8 1-8 .2-2.2.7-6.9 1-10.5.3-3.6.8-8.3 1-10.5 1.3-13.2 1.9-32.8 2-61 0-35.6-1.1-57.3-4-80-.3-2.2-.7-6-.9-8.5-.7-6.8-1.7-14-3.1-21.8-1.3-7.2-2.6-15-3-17.7-.2-1.7-1.3-7.5-2.5-13-2.4-11.2-2.4-11.3-3.9-17.5-1.1-4.3-1.5-6.2-2.6-11.3-.2-1.2-1-4.2-1.8-6.7s-1.5-4.8-1.6-5.3c-.2-2-1.4-6.3-2-7.2-.3-.6-.7-1.8-.8-2.8-.4-2.4-7-23.5-9-28.7-.3-.8-.7-2-.8-2.5-.4-1.8-11.7-30.8-13.8-35.5-1.1-2.5-2.1-4.7-2.2-5-1.1-3.2-6.2-14.4-10.6-23.3-1.6-3.1-2.5-5.7-2.1-5.7.4 0 .3-.4-.3-.8-.5-.4-2.1-2.7-3.3-5.2-7.4-14.2-11.6-22.1-14.2-26.5-1.6-2.8-3.7-6.5-4.6-8.3-.9-1.7-1.9-3.2-2.3-3.2-.4 0-1.3-1.6-2.1-3.5s-1.7-3.5-2.2-3.5c-.4 0-.8-.6-.8-1.3 0-.7-.9-2.3-2-3.5-1.2-1.2-1.8-2.2-1.6-2.2.8 0-17.8-27.1-27.7-40.4-9.1-12.2-23.5-30.3-27.2-34.2-1.1-1.1-4.5-5-7.5-8.5-12.9-15-29.5-31.9-31.2-31.8-.7.1-27.6 26.4-59.7 58.5z"/><path d="M637.3 184.2c-6.7 7.1-25.6 24.8-26.5 24.8-.4 0-.8.7-.8 1.5s-.3 1.5-.7 1.5c-.8 0-4 3.1-38.9 36.5-9.7 9.3-20 19.2-22.9 22-2.9 2.7-10.3 9.8-16.4 15.8L519.9 297l7.8 8.3c10.8 11.4 14.2 15.3 19.1 21.7 2.3 3 4.6 5.9 5 6.5 2.8 3.5 13.6 20.1 16.6 25.5 2 3.6 4.1 7.2 4.6 8 .9 1.4 5.2 10.8 9.7 21 2.5 5.5 4.4 11.3 4 12.1-.1.3.3 1.2.9 2 .6.8 2.2 5 3.4 9.4 1.2 4.4 2.5 8.7 2.8 9.5.5 1.5.7 2.6 1.6 7.2.3 1.3.5 2.3.6 2.3.4 0 3.2 16 4.6 26.5 2.5 18.4 2.4 60.2-.2 77-1 6.6-2.3 14.5-2.8 16.6-.2 1.2-.7 3.7-1 5.5-.3 1.9-.8 4.3-1.1 5.4-.2 1.1-.9 4-1.5 6.5-1.1 4.5-3.6 13.1-4.7 16-.4.8-.7 1.7-.8 2 0 .3-.9 3-1.9 6-1.8 5.2-3.3 8.9-8.6 20.5-1.3 2.7-2.4 5.2-2.4 5.5-.1.3-1.1 2.1-2.4 4.1-1.2 2-2.2 3.9-2.2 4.2 0 2.1-19.1 31.3-23.7 36.2-1 1.1-2.6 3-3.4 4.2-2.4 3.5-10.8 13.1-16.7 19l-5.4 5.4 5.5 5.2c3 2.9 11 10.4 17.7 16.7 6.8 6.3 13.7 12.8 15.5 14.5 5.7 5.4 31.8 29.9 35.1 33 1.7 1.6 8.7 8.2 15.3 14.5 6.7 6.3 14.1 13.3 16.5 15.5 2.3 2.2 7.4 7 11.3 10.7l7 6.7 11.4-12C670 782.3 669 783.4 675 776c2.5-3 4.7-5.7 5.1-6 .3-.3 4.9-6.4 10.2-13.5 5.3-7.2 10.3-13.8 11.1-14.8.9-.9 1.6-1.9 1.6-2.3 0-.3 1.7-3.1 3.9-6.2 3.9-5.8 18.1-29.9 18.1-30.8 0-.2 1.1-2.2 2.5-4.4s2.3-4 1.9-4c-.3 0 .4-1.3 1.5-2.9 1.1-1.5 1.8-3 1.5-3.3-.2-.3.2-1.1 1.1-1.8.8-.7 1.5-1.8 1.5-2.4 0-.7 1.4-4 3-7.4 1.7-3.4 3-6.4 3-6.6 0-.2.8-2.1 1.7-4.2.9-2.2 1.7-4.1 1.8-4.4.1-.3.6-1.6 1.2-3 2-4.7 9.5-26 9.8-27.7.2-1 .4-1.9.5-2.1.2-.1.4-.7.5-1.2.1-.6.4-1.2.5-1.5.1-.3.3-.8.4-1.3.1-.4.9-3.2 1.8-6.2 1-3 2-6.9 2.3-8.5.7-3.6.9-4.4 1.8-7 .3-1.1.8-3.1 1.1-4.5.2-1.4 1.2-6.1 2.1-10.5 2.4-11.3 2.4-11.5 3.1-16.5.3-2.5.8-5.4 1-6.5 1.1-5.7 3.1-23.1 2.9-26 0-1.4.2-2.5.5-2.5 2.1 0 1.7-71.7-.5-88-.2-1.9-.7-5.5-.9-8-.7-7-1.6-14.3-2.2-17-1.3-7-1.6-8.7-1.9-10.5-1-6.3-1.7-10.4-2.5-13.5-.5-1.9-1.1-4.7-1.4-6.2-.2-1.5-.7-3.2-1-3.7-.4-.5-.8-2.2-1.1-3.8-.7-4.5-1.6-8.7-2.2-10.3-.4-.8-.7-1.7-.7-2-.9-4.1-3.1-10.8-3.9-11.8-.5-.6-.7-1.2-.3-1.2.5 0-3.4-11.9-7.1-21.5-.8-2.2-1.9-4.9-2.3-6-1.4-3.7-2.8-6.9-5.9-13.8-1.7-3.7-3.1-7-3.1-7.3 0-1.8-16.9-33.6-18.4-34.6-.6-.4-.8-.8-.4-.8.7 0-2.7-5.7-5-8.5-.4-.6-.8-1.3-.8-1.7.1-.4-.7-1.7-1.6-2.8-1-1.1-1.8-2.2-1.8-2.5 0-.4-6.8-10.6-9.2-14-.4-.5-3.2-4.4-6.2-8.5s-5.9-8-6.3-8.5c-.4-.6-2.6-3.3-4.8-6-2.2-2.8-4.4-5.5-5-6.1-.5-.7-2.6-3.1-4.5-5.5-7.9-9.7-29.3-31.9-30.8-31.9-.5 0-2.7 1.9-4.9 4.2z"/><path d="M75.7 272.6c-.1.1-2.7.4-5.7.7-3 .3-7.5 1.2-10 2-2.5.7-4.7 1.4-5 1.5-4.1.8-14.8 6.1-20.5 10.1C29.3 290.5 15 304.5 15 306c0 .5-.6 1.5-1.3 2.2-1.9 1.9-8.9 16.4-10.3 21.3C.4 340 .1 345.8 0 388.8V433h163.7c90.1 0 164.5.1 165.3.3.8.2 3.3.7 5.5 1.2 2.2.4 4.5 1 5 1.4.6.3 1.2.6 1.5.7.3 0 1.8.6 3.3 1.2 1.6.7 3.3 1.2 3.8 1.2s.9.4.9.9 1.5 1.5 3.3 2.2c5.7 2.3 17.8 15.6 21.9 23.9 4.3 8.9 6.2 14.6 5.4 16.5-.3.8-.1 1.7.4 2 1.8 1.1.4 19.5-2.1 27-1.2 3.8-2.6 7.2-2.9 7.5-.4.3-1.5 2.1-2.4 4.1-.9 2-3.2 5.2-5 7.3-1.9 2-3.2 3.6-2.9 3.6.2 0-1.7 1.8-4.4 4-7.2 6-7.1 6-8.3 6-.5 0-1 .4-1 .8 0 .9-7.4 4.2-11.5 5.2-.5.1-1.7.6-2.7 1.1-.9.5-3.8 1.1-6.5 1.4-2.6.3-78 .7-167.6.8L0 553.5v145c0 153.6-.1 150.1 4.5 161.8.8 2 1.1 3.7.7 3.7-.4 0-.1.4.6.9.7.4 1.4 1.4 1.6 2.2.3 2 3.6 8 5.2 9.7.8.7 1.4 1.7 1.4 2.2 0 2.6 14.7 17 22.8 22.2 16.1 10.5 33 14.3 54.2 12.3 10.7-1 23.4-6.1 35.5-14.1 12.5-8.3 26.1-26.7 30-40.7.2-.4.3-.8.5-1 .2-.3 1.2-4.3 2.7-11.2.3-1.7.6-32.1.7-67.7.1-35.7.3-64.9.6-64.9.3-.1 40.5-.3 89.5-.5s90.8-.5 93-.8c12-1.5 20.9-2.8 21.6-3.2.4-.2 2.3-.6 4.2-.9 12.5-2 37-10.9 52.5-19 11.8-6.3 26.2-15.4 26.2-16.7 0-.5.4-.7.8-.4.5.3 2-.5 3.2-1.7 1.3-1.2 3.6-3.1 5-4.2 12.2-9.2 31.2-28.4 40.7-41 7.4-9.9 9.2-12.5 8.5-12.5-.4 0-.2-.4.5-.8 2.4-1.5 16.3-27.3 16.3-30.2 0-.6.5-1 1-1 .6 0 1-.6 1-1.2 0-1 2.6-8.7 5.7-16.8.8-1.9.7-1.8 1.7-6 .5-1.9 1.1-4 1.4-4.5.4-.6.7-1.5.8-2 .8-4.6 1.5-8.6 2.3-11.7.5-2 .6-3.9.3-4.2-.3-.4-.1-.6.4-.6s1-1.5 1-3.3c.1-1.7.4-4.6.7-6.2 1.9-9.5 2.6-38.9 1.2-51.5-1.2-11.5-2.8-22.9-4-28-.3-1.4-.8-3.6-1.1-5-.6-2.9-4.2-15.8-5.1-18-.3-.8-.7-2-.9-2.5-.6-2.4-7.5-18.8-9.6-22.7-1.2-2.4-2.2-4.5-2.3-4.8 0-.3-.8-1.6-1.6-3-.9-1.4-3.8-6.1-6.5-10.5-13.3-21.9-36-46.4-58.3-63.1-4.7-3.6-9.7-7.4-11.1-8.4-1.4-1.1-2.9-2-3.4-2s-1.7-.6-2.5-1.4c-.9-.7-4.5-2.9-8.1-4.8-3.6-2-8.2-4.5-10.2-5.6-2.1-1.2-3.8-1.9-3.8-1.7 0 .3-1.9-.4-4.2-1.6-4-2-22-8.6-25.6-9.3-.9-.1-2.4-.6-3.2-.9-1.4-.5-12.1-2.9-14.5-3.2-.5 0-3.2-.5-6-1-2.7-.5-5.8-1-6.7-1.1-1-.1-1.9-.2-2-.3-1.5-1-32.3-1.3-143.6-1.4-71.7-.1-130.4-.1-130.5-.1z"/></svg>