<?xml version="1.0" standalone="no"?>
<!DOCTYPE svg PUBLIC "-//W3C//DTD SVG 20010904//EN"
 "http://www.w3.org/TR/2001/REC-SVG-20010904/DTD/svg10.dtd">
<svg version="1.0" xmlns="http://www.w3.org/2000/svg"
 width="1024.000000pt" height="1024.000000pt" viewBox="0 0 1024.000000 1024.000000"
 preserveAspectRatio="xMidYMid meet">
<metadata>
Created by potrace 1.14, written by Peter Selinger 2001-2017
</metadata>
<g transform="translate(0.000000,1024.000000) scale(0.100000,-0.100000)"
fill="#000000" stroke="none">
<path d="M7721 9324 l-585 -583 40 -39 c56 -55 233 -250 264 -291 9 -11 29
-35 45 -53 17 -19 52 -63 80 -98 27 -36 53 -66 57 -68 5 -2 8 -10 8 -17 0 -7
3 -15 8 -17 7 -3 77 -96 97 -129 6 -9 31 -47 56 -85 61 -91 103 -158 104 -164
0 -3 12 -23 26 -45 14 -22 48 -80 74 -130 27 -49 53 -93 59 -97 6 -4 8 -8 4
-8 -4 0 12 -39 36 -87 61 -123 81 -169 133 -302 44 -112 113 -305 117 -326 1
-5 5 -16 9 -22 5 -7 6 -13 3 -13 -3 0 -1 -12 5 -27 6 -16 12 -35 14 -43 2 -8
17 -67 34 -130 17 -63 38 -151 47 -195 9 -44 18 -89 20 -100 2 -11 7 -36 9
-55 3 -19 8 -46 11 -59 3 -13 7 -44 10 -70 2 -25 6 -57 9 -71 11 -55 33 -261
41 -396 8 -129 8 -560 0 -689 -8 -125 -8 -129 -22 -260 -5 -44 -8 -95 -9 -112
0 -18 -3 -33 -6 -33 -3 0 -6 -6 -6 -12 -1 -21 -12 -112 -16 -133 -3 -11 -8
-42 -12 -70 -8 -49 -10 -57 -15 -72 -1 -5 -2 -11 -1 -16 1 -4 -4 -26 -9 -50
-6 -23 -13 -53 -16 -67 -3 -14 -19 -79 -36 -145 -17 -66 -31 -126 -31 -132 0
-7 -4 -13 -9 -13 -5 0 -7 -4 -4 -9 4 -5 1 -22 -5 -38 -7 -15 -13 -33 -14 -39
-6 -26 -87 -262 -101 -292 -9 -18 -17 -41 -19 -51 -2 -10 -8 -27 -14 -37 -6
-11 -21 -46 -35 -79 -37 -91 -128 -279 -138 -286 -6 -3 -9 -9 -9 -13 1 -6 -43
-95 -66 -131 -7 -11 -16 -29 -22 -41 -9 -20 -158 -259 -173 -279 -4 -5 -44
-62 -89 -125 -44 -63 -87 -120 -95 -126 -7 -6 -11 -14 -7 -17 3 -4 1 -7 -5 -7
-5 0 -20 -15 -31 -32 -11 -18 -30 -44 -43 -58 -13 -14 -48 -54 -78 -90 -63
-75 -84 -99 -178 -198 l-69 -74 94 -91 c52 -51 165 -161 251 -245 346 -339
721 -704 784 -766 l68 -65 57 61 c32 34 72 76 88 93 17 17 57 62 90 99 33 38
69 78 80 91 70 78 257 314 335 425 41 58 77 107 80 110 3 3 17 23 30 45 13 22
27 42 31 45 3 3 21 30 40 60 44 72 76 122 89 137 5 7 10 15 10 18 0 5 36 66
77 131 7 10 27 46 44 79 17 33 35 62 39 65 4 3 11 16 15 30 4 14 11 30 16 36
19 24 118 224 111 224 -4 0 -2 4 3 8 15 11 85 160 85 181 0 6 5 11 10 11 6 0
9 3 8 8 -1 7 6 28 22 67 44 102 132 327 136 348 1 4 3 9 4 12 1 3 3 8 4 13 1
4 13 39 26 77 13 39 25 72 25 75 3 14 47 158 55 180 5 14 11 36 14 50 2 14 9
37 15 53 6 15 8 27 6 27 -2 0 0 12 6 28 11 28 18 52 23 87 2 11 13 58 24 105
23 95 31 133 37 170 3 14 9 45 14 70 5 25 12 63 15 84 4 21 9 48 11 60 3 12 7
38 10 59 3 20 7 54 10 75 13 89 16 109 20 147 3 22 7 58 10 80 2 22 7 69 10
105 3 36 8 83 10 105 13 132 19 328 20 610 0 356 -11 573 -40 800 -3 22 -7 60
-9 85 -7 68 -17 140 -31 218 -13 72 -26 150 -30 177 -2 17 -13 75 -25 130 -24
112 -24 113 -39 175 -11 43 -15 62 -26 113 -2 12 -10 42 -18 67 -8 25 -15 48
-16 53 -2 20 -14 63 -20 72 -3 6 -7 18 -8 28 -4 24 -70 235 -90 287 -3 8 -7
20 -8 25 -4 18 -117 308 -138 355 -11 25 -21 47 -22 50 -11 32 -62 144 -106
233 -16 31 -25 57 -21 57 4 0 3 4 -3 8 -5 4 -21 27 -33 52 -74 142 -116 221
-142 265 -16 28 -37 65 -46 83 -9 17 -19 32 -23 32 -4 0 -13 16 -21 35 -8 19
-17 35 -22 35 -4 0 -8 6 -8 13 0 7 -9 23 -20 35 -12 12 -18 22 -16 22 8 0
-178 271 -277 404 -91 122 -235 303 -272 342 -11 11 -45 50 -75 85 -129 150
-295 319 -312 318 -7 -1 -276 -264 -597 -585z"/>
<path d="M6373 8398 c-67 -71 -256 -248 -265 -248 -4 0 -8 -7 -8 -15 0 -8 -3
-15 -7 -15 -8 0 -40 -31 -389 -365 -97 -93 -200 -192 -229 -220 -29 -27 -103
-98 -164 -158 l-112 -107 78 -83 c108 -114 142 -153 191 -217 23 -30 46 -59
50 -65 28 -35 136 -201 166 -255 20 -36 41 -72 46 -80 9 -14 52 -108 97 -210
25 -55 44 -113 40 -121 -1 -3 3 -12 9 -20 6 -8 22 -50 34 -94 12 -44 25 -87
28 -95 5 -15 7 -26 16 -72 3 -13 5 -23 6 -23 4 0 32 -160 46 -265 25 -184 24
-602 -2 -770 -10 -66 -23 -145 -28 -166 -2 -12 -7 -37 -10 -55 -3 -19 -8 -43
-11 -54 -2 -11 -9 -40 -15 -65 -11 -45 -36 -131 -47 -160 -4 -8 -7 -17 -8 -20
0 -3 -9 -30 -19 -60 -18 -52 -33 -89 -86 -205 -13 -27 -24 -52 -24 -55 -1 -3
-11 -21 -24 -41 -12 -20 -22 -39 -22 -42 0 -21 -191 -313 -237 -362 -10 -11
-26 -30 -34 -42 -24 -35 -108 -131 -167 -190 l-54 -54 55 -52 c30 -29 110
-104 177 -167 68 -63 137 -128 155 -145 57 -54 318 -299 351 -330 17 -16 87
-82 153 -145 67 -63 141 -133 165 -155 23 -22 74 -70 113 -107 l70 -67 114
120 c129 136 119 125 179 199 25 30 47 57 51 60 3 3 49 64 102 135 53 72 103
138 111 148 9 9 16 19 16 23 0 3 17 31 39 62 39 58 181 299 181 308 0 2 11 22
25 44 14 22 23 40 19 40 -3 0 4 13 15 29 11 15 18 30 15 33 -2 3 2 11 11 18 8
7 15 18 15 24 0 7 14 40 30 74 17 34 30 64 30 66 0 2 8 21 17 42 9 22 17 41
18 44 1 3 6 16 12 30 20 47 95 260 98 277 2 10 4 19 5 21 2 1 4 7 5 12 1 6 4
12 5 15 1 3 3 8 4 13 1 4 9 32 18 62 10 30 20 69 23 85 7 36 9 44 18 70 3 11
8 31 11 45 2 14 12 61 21 105 24 113 24 115 31 165 3 25 8 54 10 65 11 57 31
231 29 260 0 14 2 25 5 25 21 0 17 717 -5 880 -2 19 -7 55 -9 80 -7 70 -16
143 -22 170 -13 70 -16 87 -19 105 -10 63 -17 104 -25 135 -5 19 -11 47 -14
62 -2 15 -7 32 -10 37 -4 5 -8 22 -11 38 -7 45 -16 87 -22 103 -4 8 -7 17 -7
20 -9 41 -31 108 -39 118 -5 6 -7 12 -3 12 5 0 -34 119 -71 215 -8 22 -19 49
-23 60 -14 37 -28 69 -59 138 -17 37 -31 70 -31 73 0 18 -169 336 -184 346 -6
4 -8 8 -4 8 7 0 -27 57 -50 85 -4 6 -8 13 -8 17 1 4 -7 17 -16 28 -10 11 -18
22 -18 25 0 4 -68 106 -92 140 -4 5 -32 44 -62 85 -30 41 -59 80 -63 85 -4 6
-26 33 -48 60 -22 28 -44 55 -50 61 -5 7 -26 31 -45 55 -79 97 -293 319 -308
319 -5 0 -27 -19 -49 -42z"/>
<path d="M757 7514 c-1 -1 -27 -4 -57 -7 -30 -3 -75 -12 -100 -20 -25 -7 -47
-14 -50 -15 -41 -8 -148 -61 -205 -101 -52 -36 -195 -176 -195 -191 0 -5 -6
-15 -13 -22 -19 -19 -89 -164 -103 -213 -30 -105 -33 -163 -34 -593 l0 -442
1637 0 c901 0 1645 -1 1653 -3 8 -2 33 -7 55 -12 22 -4 45 -10 50 -14 6 -3 12
-6 15 -7 3 0 18 -6 33 -12 16 -7 33 -12 38 -12 5 0 9 -4 9 -9 0 -5 15 -15 33
-22 57 -23 178 -156 219 -239 43 -89 62 -146 54 -165 -3 -8 -1 -17 4 -20 18
-11 4 -195 -21 -270 -12 -38 -26 -72 -29 -75 -4 -3 -15 -21 -24 -41 -9 -20
-32 -52 -50 -73 -19 -20 -32 -36 -29 -36 2 0 -17 -18 -44 -40 -72 -60 -71 -60
-83 -60 -5 0 -10 -4 -10 -8 0 -9 -74 -42 -115 -52 -5 -1 -17 -6 -27 -11 -9 -5
-38 -11 -65 -14 -26 -3 -780 -7 -1676 -8 l-1627 -2 0 -1450 c0 -1536 -1 -1501
45 -1618 8 -20 11 -37 7 -37 -4 0 -1 -4 6 -9 7 -4 14 -14 16 -22 3 -20 36 -80
52 -97 8 -7 14 -17 14 -22 0 -26 147 -170 228 -222 161 -105 330 -143 542
-123 107 10 234 61 355 141 125 83 261 267 300 407 2 4 3 8 5 10 2 3 12 43 27
112 3 17 6 321 7 677 1 357 3 649 6 649 3 1 405 3 895 5 490 2 908 5 930 8
120 15 209 28 216 32 4 2 23 6 42 9 125 20 370 109 525 190 118 63 262 154
262 167 0 5 4 7 8 4 5 -3 20 5 32 17 13 12 36 31 50 42 122 92 312 284 407
410 74 99 92 125 85 125 -4 0 -2 4 5 8 24 15 163 273 163 302 0 6 5 10 10 10
6 0 10 6 10 12 0 10 26 87 57 168 8 19 7 18 17 60 5 19 11 40 14 45 4 6 7 15
8 20 8 46 15 86 23 117 5 20 6 39 3 42 -3 4 -1 6 4 6 5 0 10 15 10 33 1 17 4
46 7 62 19 95 26 389 12 515 -12 115 -28 229 -40 280 -3 14 -8 36 -11 50 -6
29 -42 158 -51 180 -3 8 -7 20 -9 25 -6 24 -75 188 -96 227 -12 24 -22 45 -23
48 0 3 -8 16 -16 30 -9 14 -38 61 -65 105 -133 219 -360 464 -583 631 -47 36
-97 74 -111 84 -14 11 -29 20 -34 20 -5 0 -17 6 -25 14 -9 7 -45 29 -81 48
-36 20 -82 45 -102 56 -21 12 -38 19 -38 17 0 -3 -19 4 -42 16 -40 20 -220 86
-256 93 -9 1 -24 6 -32 9 -14 5 -121 29 -145 32 -5 0 -32 5 -60 10 -27 5 -58
10 -67 11 -10 1 -19 2 -20 3 -15 10 -323 13 -1436 14 -717 1 -1304 1 -1305 1z"/>
</g>
</svg>
