<svg width="238" height="66" fill="none" xmlns="http://www.w3.org/2000/svg"><g clip-path="url(#a)"><g filter="url(#b)"><path fill-rule="evenodd" clip-rule="evenodd" d="M26.5.622C11.864.622 0 12.486 0 27.122v11.664c0 14.635 11.864 26.5 26.5 26.5h146.092c.962 4.239 3.879 7.32 7.328 7.32 3.449 0 6.366-3.081 7.329-7.32h23.439c14.636 0 26.5-11.865 26.5-26.5V27.122c0-14.636-11.864-26.5-26.5-26.5H26.5Z" fill="#fff"/></g><g filter="url(#c)"><ellipse cx="200.663" cy="61.431" rx="4.058" ry="4.178" fill="#fff"/></g><path d="M56.9 19.502v11.12h-1.823v-11.12H56.9Zm5.944 6.704c0-.907.181-1.701.544-2.384a3.967 3.967 0 0 1 1.536-1.6c.65-.373 1.397-.56 2.24-.56 1.067 0 1.947.256 2.64.768.704.501 1.178 1.221 1.424 2.16H69.26a2.08 2.08 0 0 0-.768-1.024c-.352-.245-.795-.368-1.328-.368-.747 0-1.344.267-1.792.8-.438.523-.656 1.259-.656 2.208 0 .95.219 1.69.656 2.224.448.533 1.045.8 1.792.8 1.056 0 1.754-.464 2.096-1.392h1.968c-.256.896-.736 1.61-1.44 2.144-.704.523-1.579.784-2.624.784-.843 0-1.59-.187-2.24-.56a4.107 4.107 0 0 1-1.536-1.6c-.363-.693-.544-1.493-.544-2.4Zm9.594-.032c0-.885.18-1.67.544-2.352a4.063 4.063 0 0 1 3.616-2.16c.693 0 1.296.139 1.808.416.522.267.938.603 1.248 1.008v-1.28h1.84v8.816h-1.84V29.31c-.31.416-.731.763-1.264 1.04-.534.277-1.142.416-1.824.416-.758 0-1.451-.192-2.08-.576a4.275 4.275 0 0 1-1.504-1.632c-.363-.704-.544-1.499-.544-2.384Zm7.216.032c0-.608-.128-1.136-.384-1.584a2.584 2.584 0 0 0-.976-1.024 2.574 2.574 0 0 0-1.312-.352c-.47 0-.907.117-1.312.352-.406.224-.736.56-.992 1.008-.246.437-.368.96-.368 1.568 0 .608.122 1.141.368 1.6.256.459.586.81.992 1.056.416.235.853.352 1.312.352.469 0 .906-.117 1.312-.352.405-.235.73-.576.976-1.024.256-.459.384-.992.384-1.6Zm8.683-4.544c.694 0 1.312.144 1.856.432a3.06 3.06 0 0 1 1.296 1.28c.31.565.464 1.248.464 2.048v5.2h-1.808v-4.928c0-.79-.197-1.392-.592-1.808-.394-.427-.933-.64-1.616-.64-.682 0-1.226.213-1.632.64-.394.416-.592 1.019-.592 1.808v4.928H83.89v-8.816h1.824v1.008a3.032 3.032 0 0 1 1.136-.848c.47-.203.966-.304 1.488-.304Zm9.491 4.512c0-.885.181-1.67.544-2.352a4.063 4.063 0 0 1 3.632-2.16c.576 0 1.142.128 1.696.384.566.245 1.014.576 1.344.992v-4.256h1.84v11.84h-1.84v-1.328c-.298.427-.714.779-1.248 1.056-.522.277-1.125.416-1.808.416a4.027 4.027 0 0 1-2.112-.576 4.275 4.275 0 0 1-1.504-1.632c-.362-.704-.544-1.499-.544-2.384Zm7.216.032c0-.608-.128-1.136-.384-1.584a2.577 2.577 0 0 0-.976-1.024 2.571 2.571 0 0 0-1.312-.352c-.469 0-.906.117-1.312.352a2.58 2.58 0 0 0-.992 1.008c-.245.437-.368.96-.368 1.568 0 .608.123 1.141.368 1.6.256.459.587.81.992 1.056.416.235.854.352 1.312.352.47 0 .907-.117 1.312-.352.406-.235.731-.576.976-1.024.256-.459.384-.992.384-1.6Zm12.316-.208c0 .33-.021.63-.064.896h-6.736c.053.704.315 1.27.784 1.696.469.427 1.045.64 1.728.64.981 0 1.675-.41 2.08-1.232h1.968a4 4 0 0 1-1.456 2c-.693.512-1.557.768-2.592.768-.843 0-1.6-.187-2.272-.56a4.188 4.188 0 0 1-1.568-1.6c-.373-.693-.56-1.493-.56-2.4 0-.907.181-1.701.544-2.384a3.936 3.936 0 0 1 1.552-1.6c.672-.373 1.44-.56 2.304-.56.832 0 1.573.181 2.224.544a3.83 3.83 0 0 1 1.52 1.536c.363.65.544 1.403.544 2.256Zm-1.904-.576c-.011-.672-.251-1.21-.72-1.616-.469-.405-1.051-.608-1.744-.608-.629 0-1.168.203-1.616.608-.448.395-.715.933-.8 1.616h4.88Zm6.899 5.344c-.693 0-1.317-.123-1.872-.368-.544-.256-.976-.597-1.296-1.024a2.589 2.589 0 0 1-.512-1.456h1.888c.032.373.208.688.528.944.331.245.741.368 1.232.368.512 0 .907-.096 1.184-.288.288-.203.432-.459.432-.768 0-.33-.16-.576-.48-.736-.309-.16-.805-.336-1.488-.528a14.49 14.49 0 0 1-1.616-.528 2.898 2.898 0 0 1-1.088-.784c-.299-.352-.448-.816-.448-1.392 0-.47.139-.896.416-1.28.277-.395.672-.704 1.184-.928.523-.224 1.12-.336 1.792-.336 1.003 0 1.808.256 2.416.768.619.501.949 1.19.992 2.064h-1.824a1.299 1.299 0 0 0-.48-.944c-.288-.235-.677-.352-1.168-.352-.48 0-.848.09-1.104.272a.842.842 0 0 0-.384.72c0 .235.085.432.256.592.171.16.379.288.624.384.245.085.608.197 1.088.336.64.17 1.163.347 1.568.528.416.17.773.427 1.072.768.299.341.453.795.464 1.36 0 .501-.139.95-.416 1.344-.277.395-.672.704-1.184.928-.501.224-1.093.336-1.776.336Zm6.275-10.128a1.13 1.13 0 0 1-.832-.336 1.13 1.13 0 0 1-.336-.832c0-.33.112-.608.336-.832a1.13 1.13 0 0 1 .832-.336c.32 0 .592.112.816.336.224.224.336.501.336.832 0 .33-.112.608-.336.832a1.11 1.11 0 0 1-.816.336Zm.896 1.168v8.816h-1.824v-8.816h1.824Zm5.947-.144c.682 0 1.285.139 1.808.416.533.267.949.603 1.248 1.008v-1.28h1.84v8.96c0 .81-.171 1.53-.512 2.16a3.682 3.682 0 0 1-1.488 1.504c-.64.363-1.408.544-2.304.544-1.195 0-2.187-.283-2.976-.848-.79-.555-1.238-1.312-1.344-2.272h1.808c.138.459.432.827.88 1.104.458.288 1.002.432 1.632.432.736 0 1.328-.224 1.776-.672.458-.448.688-1.099.688-1.952v-1.472c-.31.416-.731.768-1.264 1.056-.523.277-1.12.416-1.792.416a4.028 4.028 0 0 1-2.112-.576 4.268 4.268 0 0 1-1.504-1.632c-.363-.704-.544-1.499-.544-2.384 0-.885.181-1.67.544-2.352a4.056 4.056 0 0 1 3.616-2.16Zm3.056 4.544c0-.608-.128-1.136-.384-1.584a2.59 2.59 0 0 0-.976-1.024 2.577 2.577 0 0 0-1.312-.352c-.47 0-.907.117-1.312.352-.406.224-.736.56-.992 1.008-.246.437-.368.96-.368 1.568 0 .608.122 1.141.368 1.6.256.459.586.81.992 1.056.416.235.853.352 1.312.352.469 0 .906-.117 1.312-.352.405-.235.73-.576.976-1.024.256-.459.384-.992.384-1.6Zm8.683-4.544c.694 0 1.312.144 1.856.432.555.288.987.715 1.296 1.28.31.565.464 1.248.464 2.048v5.2h-1.808v-4.928c0-.79-.197-1.392-.592-1.808-.394-.427-.933-.64-1.616-.64-.682 0-1.226.213-1.632.64-.394.416-.592 1.019-.592 1.808v4.928h-1.824v-8.816h1.824v1.008a3.04 3.04 0 0 1 1.136-.848c.47-.203.966-.304 1.488-.304Zm18.035.144-5.408 12.96h-1.888l1.792-4.288-3.472-8.672h2.032l2.48 6.72 2.576-6.72h1.888Zm5.201 8.96c-.832 0-1.584-.187-2.256-.56a4.152 4.152 0 0 1-1.584-1.6c-.384-.693-.576-1.493-.576-2.4 0-.896.197-1.69.592-2.384a4.082 4.082 0 0 1 1.616-1.6c.682-.373 1.445-.56 2.288-.56.842 0 1.605.187 2.288.56a4.095 4.095 0 0 1 1.616 1.6c.394.693.592 1.488.592 2.384 0 .896-.203 1.69-.608 2.384a4.256 4.256 0 0 1-1.664 1.616 4.785 4.785 0 0 1-2.304.56Zm0-1.584c.469 0 .906-.112 1.312-.336.416-.224.752-.56 1.008-1.008.256-.448.384-.992.384-1.632 0-.64-.123-1.179-.368-1.616a2.479 2.479 0 0 0-.976-1.008 2.672 2.672 0 0 0-1.312-.336c-.47 0-.907.112-1.312.336-.395.224-.71.56-.944 1.008-.235.437-.352.976-.352 1.616 0 .95.24 1.685.72 2.208.49.512 1.104.768 1.84.768Zm14.363-7.376v8.816h-1.824v-1.04c-.288.363-.667.65-1.136.864-.459.203-.95.304-1.472.304-.694 0-1.318-.144-1.872-.432a3.184 3.184 0 0 1-1.296-1.28c-.31-.565-.464-1.248-.464-2.048v-5.184h1.808v4.912c0 .79.197 1.397.592 1.824.394.416.933.624 1.616.624.682 0 1.221-.208 1.616-.624.405-.427.608-1.035.608-1.824v-4.912h1.824Zm-83.082 24-2.736 8.816h-1.92l-1.776-6.512-1.776 6.512h-1.92l-2.752-8.816h1.856l1.84 7.088 1.872-7.088h1.904l1.792 7.056 1.824-7.056h1.792Zm9.443 4.192c0 .33-.021.63-.064.896h-6.736c.054.704.315 1.27.784 1.696.47.427 1.046.64 1.728.64.982 0 1.675-.41 2.08-1.232h1.968a3.994 3.994 0 0 1-1.456 2c-.693.512-1.557.768-2.592.768-.842 0-1.6-.187-2.272-.56a4.188 4.188 0 0 1-1.568-1.6c-.373-.693-.56-1.493-.56-2.4 0-.907.182-1.701.544-2.384a3.942 3.942 0 0 1 1.552-1.6c.672-.373 1.44-.56 2.304-.56.832 0 1.574.181 2.224.544a3.823 3.823 0 0 1 1.52 1.536c.363.65.544 1.403.544 2.256Zm-1.904-.576c-.01-.672-.25-1.21-.72-1.616-.469-.405-1.05-.608-1.744-.608-.629 0-1.168.203-1.616.608-.448.395-.714.933-.8 1.616h4.88Zm5.523-2.304c.31-.427.731-.773 1.264-1.04a3.923 3.923 0 0 1 1.808-.416c.779 0 1.483.187 2.112.56.63.373 1.126.907 1.488 1.6.363.683.544 1.467.544 2.352 0 .885-.181 1.68-.544 2.384a4.112 4.112 0 0 1-1.504 1.632 3.945 3.945 0 0 1-2.096.576c-.682 0-1.29-.133-1.824-.4a3.52 3.52 0 0 1-1.248-1.024v1.28h-1.824v-11.84h1.824v4.336Zm5.36 3.056c0-.608-.128-1.13-.384-1.568a2.441 2.441 0 0 0-.992-1.008 2.571 2.571 0 0 0-1.312-.352c-.458 0-.896.117-1.312.352a2.698 2.698 0 0 0-.992 1.024c-.245.448-.368.976-.368 1.584 0 .608.123 1.141.368 1.6.256.448.587.79.992 1.024.416.235.854.352 1.312.352.47 0 .907-.117 1.312-.352.416-.245.747-.597.992-1.056.256-.459.384-.992.384-1.6Zm6.86 4.592c-.693 0-1.317-.123-1.872-.368-.544-.256-.976-.597-1.296-1.024a2.596 2.596 0 0 1-.512-1.456h1.888c.032.373.208.688.528.944.331.245.742.368 1.232.368.512 0 .907-.096 1.184-.288.288-.203.432-.459.432-.768 0-.33-.16-.576-.48-.736-.309-.16-.805-.336-1.488-.528a14.49 14.49 0 0 1-1.616-.528 2.906 2.906 0 0 1-1.088-.784c-.298-.352-.448-.816-.448-1.392 0-.47.139-.896.416-1.28.278-.395.672-.704 1.184-.928.523-.224 1.12-.336 1.792-.336 1.003 0 1.808.256 2.416.768.619.501.95 1.19.992 2.064h-1.824a1.299 1.299 0 0 0-.48-.944c-.288-.235-.677-.352-1.168-.352-.48 0-.848.09-1.104.272a.842.842 0 0 0-.384.72c0 .235.086.432.256.592.171.16.379.288.624.384.246.085.608.197 1.088.336.64.17 1.163.347 1.568.528.416.17.774.427 1.072.768.299.341.454.795.464 1.36 0 .501-.138.95-.416 1.344-.277.395-.672.704-1.184.928-.501.224-1.093.336-1.776.336Zm6.275-10.128a1.13 1.13 0 0 1-.832-.336 1.13 1.13 0 0 1-.336-.832c0-.33.112-.608.336-.832a1.13 1.13 0 0 1 .832-.336c.32 0 .592.112.816.336.224.224.336.501.336.832 0 .33-.112.608-.336.832a1.11 1.11 0 0 1-.816.336Zm.896 1.168v8.816h-1.824v-8.816h1.824Zm4.523 1.488v4.88c0 .33.075.57.224.72.16.139.427.208.8.208h1.12v1.52h-1.44c-.821 0-1.451-.192-1.888-.576-.437-.384-.656-1.008-.656-1.872v-4.88h-1.04v-1.488h1.04v-2.192h1.84v2.192h2.144v1.488h-2.144Zm11.905 2.704c0 .33-.021.63-.064.896h-6.736c.053.704.315 1.27.784 1.696.469.427 1.045.64 1.728.64.981 0 1.675-.41 2.08-1.232h1.968a4 4 0 0 1-1.456 2c-.693.512-1.557.768-2.592.768-.843 0-1.6-.187-2.272-.56a4.188 4.188 0 0 1-1.568-1.6c-.373-.693-.56-1.493-.56-2.4 0-.907.181-1.701.544-2.384a3.936 3.936 0 0 1 1.552-1.6c.672-.373 1.44-.56 2.304-.56.832 0 1.573.181 2.224.544a3.83 3.83 0 0 1 1.52 1.536c.363.65.544 1.403.544 2.256Zm-1.904-.576c-.011-.672-.251-1.21-.72-1.616-.469-.405-1.051-.608-1.744-.608-.629 0-1.168.203-1.616.608-.448.395-.715.933-.8 1.616h4.88Z" fill="#2F281E"/></g><defs><filter id="b" x="-8" y="-5.378" width="253.188" height="87.984" filterUnits="userSpaceOnUse" color-interpolation-filters="sRGB"><feFlood flood-opacity="0" result="BackgroundImageFix"/><feColorMatrix in="SourceAlpha" values="0 0 0 0 0 0 0 0 0 0 0 0 0 0 0 0 0 0 127 0" result="hardAlpha"/><feOffset dy="2"/><feGaussianBlur stdDeviation="4"/><feColorMatrix values="0 0 0 0 0.337255 0 0 0 0 0.458824 0 0 0 0 0.572549 0 0 0 0.1 0"/><feBlend in2="BackgroundImageFix" result="effect1_dropShadow_17_1318"/><feBlend in="SourceGraphic" in2="effect1_dropShadow_17_1318" result="shape"/></filter><filter id="c" x="181.605" y="44.253" width="38.117" height="38.355" filterUnits="userSpaceOnUse" color-interpolation-filters="sRGB"><feFlood flood-opacity="0" result="BackgroundImageFix"/><feColorMatrix in="SourceAlpha" values="0 0 0 0 0 0 0 0 0 0 0 0 0 0 0 0 0 0 127 0" result="hardAlpha"/><feOffset dy="2"/><feGaussianBlur stdDeviation="7.5"/><feColorMatrix values="0 0 0 0 0.0901961 0 0 0 0 0.227451 0 0 0 0 0.337255 0 0 0 0.1 0"/><feBlend in2="BackgroundImageFix" result="effect1_dropShadow_17_1318"/><feBlend in="SourceGraphic" in2="effect1_dropShadow_17_1318" result="shape"/></filter><clipPath id="a"><path fill="#fff" transform="translate(0 .622)" d="M0 0h237.188v64.987H0z"/></clipPath></defs></svg>