<svg width="240" height="71" fill="none" xmlns="http://www.w3.org/2000/svg"><g clip-path="url(#a)"><g filter="url(#b)"><path fill-rule="evenodd" clip-rule="evenodd" d="M26.5.759C11.864.759 0 12.623 0 27.259c0 14.635 11.864 26.5 26.5 26.5h160.874a8.503 8.503 0 0 0 16.252 0h9.874c14.636 0 26.5-11.865 26.5-26.5 0-14.636-11.864-26.5-26.5-26.5h-187Z" fill="#fff"/></g><g filter="url(#c)"><circle cx="218.5" cy="66.258" r="4.5" fill="#fff"/></g><path d="M25.235 22.639v11.12H23.41v-11.12h1.824Zm5.943 6.704c0-.907.181-1.702.544-2.384a3.969 3.969 0 0 1 1.536-1.6c.65-.374 1.397-.56 2.24-.56 1.067 0 1.947.256 2.64.768.704.5 1.179 1.22 1.424 2.16h-1.968a2.082 2.082 0 0 0-.768-1.024c-.352-.246-.795-.369-1.328-.369-.747 0-1.344.267-1.792.8-.437.523-.656 1.26-.656 2.209 0 .949.219 1.69.656 2.224.448.533 1.045.8 1.792.8 1.056 0 1.755-.464 2.096-1.392h1.968c-.256.895-.736 1.61-1.44 2.143-.704.523-1.579.785-2.624.785-.843 0-1.59-.187-2.24-.56a4.107 4.107 0 0 1-1.536-1.6c-.363-.694-.544-1.494-.544-2.4Zm9.594-.032c0-.886.181-1.67.544-2.352a4.064 4.064 0 0 1 3.616-2.16c.693 0 1.296.138 1.808.416.522.266.938.602 1.248 1.008v-1.28h1.84v8.815h-1.84v-1.312c-.31.416-.731.763-1.264 1.04-.534.278-1.142.417-1.824.417-.758 0-1.451-.192-2.08-.576a4.274 4.274 0 0 1-1.504-1.632c-.363-.704-.544-1.5-.544-2.384Zm7.216.032c0-.608-.128-1.137-.384-1.584a2.584 2.584 0 0 0-.976-1.024 2.575 2.575 0 0 0-1.312-.352c-.47 0-.907.117-1.312.352-.406.224-.736.56-.992 1.008-.246.437-.368.96-.368 1.568 0 .608.122 1.14.368 1.6.256.458.586.81.992 1.055.416.235.853.352 1.312.352.469 0 .906-.117 1.312-.351.405-.235.73-.576.976-1.024.256-.46.384-.992.384-1.6Zm8.683-4.544c.694 0 1.312.143 1.856.431a3.06 3.06 0 0 1 1.296 1.28c.31.566.464 1.248.464 2.048v5.2H58.48V28.83c0-.789-.197-1.391-.592-1.807-.394-.427-.933-.64-1.616-.64-.682 0-1.226.213-1.632.64-.394.416-.592 1.018-.592 1.808v4.927h-1.824v-8.816h1.824v1.009a3.034 3.034 0 0 1 1.136-.849c.47-.202.966-.303 1.488-.303Zm11.923 1.44c.31-.406.731-.747 1.264-1.024.534-.278 1.136-.416 1.808-.416.768 0 1.467.192 2.096.576.64.373 1.142.9 1.504 1.584.363.682.544 1.466.544 2.352 0 .885-.181 1.68-.544 2.384a4.116 4.116 0 0 1-1.504 1.632 3.945 3.945 0 0 1-2.096.576c-.672 0-1.269-.134-1.792-.4a4.109 4.109 0 0 1-1.28-1.025v5.472H66.77V24.942h1.824v1.296Zm5.36 3.072c0-.608-.128-1.131-.384-1.569a2.443 2.443 0 0 0-.992-1.008 2.575 2.575 0 0 0-1.312-.352c-.458 0-.896.118-1.312.352a2.697 2.697 0 0 0-.992 1.024c-.245.448-.368.977-.368 1.585s.123 1.14.368 1.6c.256.447.587.789.992 1.023.416.235.854.352 1.312.352.47 0 .907-.117 1.312-.351.416-.246.747-.598.992-1.056.256-.46.384-.992.384-1.6Zm5.484-3.088a2.82 2.82 0 0 1 1.056-1.04c.448-.256.976-.384 1.584-.384v1.887h-.464c-.715 0-1.259.182-1.632.544-.363.363-.544.992-.544 1.889v4.64h-1.824v-8.817h1.824v1.28Zm8.14 7.68c-.831 0-1.583-.187-2.255-.56a4.151 4.151 0 0 1-1.584-1.6c-.384-.694-.576-1.494-.576-2.4 0-.896.197-1.691.592-2.384a4.09 4.09 0 0 1 1.616-1.6c.682-.374 1.445-.56 2.288-.56.842 0 1.605.186 2.288.56a4.09 4.09 0 0 1 1.616 1.6c.394.693.592 1.488.592 2.384 0 .895-.203 1.69-.608 2.384a4.25 4.25 0 0 1-1.664 1.616 4.78 4.78 0 0 1-2.304.56Zm0-1.584c.47 0 .907-.113 1.313-.337.416-.223.752-.56 1.008-1.008.256-.448.384-.991.384-1.631s-.123-1.18-.368-1.616a2.473 2.473 0 0 0-.976-1.009 2.67 2.67 0 0 0-1.312-.335c-.47 0-.907.111-1.312.335-.395.224-.71.56-.944 1.009-.235.437-.352.976-.352 1.616 0 .949.24 1.685.72 2.207.49.512 1.104.768 1.84.768Zm8.508-5.889v4.88c0 .331.075.571.224.72.16.14.427.209.8.209h1.12v1.52h-1.44c-.822 0-1.45-.193-1.888-.577-.438-.384-.656-1.008-.656-1.872v-4.88h-1.04v-1.488h1.04V22.75h1.84v2.192h2.144v1.488h-2.144Zm7.649 7.473c-.832 0-1.584-.187-2.256-.56a4.152 4.152 0 0 1-1.584-1.6c-.384-.694-.576-1.494-.576-2.4 0-.896.197-1.691.592-2.384a4.09 4.09 0 0 1 1.616-1.6c.683-.374 1.445-.56 2.288-.56.843 0 1.605.186 2.288.56a4.09 4.09 0 0 1 1.616 1.6c.395.693.592 1.488.592 2.384 0 .895-.203 1.69-.608 2.384a4.249 4.249 0 0 1-1.664 1.616 4.779 4.779 0 0 1-2.304.56Zm0-1.584a2.67 2.67 0 0 0 1.312-.337c.416-.223.752-.56 1.008-1.008.256-.448.384-.991.384-1.631s-.123-1.18-.368-1.616a2.473 2.473 0 0 0-.976-1.009 2.67 2.67 0 0 0-1.312-.335 2.67 2.67 0 0 0-1.312.335c-.395.224-.709.56-.944 1.009-.235.437-.352.976-.352 1.616 0 .949.24 1.685.72 2.207.491.512 1.104.768 1.84.768Zm8.507-5.889v4.88c0 .331.075.571.224.72.16.14.427.209.8.209h1.12v1.52h-1.44c-.821 0-1.451-.193-1.888-.577-.437-.384-.656-1.008-.656-1.872v-4.88h-1.04v-1.488h1.04V22.75h1.84v2.192h2.144v1.488h-2.144Zm11.761-1.488-5.408 12.96h-1.888l1.792-4.288-3.472-8.671h2.032l2.48 6.72 2.576-6.72h1.888Zm3.201 1.296c.309-.405.73-.746 1.264-1.023.533-.278 1.136-.416 1.808-.416.768 0 1.466.192 2.096.576a3.92 3.92 0 0 1 1.504 1.584c.362.682.544 1.466.544 2.352 0 .885-.182 1.68-.544 2.384a4.118 4.118 0 0 1-1.504 1.632 3.947 3.947 0 0 1-2.096.576c-.672 0-1.27-.134-1.792-.4a4.097 4.097 0 0 1-1.28-1.025v5.472h-1.824V24.942h1.824v1.296Zm5.36 3.073c0-.608-.128-1.131-.384-1.569a2.447 2.447 0 0 0-.992-1.008 2.578 2.578 0 0 0-1.312-.352c-.459 0-.896.118-1.312.352a2.691 2.691 0 0 0-.992 1.024c-.246.448-.368.977-.368 1.585s.122 1.14.368 1.6c.256.447.586.789.992 1.023a2.63 2.63 0 0 0 1.312.352c.469 0 .906-.117 1.312-.351.416-.246.746-.598.992-1.056.256-.46.384-.992.384-1.6Zm11.739-.177c0 .331-.021.63-.064.896h-6.736c.054.704.315 1.27.784 1.697.47.426 1.046.64 1.728.64.982 0 1.675-.411 2.08-1.232h1.968a3.994 3.994 0 0 1-1.456 2c-.693.512-1.557.768-2.592.768-.842 0-1.6-.187-2.272-.56a4.187 4.187 0 0 1-1.568-1.6c-.373-.694-.56-1.494-.56-2.4 0-.907.182-1.702.544-2.384a3.943 3.943 0 0 1 1.552-1.6c.672-.374 1.44-.56 2.304-.56.832 0 1.574.18 2.224.544a3.825 3.825 0 0 1 1.52 1.535c.363.651.544 1.403.544 2.256Zm-1.904-.576c-.01-.671-.25-1.21-.72-1.616-.469-.405-1.05-.608-1.744-.608-.629 0-1.168.203-1.616.608-.448.395-.714.934-.8 1.616h4.88Zm15.792-3.616-5.408 12.96h-1.888l1.792-4.288-3.472-8.671h2.032l2.48 6.72 2.576-6.72h1.888Zm5.2 8.96c-.832 0-1.584-.186-2.256-.56a4.151 4.151 0 0 1-1.584-1.6c-.384-.693-.576-1.493-.576-2.4 0-.895.198-1.69.592-2.383a4.096 4.096 0 0 1 1.616-1.6c.683-.374 1.446-.56 2.288-.56.843 0 1.606.186 2.288.56a4.083 4.083 0 0 1 1.616 1.6c.395.693.592 1.488.592 2.384 0 .895-.202 1.69-.608 2.384a4.249 4.249 0 0 1-1.664 1.616 4.779 4.779 0 0 1-2.304.56Zm0-1.584c.47 0 .907-.111 1.312-.335.416-.224.752-.56 1.008-1.009.256-.448.384-.991.384-1.631s-.122-1.18-.368-1.616a2.466 2.466 0 0 0-.976-1.009 2.666 2.666 0 0 0-1.312-.335c-.469 0-.906.111-1.312.335-.394.224-.709.56-.944 1.009-.234.437-.352.976-.352 1.616 0 .949.24 1.685.72 2.207.491.512 1.104.768 1.84.768Zm14.363-7.375v8.815h-1.824v-1.04c-.288.363-.666.651-1.136.864a3.597 3.597 0 0 1-1.472.304c-.693 0-1.317-.144-1.872-.431a3.183 3.183 0 0 1-1.296-1.28c-.309-.566-.464-1.248-.464-2.048v-5.184h1.808v4.912c0 .789.198 1.397.592 1.823.395.416.934.625 1.616.625.683 0 1.222-.209 1.616-.624.406-.427.608-1.035.608-1.824v-4.913h1.824Zm4.231 1.28a2.827 2.827 0 0 1 1.056-1.04c.448-.256.976-.384 1.584-.384v1.887h-.464c-.715 0-1.259.182-1.632.544-.363.363-.544.992-.544 1.889v4.64h-1.824v-8.817h1.824v1.28Zm7.865 3.088c0-.886.181-1.67.544-2.352a4.057 4.057 0 0 1 3.616-2.16c.693 0 1.296.138 1.808.416.522.266.938.602 1.248 1.008v-1.28h1.84v8.815h-1.84v-1.312c-.31.416-.731.763-1.264 1.04-.534.278-1.142.417-1.824.417a3.914 3.914 0 0 1-2.08-.576 4.266 4.266 0 0 1-1.504-1.632c-.363-.704-.544-1.5-.544-2.384Zm7.216.032c0-.608-.128-1.137-.384-1.584a2.591 2.591 0 0 0-.976-1.024 2.578 2.578 0 0 0-1.312-.352c-.47 0-.907.117-1.312.352-.406.224-.736.56-.992 1.008-.246.437-.368.96-.368 1.568 0 .608.122 1.14.368 1.6.256.458.586.81.992 1.055a2.63 2.63 0 0 0 1.312.352c.469 0 .906-.117 1.312-.351a2.59 2.59 0 0 0 .976-1.024c.256-.46.384-.992.384-1.6Zm6.06-3.105c.309-.405.73-.746 1.264-1.023.533-.278 1.136-.416 1.808-.416.768 0 1.466.192 2.096.576a3.92 3.92 0 0 1 1.504 1.584c.362.682.544 1.466.544 2.352 0 .885-.182 1.68-.544 2.384a4.118 4.118 0 0 1-1.504 1.632 3.947 3.947 0 0 1-2.096.576c-.672 0-1.27-.134-1.792-.4a4.097 4.097 0 0 1-1.28-1.025v5.472h-1.824V24.942h1.824v1.296Zm5.36 3.073c0-.608-.128-1.131-.384-1.569a2.447 2.447 0 0 0-.992-1.008 2.578 2.578 0 0 0-1.312-.352c-.459 0-.896.118-1.312.352a2.691 2.691 0 0 0-.992 1.024c-.246.448-.368.977-.368 1.585s.122 1.14.368 1.6c.256.447.586.789.992 1.023a2.63 2.63 0 0 0 1.312.352c.469 0 .906-.117 1.312-.351.416-.246.746-.598.992-1.056.256-.46.384-.992.384-1.6Zm5.483-3.073c.31-.405.731-.746 1.264-1.023.534-.278 1.136-.416 1.808-.416.768 0 1.467.192 2.096.576.64.373 1.142.9 1.504 1.584.363.682.544 1.466.544 2.352 0 .885-.181 1.68-.544 2.384a4.11 4.11 0 0 1-1.504 1.632 3.945 3.945 0 0 1-2.096.576c-.672 0-1.269-.134-1.792-.4a4.12 4.12 0 0 1-1.28-1.025v5.472h-1.824V24.942h1.824v1.296Zm5.36 3.073c0-.608-.128-1.131-.384-1.569a2.441 2.441 0 0 0-.992-1.008 2.572 2.572 0 0 0-1.312-.352c-.458 0-.896.118-1.312.352a2.699 2.699 0 0 0-.992 1.024c-.245.448-.368.977-.368 1.585s.123 1.14.368 1.6c.256.447.587.789.992 1.023.416.235.854.352 1.312.352.47 0 .907-.117 1.312-.351.416-.246.747-.598.992-1.056.256-.46.384-.992.384-1.6Z" fill="#2F281E"/></g><defs><filter id="b" x="-8" y="-5.241" width="256" height="75" filterUnits="userSpaceOnUse" color-interpolation-filters="sRGB"><feFlood flood-opacity="0" result="BackgroundImageFix"/><feColorMatrix in="SourceAlpha" values="0 0 0 0 0 0 0 0 0 0 0 0 0 0 0 0 0 0 127 0" result="hardAlpha"/><feOffset dy="2"/><feGaussianBlur stdDeviation="4"/><feColorMatrix values="0 0 0 0 0.337255 0 0 0 0 0.458824 0 0 0 0 0.572549 0 0 0 0.1 0"/><feBlend in2="BackgroundImageFix" result="effect1_dropShadow_17_202"/><feBlend in="SourceGraphic" in2="effect1_dropShadow_17_202" result="shape"/></filter><filter id="c" x="199" y="48.758" width="39" height="39" filterUnits="userSpaceOnUse" color-interpolation-filters="sRGB"><feFlood flood-opacity="0" result="BackgroundImageFix"/><feColorMatrix in="SourceAlpha" values="0 0 0 0 0 0 0 0 0 0 0 0 0 0 0 0 0 0 127 0" result="hardAlpha"/><feOffset dy="2"/><feGaussianBlur stdDeviation="7.5"/><feColorMatrix values="0 0 0 0 0.0901961 0 0 0 0 0.227451 0 0 0 0 0.337255 0 0 0 0.1 0"/><feBlend in2="BackgroundImageFix" result="effect1_dropShadow_17_202"/><feBlend in="SourceGraphic" in2="effect1_dropShadow_17_202" result="shape"/></filter><clipPath id="a"><path fill="#fff" transform="translate(0 .759)" d="M0 0h240v70H0z"/></clipPath></defs></svg>