<svg xmlns="http://www.w3.org/2000/svg" width="216" height="64" fill="none"><g clip-path="url(#a)"><g filter="url(#b)"><path fill="#fff" fill-rule="evenodd" d="M26.5.727C11.864.727 0 12.591 0 27.227v11.165c0 14.635 11.864 26.5 26.5 26.5h141.754c.958 4.206 3.863 7.264 7.297 7.264 3.434 0 6.339-3.058 7.297-7.264h6.162c14.636 0 26.5-11.865 26.5-26.5V27.227c0-14.636-11.864-26.5-26.5-26.5H26.5Z" clip-rule="evenodd"/></g><g filter="url(#c)"><circle cx="196.204" cy="59.543" r="4.041" fill="#fff"/></g><path fill="#2F281E" d="M31.13 18.607v11.12h-1.825v-11.12h1.825Zm5.942 6.704c0-.907.182-1.701.544-2.384a3.966 3.966 0 0 1 1.537-1.6c.65-.373 1.397-.56 2.24-.56 1.066 0 1.946.256 2.64.768.703.501 1.178 1.221 1.423 2.16h-1.968a2.08 2.08 0 0 0-.767-1.024c-.352-.245-.795-.368-1.328-.368-.747 0-1.345.267-1.793.8-.437.523-.656 1.259-.656 2.208 0 .95.22 1.69.656 2.224.448.533 1.046.8 1.792.8 1.056 0 1.755-.464 2.096-1.392h1.968c-.256.896-.736 1.61-1.44 2.144-.703.523-1.578.784-2.623.784-.843 0-1.59-.187-2.24-.56a4.106 4.106 0 0 1-1.536-1.6c-.363-.693-.544-1.493-.544-2.4Zm9.594-.032c0-.885.182-1.67.544-2.352a4.063 4.063 0 0 1 3.616-2.16c.694 0 1.296.139 1.808.416.523.267.939.603 1.248 1.008v-1.28h1.84v8.816h-1.84v-1.312c-.31.416-.73.763-1.264 1.04-.533.277-1.141.416-1.824.416-.757 0-1.45-.192-2.08-.576a4.276 4.276 0 0 1-1.504-1.632c-.362-.704-.544-1.499-.544-2.384Zm7.216.032c0-.608-.128-1.136-.384-1.584a2.583 2.583 0 0 0-.976-1.024 2.574 2.574 0 0 0-1.312-.352c-.47 0-.906.117-1.312.352-.405.224-.736.56-.992 1.008-.245.437-.368.96-.368 1.568 0 .608.123 1.141.368 1.6.256.459.587.81.992 1.056.416.235.854.352 1.312.352.47 0 .907-.117 1.312-.352.406-.235.73-.576.976-1.024.256-.459.384-.992.384-1.6Zm8.684-4.544c.693 0 1.312.144 1.856.432a3.06 3.06 0 0 1 1.296 1.28c.31.565.464 1.248.464 2.048v5.2h-1.808V24.8c0-.79-.197-1.392-.592-1.808-.395-.427-.933-.64-1.616-.64s-1.227.213-1.632.64c-.395.416-.592 1.019-.592 1.808v4.928h-1.824v-8.816h1.824v1.008a3.032 3.032 0 0 1 1.136-.848c.47-.203.965-.304 1.488-.304Zm11.923 1.44c.31-.405.73-.747 1.264-1.024.533-.277 1.136-.416 1.808-.416.768 0 1.466.192 2.096.576.64.373 1.141.901 1.504 1.584.362.683.544 1.467.544 2.352 0 .885-.181 1.68-.544 2.384a4.117 4.117 0 0 1-1.504 1.632 3.946 3.946 0 0 1-2.096.576c-.672 0-1.27-.133-1.792-.4a4.11 4.11 0 0 1-1.28-1.024v5.472h-1.824V20.911h1.824v1.296Zm5.36 3.072c0-.608-.128-1.13-.384-1.568a2.443 2.443 0 0 0-.992-1.008 2.574 2.574 0 0 0-1.312-.352c-.459 0-.896.117-1.312.352a2.695 2.695 0 0 0-.992 1.024c-.245.448-.368.976-.368 1.584 0 .608.123 1.141.368 1.6.256.448.587.79.992 1.024.416.235.853.352 1.312.352.47 0 .906-.117 1.312-.352.416-.245.746-.597.992-1.056.256-.459.384-.992.384-1.6Zm5.484-3.088a2.822 2.822 0 0 1 1.056-1.04c.448-.256.976-.384 1.584-.384v1.888h-.464c-.715 0-1.259.181-1.632.544-.363.363-.544.992-.544 1.888v4.64h-1.824v-8.816h1.824v1.28Zm8.14 7.68c-.832 0-1.584-.187-2.256-.56a4.152 4.152 0 0 1-1.584-1.6c-.384-.693-.576-1.493-.576-2.4 0-.896.198-1.69.592-2.384a4.09 4.09 0 0 1 1.616-1.6c.683-.373 1.446-.56 2.288-.56.843 0 1.606.187 2.288.56a4.088 4.088 0 0 1 1.616 1.6c.395.693.592 1.488.592 2.384 0 .896-.202 1.69-.608 2.384a4.252 4.252 0 0 1-1.664 1.616 4.781 4.781 0 0 1-2.304.56Zm0-1.584c.47 0 .907-.112 1.312-.336.416-.224.752-.56 1.008-1.008.256-.448.384-.992.384-1.632 0-.64-.122-1.179-.368-1.616a2.472 2.472 0 0 0-.976-1.008 2.669 2.669 0 0 0-1.312-.336c-.47 0-.906.112-1.312.336-.394.224-.71.56-.944 1.008-.234.437-.352.976-.352 1.616 0 .95.24 1.685.72 2.208.49.512 1.104.768 1.84.768Zm8.507-5.888v4.88c0 .33.075.57.224.72.16.139.427.208.8.208h1.12v1.52h-1.44c-.821 0-1.45-.192-1.888-.576-.437-.384-.656-1.008-.656-1.872V22.4H99.1v-1.488h1.04V18.72h1.84v2.192h2.144V22.4h-2.144Zm7.649 7.472c-.832 0-1.584-.187-2.256-.56a4.152 4.152 0 0 1-1.584-1.6c-.384-.693-.576-1.493-.576-2.4 0-.896.198-1.69.592-2.384a4.095 4.095 0 0 1 1.616-1.6c.683-.373 1.446-.56 2.288-.56.843 0 1.606.187 2.288.56a4.082 4.082 0 0 1 1.616 1.6c.395.693.592 1.488.592 2.384 0 .896-.202 1.69-.608 2.384a4.25 4.25 0 0 1-1.664 1.616 4.78 4.78 0 0 1-2.304.56Zm0-1.584c.47 0 .907-.112 1.312-.336.416-.224.752-.56 1.008-1.008.256-.448.384-.992.384-1.632 0-.64-.122-1.179-.368-1.616a2.466 2.466 0 0 0-.976-1.008 2.666 2.666 0 0 0-1.312-.336c-.469 0-.906.112-1.312.336-.394.224-.709.56-.944 1.008-.234.437-.352.976-.352 1.616 0 .95.24 1.685.72 2.208.491.512 1.104.768 1.84.768Zm8.508-5.888v4.88c0 .33.074.57.224.72.16.139.426.208.8.208h1.12v1.52h-1.44c-.822 0-1.451-.192-1.888-.576-.438-.384-.656-1.008-.656-1.872V22.4h-1.04v-1.488h1.04V18.72h1.84v2.192h2.144V22.4h-2.144Zm11.761-1.488-5.408 12.96h-1.888l1.792-4.288-3.472-8.672h2.032l2.48 6.72 2.576-6.72h1.888Zm3.2 1.296c.31-.405.731-.747 1.264-1.024.534-.277 1.136-.416 1.808-.416.768 0 1.467.192 2.096.576.64.373 1.142.901 1.504 1.584.363.683.544 1.467.544 2.352 0 .885-.181 1.68-.544 2.384a4.112 4.112 0 0 1-1.504 1.632 3.945 3.945 0 0 1-2.096.576c-.672 0-1.269-.133-1.792-.4a4.123 4.123 0 0 1-1.28-1.024v5.472h-1.824V20.911h1.824v1.296Zm5.36 3.072c0-.608-.128-1.13-.384-1.568a2.441 2.441 0 0 0-.992-1.008 2.571 2.571 0 0 0-1.312-.352c-.458 0-.896.117-1.312.352a2.698 2.698 0 0 0-.992 1.024c-.245.448-.368.976-.368 1.584 0 .608.123 1.141.368 1.6.256.448.587.79.992 1.024.416.235.854.352 1.312.352.47 0 .907-.117 1.312-.352.416-.245.747-.597.992-1.056.256-.459.384-.992.384-1.6Zm11.74-.176c0 .33-.021.63-.064.896h-6.736c.053.704.315 1.27.784 1.696.469.427 1.045.64 1.728.64.981 0 1.675-.41 2.08-1.232h1.968a4 4 0 0 1-1.456 2c-.693.512-1.557.768-2.592.768-.843 0-1.6-.187-2.272-.56a4.188 4.188 0 0 1-1.568-1.6c-.373-.693-.56-1.493-.56-2.4 0-.907.181-1.701.544-2.384a3.936 3.936 0 0 1 1.552-1.6c.672-.373 1.44-.56 2.304-.56.832 0 1.573.181 2.224.544a3.83 3.83 0 0 1 1.52 1.536c.363.65.544 1.403.544 2.256Zm-1.904-.576c-.011-.672-.251-1.21-.72-1.616-.469-.405-1.051-.608-1.744-.608-.629 0-1.168.203-1.616.608-.448.395-.715.933-.8 1.616h4.88Zm15.791-3.616-5.408 12.96h-1.888l1.792-4.288-3.472-8.672h2.032l2.48 6.72 2.576-6.72h1.888Zm5.201 8.96c-.832 0-1.584-.187-2.256-.56a4.152 4.152 0 0 1-1.584-1.6c-.384-.693-.576-1.493-.576-2.4 0-.896.197-1.69.592-2.384a4.082 4.082 0 0 1 1.616-1.6c.682-.373 1.445-.56 2.288-.56.842 0 1.605.187 2.288.56a4.095 4.095 0 0 1 1.616 1.6c.394.693.592 1.488.592 2.384 0 .896-.203 1.69-.608 2.384a4.256 4.256 0 0 1-1.664 1.616 4.785 4.785 0 0 1-2.304.56Zm0-1.584c.469 0 .906-.112 1.312-.336.416-.224.752-.56 1.008-1.008.256-.448.384-.992.384-1.632 0-.64-.123-1.179-.368-1.616a2.479 2.479 0 0 0-.976-1.008 2.672 2.672 0 0 0-1.312-.336c-.47 0-.907.112-1.312.336-.395.224-.71.56-.944 1.008-.235.437-.352.976-.352 1.616 0 .95.24 1.685.72 2.208.49.512 1.104.768 1.84.768Zm14.363-7.376v8.816h-1.824v-1.04c-.288.363-.667.65-1.136.864a3.602 3.602 0 0 1-1.472.304c-.693 0-1.317-.144-1.872-.432a3.184 3.184 0 0 1-1.296-1.28c-.309-.565-.464-1.248-.464-2.048v-5.184h1.808v4.912c0 .79.197 1.397.592 1.824.395.416.933.624 1.616.624s1.221-.208 1.616-.624c.405-.427.608-1.035.608-1.824v-4.912h1.824Zm4.23 1.28a2.826 2.826 0 0 1 1.056-1.04c.448-.256.976-.384 1.584-.384v1.888h-.464c-.714 0-1.258.181-1.632.544-.362.363-.544.992-.544 1.888v4.64h-1.824v-8.816h1.824v1.28ZM93.877 49.28c0-.885.181-1.67.544-2.352a4.062 4.062 0 0 1 3.616-2.16c.694 0 1.296.139 1.808.416.523.267.939.603 1.248 1.008v-1.28h1.84v8.816h-1.84v-1.312c-.309.416-.73.763-1.264 1.04-.533.277-1.141.416-1.824.416-.757 0-1.45-.192-2.08-.576a4.275 4.275 0 0 1-1.504-1.632c-.363-.704-.544-1.499-.544-2.384Zm7.216.032c0-.608-.128-1.136-.384-1.584a2.578 2.578 0 0 0-.976-1.024 2.574 2.574 0 0 0-1.312-.352c-.47 0-.907.117-1.312.352-.405.224-.736.56-.992 1.008-.245.437-.368.96-.368 1.568 0 .608.123 1.141.368 1.6.256.459.587.81.992 1.056.416.235.854.352 1.312.352.47 0 .907-.117 1.312-.352.406-.235.731-.576.976-1.024.256-.459.384-.992.384-1.6Zm6.06-3.104c.309-.405.731-.747 1.264-1.024s1.136-.416 1.808-.416c.768 0 1.467.192 2.096.576a3.92 3.92 0 0 1 1.504 1.584c.363.683.544 1.467.544 2.352 0 .885-.181 1.68-.544 2.384a4.12 4.12 0 0 1-1.504 1.632 3.945 3.945 0 0 1-2.096.576c-.672 0-1.269-.133-1.792-.4a4.112 4.112 0 0 1-1.28-1.024v5.472h-1.824V44.911h1.824v1.296Zm5.36 3.072c0-.608-.128-1.13-.384-1.568a2.441 2.441 0 0 0-.992-1.008 2.574 2.574 0 0 0-1.312-.352 2.63 2.63 0 0 0-1.312.352 2.698 2.698 0 0 0-.992 1.024c-.245.448-.368.976-.368 1.584 0 .608.123 1.141.368 1.6.256.448.587.79.992 1.024.416.235.853.352 1.312.352.469 0 .907-.117 1.312-.352.416-.245.747-.597.992-1.056.256-.459.384-.992.384-1.6Zm5.484-3.072c.309-.405.73-.747 1.264-1.024.533-.277 1.136-.416 1.808-.416.768 0 1.466.192 2.096.576a3.92 3.92 0 0 1 1.504 1.584c.362.683.544 1.467.544 2.352 0 .885-.182 1.68-.544 2.384a4.12 4.12 0 0 1-1.504 1.632 3.947 3.947 0 0 1-2.096.576c-.672 0-1.27-.133-1.792-.4a4.1 4.1 0 0 1-1.28-1.024v5.472h-1.824V44.911h1.824v1.296Zm5.36 3.072c0-.608-.128-1.13-.384-1.568a2.447 2.447 0 0 0-.992-1.008 2.577 2.577 0 0 0-1.312-.352 2.63 2.63 0 0 0-1.312.352 2.69 2.69 0 0 0-.992 1.024c-.246.448-.368.976-.368 1.584 0 .608.122 1.141.368 1.6.256.448.586.79.992 1.024.416.235.853.352 1.312.352.469 0 .906-.117 1.312-.352.416-.245.746-.597.992-1.056.256-.459.384-.992.384-1.6Z"/></g><defs><filter id="b" width="231.51" height="87.429" x="-8" y="-5.273" color-interpolation-filters="sRGB" filterUnits="userSpaceOnUse"><feFlood flood-opacity="0" result="BackgroundImageFix"/><feColorMatrix in="SourceAlpha" result="hardAlpha" values="0 0 0 0 0 0 0 0 0 0 0 0 0 0 0 0 0 0 127 0"/><feOffset dy="2"/><feGaussianBlur stdDeviation="4"/><feColorMatrix values="0 0 0 0 0.337255 0 0 0 0 0.458824 0 0 0 0 0.572549 0 0 0 0.1 0"/><feBlend in2="BackgroundImageFix" result="effect1_dropShadow_17_1326"/><feBlend in="SourceGraphic" in2="effect1_dropShadow_17_1326" result="shape"/></filter><filter id="c" width="38.081" height="38.081" x="177.163" y="42.502" color-interpolation-filters="sRGB" filterUnits="userSpaceOnUse"><feFlood flood-opacity="0" result="BackgroundImageFix"/><feColorMatrix in="SourceAlpha" result="hardAlpha" values="0 0 0 0 0 0 0 0 0 0 0 0 0 0 0 0 0 0 127 0"/><feOffset dy="2"/><feGaussianBlur stdDeviation="7.5"/><feColorMatrix values="0 0 0 0 0.0901961 0 0 0 0 0.227451 0 0 0 0 0.337255 0 0 0 0.1 0"/><feBlend in2="BackgroundImageFix" result="effect1_dropShadow_17_1326"/><feBlend in="SourceGraphic" in2="effect1_dropShadow_17_1326" result="shape"/></filter><clipPath id="a"><path fill="#fff" d="M0 .727h215.51v62.857H0z"/></clipPath></defs></svg>