<svg xmlns="http://www.w3.org/2000/svg" width="263" height="71" fill="none"><g clip-path="url(#a)"><g filter="url(#b)"><path fill="#fff" fill-rule="evenodd" d="M26.5.759C11.864.759 0 12.623 0 27.259c0 14.635 11.864 26.5 26.5 26.5h164.874a8.503 8.503 0 0 0 16.252 0H236.5c14.636 0 26.5-11.865 26.5-26.5 0-14.636-11.864-26.5-26.5-26.5h-210Z" clip-rule="evenodd"/></g><g filter="url(#c)"><circle cx="222.5" cy="66.258" r="4.5" fill="#fff"/></g><path fill="#2F281E" d="M36.618 22.639v11.12h-1.824v-11.12h1.824Zm5.943 6.704c0-.907.181-1.702.544-2.384a3.967 3.967 0 0 1 1.536-1.6c.65-.374 1.397-.56 2.24-.56 1.066 0 1.946.256 2.64.768.704.5 1.178 1.22 1.424 2.16h-1.968a2.082 2.082 0 0 0-.768-1.024c-.352-.246-.795-.369-1.328-.369-.747 0-1.344.267-1.792.8-.438.523-.656 1.26-.656 2.209 0 .949.218 1.69.656 2.224.448.533 1.045.8 1.792.8 1.056 0 1.754-.464 2.096-1.392h1.968c-.256.895-.736 1.61-1.44 2.143-.704.523-1.579.785-2.624.785-.843 0-1.59-.187-2.24-.56a4.105 4.105 0 0 1-1.536-1.6c-.363-.694-.544-1.494-.544-2.4Zm9.593-.032c0-.886.182-1.67.544-2.352a4.064 4.064 0 0 1 3.617-2.16c.693 0 1.296.138 1.808.416.522.266.938.602 1.248 1.008v-1.28h1.84v8.815h-1.84v-1.312c-.31.416-.731.763-1.265 1.04-.533.278-1.14.417-1.824.417-.757 0-1.45-.192-2.08-.576a4.274 4.274 0 0 1-1.503-1.632c-.363-.704-.544-1.5-.544-2.384Zm7.216.032c0-.608-.127-1.137-.383-1.584a2.584 2.584 0 0 0-.977-1.024 2.575 2.575 0 0 0-1.311-.352c-.47 0-.907.117-1.313.352-.405.224-.736.56-.992 1.008-.245.437-.367.96-.367 1.568 0 .608.122 1.14.367 1.6.257.458.587.81.992 1.055.416.235.854.352 1.313.352.469 0 .906-.117 1.312-.351.405-.235.73-.576.975-1.024.257-.46.385-.992.385-1.6Zm8.684-4.544c.694 0 1.312.143 1.856.431.555.288.987.715 1.296 1.28.31.566.464 1.248.464 2.048v5.2h-1.808V28.83c0-.789-.197-1.391-.592-1.807-.394-.427-.933-.64-1.616-.64-.682 0-1.226.213-1.632.64-.394.416-.592 1.018-.592 1.808v4.927h-1.824v-8.816h1.824v1.009a3.033 3.033 0 0 1 1.136-.849c.47-.202.966-.303 1.488-.303Zm9.491 4.512c0-.886.181-1.67.544-2.352a4.065 4.065 0 0 1 3.632-2.16c.576 0 1.141.128 1.696.384.566.245 1.013.576 1.344.991V21.92h1.84v11.84h-1.84V32.43c-.298.426-.715.778-1.248 1.056-.523.277-1.125.416-1.808.416a4.028 4.028 0 0 1-2.112-.576 4.275 4.275 0 0 1-1.504-1.632c-.362-.704-.544-1.5-.544-2.384Zm7.216.032c0-.608-.128-1.137-.384-1.584a2.584 2.584 0 0 0-.976-1.024 2.575 2.575 0 0 0-1.312-.352c-.47 0-.906.117-1.312.352-.405.224-.736.56-.992 1.008-.245.437-.368.96-.368 1.568 0 .608.123 1.14.368 1.6.256.458.587.81.992 1.055.416.235.853.352 1.312.352.47 0 .907-.117 1.312-.351.406-.235.73-.576.976-1.024.256-.46.384-.992.384-1.6Zm12.316-.209c0 .331-.022.63-.064.896h-6.736c.053.704.314 1.27.784 1.697.47.426 1.045.64 1.728.64.981 0 1.674-.411 2.08-1.232h1.968a3.998 3.998 0 0 1-1.456 2c-.694.512-1.558.768-2.592.768-.843 0-1.6-.187-2.272-.56a4.185 4.185 0 0 1-1.568-1.6c-.373-.694-.56-1.494-.56-2.4 0-.907.181-1.702.544-2.384a3.936 3.936 0 0 1 1.552-1.6c.672-.374 1.44-.56 2.304-.56.832 0 1.573.18 2.224.544.65.362 1.157.874 1.52 1.535.362.651.544 1.403.544 2.256Zm-1.904-.576c-.01-.671-.25-1.21-.72-1.616-.47-.405-1.05-.608-1.744-.608-.63 0-1.168.203-1.616.608-.448.395-.715.934-.8 1.616h4.88Zm6.899 5.345c-.693 0-1.317-.123-1.872-.368-.544-.256-.976-.598-1.296-1.024a2.59 2.59 0 0 1-.512-1.457h1.888c.032.374.208.689.528.945.331.245.741.368 1.232.368.512 0 .907-.096 1.184-.288.288-.203.432-.46.432-.768 0-.331-.16-.576-.48-.736-.309-.16-.805-.337-1.488-.528-.661-.182-1.2-.358-1.616-.529a2.9 2.9 0 0 1-1.088-.784c-.299-.352-.448-.816-.448-1.392 0-.469.138-.895.416-1.28.277-.394.672-.704 1.184-.928.523-.224 1.12-.335 1.792-.335 1.003 0 1.808.256 2.416.768.619.5.949 1.189.992 2.064h-1.824a1.3 1.3 0 0 0-.48-.945c-.288-.234-.677-.352-1.168-.352-.48 0-.848.091-1.104.273a.842.842 0 0 0-.384.72c0 .234.085.431.256.591.171.16.379.288.624.384.245.086.608.198 1.088.337.64.17 1.163.346 1.568.527.416.171.773.427 1.072.768.299.342.453.795.464 1.36 0 .502-.139.95-.416 1.345-.277.394-.672.703-1.184.927-.501.224-1.093.337-1.776.337Zm6.275-10.128a1.13 1.13 0 0 1-.832-.336 1.13 1.13 0 0 1-.336-.832c0-.331.112-.608.336-.832a1.13 1.13 0 0 1 .832-.336c.32 0 .592.111.816.335.224.224.336.502.336.832 0 .331-.112.608-.336.832a1.11 1.11 0 0 1-.816.337Zm.896 1.168v8.815h-1.824v-8.816h1.824Zm5.947-.145c.682 0 1.285.14 1.808.417.533.266.949.602 1.248 1.008v-1.28h1.84v8.96c0 .81-.171 1.53-.512 2.16a3.681 3.681 0 0 1-1.488 1.503c-.64.363-1.408.544-2.304.544-1.195 0-2.187-.282-2.976-.847-.79-.555-1.238-1.313-1.344-2.273h1.808c.138.46.432.827.88 1.104.458.288 1.002.432 1.632.432.736 0 1.328-.224 1.776-.672.458-.447.688-1.098.688-1.951V32.43c-.31.416-.731.768-1.264 1.056-.523.277-1.12.416-1.792.416a4.028 4.028 0 0 1-2.112-.576 4.266 4.266 0 0 1-1.504-1.632c-.363-.704-.544-1.5-.544-2.384 0-.886.181-1.67.544-2.352a4.057 4.057 0 0 1 3.616-2.16Zm3.056 4.545c0-.608-.128-1.137-.384-1.584a2.591 2.591 0 0 0-.976-1.024 2.578 2.578 0 0 0-1.312-.352c-.47 0-.907.117-1.312.352-.406.224-.736.56-.992 1.008-.246.437-.368.96-.368 1.568 0 .608.122 1.14.368 1.6.256.458.586.81.992 1.055a2.63 2.63 0 0 0 1.312.352c.469 0 .906-.117 1.312-.351a2.59 2.59 0 0 0 .976-1.024c.256-.46.384-.992.384-1.6Zm8.683-4.544c.694 0 1.312.143 1.856.431.555.288.987.715 1.296 1.28.31.566.464 1.248.464 2.048v5.2h-1.808V28.83c0-.789-.197-1.391-.592-1.807-.394-.427-.933-.64-1.616-.64-.682 0-1.226.213-1.632.64-.394.416-.592 1.018-.592 1.808v4.927h-1.824v-8.816h1.824v1.009a3.042 3.042 0 0 1 1.136-.849 3.72 3.72 0 0 1 1.488-.303Zm18.035.143-5.408 12.96h-1.888l1.792-4.288-3.472-8.671h2.032l2.48 6.72 2.576-6.72h1.888Zm5.201 8.96c-.832 0-1.584-.186-2.256-.56a4.151 4.151 0 0 1-1.584-1.6c-.384-.693-.576-1.493-.576-2.4 0-.895.197-1.69.592-2.383a4.083 4.083 0 0 1 1.616-1.6c.682-.374 1.445-.56 2.288-.56.842 0 1.605.186 2.288.56a4.096 4.096 0 0 1 1.616 1.6c.394.693.592 1.488.592 2.384 0 .895-.203 1.69-.608 2.384a4.256 4.256 0 0 1-1.664 1.616 4.784 4.784 0 0 1-2.304.56Zm0-1.584c.469 0 .906-.111 1.312-.335.416-.224.752-.56 1.008-1.009.256-.448.384-.991.384-1.631s-.123-1.18-.368-1.616a2.479 2.479 0 0 0-.976-1.009 2.672 2.672 0 0 0-1.312-.335c-.47 0-.907.111-1.312.335-.395.224-.71.56-.944 1.009-.235.437-.352.976-.352 1.616 0 .949.24 1.685.72 2.207.49.512 1.104.768 1.84.768Zm14.363-7.375v8.815h-1.824v-1.04c-.288.363-.667.651-1.136.864-.459.203-.95.304-1.472.304-.694 0-1.318-.144-1.872-.431a3.183 3.183 0 0 1-1.296-1.28c-.31-.566-.464-1.248-.464-2.048v-5.184h1.808v4.912c0 .789.197 1.397.592 1.823.394.416.933.625 1.616.625.682 0 1.221-.209 1.616-.624.405-.427.608-1.035.608-1.824v-4.913h1.824Zm18.403 0-2.736 8.815h-1.92l-1.776-6.512-1.776 6.512h-1.92l-2.752-8.816h1.856l1.84 7.089 1.872-7.088h1.904l1.792 7.055 1.824-7.056h1.792Zm9.443 4.191c0 .331-.022.63-.064.896h-6.736c.053.704.314 1.27.784 1.697.469.426 1.045.64 1.728.64.981 0 1.674-.411 2.08-1.232h1.968a4 4 0 0 1-1.456 2c-.694.512-1.558.768-2.592.768-.843 0-1.6-.187-2.272-.56a4.18 4.18 0 0 1-1.568-1.6c-.374-.694-.56-1.494-.56-2.4 0-.907.181-1.702.544-2.384a3.93 3.93 0 0 1 1.552-1.6c.672-.374 1.44-.56 2.304-.56.832 0 1.573.18 2.224.544.65.362 1.157.874 1.52 1.535.362.651.544 1.403.544 2.256Zm-1.904-.576c-.011-.671-.251-1.21-.72-1.616-.47-.405-1.051-.608-1.744-.608-.63 0-1.168.203-1.616.608-.448.395-.715.934-.8 1.616h4.88Zm5.523-2.303c.309-.427.73-.774 1.264-1.04a3.92 3.92 0 0 1 1.808-.416c.778 0 1.482.186 2.112.56.629.373 1.125.906 1.488 1.6.362.682.544 1.466.544 2.352 0 .885-.182 1.68-.544 2.384a4.118 4.118 0 0 1-1.504 1.632 3.947 3.947 0 0 1-2.096.576c-.683 0-1.291-.134-1.824-.4-.523-.267-.939-.608-1.248-1.025v1.28h-1.824v-11.84h1.824v4.337Zm5.36 3.056c0-.608-.128-1.131-.384-1.569a2.447 2.447 0 0 0-.992-1.008 2.578 2.578 0 0 0-1.312-.352c-.459 0-.896.118-1.312.352a2.691 2.691 0 0 0-.992 1.024c-.246.448-.368.977-.368 1.585s.122 1.14.368 1.6c.256.447.586.789.992 1.023a2.63 2.63 0 0 0 1.312.352c.469 0 .906-.117 1.312-.351.416-.246.746-.598.992-1.056.256-.46.384-.992.384-1.6Zm6.86 4.592c-.694 0-1.318-.123-1.872-.368-.544-.256-.976-.598-1.296-1.024a2.588 2.588 0 0 1-.512-1.457h1.888c.032.374.208.689.528.945.33.245.741.368 1.232.368.512 0 .906-.096 1.184-.288.288-.203.432-.46.432-.768 0-.331-.16-.576-.48-.736-.31-.16-.806-.337-1.488-.528a14.38 14.38 0 0 1-1.616-.529 2.897 2.897 0 0 1-1.088-.784c-.299-.352-.448-.816-.448-1.392 0-.469.138-.895.416-1.28.277-.394.672-.704 1.184-.928.522-.224 1.12-.335 1.792-.335 1.002 0 1.808.256 2.416.768.618.5.949 1.189.992 2.064h-1.824a1.3 1.3 0 0 0-.48-.945c-.288-.234-.678-.352-1.168-.352-.48 0-.848.091-1.104.273a.842.842 0 0 0-.384.72c0 .234.085.431.256.591.17.16.378.288.624.384.245.086.608.198 1.088.337.64.17 1.162.346 1.568.527.416.171.773.427 1.072.768.298.342.453.795.464 1.36 0 .502-.139.95-.416 1.345-.278.394-.672.703-1.184.927-.502.224-1.094.337-1.776.337Zm6.274-10.128c-.33 0-.608-.112-.832-.336a1.13 1.13 0 0 1-.336-.832c0-.331.112-.608.336-.832.224-.224.502-.336.832-.336.32 0 .592.111.816.335.224.224.336.502.336.832 0 .331-.112.608-.336.832a1.11 1.11 0 0 1-.816.337Zm.896 1.168v8.815h-1.824v-8.816h1.824Zm4.523 1.487v4.88c0 .331.075.571.224.72.16.14.427.209.8.209h1.12v1.52h-1.44c-.821 0-1.451-.193-1.888-.577-.437-.384-.656-1.008-.656-1.872v-4.88h-1.04v-1.488h1.04V22.75h1.84v2.192h2.144v1.488h-2.144Zm11.905 2.704c0 .331-.021.63-.064.896h-6.736c.054.704.315 1.27.784 1.697.47.426 1.046.64 1.728.64.982 0 1.675-.411 2.08-1.232h1.968a3.994 3.994 0 0 1-1.456 2c-.693.512-1.557.768-2.592.768-.842 0-1.6-.187-2.272-.56a4.187 4.187 0 0 1-1.568-1.6c-.373-.694-.56-1.494-.56-2.4 0-.907.182-1.702.544-2.384a3.943 3.943 0 0 1 1.552-1.6c.672-.374 1.44-.56 2.304-.56.832 0 1.574.18 2.224.544a3.825 3.825 0 0 1 1.52 1.535c.363.651.544 1.403.544 2.256Zm-1.904-.576c-.01-.671-.25-1.21-.72-1.616-.469-.405-1.05-.608-1.744-.608-.629 0-1.168.203-1.616.608-.448.395-.714.934-.8 1.616h4.88Z"/></g><defs><filter id="b" width="279" height="75" x="-8" y="-5.241" color-interpolation-filters="sRGB" filterUnits="userSpaceOnUse"><feFlood flood-opacity="0" result="BackgroundImageFix"/><feColorMatrix in="SourceAlpha" result="hardAlpha" values="0 0 0 0 0 0 0 0 0 0 0 0 0 0 0 0 0 0 127 0"/><feOffset dy="2"/><feGaussianBlur stdDeviation="4"/><feColorMatrix values="0 0 0 0 0.337255 0 0 0 0 0.458824 0 0 0 0 0.572549 0 0 0 0.1 0"/><feBlend in2="BackgroundImageFix" result="effect1_dropShadow_17_218"/><feBlend in="SourceGraphic" in2="effect1_dropShadow_17_218" result="shape"/></filter><filter id="c" width="39" height="39" x="203" y="48.758" color-interpolation-filters="sRGB" filterUnits="userSpaceOnUse"><feFlood flood-opacity="0" result="BackgroundImageFix"/><feColorMatrix in="SourceAlpha" result="hardAlpha" values="0 0 0 0 0 0 0 0 0 0 0 0 0 0 0 0 0 0 127 0"/><feOffset dy="2"/><feGaussianBlur stdDeviation="7.5"/><feColorMatrix values="0 0 0 0 0.0901961 0 0 0 0 0.227451 0 0 0 0 0.337255 0 0 0 0.1 0"/><feBlend in2="BackgroundImageFix" result="effect1_dropShadow_17_218"/><feBlend in="SourceGraphic" in2="effect1_dropShadow_17_218" result="shape"/></filter><clipPath id="a"><path fill="#fff" d="M0 .759h263v70H0z"/></clipPath></defs></svg>