<svg width="263" height="71" viewBox="0 0 263 71" fill="none" xmlns="http://www.w3.org/2000/svg">
<g clip-path="url(#clip0_17_218)">
<g filter="url(#filter0_d_17_218)">
<path fill-rule="evenodd" clip-rule="evenodd" d="M26.5 0.758545C11.8645 0.758545 0 12.623 0 27.2585C0 41.8941 11.8645 53.7585 26.5 53.7585H191.374C192.441 57.2329 195.676 59.7585 199.5 59.7585C203.324 59.7585 206.559 57.2329 207.626 53.7585H236.5C251.136 53.7585 263 41.8941 263 27.2585C263 12.623 251.136 0.758545 236.5 0.758545H26.5Z" fill="white"/>
</g>
<g filter="url(#filter1_d_17_218)">
<circle cx="222.5" cy="66.2585" r="4.5" fill="white"/>
</g>
<path d="M36.6178 22.6385V33.7585H34.7938V22.6385H36.6178ZM42.5608 29.3425C42.5608 28.4359 42.7421 27.6412 43.1048 26.9585C43.4781 26.2652 43.9901 25.7319 44.6408 25.3585C45.2914 24.9852 46.0381 24.7985 46.8808 24.7985C47.9474 24.7985 48.8274 25.0545 49.5208 25.5665C50.2248 26.0679 50.6994 26.7879 50.9448 27.7265H48.9768C48.8168 27.2892 48.5608 26.9479 48.2088 26.7025C47.8568 26.4572 47.4141 26.3345 46.8808 26.3345C46.1341 26.3345 45.5368 26.6012 45.0888 27.1345C44.6514 27.6572 44.4328 28.3932 44.4328 29.3425C44.4328 30.2919 44.6514 31.0332 45.0888 31.5665C45.5368 32.0999 46.1341 32.3665 46.8808 32.3665C47.9368 32.3665 48.6354 31.9025 48.9768 30.9745H50.9448C50.6888 31.8705 50.2088 32.5852 49.5048 33.1185C48.8008 33.6412 47.9261 33.9025 46.8808 33.9025C46.0381 33.9025 45.2914 33.7159 44.6408 33.3425C43.9901 32.9585 43.4781 32.4252 43.1048 31.7425C42.7421 31.0492 42.5608 30.2492 42.5608 29.3425ZM52.1545 29.3105C52.1545 28.4252 52.3358 27.6412 52.6985 26.9585C53.0718 26.2759 53.5732 25.7479 54.2025 25.3745C54.8425 24.9905 55.5465 24.7985 56.3145 24.7985C57.0078 24.7985 57.6105 24.9372 58.1225 25.2145C58.6452 25.4812 59.0612 25.8172 59.3705 26.2225V24.9425H61.2105V33.7585H59.3705V32.4465C59.0612 32.8625 58.6398 33.2092 58.1065 33.4865C57.5732 33.7639 56.9652 33.9025 56.2825 33.9025C55.5252 33.9025 54.8318 33.7105 54.2025 33.3265C53.5732 32.9319 53.0718 32.3879 52.6985 31.6945C52.3358 30.9905 52.1545 30.1959 52.1545 29.3105ZM59.3705 29.3425C59.3705 28.7345 59.2425 28.2065 58.9865 27.7585C58.7412 27.3105 58.4158 26.9692 58.0105 26.7345C57.6052 26.4999 57.1678 26.3825 56.6985 26.3825C56.2292 26.3825 55.7918 26.4999 55.3865 26.7345C54.9812 26.9585 54.6505 27.2945 54.3945 27.7425C54.1492 28.1799 54.0265 28.7025 54.0265 29.3105C54.0265 29.9185 54.1492 30.4519 54.3945 30.9105C54.6505 31.3692 54.9812 31.7212 55.3865 31.9665C55.8025 32.2012 56.2398 32.3185 56.6985 32.3185C57.1678 32.3185 57.6052 32.2012 58.0105 31.9665C58.4158 31.7319 58.7412 31.3905 58.9865 30.9425C59.2425 30.4839 59.3705 29.9505 59.3705 29.3425ZM68.0543 24.7985C68.7476 24.7985 69.3663 24.9425 69.9103 25.2305C70.4649 25.5185 70.8969 25.9452 71.2063 26.5105C71.5156 27.0759 71.6703 27.7585 71.6703 28.5585V33.7585H69.8623V28.8305C69.8623 28.0412 69.6649 27.4385 69.2703 27.0225C68.8756 26.5959 68.3369 26.3825 67.6543 26.3825C66.9716 26.3825 66.4276 26.5959 66.0223 27.0225C65.6276 27.4385 65.4303 28.0412 65.4303 28.8305V33.7585H63.6063V24.9425H65.4303V25.9505C65.7289 25.5879 66.1076 25.3052 66.5663 25.1025C67.0356 24.8999 67.5316 24.7985 68.0543 24.7985ZM77.5451 29.3105C77.5451 28.4252 77.7265 27.6412 78.0891 26.9585C78.4625 26.2759 78.9638 25.7479 79.5931 25.3745C80.2331 24.9905 80.9425 24.7985 81.7211 24.7985C82.2971 24.7985 82.8625 24.9265 83.4171 25.1825C83.9825 25.4279 84.4305 25.7585 84.7611 26.1745V21.9185H86.6011V33.7585H84.7611V32.4305C84.4625 32.8572 84.0465 33.2092 83.5131 33.4865C82.9905 33.7639 82.3878 33.9025 81.7051 33.9025C80.9371 33.9025 80.2331 33.7105 79.5931 33.3265C78.9638 32.9319 78.4625 32.3879 78.0891 31.6945C77.7265 30.9905 77.5451 30.1959 77.5451 29.3105ZM84.7611 29.3425C84.7611 28.7345 84.6331 28.2065 84.3771 27.7585C84.1318 27.3105 83.8065 26.9692 83.4011 26.7345C82.9958 26.4999 82.5585 26.3825 82.0891 26.3825C81.6198 26.3825 81.1825 26.4999 80.7771 26.7345C80.3718 26.9585 80.0411 27.2945 79.7851 27.7425C79.5398 28.1799 79.4171 28.7025 79.4171 29.3105C79.4171 29.9185 79.5398 30.4519 79.7851 30.9105C80.0411 31.3692 80.3718 31.7212 80.7771 31.9665C81.1931 32.2012 81.6305 32.3185 82.0891 32.3185C82.5585 32.3185 82.9958 32.2012 83.4011 31.9665C83.8065 31.7319 84.1318 31.3905 84.3771 30.9425C84.6331 30.4839 84.7611 29.9505 84.7611 29.3425ZM97.0769 29.1345C97.0769 29.4652 97.0555 29.7639 97.0129 30.0305H90.2769C90.3302 30.7345 90.5915 31.2999 91.0609 31.7265C91.5302 32.1532 92.1062 32.3665 92.7889 32.3665C93.7702 32.3665 94.4635 31.9559 94.8689 31.1345H96.8369C96.5702 31.9452 96.0849 32.6119 95.3809 33.1345C94.6875 33.6465 93.8235 33.9025 92.7889 33.9025C91.9462 33.9025 91.1889 33.7159 90.5169 33.3425C89.8555 32.9585 89.3329 32.4252 88.9489 31.7425C88.5755 31.0492 88.3889 30.2492 88.3889 29.3425C88.3889 28.4359 88.5702 27.6412 88.9329 26.9585C89.3062 26.2652 89.8235 25.7319 90.4849 25.3585C91.1569 24.9852 91.9249 24.7985 92.7889 24.7985C93.6209 24.7985 94.3622 24.9799 95.0129 25.3425C95.6635 25.7052 96.1702 26.2172 96.5329 26.8785C96.8955 27.5292 97.0769 28.2812 97.0769 29.1345ZM95.1729 28.5585C95.1622 27.8865 94.9222 27.3479 94.4529 26.9425C93.9835 26.5372 93.4022 26.3345 92.7089 26.3345C92.0795 26.3345 91.5409 26.5372 91.0929 26.9425C90.6449 27.3372 90.3782 27.8759 90.2929 28.5585H95.1729ZM102.072 33.9025C101.379 33.9025 100.755 33.7799 100.2 33.5345C99.6559 33.2785 99.2239 32.9372 98.9039 32.5105C98.5839 32.0732 98.4132 31.5879 98.3919 31.0545H100.28C100.312 31.4279 100.488 31.7425 100.808 31.9985C101.139 32.2439 101.549 32.3665 102.04 32.3665C102.552 32.3665 102.947 32.2705 103.224 32.0785C103.512 31.8759 103.656 31.6199 103.656 31.3105C103.656 30.9799 103.496 30.7345 103.176 30.5745C102.867 30.4145 102.371 30.2385 101.688 30.0465C101.027 29.8652 100.488 29.6892 100.072 29.5185C99.6559 29.3479 99.2932 29.0865 98.9839 28.7345C98.6852 28.3825 98.5359 27.9185 98.5359 27.3425C98.5359 26.8732 98.6745 26.4465 98.9519 26.0625C99.2292 25.6679 99.6239 25.3585 100.136 25.1345C100.659 24.9105 101.256 24.7985 101.928 24.7985C102.931 24.7985 103.736 25.0545 104.344 25.5665C104.963 26.0679 105.293 26.7559 105.336 27.6305H103.512C103.48 27.2359 103.32 26.9212 103.032 26.6865C102.744 26.4519 102.355 26.3345 101.864 26.3345C101.384 26.3345 101.016 26.4252 100.76 26.6065C100.504 26.7879 100.376 27.0279 100.376 27.3265C100.376 27.5612 100.461 27.7585 100.632 27.9185C100.803 28.0785 101.011 28.2065 101.256 28.3025C101.501 28.3879 101.864 28.4999 102.344 28.6385C102.984 28.8092 103.507 28.9852 103.912 29.1665C104.328 29.3372 104.685 29.5932 104.984 29.9345C105.283 30.2759 105.437 30.7292 105.448 31.2945C105.448 31.7959 105.309 32.2439 105.032 32.6385C104.755 33.0332 104.36 33.3425 103.848 33.5665C103.347 33.7905 102.755 33.9025 102.072 33.9025ZM108.347 23.7745C108.016 23.7745 107.739 23.6625 107.515 23.4385C107.291 23.2145 107.179 22.9372 107.179 22.6065C107.179 22.2759 107.291 21.9985 107.515 21.7745C107.739 21.5505 108.016 21.4385 108.347 21.4385C108.667 21.4385 108.939 21.5505 109.163 21.7745C109.387 21.9985 109.499 22.2759 109.499 22.6065C109.499 22.9372 109.387 23.2145 109.163 23.4385C108.939 23.6625 108.667 23.7745 108.347 23.7745ZM109.243 24.9425V33.7585H107.419V24.9425H109.243ZM115.19 24.7985C115.872 24.7985 116.475 24.9372 116.998 25.2145C117.531 25.4812 117.947 25.8172 118.246 26.2225V24.9425H120.086V33.9025C120.086 34.7132 119.915 35.4332 119.574 36.0625C119.232 36.7025 118.736 37.2039 118.086 37.5665C117.446 37.9292 116.678 38.1105 115.782 38.1105C114.587 38.1105 113.595 37.8279 112.806 37.2625C112.016 36.7079 111.568 35.9505 111.462 34.9905H113.27C113.408 35.4492 113.702 35.8172 114.15 36.0945C114.608 36.3825 115.152 36.5265 115.782 36.5265C116.518 36.5265 117.11 36.3025 117.558 35.8545C118.016 35.4065 118.246 34.7559 118.246 33.9025V32.4305C117.936 32.8465 117.515 33.1985 116.982 33.4865C116.459 33.7639 115.862 33.9025 115.19 33.9025C114.422 33.9025 113.718 33.7105 113.078 33.3265C112.448 32.9319 111.947 32.3879 111.574 31.6945C111.211 30.9905 111.03 30.1959 111.03 29.3105C111.03 28.4252 111.211 27.6412 111.574 26.9585C111.947 26.2759 112.448 25.7479 113.078 25.3745C113.718 24.9905 114.422 24.7985 115.19 24.7985ZM118.246 29.3425C118.246 28.7345 118.118 28.2065 117.862 27.7585C117.616 27.3105 117.291 26.9692 116.886 26.7345C116.48 26.4999 116.043 26.3825 115.574 26.3825C115.104 26.3825 114.667 26.4999 114.262 26.7345C113.856 26.9585 113.526 27.2945 113.27 27.7425C113.024 28.1799 112.902 28.7025 112.902 29.3105C112.902 29.9185 113.024 30.4519 113.27 30.9105C113.526 31.3692 113.856 31.7212 114.262 31.9665C114.678 32.2012 115.115 32.3185 115.574 32.3185C116.043 32.3185 116.48 32.2012 116.886 31.9665C117.291 31.7319 117.616 31.3905 117.862 30.9425C118.118 30.4839 118.246 29.9505 118.246 29.3425ZM126.929 24.7985C127.623 24.7985 128.241 24.9425 128.785 25.2305C129.34 25.5185 129.772 25.9452 130.081 26.5105C130.391 27.0759 130.545 27.7585 130.545 28.5585V33.7585H128.737V28.8305C128.737 28.0412 128.54 27.4385 128.145 27.0225C127.751 26.5959 127.212 26.3825 126.529 26.3825C125.847 26.3825 125.303 26.5959 124.897 27.0225C124.503 27.4385 124.305 28.0412 124.305 28.8305V33.7585H122.481V24.9425H124.305V25.9505C124.604 25.5879 124.983 25.3052 125.441 25.1025C125.911 24.8999 126.407 24.7985 126.929 24.7985ZM144.964 24.9425L139.556 37.9025H137.668L139.46 33.6145L135.988 24.9425H138.02L140.5 31.6625L143.076 24.9425H144.964ZM150.165 33.9025C149.333 33.9025 148.581 33.7159 147.909 33.3425C147.237 32.9585 146.709 32.4252 146.325 31.7425C145.941 31.0492 145.749 30.2492 145.749 29.3425C145.749 28.4465 145.946 27.6519 146.341 26.9585C146.735 26.2652 147.274 25.7319 147.957 25.3585C148.639 24.9852 149.402 24.7985 150.245 24.7985C151.087 24.7985 151.85 24.9852 152.533 25.3585C153.215 25.7319 153.754 26.2652 154.149 26.9585C154.543 27.6519 154.741 28.4465 154.741 29.3425C154.741 30.2385 154.538 31.0332 154.133 31.7265C153.727 32.4199 153.173 32.9585 152.469 33.3425C151.775 33.7159 151.007 33.9025 150.165 33.9025ZM150.165 32.3185C150.634 32.3185 151.071 32.2065 151.477 31.9825C151.893 31.7585 152.229 31.4225 152.485 30.9745C152.741 30.5265 152.869 29.9825 152.869 29.3425C152.869 28.7025 152.746 28.1639 152.501 27.7265C152.255 27.2785 151.93 26.9425 151.525 26.7185C151.119 26.4945 150.682 26.3825 150.213 26.3825C149.743 26.3825 149.306 26.4945 148.901 26.7185C148.506 26.9425 148.191 27.2785 147.957 27.7265C147.722 28.1639 147.605 28.7025 147.605 29.3425C147.605 30.2919 147.845 31.0279 148.325 31.5505C148.815 32.0625 149.429 32.3185 150.165 32.3185ZM164.528 24.9425V33.7585H162.704V32.7185C162.416 33.0812 162.037 33.3692 161.568 33.5825C161.109 33.7852 160.618 33.8865 160.096 33.8865C159.402 33.8865 158.778 33.7425 158.224 33.4545C157.68 33.1665 157.248 32.7399 156.928 32.1745C156.618 31.6092 156.464 30.9265 156.464 30.1265V24.9425H158.272V29.8545C158.272 30.6439 158.469 31.2519 158.864 31.6785C159.258 32.0945 159.797 32.3025 160.48 32.3025C161.162 32.3025 161.701 32.0945 162.096 31.6785C162.501 31.2519 162.704 30.6439 162.704 29.8545V24.9425H164.528ZM182.931 24.9425L180.195 33.7585H178.275L176.499 27.2465L174.723 33.7585H172.803L170.051 24.9425H171.907L173.747 32.0305L175.619 24.9425H177.523L179.315 31.9985L181.139 24.9425H182.931ZM192.374 29.1345C192.374 29.4652 192.352 29.7639 192.31 30.0305H185.574C185.627 30.7345 185.888 31.2999 186.358 31.7265C186.827 32.1532 187.403 32.3665 188.086 32.3665C189.067 32.3665 189.76 31.9559 190.166 31.1345H192.134C191.867 31.9452 191.382 32.6119 190.678 33.1345C189.984 33.6465 189.12 33.9025 188.086 33.9025C187.243 33.9025 186.486 33.7159 185.814 33.3425C185.152 32.9585 184.63 32.4252 184.246 31.7425C183.872 31.0492 183.686 30.2492 183.686 29.3425C183.686 28.4359 183.867 27.6412 184.23 26.9585C184.603 26.2652 185.12 25.7319 185.782 25.3585C186.454 24.9852 187.222 24.7985 188.086 24.7985C188.918 24.7985 189.659 24.9799 190.31 25.3425C190.96 25.7052 191.467 26.2172 191.83 26.8785C192.192 27.5292 192.374 28.2812 192.374 29.1345ZM190.47 28.5585C190.459 27.8865 190.219 27.3479 189.75 26.9425C189.28 26.5372 188.699 26.3345 188.006 26.3345C187.376 26.3345 186.838 26.5372 186.39 26.9425C185.942 27.3372 185.675 27.8759 185.59 28.5585H190.47ZM195.993 26.2545C196.302 25.8279 196.723 25.4812 197.257 25.2145C197.801 24.9372 198.403 24.7985 199.065 24.7985C199.843 24.7985 200.547 24.9852 201.177 25.3585C201.806 25.7319 202.302 26.2652 202.665 26.9585C203.027 27.6412 203.209 28.4252 203.209 29.3105C203.209 30.1959 203.027 30.9905 202.665 31.6945C202.302 32.3879 201.801 32.9319 201.161 33.3265C200.531 33.7105 199.833 33.9025 199.065 33.9025C198.382 33.9025 197.774 33.7692 197.241 33.5025C196.718 33.2359 196.302 32.8945 195.993 32.4785V33.7585H194.169V21.9185H195.993V26.2545ZM201.353 29.3105C201.353 28.7025 201.225 28.1799 200.969 27.7425C200.723 27.2945 200.393 26.9585 199.977 26.7345C199.571 26.4999 199.134 26.3825 198.665 26.3825C198.206 26.3825 197.769 26.4999 197.353 26.7345C196.947 26.9692 196.617 27.3105 196.361 27.7585C196.115 28.2065 195.993 28.7345 195.993 29.3425C195.993 29.9505 196.115 30.4839 196.361 30.9425C196.617 31.3905 196.947 31.7319 197.353 31.9665C197.769 32.2012 198.206 32.3185 198.665 32.3185C199.134 32.3185 199.571 32.2012 199.977 31.9665C200.393 31.7212 200.723 31.3692 200.969 30.9105C201.225 30.4519 201.353 29.9185 201.353 29.3105ZM208.213 33.9025C207.519 33.9025 206.895 33.7799 206.341 33.5345C205.797 33.2785 205.365 32.9372 205.045 32.5105C204.725 32.0732 204.554 31.5879 204.533 31.0545H206.421C206.453 31.4279 206.629 31.7425 206.949 31.9985C207.279 32.2439 207.69 32.3665 208.181 32.3665C208.693 32.3665 209.087 32.2705 209.365 32.0785C209.653 31.8759 209.797 31.6199 209.797 31.3105C209.797 30.9799 209.637 30.7345 209.317 30.5745C209.007 30.4145 208.511 30.2385 207.829 30.0465C207.167 29.8652 206.629 29.6892 206.213 29.5185C205.797 29.3479 205.434 29.0865 205.125 28.7345C204.826 28.3825 204.677 27.9185 204.677 27.3425C204.677 26.8732 204.815 26.4465 205.093 26.0625C205.37 25.6679 205.765 25.3585 206.277 25.1345C206.799 24.9105 207.397 24.7985 208.069 24.7985C209.071 24.7985 209.877 25.0545 210.485 25.5665C211.103 26.0679 211.434 26.7559 211.477 27.6305H209.653C209.621 27.2359 209.461 26.9212 209.173 26.6865C208.885 26.4519 208.495 26.3345 208.005 26.3345C207.525 26.3345 207.157 26.4252 206.901 26.6065C206.645 26.7879 206.517 27.0279 206.517 27.3265C206.517 27.5612 206.602 27.7585 206.773 27.9185C206.943 28.0785 207.151 28.2065 207.397 28.3025C207.642 28.3879 208.005 28.4999 208.485 28.6385C209.125 28.8092 209.647 28.9852 210.053 29.1665C210.469 29.3372 210.826 29.5932 211.125 29.9345C211.423 30.2759 211.578 30.7292 211.589 31.2945C211.589 31.7959 211.45 32.2439 211.173 32.6385C210.895 33.0332 210.501 33.3425 209.989 33.5665C209.487 33.7905 208.895 33.9025 208.213 33.9025ZM214.487 23.7745C214.157 23.7745 213.879 23.6625 213.655 23.4385C213.431 23.2145 213.319 22.9372 213.319 22.6065C213.319 22.2759 213.431 21.9985 213.655 21.7745C213.879 21.5505 214.157 21.4385 214.487 21.4385C214.807 21.4385 215.079 21.5505 215.303 21.7745C215.527 21.9985 215.639 22.2759 215.639 22.6065C215.639 22.9372 215.527 23.2145 215.303 23.4385C215.079 23.6625 214.807 23.7745 214.487 23.7745ZM215.383 24.9425V33.7585H213.559V24.9425H215.383ZM219.906 26.4305V31.3105C219.906 31.6412 219.981 31.8812 220.13 32.0305C220.29 32.1692 220.557 32.2385 220.93 32.2385H222.05V33.7585H220.61C219.789 33.7585 219.159 33.5665 218.722 33.1825C218.285 32.7985 218.066 32.1745 218.066 31.3105V26.4305H217.026V24.9425H218.066V22.7505H219.906V24.9425H222.05V26.4305H219.906ZM231.811 29.1345C231.811 29.4652 231.79 29.7639 231.747 30.0305H225.011C225.065 30.7345 225.326 31.2999 225.795 31.7265C226.265 32.1532 226.841 32.3665 227.523 32.3665C228.505 32.3665 229.198 31.9559 229.603 31.1345H231.571C231.305 31.9452 230.819 32.6119 230.115 33.1345C229.422 33.6465 228.558 33.9025 227.523 33.9025C226.681 33.9025 225.923 33.7159 225.251 33.3425C224.59 32.9585 224.067 32.4252 223.683 31.7425C223.31 31.0492 223.123 30.2492 223.123 29.3425C223.123 28.4359 223.305 27.6412 223.667 26.9585C224.041 26.2652 224.558 25.7319 225.219 25.3585C225.891 24.9852 226.659 24.7985 227.523 24.7985C228.355 24.7985 229.097 24.9799 229.747 25.3425C230.398 25.7052 230.905 26.2172 231.267 26.8785C231.63 27.5292 231.811 28.2812 231.811 29.1345ZM229.907 28.5585C229.897 27.8865 229.657 27.3479 229.187 26.9425C228.718 26.5372 228.137 26.3345 227.443 26.3345C226.814 26.3345 226.275 26.5372 225.827 26.9425C225.379 27.3372 225.113 27.8759 225.027 28.5585H229.907Z" fill="#2F281E"/>
</g>
<defs>
<filter id="filter0_d_17_218" x="-8" y="-5.24146" width="279" height="75" filterUnits="userSpaceOnUse" color-interpolation-filters="sRGB">
<feFlood flood-opacity="0" result="BackgroundImageFix"/>
<feColorMatrix in="SourceAlpha" type="matrix" values="0 0 0 0 0 0 0 0 0 0 0 0 0 0 0 0 0 0 127 0" result="hardAlpha"/>
<feOffset dy="2"/>
<feGaussianBlur stdDeviation="4"/>
<feColorMatrix type="matrix" values="0 0 0 0 0.337255 0 0 0 0 0.458824 0 0 0 0 0.572549 0 0 0 0.1 0"/>
<feBlend mode="normal" in2="BackgroundImageFix" result="effect1_dropShadow_17_218"/>
<feBlend mode="normal" in="SourceGraphic" in2="effect1_dropShadow_17_218" result="shape"/>
</filter>
<filter id="filter1_d_17_218" x="203" y="48.7585" width="39" height="39" filterUnits="userSpaceOnUse" color-interpolation-filters="sRGB">
<feFlood flood-opacity="0" result="BackgroundImageFix"/>
<feColorMatrix in="SourceAlpha" type="matrix" values="0 0 0 0 0 0 0 0 0 0 0 0 0 0 0 0 0 0 127 0" result="hardAlpha"/>
<feOffset dy="2"/>
<feGaussianBlur stdDeviation="7.5"/>
<feColorMatrix type="matrix" values="0 0 0 0 0.0901961 0 0 0 0 0.227451 0 0 0 0 0.337255 0 0 0 0.1 0"/>
<feBlend mode="normal" in2="BackgroundImageFix" result="effect1_dropShadow_17_218"/>
<feBlend mode="normal" in="SourceGraphic" in2="effect1_dropShadow_17_218" result="shape"/>
</filter>
<clipPath id="clip0_17_218">
<rect width="263" height="70" fill="white" transform="translate(0 0.758545)"/>
</clipPath>
</defs>
</svg>
