<svg width="238" height="66" viewBox="0 0 238 66" fill="none" xmlns="http://www.w3.org/2000/svg">
<g clip-path="url(#clip0_17_1318)">
<g filter="url(#filter0_d_17_1318)">
<path fill-rule="evenodd" clip-rule="evenodd" d="M26.5 0.62207C11.8645 0.62207 0 12.4865 0 27.1221V38.7858C0 53.4213 11.8644 65.2858 26.5 65.2858H172.592C173.554 69.5246 176.471 72.6061 179.92 72.6061C183.369 72.6061 186.286 69.5246 187.249 65.2858H210.688C225.324 65.2858 237.188 53.4213 237.188 38.7858V27.1221C237.188 12.4865 225.324 0.62207 210.688 0.62207H26.5Z" fill="white"/>
</g>
<g filter="url(#filter1_d_17_1318)">
<ellipse cx="200.663" cy="61.4311" rx="4.05836" ry="4.17772" fill="white"/>
</g>
<path d="M56.9008 19.5021V30.6221H55.0768V19.5021H56.9008ZM62.8438 26.2061C62.8438 25.2994 63.0252 24.5047 63.3878 23.8221C63.7612 23.1287 64.2732 22.5954 64.9238 22.2221C65.5745 21.8487 66.3212 21.6621 67.1638 21.6621C68.2305 21.6621 69.1105 21.9181 69.8038 22.4301C70.5078 22.9314 70.9825 23.6514 71.2278 24.5901H69.2598C69.0998 24.1527 68.8438 23.8114 68.4918 23.5661C68.1398 23.3207 67.6972 23.1981 67.1638 23.1981C66.4172 23.1981 65.8198 23.4647 65.3718 23.9981C64.9345 24.5207 64.7158 25.2567 64.7158 26.2061C64.7158 27.1554 64.9345 27.8967 65.3718 28.4301C65.8198 28.9634 66.4172 29.2301 67.1638 29.2301C68.2198 29.2301 68.9185 28.7661 69.2598 27.8381H71.2278C70.9718 28.7341 70.4918 29.4487 69.7878 29.9821C69.0838 30.5047 68.2092 30.7661 67.1638 30.7661C66.3212 30.7661 65.5745 30.5794 64.9238 30.2061C64.2732 29.8221 63.7612 29.2887 63.3878 28.6061C63.0252 27.9127 62.8438 27.1127 62.8438 26.2061ZM72.4376 26.1741C72.4376 25.2887 72.6189 24.5047 72.9816 23.8221C73.3549 23.1394 73.8563 22.6114 74.4856 22.2381C75.1256 21.8541 75.8296 21.6621 76.5976 21.6621C77.2909 21.6621 77.8936 21.8007 78.4056 22.0781C78.9283 22.3447 79.3443 22.6807 79.6536 23.0861V21.8061H81.4936V30.6221H79.6536V29.3101C79.3443 29.7261 78.9229 30.0727 78.3896 30.3501C77.8563 30.6274 77.2483 30.7661 76.5656 30.7661C75.8083 30.7661 75.1149 30.5741 74.4856 30.1901C73.8563 29.7954 73.3549 29.2514 72.9816 28.5581C72.6189 27.8541 72.4376 27.0594 72.4376 26.1741ZM79.6536 26.2061C79.6536 25.5981 79.5256 25.0701 79.2696 24.6221C79.0243 24.1741 78.6989 23.8327 78.2936 23.5981C77.8883 23.3634 77.4509 23.2461 76.9816 23.2461C76.5123 23.2461 76.0749 23.3634 75.6696 23.5981C75.2643 23.8221 74.9336 24.1581 74.6776 24.6061C74.4323 25.0434 74.3096 25.5661 74.3096 26.1741C74.3096 26.7821 74.4323 27.3154 74.6776 27.7741C74.9336 28.2327 75.2643 28.5847 75.6696 28.8301C76.0856 29.0647 76.5229 29.1821 76.9816 29.1821C77.4509 29.1821 77.8883 29.0647 78.2936 28.8301C78.6989 28.5954 79.0243 28.2541 79.2696 27.8061C79.5256 27.3474 79.6536 26.8141 79.6536 26.2061ZM88.3373 21.6621C89.0307 21.6621 89.6493 21.8061 90.1933 22.0941C90.748 22.3821 91.18 22.8087 91.4893 23.3741C91.7987 23.9394 91.9533 24.6221 91.9533 25.4221V30.6221H90.1453V25.6941C90.1453 24.9047 89.948 24.3021 89.5533 23.8861C89.1587 23.4594 88.62 23.2461 87.9373 23.2461C87.2547 23.2461 86.7107 23.4594 86.3053 23.8861C85.9107 24.3021 85.7133 24.9047 85.7133 25.6941V30.6221H83.8893V21.8061H85.7133V22.8141C86.012 22.4514 86.3907 22.1687 86.8493 21.9661C87.3187 21.7634 87.8147 21.6621 88.3373 21.6621ZM97.8282 26.1741C97.8282 25.2887 98.0095 24.5047 98.3722 23.8221C98.7455 23.1394 99.2469 22.6114 99.8762 22.2381C100.516 21.8541 101.226 21.6621 102.004 21.6621C102.58 21.6621 103.146 21.7901 103.7 22.0461C104.266 22.2914 104.714 22.6221 105.044 23.0381V18.7821H106.884V30.6221H105.044V29.2941C104.746 29.7207 104.33 30.0727 103.796 30.3501C103.274 30.6274 102.671 30.7661 101.988 30.7661C101.22 30.7661 100.516 30.5741 99.8762 30.1901C99.2469 29.7954 98.7455 29.2514 98.3722 28.5581C98.0095 27.8541 97.8282 27.0594 97.8282 26.1741ZM105.044 26.2061C105.044 25.5981 104.916 25.0701 104.66 24.6221C104.415 24.1741 104.09 23.8327 103.684 23.5981C103.279 23.3634 102.842 23.2461 102.372 23.2461C101.903 23.2461 101.466 23.3634 101.06 23.5981C100.655 23.8221 100.324 24.1581 100.068 24.6061C99.8229 25.0434 99.7002 25.5661 99.7002 26.1741C99.7002 26.7821 99.8229 27.3154 100.068 27.7741C100.324 28.2327 100.655 28.5847 101.06 28.8301C101.476 29.0647 101.914 29.1821 102.372 29.1821C102.842 29.1821 103.279 29.0647 103.684 28.8301C104.09 28.5954 104.415 28.2541 104.66 27.8061C104.916 27.3474 105.044 26.8141 105.044 26.2061ZM117.36 25.9981C117.36 26.3287 117.339 26.6274 117.296 26.8941H110.56C110.613 27.5981 110.875 28.1634 111.344 28.5901C111.813 29.0167 112.389 29.2301 113.072 29.2301C114.053 29.2301 114.747 28.8194 115.152 27.9981H117.12C116.853 28.8087 116.368 29.4754 115.664 29.9981C114.971 30.5101 114.107 30.7661 113.072 30.7661C112.229 30.7661 111.472 30.5794 110.8 30.2061C110.139 29.8221 109.616 29.2887 109.232 28.6061C108.859 27.9127 108.672 27.1127 108.672 26.2061C108.672 25.2994 108.853 24.5047 109.216 23.8221C109.589 23.1287 110.107 22.5954 110.768 22.2221C111.44 21.8487 112.208 21.6621 113.072 21.6621C113.904 21.6621 114.645 21.8434 115.296 22.2061C115.947 22.5687 116.453 23.0807 116.816 23.7421C117.179 24.3927 117.36 25.1447 117.36 25.9981ZM115.456 25.4221C115.445 24.7501 115.205 24.2114 114.736 23.8061C114.267 23.4007 113.685 23.1981 112.992 23.1981C112.363 23.1981 111.824 23.4007 111.376 23.8061C110.928 24.2007 110.661 24.7394 110.576 25.4221H115.456ZM122.355 30.7661C121.662 30.7661 121.038 30.6434 120.483 30.3981C119.939 30.1421 119.507 29.8007 119.187 29.3741C118.867 28.9367 118.696 28.4514 118.675 27.9181H120.563C120.595 28.2914 120.771 28.6061 121.091 28.8621C121.422 29.1074 121.832 29.2301 122.323 29.2301C122.835 29.2301 123.23 29.1341 123.507 28.9421C123.795 28.7394 123.939 28.4834 123.939 28.1741C123.939 27.8434 123.779 27.5981 123.459 27.4381C123.15 27.2781 122.654 27.1021 121.971 26.9101C121.31 26.7287 120.771 26.5527 120.355 26.3821C119.939 26.2114 119.576 25.9501 119.267 25.5981C118.968 25.2461 118.819 24.7821 118.819 24.2061C118.819 23.7367 118.958 23.3101 119.235 22.9261C119.512 22.5314 119.907 22.2221 120.419 21.9981C120.942 21.7741 121.539 21.6621 122.211 21.6621C123.214 21.6621 124.019 21.9181 124.627 22.4301C125.246 22.9314 125.576 23.6194 125.619 24.4941H123.795C123.763 24.0994 123.603 23.7847 123.315 23.5501C123.027 23.3154 122.638 23.1981 122.147 23.1981C121.667 23.1981 121.299 23.2887 121.043 23.4701C120.787 23.6514 120.659 23.8914 120.659 24.1901C120.659 24.4247 120.744 24.6221 120.915 24.7821C121.086 24.9421 121.294 25.0701 121.539 25.1661C121.784 25.2514 122.147 25.3634 122.627 25.5021C123.267 25.6727 123.79 25.8487 124.195 26.0301C124.611 26.2007 124.968 26.4567 125.267 26.7981C125.566 27.1394 125.72 27.5927 125.731 28.1581C125.731 28.6594 125.592 29.1074 125.315 29.5021C125.038 29.8967 124.643 30.2061 124.131 30.4301C123.63 30.6541 123.038 30.7661 122.355 30.7661ZM128.63 20.6381C128.299 20.6381 128.022 20.5261 127.798 20.3021C127.574 20.0781 127.462 19.8007 127.462 19.4701C127.462 19.1394 127.574 18.8621 127.798 18.6381C128.022 18.4141 128.299 18.3021 128.63 18.3021C128.95 18.3021 129.222 18.4141 129.446 18.6381C129.67 18.8621 129.782 19.1394 129.782 19.4701C129.782 19.8007 129.67 20.0781 129.446 20.3021C129.222 20.5261 128.95 20.6381 128.63 20.6381ZM129.526 21.8061V30.6221H127.702V21.8061H129.526ZM135.473 21.6621C136.155 21.6621 136.758 21.8007 137.281 22.0781C137.814 22.3447 138.23 22.6807 138.529 23.0861V21.8061H140.369V30.7661C140.369 31.5767 140.198 32.2967 139.857 32.9261C139.515 33.5661 139.019 34.0674 138.369 34.4301C137.729 34.7927 136.961 34.9741 136.065 34.9741C134.87 34.9741 133.878 34.6914 133.089 34.1261C132.299 33.5714 131.851 32.8141 131.745 31.8541H133.553C133.691 32.3127 133.985 32.6807 134.433 32.9581C134.891 33.2461 135.435 33.3901 136.065 33.3901C136.801 33.3901 137.393 33.1661 137.841 32.7181C138.299 32.2701 138.529 31.6194 138.529 30.7661V29.2941C138.219 29.7101 137.798 30.0621 137.265 30.3501C136.742 30.6274 136.145 30.7661 135.473 30.7661C134.705 30.7661 134.001 30.5741 133.361 30.1901C132.731 29.7954 132.23 29.2514 131.857 28.5581C131.494 27.8541 131.313 27.0594 131.313 26.1741C131.313 25.2887 131.494 24.5047 131.857 23.8221C132.23 23.1394 132.731 22.6114 133.361 22.2381C134.001 21.8541 134.705 21.6621 135.473 21.6621ZM138.529 26.2061C138.529 25.5981 138.401 25.0701 138.145 24.6221C137.899 24.1741 137.574 23.8327 137.169 23.5981C136.763 23.3634 136.326 23.2461 135.857 23.2461C135.387 23.2461 134.95 23.3634 134.545 23.5981C134.139 23.8221 133.809 24.1581 133.553 24.6061C133.307 25.0434 133.185 25.5661 133.185 26.1741C133.185 26.7821 133.307 27.3154 133.553 27.7741C133.809 28.2327 134.139 28.5847 134.545 28.8301C134.961 29.0647 135.398 29.1821 135.857 29.1821C136.326 29.1821 136.763 29.0647 137.169 28.8301C137.574 28.5954 137.899 28.2541 138.145 27.8061C138.401 27.3474 138.529 26.8141 138.529 26.2061ZM147.212 21.6621C147.906 21.6621 148.524 21.8061 149.068 22.0941C149.623 22.3821 150.055 22.8087 150.364 23.3741C150.674 23.9394 150.828 24.6221 150.828 25.4221V30.6221H149.02V25.6941C149.02 24.9047 148.823 24.3021 148.428 23.8861C148.034 23.4594 147.495 23.2461 146.812 23.2461C146.13 23.2461 145.586 23.4594 145.18 23.8861C144.786 24.3021 144.588 24.9047 144.588 25.6941V30.6221H142.764V21.8061H144.588V22.8141C144.887 22.4514 145.266 22.1687 145.724 21.9661C146.194 21.7634 146.69 21.6621 147.212 21.6621ZM165.247 21.8061L159.839 34.7661H157.951L159.743 30.4781L156.271 21.8061H158.303L160.783 28.5261L163.359 21.8061H165.247ZM170.448 30.7661C169.616 30.7661 168.864 30.5794 168.192 30.2061C167.52 29.8221 166.992 29.2887 166.608 28.6061C166.224 27.9127 166.032 27.1127 166.032 26.2061C166.032 25.3101 166.229 24.5154 166.624 23.8221C167.018 23.1287 167.557 22.5954 168.24 22.2221C168.922 21.8487 169.685 21.6621 170.528 21.6621C171.37 21.6621 172.133 21.8487 172.816 22.2221C173.498 22.5954 174.037 23.1287 174.432 23.8221C174.826 24.5154 175.024 25.3101 175.024 26.2061C175.024 27.1021 174.821 27.8967 174.416 28.5901C174.01 29.2834 173.456 29.8221 172.752 30.2061C172.058 30.5794 171.29 30.7661 170.448 30.7661ZM170.448 29.1821C170.917 29.1821 171.354 29.0701 171.76 28.8461C172.176 28.6221 172.512 28.2861 172.768 27.8381C173.024 27.3901 173.152 26.8461 173.152 26.2061C173.152 25.5661 173.029 25.0274 172.784 24.5901C172.538 24.1421 172.213 23.8061 171.808 23.5821C171.402 23.3581 170.965 23.2461 170.496 23.2461C170.026 23.2461 169.589 23.3581 169.184 23.5821C168.789 23.8061 168.474 24.1421 168.24 24.5901C168.005 25.0274 167.888 25.5661 167.888 26.2061C167.888 27.1554 168.128 27.8914 168.608 28.4141C169.098 28.9261 169.712 29.1821 170.448 29.1821ZM184.811 21.8061V30.6221H182.987V29.5821C182.699 29.9447 182.32 30.2327 181.851 30.4461C181.392 30.6487 180.901 30.7501 180.379 30.7501C179.685 30.7501 179.061 30.6061 178.507 30.3181C177.963 30.0301 177.531 29.6034 177.211 29.0381C176.901 28.4727 176.747 27.7901 176.747 26.9901V21.8061H178.555V26.7181C178.555 27.5074 178.752 28.1154 179.147 28.5421C179.541 28.9581 180.08 29.1661 180.763 29.1661C181.445 29.1661 181.984 28.9581 182.379 28.5421C182.784 28.1154 182.987 27.5074 182.987 26.7181V21.8061H184.811ZM101.729 45.8061L98.9933 54.6221H97.0733L95.2973 48.1101L93.5213 54.6221H91.6013L88.8493 45.8061H90.7053L92.5453 52.8941L94.4173 45.8061H96.3213L98.1133 52.8621L99.9373 45.8061H101.729ZM111.172 49.9981C111.172 50.3287 111.151 50.6274 111.108 50.8941H104.372C104.426 51.5981 104.687 52.1634 105.156 52.5901C105.626 53.0167 106.202 53.2301 106.884 53.2301C107.866 53.2301 108.559 52.8194 108.964 51.9981H110.932C110.666 52.8087 110.18 53.4754 109.476 53.9981C108.783 54.5101 107.919 54.7661 106.884 54.7661C106.042 54.7661 105.284 54.5794 104.612 54.2061C103.951 53.8221 103.428 53.2887 103.044 52.6061C102.671 51.9127 102.484 51.1127 102.484 50.2061C102.484 49.2994 102.666 48.5047 103.028 47.8221C103.402 47.1287 103.919 46.5954 104.58 46.2221C105.252 45.8487 106.02 45.6621 106.884 45.6621C107.716 45.6621 108.458 45.8434 109.108 46.2061C109.759 46.5687 110.266 47.0807 110.628 47.7421C110.991 48.3927 111.172 49.1447 111.172 49.9981ZM109.268 49.4221C109.258 48.7501 109.018 48.2114 108.548 47.8061C108.079 47.4007 107.498 47.1981 106.804 47.1981C106.175 47.1981 105.636 47.4007 105.188 47.8061C104.74 48.2007 104.474 48.7394 104.388 49.4221H109.268ZM114.791 47.1181C115.101 46.6914 115.522 46.3447 116.055 46.0781C116.599 45.8007 117.202 45.6621 117.863 45.6621C118.642 45.6621 119.346 45.8487 119.975 46.2221C120.605 46.5954 121.101 47.1287 121.463 47.8221C121.826 48.5047 122.007 49.2887 122.007 50.1741C122.007 51.0594 121.826 51.8541 121.463 52.5581C121.101 53.2514 120.599 53.7954 119.959 54.1901C119.33 54.5741 118.631 54.7661 117.863 54.7661C117.181 54.7661 116.573 54.6327 116.039 54.3661C115.517 54.0994 115.101 53.7581 114.791 53.3421V54.6221H112.967V42.7821H114.791V47.1181ZM120.151 50.1741C120.151 49.5661 120.023 49.0434 119.767 48.6061C119.522 48.1581 119.191 47.8221 118.775 47.5981C118.37 47.3634 117.933 47.2461 117.463 47.2461C117.005 47.2461 116.567 47.3634 116.151 47.5981C115.746 47.8327 115.415 48.1741 115.159 48.6221C114.914 49.0701 114.791 49.5981 114.791 50.2061C114.791 50.8141 114.914 51.3474 115.159 51.8061C115.415 52.2541 115.746 52.5954 116.151 52.8301C116.567 53.0647 117.005 53.1821 117.463 53.1821C117.933 53.1821 118.37 53.0647 118.775 52.8301C119.191 52.5847 119.522 52.2327 119.767 51.7741C120.023 51.3154 120.151 50.7821 120.151 50.1741ZM127.011 54.7661C126.318 54.7661 125.694 54.6434 125.139 54.3981C124.595 54.1421 124.163 53.8007 123.843 53.3741C123.523 52.9367 123.353 52.4514 123.331 51.9181H125.219C125.251 52.2914 125.427 52.6061 125.747 52.8621C126.078 53.1074 126.489 53.2301 126.979 53.2301C127.491 53.2301 127.886 53.1341 128.163 52.9421C128.451 52.7394 128.595 52.4834 128.595 52.1741C128.595 51.8434 128.435 51.5981 128.115 51.4381C127.806 51.2781 127.31 51.1021 126.627 50.9101C125.966 50.7287 125.427 50.5527 125.011 50.3821C124.595 50.2114 124.233 49.9501 123.923 49.5981C123.625 49.2461 123.475 48.7821 123.475 48.2061C123.475 47.7367 123.614 47.3101 123.891 46.9261C124.169 46.5314 124.563 46.2221 125.075 45.9981C125.598 45.7741 126.195 45.6621 126.867 45.6621C127.87 45.6621 128.675 45.9181 129.283 46.4301C129.902 46.9314 130.233 47.6194 130.275 48.4941H128.451C128.419 48.0994 128.259 47.7847 127.971 47.5501C127.683 47.3154 127.294 47.1981 126.803 47.1981C126.323 47.1981 125.955 47.2887 125.699 47.4701C125.443 47.6514 125.315 47.8914 125.315 48.1901C125.315 48.4247 125.401 48.6221 125.571 48.7821C125.742 48.9421 125.95 49.0701 126.195 49.1661C126.441 49.2514 126.803 49.3634 127.283 49.5021C127.923 49.6727 128.446 49.8487 128.851 50.0301C129.267 50.2007 129.625 50.4567 129.923 50.7981C130.222 51.1394 130.377 51.5927 130.387 52.1581C130.387 52.6594 130.249 53.1074 129.971 53.5021C129.694 53.8967 129.299 54.2061 128.787 54.4301C128.286 54.6541 127.694 54.7661 127.011 54.7661ZM133.286 44.6381C132.955 44.6381 132.678 44.5261 132.454 44.3021C132.23 44.0781 132.118 43.8007 132.118 43.4701C132.118 43.1394 132.23 42.8621 132.454 42.6381C132.678 42.4141 132.955 42.3021 133.286 42.3021C133.606 42.3021 133.878 42.4141 134.102 42.6381C134.326 42.8621 134.438 43.1394 134.438 43.4701C134.438 43.8007 134.326 44.0781 134.102 44.3021C133.878 44.5261 133.606 44.6381 133.286 44.6381ZM134.182 45.8061V54.6221H132.358V45.8061H134.182ZM138.705 47.2941V52.1741C138.705 52.5047 138.78 52.7447 138.929 52.8941C139.089 53.0327 139.356 53.1021 139.729 53.1021H140.849V54.6221H139.409C138.588 54.6221 137.958 54.4301 137.521 54.0461C137.084 53.6621 136.865 53.0381 136.865 52.1741V47.2941H135.825V45.8061H136.865V43.6141H138.705V45.8061H140.849V47.2941H138.705ZM150.61 49.9981C150.61 50.3287 150.589 50.6274 150.546 50.8941H143.81C143.863 51.5981 144.125 52.1634 144.594 52.5901C145.063 53.0167 145.639 53.2301 146.322 53.2301C147.303 53.2301 147.997 52.8194 148.402 51.9981H150.37C150.103 52.8087 149.618 53.4754 148.914 53.9981C148.221 54.5101 147.357 54.7661 146.322 54.7661C145.479 54.7661 144.722 54.5794 144.05 54.2061C143.389 53.8221 142.866 53.2887 142.482 52.6061C142.109 51.9127 141.922 51.1127 141.922 50.2061C141.922 49.2994 142.103 48.5047 142.466 47.8221C142.839 47.1287 143.357 46.5954 144.018 46.2221C144.69 45.8487 145.458 45.6621 146.322 45.6621C147.154 45.6621 147.895 45.8434 148.546 46.2061C149.197 46.5687 149.703 47.0807 150.066 47.7421C150.429 48.3927 150.61 49.1447 150.61 49.9981ZM148.706 49.4221C148.695 48.7501 148.455 48.2114 147.986 47.8061C147.517 47.4007 146.935 47.1981 146.242 47.1981C145.613 47.1981 145.074 47.4007 144.626 47.8061C144.178 48.2007 143.911 48.7394 143.826 49.4221H148.706Z" fill="#2F281E"/>
</g>
<defs>
<filter id="filter0_d_17_1318" x="-8" y="-5.37793" width="253.188" height="87.9839" filterUnits="userSpaceOnUse" color-interpolation-filters="sRGB">
<feFlood flood-opacity="0" result="BackgroundImageFix"/>
<feColorMatrix in="SourceAlpha" type="matrix" values="0 0 0 0 0 0 0 0 0 0 0 0 0 0 0 0 0 0 127 0" result="hardAlpha"/>
<feOffset dy="2"/>
<feGaussianBlur stdDeviation="4"/>
<feColorMatrix type="matrix" values="0 0 0 0 0.337255 0 0 0 0 0.458824 0 0 0 0 0.572549 0 0 0 0.1 0"/>
<feBlend mode="normal" in2="BackgroundImageFix" result="effect1_dropShadow_17_1318"/>
<feBlend mode="normal" in="SourceGraphic" in2="effect1_dropShadow_17_1318" result="shape"/>
</filter>
<filter id="filter1_d_17_1318" x="181.605" y="44.2534" width="38.1167" height="38.3555" filterUnits="userSpaceOnUse" color-interpolation-filters="sRGB">
<feFlood flood-opacity="0" result="BackgroundImageFix"/>
<feColorMatrix in="SourceAlpha" type="matrix" values="0 0 0 0 0 0 0 0 0 0 0 0 0 0 0 0 0 0 127 0" result="hardAlpha"/>
<feOffset dy="2"/>
<feGaussianBlur stdDeviation="7.5"/>
<feColorMatrix type="matrix" values="0 0 0 0 0.0901961 0 0 0 0 0.227451 0 0 0 0 0.337255 0 0 0 0.1 0"/>
<feBlend mode="normal" in2="BackgroundImageFix" result="effect1_dropShadow_17_1318"/>
<feBlend mode="normal" in="SourceGraphic" in2="effect1_dropShadow_17_1318" result="shape"/>
</filter>
<clipPath id="clip0_17_1318">
<rect width="237.188" height="64.9867" fill="white" transform="translate(0 0.62207)"/>
</clipPath>
</defs>
</svg>
