<svg width="274" height="71" fill="none" xmlns="http://www.w3.org/2000/svg"><g clip-path="url(#a)"><g filter="url(#b)"><path fill-rule="evenodd" clip-rule="evenodd" d="M26.5.759C11.864.759 0 12.623 0 27.259c0 14.635 11.864 26.5 26.5 26.5h5.874a8.504 8.504 0 0 0 16.252 0H247.5c14.636 0 26.5-11.865 26.5-26.5 0-14.636-11.864-26.5-26.5-26.5h-221Z" fill="#fff"/></g><g filter="url(#c)"><circle cx="25.5" cy="66.258" r="4.5" fill="#fff"/></g><path d="M22.024 20.88V32H20.2V20.88h1.824Zm5.943 6.704c0-.907.181-1.701.544-2.384a3.967 3.967 0 0 1 1.536-1.6c.65-.373 1.397-.56 2.24-.56 1.067 0 1.947.256 2.64.768.704.501 1.179 1.221 1.424 2.16h-1.968a2.081 2.081 0 0 0-.768-1.024c-.352-.245-.795-.368-1.328-.368-.747 0-1.344.267-1.792.8-.437.523-.656 1.259-.656 2.208 0 .95.219 1.69.656 2.224.448.533 1.045.8 1.792.8 1.056 0 1.755-.464 2.096-1.392h1.968c-.256.896-.736 1.61-1.44 2.144-.704.523-1.579.784-2.624.784-.843 0-1.59-.187-2.24-.56a4.105 4.105 0 0 1-1.536-1.6c-.363-.693-.544-1.493-.544-2.4Zm9.594-.032c0-.885.181-1.67.544-2.352a4.062 4.062 0 0 1 3.616-2.16c.693 0 1.296.139 1.808.416.522.267.938.603 1.248 1.008v-1.28h1.84V32h-1.84v-1.312c-.31.416-.73.763-1.264 1.04s-1.142.416-1.824.416c-.758 0-1.45-.192-2.08-.576a4.275 4.275 0 0 1-1.504-1.632c-.363-.704-.544-1.499-.544-2.384Zm7.216.032c0-.608-.128-1.136-.384-1.584a2.585 2.585 0 0 0-.976-1.024 2.574 2.574 0 0 0-1.312-.352c-.47 0-.907.117-1.312.352-.406.224-.736.56-.992 1.008-.246.437-.368.96-.368 1.568 0 .608.122 1.141.368 1.6.256.459.586.81.992 1.056.416.235.853.352 1.312.352.47 0 .906-.117 1.312-.352.405-.235.73-.576.976-1.024.256-.459.384-.992.384-1.6Zm8.684-4.544c.693 0 1.312.144 1.855.432a3.06 3.06 0 0 1 1.296 1.28c.31.565.465 1.248.465 2.048V32h-1.808v-4.928c0-.79-.198-1.392-.593-1.808-.394-.427-.933-.64-1.616-.64-.682 0-1.226.213-1.632.64-.394.416-.591 1.019-.591 1.808V32h-1.825v-8.816h1.825v1.008a3.033 3.033 0 0 1 1.135-.848c.47-.203.966-.304 1.489-.304Zm14.658 0c.672 0 1.27.144 1.792.432.534.288.95.715 1.248 1.28.31.565.464 1.248.464 2.048V32h-1.808v-4.928c0-.79-.197-1.392-.592-1.808-.394-.427-.933-.64-1.616-.64-.682 0-1.226.213-1.632.64-.394.416-.592 1.019-.592 1.808V32H63.56V20.16h1.824v4.048a3.07 3.07 0 0 1 1.168-.864 3.99 3.99 0 0 1 1.568-.304Zm13.911 4.336c0 .33-.021.63-.064.896H75.23c.053.704.315 1.27.784 1.696.47.427 1.045.64 1.728.64.981 0 1.675-.41 2.08-1.232h1.968a3.998 3.998 0 0 1-1.456 2c-.693.512-1.557.768-2.592.768-.843 0-1.6-.187-2.272-.56a4.185 4.185 0 0 1-1.568-1.6c-.373-.693-.56-1.493-.56-2.4 0-.907.181-1.701.544-2.384a3.936 3.936 0 0 1 1.552-1.6c.672-.373 1.44-.56 2.304-.56.832 0 1.573.181 2.224.544a3.83 3.83 0 0 1 1.52 1.536c.363.65.544 1.403.544 2.256Zm-1.904-.576c-.01-.672-.25-1.21-.72-1.616-.47-.405-1.05-.608-1.744-.608-.63 0-1.168.203-1.616.608-.448.395-.715.933-.8 1.616h4.88Zm5.523-6.64V32h-1.824V20.16h1.824Zm4.219 4.32c.31-.405.73-.747 1.264-1.024.533-.277 1.136-.416 1.808-.416.768 0 1.466.192 2.096.576.64.373 1.141.901 1.504 1.584.362.683.544 1.467.544 2.352 0 .885-.182 1.68-.544 2.384a4.117 4.117 0 0 1-1.504 1.632 3.946 3.946 0 0 1-2.096.576c-.672 0-1.27-.133-1.792-.4a4.11 4.11 0 0 1-1.28-1.024v5.472h-1.824V23.184h1.824v1.296Zm5.36 3.072c0-.608-.128-1.13-.384-1.568a2.443 2.443 0 0 0-.992-1.008 2.574 2.574 0 0 0-1.312-.352c-.459 0-.896.117-1.312.352A2.696 2.696 0 0 0 90.236 26c-.246.448-.368.976-.368 1.584 0 .608.122 1.141.368 1.6.256.448.586.79.992 1.024.416.235.853.352 1.312.352.47 0 .906-.117 1.312-.352.416-.245.746-.597.992-1.056.256-.459.384-.992.384-1.6Zm18.488-4.512c.693 0 1.312.144 1.856.432.554.288.986.715 1.296 1.28.32.565.48 1.248.48 2.048V32h-1.808v-4.928c0-.79-.198-1.392-.592-1.808-.395-.427-.934-.64-1.616-.64-.683 0-1.227.213-1.632.64-.395.416-.592 1.019-.592 1.808V32H109.3v-4.928c0-.79-.198-1.392-.592-1.808-.395-.427-.934-.64-1.616-.64-.683 0-1.227.213-1.632.64-.395.416-.592 1.019-.592 1.808V32h-1.824v-8.816h1.824v1.008a3.025 3.025 0 0 1 1.136-.848 3.597 3.597 0 0 1 1.472-.304c.704 0 1.333.15 1.888.448.554.299.981.73 1.28 1.296.266-.533.682-.955 1.248-1.264a3.64 3.64 0 0 1 1.824-.48Zm5.345 4.512c0-.885.181-1.67.544-2.352a4.056 4.056 0 0 1 3.616-2.16c.693 0 1.296.139 1.808.416.522.267.938.603 1.248 1.008v-1.28h1.84V32h-1.84v-1.312c-.31.416-.731.763-1.264 1.04-.534.277-1.142.416-1.824.416a3.914 3.914 0 0 1-2.08-.576 4.268 4.268 0 0 1-1.504-1.632c-.363-.704-.544-1.499-.544-2.384Zm7.216.032c0-.608-.128-1.136-.384-1.584a2.591 2.591 0 0 0-.976-1.024 2.577 2.577 0 0 0-1.312-.352c-.47 0-.907.117-1.312.352-.406.224-.736.56-.992 1.008-.246.437-.368.96-.368 1.568 0 .608.122 1.141.368 1.6.256.459.586.81.992 1.056a2.63 2.63 0 0 0 1.312.352c.469 0 .906-.117 1.312-.352.405-.235.73-.576.976-1.024.256-.459.384-.992.384-1.6Zm6.06-3.12a2.811 2.811 0 0 1 1.056-1.04c.448-.256.976-.384 1.584-.384v1.888h-.464c-.715 0-1.259.181-1.632.544-.363.363-.544.992-.544 1.888V32h-1.824v-8.816h1.824v1.28Zm7.804 3.136 4.064 4.4h-2.464l-3.264-3.792V32h-1.824V20.16h1.824v6.88l3.2-3.856h2.528l-4.064 4.416Zm13.452-.224c0 .33-.022.63-.064.896h-6.736c.053.704.314 1.27.784 1.696.469.427 1.045.64 1.728.64.981 0 1.674-.41 2.08-1.232h1.967a3.992 3.992 0 0 1-1.455 2c-.694.512-1.558.768-2.592.768-.843 0-1.6-.187-2.272-.56a4.18 4.18 0 0 1-1.568-1.6c-.374-.693-.56-1.493-.56-2.4 0-.907.181-1.701.544-2.384a3.93 3.93 0 0 1 1.552-1.6c.672-.373 1.44-.56 2.304-.56.832 0 1.573.181 2.224.544.65.363 1.157.875 1.52 1.536.362.65.544 1.403.544 2.256Zm-1.904-.576c-.011-.672-.251-1.21-.72-1.616-.47-.405-1.051-.608-1.744-.608-.63 0-1.168.203-1.616.608-.448.395-.715.933-.8 1.616h4.88Zm5.827-2.128v4.88c0 .33.074.57.224.72.16.139.426.208.8.208h1.12V32h-1.44c-.822 0-1.451-.192-1.888-.576-.438-.384-.656-1.008-.656-1.872v-4.88h-1.04v-1.488h1.04v-2.192h1.84v2.192h2.144v1.488h-2.144Zm4.753-2.656a1.13 1.13 0 0 1-.832-.336 1.13 1.13 0 0 1-.336-.832c0-.33.112-.608.336-.832a1.13 1.13 0 0 1 .832-.336c.32 0 .592.112.816.336.224.224.336.501.336.832 0 .33-.112.608-.336.832a1.11 1.11 0 0 1-.816.336Zm.896 1.168V32h-1.824v-8.816h1.824Zm6.842-.144c.694 0 1.312.144 1.856.432.555.288.987.715 1.296 1.28.31.565.464 1.248.464 2.048V32h-1.808v-4.928c0-.79-.197-1.392-.592-1.808-.394-.427-.933-.64-1.616-.64-.682 0-1.226.213-1.632.64-.394.416-.592 1.019-.592 1.808V32h-1.824v-8.816h1.824v1.008a3.04 3.04 0 0 1 1.136-.848c.47-.203.966-.304 1.488-.304Zm9.495 0c.683 0 1.285.139 1.808.416.533.267.949.603 1.248 1.008v-1.28h1.84v8.96c0 .81-.171 1.53-.512 2.16a3.67 3.67 0 0 1-1.488 1.504c-.64.363-1.408.544-2.304.544-1.195 0-2.187-.283-2.976-.848-.789-.555-1.237-1.312-1.344-2.272h1.808c.139.459.432.827.88 1.104.459.288 1.003.432 1.632.432.736 0 1.328-.224 1.776-.672.459-.448.688-1.099.688-1.952v-1.472c-.309.416-.731.768-1.264 1.056-.523.277-1.12.416-1.792.416a4.028 4.028 0 0 1-2.112-.576 4.275 4.275 0 0 1-1.504-1.632c-.363-.704-.544-1.499-.544-2.384 0-.885.181-1.67.544-2.352a4.063 4.063 0 0 1 3.616-2.16Zm3.056 4.544c0-.608-.128-1.136-.384-1.584a2.584 2.584 0 0 0-.976-1.024 2.574 2.574 0 0 0-1.312-.352c-.469 0-.907.117-1.312.352a2.58 2.58 0 0 0-.992 1.008c-.245.437-.368.96-.368 1.568 0 .608.123 1.141.368 1.6.256.459.587.81.992 1.056a2.63 2.63 0 0 0 1.312.352c.469 0 .907-.117 1.312-.352s.731-.576.976-1.024c.256-.459.384-.992.384-1.6Zm11.592 4.56c-.693 0-1.317-.123-1.872-.368-.544-.256-.976-.597-1.296-1.024a2.588 2.588 0 0 1-.512-1.456h1.888c.032.373.208.688.528.944.331.245.741.368 1.232.368.512 0 .907-.096 1.184-.288.288-.203.432-.459.432-.768 0-.33-.16-.576-.48-.736-.309-.16-.805-.336-1.488-.528-.661-.181-1.2-.357-1.616-.528a2.898 2.898 0 0 1-1.088-.784c-.299-.352-.448-.816-.448-1.392 0-.47.139-.896.416-1.28.277-.395.672-.704 1.184-.928.523-.224 1.12-.336 1.792-.336 1.003 0 1.808.256 2.416.768.619.501.949 1.19.992 2.064h-1.824a1.3 1.3 0 0 0-.48-.944c-.288-.235-.677-.352-1.168-.352-.48 0-.848.09-1.104.272a.842.842 0 0 0-.384.72c0 .235.085.432.256.592.171.16.379.288.624.384.245.085.608.197 1.088.336.64.17 1.163.347 1.568.528.416.17.773.427 1.072.768.299.341.453.795.464 1.36 0 .501-.139.95-.416 1.344-.277.395-.672.704-1.184.928-.501.224-1.093.336-1.776.336Zm7.475-7.472v4.88c0 .33.075.57.224.72.16.139.427.208.8.208h1.12V32h-1.44c-.821 0-1.451-.192-1.888-.576-.437-.384-.656-1.008-.656-1.872v-4.88h-1.04v-1.488h1.04v-2.192h1.84v2.192h2.144v1.488h-2.144Zm5.649-.208a2.826 2.826 0 0 1 1.056-1.04c.448-.256.976-.384 1.584-.384v1.888h-.464c-.715 0-1.259.181-1.632.544-.363.363-.544.992-.544 1.888V32h-1.824v-8.816h1.824v1.28Zm3.709 3.088c0-.885.181-1.67.544-2.352a4.056 4.056 0 0 1 3.616-2.16c.693 0 1.296.139 1.808.416.522.267.938.603 1.248 1.008v-1.28h1.84V32h-1.84v-1.312c-.31.416-.731.763-1.264 1.04-.534.277-1.142.416-1.824.416a3.914 3.914 0 0 1-2.08-.576 4.268 4.268 0 0 1-1.504-1.632c-.363-.704-.544-1.499-.544-2.384Zm7.216.032c0-.608-.128-1.136-.384-1.584a2.591 2.591 0 0 0-.976-1.024 2.577 2.577 0 0 0-1.312-.352c-.47 0-.907.117-1.312.352-.406.224-.736.56-.992 1.008-.246.437-.368.96-.368 1.568 0 .608.122 1.141.368 1.6.256.459.586.81.992 1.056a2.63 2.63 0 0 0 1.312.352c.469 0 .906-.117 1.312-.352.405-.235.73-.576.976-1.024.256-.459.384-.992.384-1.6Zm6.363-2.912v4.88c0 .33.075.57.224.72.16.139.427.208.8.208h1.12V32h-1.44c-.821 0-1.45-.192-1.888-.576-.437-.384-.656-1.008-.656-1.872v-4.88h-1.04v-1.488h1.04v-2.192h1.84v2.192h2.144v1.488h-2.144Zm11.906 2.704c0 .33-.022.63-.064.896h-6.736c.053.704.314 1.27.784 1.696.469.427 1.045.64 1.728.64.981 0 1.674-.41 2.08-1.232h1.967a3.992 3.992 0 0 1-1.455 2c-.694.512-1.558.768-2.592.768-.843 0-1.6-.187-2.272-.56a4.18 4.18 0 0 1-1.568-1.6c-.374-.693-.56-1.493-.56-2.4 0-.907.181-1.701.544-2.384a3.93 3.93 0 0 1 1.552-1.6c.672-.373 1.44-.56 2.304-.56.832 0 1.573.181 2.224.544.65.363 1.157.875 1.52 1.536.362.65.544 1.403.544 2.256Zm-1.904-.576c-.011-.672-.251-1.21-.72-1.616-.47-.405-1.051-.608-1.744-.608-.63 0-1.168.203-1.616.608-.448.395-.715.933-.8 1.616h4.88Zm7.251-3.76c.682 0 1.285.139 1.808.416.533.267.949.603 1.248 1.008v-1.28h1.84v8.96c0 .81-.171 1.53-.512 2.16a3.682 3.682 0 0 1-1.488 1.504c-.64.363-1.408.544-2.304.544-1.195 0-2.187-.283-2.976-.848-.79-.555-1.238-1.312-1.344-2.272h1.808c.138.459.432.827.88 1.104.458.288 1.002.432 1.632.432.736 0 1.328-.224 1.776-.672.458-.448.688-1.099.688-1.952v-1.472c-.31.416-.731.768-1.264 1.056-.523.277-1.12.416-1.792.416a4.028 4.028 0 0 1-2.112-.576 4.268 4.268 0 0 1-1.504-1.632c-.363-.704-.544-1.499-.544-2.384 0-.885.181-1.67.544-2.352a4.056 4.056 0 0 1 3.616-2.16Zm3.056 4.544c0-.608-.128-1.136-.384-1.584a2.591 2.591 0 0 0-.976-1.024 2.577 2.577 0 0 0-1.312-.352c-.47 0-.907.117-1.312.352-.406.224-.736.56-.992 1.008-.246.437-.368.96-.368 1.568 0 .608.122 1.141.368 1.6.256.459.586.81.992 1.056a2.63 2.63 0 0 0 1.312.352c.469 0 .906-.117 1.312-.352.405-.235.73-.576.976-1.024.256-.459.384-.992.384-1.6Zm12.171-4.4-5.408 12.96h-1.888l1.792-4.288-3.472-8.672h2.032l2.48 6.72 2.576-6.72h1.888Z" fill="#2F281E"/></g><defs><filter id="b" x="-8" y="-5.241" width="290" height="75" filterUnits="userSpaceOnUse" color-interpolation-filters="sRGB"><feFlood flood-opacity="0" result="BackgroundImageFix"/><feColorMatrix in="SourceAlpha" values="0 0 0 0 0 0 0 0 0 0 0 0 0 0 0 0 0 0 127 0" result="hardAlpha"/><feOffset dy="2"/><feGaussianBlur stdDeviation="4"/><feColorMatrix values="0 0 0 0 0.337255 0 0 0 0 0.458824 0 0 0 0 0.572549 0 0 0 0.1 0"/><feBlend in2="BackgroundImageFix" result="effect1_dropShadow_17_194"/><feBlend in="SourceGraphic" in2="effect1_dropShadow_17_194" result="shape"/></filter><filter id="c" x="6" y="48.758" width="39" height="39" filterUnits="userSpaceOnUse" color-interpolation-filters="sRGB"><feFlood flood-opacity="0" result="BackgroundImageFix"/><feColorMatrix in="SourceAlpha" values="0 0 0 0 0 0 0 0 0 0 0 0 0 0 0 0 0 0 127 0" result="hardAlpha"/><feOffset dy="2"/><feGaussianBlur stdDeviation="7.5"/><feColorMatrix values="0 0 0 0 0.0901961 0 0 0 0 0.227451 0 0 0 0 0.337255 0 0 0 0.1 0"/><feBlend in2="BackgroundImageFix" result="effect1_dropShadow_17_194"/><feBlend in="SourceGraphic" in2="effect1_dropShadow_17_194" result="shape"/></filter><clipPath id="a"><path fill="#fff" transform="translate(0 .759)" d="M0 0h274v70H0z"/></clipPath></defs></svg>