<svg width="48" height="45" fill="none" xmlns="http://www.w3.org/2000/svg"><g filter="url(#a)" fill-rule="evenodd" clip-rule="evenodd"><path d="M7.133 34.459A3.142 3.142 0 0 1 4 31.326V20.372h7.886v-.012h4.74c1.222-.032 2.256-1.097 2.256-2.35a2.367 2.367 0 0 0-2.35-2.35h-6.266v.002H4v-3.135a3.142 3.142 0 0 1 3.133-3.133h9.4c2.38 0 4.417.846 6.077 2.538 1.692 1.66 2.538 3.697 2.538 6.078 0 2.35-.814 4.386-2.475 6.047-1.66 1.66-3.666 2.538-6.015 2.569h-6.392v4.7a3.142 3.142 0 0 1-3.133 3.133Z" fill="#02BC6B"/><path d="M29.098 5.758c3.46 3.362 5.205 7.55 5.205 12.31 0 4.68-1.671 8.863-5.08 12.235l-4.838-4.552c2.12-2.098 3.16-4.623 3.16-7.684 0-3.084-1.072-5.605-3.242-7.713l4.794-4.596Z" fill="#02897A"/><path d="M36.505 0C41.491 4.978 44 11.15 44 18.234c0 6.973-2.408 13.141-7.312 18.13l-4.67-4.563c3.654-3.716 5.443-8.223 5.443-13.567 0-5.398-1.85-9.901-5.582-13.628L36.505 0Z" fill="#035B81"/><path d="M4 26.652h6.266v4.674a3.142 3.142 0 0 1-3.133 3.133A3.142 3.142 0 0 1 4 31.326v-4.674Z" fill="#028E37"/></g><defs><filter id="a" x="0" y="0" width="48" height="44.364" filterUnits="userSpaceOnUse" color-interpolation-filters="sRGB"><feFlood flood-opacity="0" result="BackgroundImageFix"/><feColorMatrix in="SourceAlpha" values="0 0 0 0 0 0 0 0 0 0 0 0 0 0 0 0 0 0 127 0" result="hardAlpha"/><feOffset dy="4"/><feGaussianBlur stdDeviation="2"/><feComposite in2="hardAlpha" operator="out"/><feColorMatrix values="0 0 0 0 0 0 0 0 0 0 0 0 0 0 0 0 0 0 0.25 0"/><feBlend in2="BackgroundImageFix" result="effect1_dropShadow_2_0"/><feBlend in="SourceGraphic" in2="effect1_dropShadow_2_0" result="shape"/></filter></defs></svg>