<svg width="542" height="452" fill="none" xmlns="http://www.w3.org/2000/svg"><path d="M101.192 402.152c100.779 65.66 264.239 65.66 365.018 0 100.78-65.66 100.78-172.103 0-237.749-100.779-65.647-264.239-65.66-365.018 0-100.78 65.66-100.816 172.102 0 237.749Z" fill="#FAFAFA"/><path d="M495.289 159.59c.553-7.619 5.875-20.608 13.753-29.827 7.878-9.219 20.488-13.72 28.267-9.992 7.251 3.484 5.654 14.195-3.908 20.526-9.562 6.332-23.794 14.114-28.673 26.113l-9.439 14.398V159.59Z" fill="#02897A"/><path opacity=".2" d="M495.289 159.59c.553-7.619 5.875-20.608 13.753-29.827 7.878-9.219 20.488-13.72 28.267-9.992 7.251 3.484 5.654 14.195-3.908 20.526-9.562 6.332-23.794 14.114-28.673 26.113l-9.439 14.398V159.59Z" fill="#000"/><path d="M534.298 123.296c-9.033 1.898-35.506 20.703-38.972 49.093" stroke="#fff" stroke-miterlimit="10" stroke-linecap="round"/><path d="M496.358 193.797c1.389-4.067 7.436-11.619 16.137-15.32 8.701-3.702 15.264-7.01 18.435-12.975 3.171-5.966-2.347-11.823-11.135-11.402-8.787.42-23.425 10.575-24.457 26.709l1.02 12.988Z" fill="#02897A"/><path d="M524.269 158.926c-7.595.827-26.055 13.178-28.538 27.007" stroke="#fff" stroke-miterlimit="10" stroke-linecap="round"/><path d="M42.396 232.518c-.376-10.772-2.546-21.374-6.403-31.278-6.477-16.934-19.579-25.896-26.56-27.116-6.98-1.22-14.195 8.135-5.309 19.252 8.886 11.118 25.92 26.004 30.812 48.524l8 15.374-.54-24.756Z" fill="#02897A"/><path opacity=".2" d="M42.396 232.518c-.376-10.772-2.546-21.374-6.403-31.278-6.477-16.934-19.579-25.896-26.56-27.116-6.98-1.22-14.195 8.135-5.309 19.252 8.886 11.118 25.92 26.004 30.812 48.524l8 15.374-.54-24.756Z" fill="#000"/><path d="M9.434 179.29c14.33 9.409 30.934 34.097 33.257 66.907" stroke="#fff" stroke-linecap="round" stroke-linejoin="round"/><path d="M41.302 273.041c-1.979-8.744-7.153-17.272-17.489-25.841-10.336-8.568-24.15-15.93-23.02-24.675 1.131-8.745 11.602-8.135 19.271-4.271 7.67 3.864 20.968 19.768 22.873 38.993l-1.635 15.794Z" fill="#02897A"/><path d="M8.045 219.787c9.955 2.712 31.315 24.269 34.412 42.626" stroke="#fff" stroke-linecap="round" stroke-linejoin="round"/><path d="M44.129 278.437a6.647 6.647 0 0 1-2.004-2.337c-.491-.942-.773-2-.823-3.086V77.307a7.45 7.45 0 0 1 .826-3.084 6.685 6.685 0 0 1 2-2.339l63.381-40.361a4.969 4.969 0 0 1 2.729-.89 4.938 4.938 0 0 1 2.754.788 5.642 5.642 0 0 1 1.992 2.241c.468.933.696 1.989.661 3.053v13.07c0 1.993 1.229 2.807 2.839 1.803l79.309-50.502a4.968 4.968 0 0 1 2.725-.89 4.94 4.94 0 0 1 2.752.785 5.637 5.637 0 0 1 1.993 2.236c.469.93.699 1.984.666 3.048v300.82l-58.452 37.203-103.348-65.851Z" fill="#263238"/><path d="M203.274.99a5.564 5.564 0 0 0-2.752-.671 5.596 5.596 0 0 0-2.729.78l-79.309 50.503c-1.573 1.003-2.839.19-2.839-1.803v-13.07a6.368 6.368 0 0 0-.66-3.053 5.651 5.651 0 0 0-1.993-2.241 4.94 4.94 0 0 0-2.754-.788 4.969 4.969 0 0 0-2.729.89l-63.38 40.361a6.328 6.328 0 0 0-2.003 2.332L78.48 97.387l127.449-81.198V6.28a7.207 7.207 0 0 0-.755-2.994 6.488 6.488 0 0 0-1.9-2.294Z" fill="#455A64"/><path d="m203.102 4.475-84.618 53.892c-1.573 1.004-2.839.19-2.839-1.803V36.73c0-1.993-1.229-2.806-2.826-1.803l-63.38 40.361a6.671 6.671 0 0 0-2.003 2.338c-.492.943-.774 2-.825 3.086V269.72a7.407 7.407 0 0 0 .828 3.089 6.642 6.642 0 0 0 2.011 2.334l103.373 65.836 53.106-33.813V6.278c0-1.993-1.266-2.793-2.827-1.803Z" fill="#37474F"/><path d="M47.447 272.73a6.104 6.104 0 0 0 2.003 2.332l103.373 65.836 53.106-33.813V171.792L47.447 272.73Z" fill="#263238"/><path d="m60.278 315.816-.774-.488a5.343 5.343 0 0 1-1.605-1.863 5.954 5.954 0 0 1-.669-2.462v-183.64c.042-.868.27-1.713.665-2.465a5.298 5.298 0 0 1 1.609-1.86l170.71-108.734a4.63 4.63 0 0 1 2.268-.6c.788 0 1.565.206 2.267.6l.775.502a5.31 5.31 0 0 1 1.609 1.86c.395.752.623 1.597.664 2.465v183.6a5.95 5.95 0 0 1-.668 2.462 5.353 5.353 0 0 1-1.605 1.863L64.813 315.816c-.703.394-1.48.6-2.268.6a4.628 4.628 0 0 1-2.267-.6Z" fill="#F5F5F5"/><path d="m67.849 131.2-9.955-6.345a5.578 5.578 0 0 0-.664 2.468v183.64c.045.867.274 1.71.669 2.462a5.352 5.352 0 0 0 1.605 1.863l.774.488c.702.394 1.48.599 2.267.599.789 0 1.566-.205 2.268-.599l3.036-1.939V131.2Z" fill="#E0E0E0"/><path d="M62.552 314.338v-183.64a5.947 5.947 0 0 1 .662-2.461c.393-.751.94-1.39 1.6-1.864L235.523 17.64c1.229-.787 2.273-.15 2.273 1.45v183.641a5.95 5.95 0 0 1-.668 2.462 5.353 5.353 0 0 1-1.605 1.863l-170.71 108.76c-1.254.759-2.262.122-2.262-1.478Z" fill="#EBEBEB"/><path d="m75.997 132.786 148.343-94.47c1.561-1.004 2.826-.19 2.826 1.802v141.598a7.401 7.401 0 0 1-.823 3.086 6.65 6.65 0 0 1-2.003 2.337L75.997 281.596c-1.56 1.004-2.827.19-2.827-1.803V138.209a7.448 7.448 0 0 1 .826-3.084 6.677 6.677 0 0 1 2.001-2.339Z" fill="#fff"/><path d="M100.516 125.722c9.242-5.884 16.727-1.111 16.727 10.657s-7.485 26.072-16.727 31.956-16.727 1.125-16.727-10.643 7.485-26.085 16.727-31.97ZM116.014 168.402a8.19 8.19 0 0 1 2.362-2.924 7.206 7.206 0 0 1 3.308-1.422 6.936 6.936 0 0 1 3.533.388 7.564 7.564 0 0 1 2.989 2.114l19.271 22.14 36.625-99.12c.537-1.454 1.433-2.712 2.587-3.632a7.178 7.178 0 0 1 3.936-1.57 7.024 7.024 0 0 1 4.095.963c1.256.738 2.299 1.849 3.011 3.208l29.411 56.183v36.986a7.427 7.427 0 0 1-.823 3.086 6.642 6.642 0 0 1-2.004 2.337L75.997 281.596c-1.56 1.004-2.827.19-2.827-1.803v-23.455l42.844-87.936Z" fill="#FFB900"/><path d="m92.171 336.153-.787-.501a5.34 5.34 0 0 1-1.599-1.865 5.94 5.94 0 0 1-.662-2.46V147.619a5.94 5.94 0 0 1 .662-2.461c.393-.752.94-1.39 1.6-1.864l170.722-108.72a4.553 4.553 0 0 1 2.262-.608 4.55 4.55 0 0 1 2.261.608l.787.488a5.339 5.339 0 0 1 1.599 1.864c.393.751.62 1.594.662 2.46v183.641a5.837 5.837 0 0 1-.653 2.467 5.233 5.233 0 0 1-1.608 1.858L96.669 336.153a4.547 4.547 0 0 1-2.249.601 4.548 4.548 0 0 1-2.249-.601Z" fill="#F5F5F5"/><path d="m99.717 151.51-9.955-6.345a5.557 5.557 0 0 0-.663 2.454v183.64c.042.866.269 1.709.661 2.461.393.751.941 1.39 1.6 1.864l.787.501c.698.4 1.474.608 2.261.608.787 0 1.563-.208 2.261-.608l3.048-1.938V151.51Z" fill="#E0E0E0"/><path d="M94.408 334.648v-183.64c.043-.866.27-1.709.663-2.46a5.35 5.35 0 0 1 1.598-1.865L267.392 37.949c1.229-.8 2.261-.149 2.261 1.438v183.64a5.842 5.842 0 0 1-.652 2.466 5.249 5.249 0 0 1-1.609 1.859L96.669 336.153c-1.241.732-2.261.081-2.261-1.505Z" fill="#EBEBEB"/><path d="m107.866 153.123 148.342-94.484c1.561-.99 2.827-.176 2.827 1.803v141.571a7.447 7.447 0 0 1-.824 3.085 6.69 6.69 0 0 1-2.003 2.338L107.866 301.92c-1.574.99-2.839.19-2.839-1.803V158.546a7.426 7.426 0 0 1 .828-3.088 6.664 6.664 0 0 1 2.011-2.335Z" fill="#fff"/><path d="M132.385 146.032c9.23-5.884 16.727-1.112 16.727 10.656s-7.497 26.072-16.727 31.956-16.727 1.112-16.727-10.657c0-11.768 7.484-26.071 16.727-31.955ZM147.882 188.712a8.182 8.182 0 0 1 2.359-2.924 7.203 7.203 0 0 1 3.305-1.423 6.94 6.94 0 0 1 3.531.389 7.558 7.558 0 0 1 2.985 2.114l19.369 22.14 36.613-99.121c.536-1.457 1.432-2.718 2.587-3.64a7.184 7.184 0 0 1 3.942-1.576 7.022 7.022 0 0 1 4.1.968c1.258.74 2.302 1.855 3.013 3.218l29.398 56.183v36.972a7.447 7.447 0 0 1-.824 3.086 6.69 6.69 0 0 1-2.003 2.338L107.915 301.92c-1.573.99-2.839.19-2.839-1.803v-23.455l42.806-87.95Z" fill="#11B5E4"/><path d="m124.002 356.367-.774-.488a5.34 5.34 0 0 1-1.599-1.864 5.943 5.943 0 0 1-.662-2.461v-183.64a5.896 5.896 0 0 1 .665-2.465 5.295 5.295 0 0 1 1.608-1.86L293.951 54.855a4.63 4.63 0 0 1 2.268-.6c.788 0 1.565.206 2.267.6l.774.502a5.29 5.29 0 0 1 1.609 1.86c.396.752.624 1.597.665 2.465v183.64a5.946 5.946 0 0 1-.668 2.462 5.337 5.337 0 0 1-1.606 1.863l-170.71 108.72a4.63 4.63 0 0 1-2.274.603c-.79 0-1.569-.207-2.274-.603Z" fill="#F5F5F5"/><path d="m131.586 171.792-9.918-6.345a5.572 5.572 0 0 0-.664 2.468v183.64c.042.866.269 1.709.662 2.461a5.34 5.34 0 0 0 1.599 1.864l.775.488c.702.394 1.479.6 2.267.6.788 0 1.565-.206 2.268-.6l3.048-1.939-.037-182.637Z" fill="#E0E0E0"/><path d="M126.276 354.931V171.29a5.95 5.95 0 0 1 .662-2.46 5.324 5.324 0 0 1 1.6-1.864l170.71-108.748c1.229-.786 2.274-.149 2.274 1.451v183.654a5.947 5.947 0 0 1-.669 2.462 5.334 5.334 0 0 1-1.605 1.863l-170.71 108.72c-1.254.8-2.262.122-2.262-1.437Z" fill="#EBEBEB"/><path d="m139.722 173.365 148.342-94.47c1.561-1.004 2.827-.19 2.827 1.802v141.571a7.443 7.443 0 0 1-.824 3.085 6.69 6.69 0 0 1-2.003 2.338l-148.342 94.498c-1.561 1.003-2.827.19-2.827-1.803V178.774a7.448 7.448 0 0 1 .828-3.076 6.681 6.681 0 0 1 1.999-2.333Z" fill="#fff"/><path d="M164.241 166.315c9.242-5.885 16.727-1.112 16.727 10.656s-7.485 26.072-16.727 31.956c-9.243 5.884-16.764 1.139-16.764-10.643s7.521-26.085 16.764-31.969ZM179.739 208.994a8.179 8.179 0 0 1 2.362-2.924 7.201 7.201 0 0 1 3.308-1.422 6.937 6.937 0 0 1 3.533.388 7.56 7.56 0 0 1 2.988 2.115l19.308 22.139 36.625-99.121c.538-1.453 1.434-2.711 2.587-3.631a7.18 7.18 0 0 1 3.937-1.571 7.026 7.026 0 0 1 4.094.964c1.256.738 2.3 1.849 3.012 3.208l29.41 56.183v36.945a7.475 7.475 0 0 1-.833 3.085 6.71 6.71 0 0 1-2.006 2.339l-148.342 94.497c-1.561 1.004-2.827.19-2.827-1.803V296.93l42.844-87.936Z" fill="#F03E3D"/><path d="m152.823 340.898 15.928-10.141v20.296l-15.928-10.155Z" fill="#263238"/><path d="M168.751 199.07v148.377c0 1.993-1.229 2.793-2.827 1.803l-13.101-8.352-5.346 3.39 23.72 15.103a5.754 5.754 0 0 0 2.833.753c.985 0 1.956-.258 2.833-.753L341.17 254.806a6.668 6.668 0 0 0 2.008-2.336c.493-.943.778-2 .831-3.087V94.228a6.379 6.379 0 0 0-.667-3.052 5.654 5.654 0 0 0-1.996-2.24 4.95 4.95 0 0 0-2.755-.788 4.974 4.974 0 0 0-2.73.887L171.59 193.661a6.665 6.665 0 0 0-2.008 2.329 7.424 7.424 0 0 0-.831 3.08Z" fill="#263238"/><path d="M179.431 202.229 344.12 97.387v-3.16a6.38 6.38 0 0 0-.668-3.051 5.651 5.651 0 0 0-1.995-2.24 4.952 4.952 0 0 0-2.755-.788 4.98 4.98 0 0 0-2.731.887L171.59 193.661a6.096 6.096 0 0 0-2.003 2.332l9.844 6.236Z" fill="#455A64"/><path d="M341.17 92.424 176.9 197.05a6.668 6.668 0 0 0-2.008 2.336 7.44 7.44 0 0 0-.831 3.087v155.114c0 1.993 1.229 2.807 2.839 1.804l164.27-104.585a6.671 6.671 0 0 0 2.008-2.337c.493-.942.778-2 .831-3.086V94.227c0-1.993-1.278-2.806-2.839-1.803Z" fill="#37474F"/><path d="M217.801 293.134a1.625 1.625 0 0 1-.897-.257 2.35 2.35 0 0 1-.761-.958 2.62 2.62 0 0 1-.21-1.252v-75.409a6.684 6.684 0 0 1 .746-2.797 5.994 5.994 0 0 1 1.823-2.111l80.451-51.234a1.877 1.877 0 0 1 1.085-.464c.395-.031.79.069 1.133.288.343.219.618.547.791.941.172.394.233.836.175 1.268v75.409a6.684 6.684 0 0 1-.746 2.797 5.994 5.994 0 0 1-1.823 2.111l-80.452 51.302a2.453 2.453 0 0 1-1.315.366Zm82.468-133.096a1.264 1.264 0 0 0-.701.257l-80.452 51.221a4.73 4.73 0 0 0-1.372 1.62 5.257 5.257 0 0 0-.582 2.122v75.409a1.28 1.28 0 0 0 .061.564c.062.18.164.34.296.466a.935.935 0 0 0 .983-.176l80.451-51.235a4.675 4.675 0 0 0 1.374-1.611 5.217 5.217 0 0 0 .581-2.117v-75.409a1.258 1.258 0 0 0-.06-.565 1.151 1.151 0 0 0-.297-.465.493.493 0 0 0-.282-.081Z" fill="#FAFAFA"/><path d="M230.767 228.192a3.699 3.699 0 0 1-2.003-.569 5.576 5.576 0 0 1-1.754-2.284 6.2 6.2 0 0 1-.458-2.95 17.9 17.9 0 0 1 1.999-7.396c1.183-2.259 2.83-4.179 4.81-5.605a4.333 4.333 0 0 1 2.521-1.113 4.221 4.221 0 0 1 2.648.667 4.882 4.882 0 0 1 1.835 2.209c.393.925.523 1.96.37 2.968a17.878 17.878 0 0 1-1.995 7.399c-1.183 2.259-2.832 4.179-4.814 5.603a6.137 6.137 0 0 1-3.159 1.071Zm5.801-18.52a4.97 4.97 0 0 0-2.593.895c-1.793 1.301-3.284 3.049-4.351 5.102a16.255 16.255 0 0 0-1.794 6.72 4.076 4.076 0 0 0 .192 2.319c.288.73.781 1.339 1.406 1.737a3.11 3.11 0 0 0 2.066.473 3.243 3.243 0 0 0 1.916-.976c1.792-1.302 3.282-3.05 4.35-5.104a16.278 16.278 0 0 0 1.795-6.719 4.808 4.808 0 0 0-.3-2.272 4.333 4.333 0 0 0-1.298-1.795 2.439 2.439 0 0 0-1.389-.38ZM216.548 287.467a.618.618 0 0 1-.246-.122.619.619 0 0 1-.187-.163.68.68 0 0 1-.116-.231.722.722 0 0 1 .045-.514l23.818-51.588a5.488 5.488 0 0 1 1.517-1.975 4.824 4.824 0 0 1 2.161-1.01 4.614 4.614 0 0 1 2.341.174c.758.26 1.449.712 2.019 1.32l23.548 25a.718.718 0 0 1 0 .949.57.57 0 0 1-.872 0l-23.548-24.932a3.786 3.786 0 0 0-1.529-.992 3.501 3.501 0 0 0-1.769-.13c-.591.11-1.151.37-1.634.76-.484.39-.878.899-1.152 1.487l-23.819 51.601a.658.658 0 0 1-.241.275.584.584 0 0 1-.336.091Z" fill="#FAFAFA"/><path d="M259.035 246.875a.538.538 0 0 1-.246 0 .656.656 0 0 1-.323-.369.745.745 0 0 1 .004-.512l18.435-47.019a5.39 5.39 0 0 1 1.518-2.169 4.696 4.696 0 0 1 2.286-1.073 4.492 4.492 0 0 1 2.469.296c.787.33 1.483.878 2.023 1.59l16.764 22.357a.695.695 0 0 1 .144.492.693.693 0 0 1-.218.457.587.587 0 0 1-.787-.013l-16.764-22.357a3.716 3.716 0 0 0-1.511-1.205 3.369 3.369 0 0 0-1.852-.235 3.512 3.512 0 0 0-1.72.794 4.054 4.054 0 0 0-1.148 1.622l-18.435 47.005a.64.64 0 0 1-.271.281.562.562 0 0 1-.368.058Z" fill="#FAFAFA"/><path d="M319.367 126.82c-3.798 0-6.342-2.508-6.342-6.236l.332-23.51c0-6.412 0-16.147 6.489-20.336a8.276 8.276 0 0 1 4.474-1.517 8.196 8.196 0 0 1 4.55 1.213c1.39.847 2.548 2.091 3.352 3.603a10.545 10.545 0 0 1 1.217 4.985c0 1.884-.061 4.19-.159 6.86a2.208 2.208 0 0 1-.162.777c-.1.244-.244.464-.423.646a1.8 1.8 0 0 1-.618.414 1.708 1.708 0 0 1-1.414-.075 1.882 1.882 0 0 1-.58-.472 2.085 2.085 0 0 1-.371-.68 2.22 2.22 0 0 1-.107-.786c.086-2.563.147-4.881.147-6.684a6.145 6.145 0 0 0-.722-2.954 5.43 5.43 0 0 0-2.004-2.116 4.77 4.77 0 0 0-2.707-.665 4.849 4.849 0 0 0-2.629.976c-4.289 2.712-4.646 9.49-4.646 16.785l-.332 23.536c0 1.762 1.438 2.142 2.655 2.142 2.006-.053 3.914-.963 5.322-2.539s2.206-3.695 2.224-5.907l-.135-9.288c0-.539.194-1.056.54-1.438a1.763 1.763 0 0 1 1.304-.595c.489 0 .957.214 1.303.595.346.382.54.899.54 1.438l.135 9.301c.01 3.302-1.166 6.475-3.272 8.822-2.105 2.348-4.967 3.68-7.961 3.705Z" fill="#BA68C8"/><path d="m347.045 271.319-128.224 81.672a5.353 5.353 0 0 0-1.605 1.863 5.95 5.95 0 0 0-.668 2.462v.99c.043.869.272 1.715.667 2.469a5.36 5.36 0 0 0 1.606 1.87l106.986 68.141c.703.394 1.48.6 2.268.6.788 0 1.565-.206 2.267-.6l128.224-81.672a5.344 5.344 0 0 0 1.605-1.863 5.962 5.962 0 0 0 .669-2.462v-1.003a5.958 5.958 0 0 0-.669-2.462 5.336 5.336 0 0 0-1.605-1.863L351.58 271.319a4.63 4.63 0 0 0-2.268-.599c-.788 0-1.565.205-2.267.599Z" fill="#455A64"/><path d="M216.548 357.316v.99c.043.869.272 1.715.667 2.469a5.357 5.357 0 0 0 1.606 1.869l106.986 68.142a4.34 4.34 0 0 0 2.262.596v-12.69l-106.212-67.626-3.036 1.939a5.346 5.346 0 0 0-1.602 1.857 5.94 5.94 0 0 0-.671 2.454Z" fill="#263238"/><path d="m218.821 352.991 128.224-81.672a4.625 4.625 0 0 1 2.267-.6c.788 0 1.565.206 2.268.6l106.986 68.141c.276.099.517.293.688.552.17.259.262.572.262.892 0 .321-.092.633-.262.892-.171.26-.412.453-.688.552L330.342 424.02c-.702.394-1.479.6-2.267.6a4.632 4.632 0 0 1-2.268-.6l-106.986-68.141a1.396 1.396 0 0 1-.687-.552 1.624 1.624 0 0 1-.263-.892c0-.321.092-.633.263-.892.17-.26.411-.453.687-.552Z" fill="#37474F"/><path d="m234.737 355.879 83.094 52.875a4.553 4.553 0 0 0 2.261.608c.787 0 1.563-.209 2.262-.608l112.307-71.517c.277-.099.517-.293.688-.552.171-.259.263-.572.263-.892 0-.321-.092-.633-.263-.892a1.387 1.387 0 0 0-.688-.552l-83.093-52.875a4.695 4.695 0 0 0-2.268-.59c-.787 0-1.563.202-2.268.59l-112.295 71.517a1.391 1.391 0 0 0-.688.552 1.63 1.63 0 0 0-.262.892c0 .32.092.633.262.892.171.259.412.453.688.552Z" fill="#fff"/><path d="M260.362 344.694c5.863-3.729 15.375-3.729 21.238 0 5.862 3.728 5.874 9.788 0 13.557-5.875 3.769-15.375 3.729-21.238 0-5.862-3.728-5.862-9.816 0-13.557ZM434.674 334.39l-24.286-15.47-73.741-7.579a4.83 4.83 0 0 0-2.623.476 5.39 5.39 0 0 0-2.077 1.83 6.14 6.14 0 0 0-1.001 2.716 6.354 6.354 0 0 0 .33 2.91l12.733 35.155-40.558-2.549a4.805 4.805 0 0 0-2.314.428 5.275 5.275 0 0 0-1.914 1.498 5.971 5.971 0 0 0-1.131 2.268 6.362 6.362 0 0 0-.122 2.585l6.243 41.473 13.667 8.705a4.552 4.552 0 0 0 2.261.607c.788 0 1.563-.208 2.262-.607l112.308-71.518c.289-.092.544-.287.723-.554a1.62 1.62 0 0 0 .27-.926 1.62 1.62 0 0 0-.293-.916 1.368 1.368 0 0 0-.737-.532Z" fill="#02897A"/><path d="M434.281 236.056v-54.123l63.724-40.578v54.109l-63.724 40.592Z" fill="#EBEBEB"/><path d="M434.281 181.933 354.616 131.2v54.122l79.665 50.734v-54.123Z" fill="#E6E6E6"/><path d="m434.281 181.933 65.617-41.799-81.558-51.953-65.605 41.812 81.546 51.94Z" fill="#F0F0F0"/><path d="M434.281 181.933v13.53l65.617-41.785v-13.544l-65.617 41.799Z" fill="#EBEBEB"/><path d="m434.281 195.463 63.724-40.578v2.969l-63.724 40.592v-2.983Z" fill="#E6E6E6"/><path d="m352.735 129.993 81.546 51.94v13.53l-81.546-51.939v-13.531Z" fill="#EBEBEB"/><path d="m434.281 195.464-79.665-50.733v2.982l79.665 50.734v-2.983Z" fill="#E0E0E0" style="mix-blend-mode:multiply" opacity=".5"/><path d="m455.26 190.162 21.766-13.869c.934-.597 1.696-.109 1.696 1.084v14.195a4.477 4.477 0 0 1-.495 1.851 4.012 4.012 0 0 1-1.201 1.403l-21.766 13.883c-.946.597-1.696.122-1.696-1.071v-14.235a4.38 4.38 0 0 1 .49-1.848 3.928 3.928 0 0 1 1.206-1.393Z" fill="#E0E0E0"/><path d="m456.649 191.776 18.976-12.093c.627-.393 1.143-.068 1.143.718v10.684a2.923 2.923 0 0 1-.331 1.239 2.605 2.605 0 0 1-.812.93l-18.976 12.094c-.627.393-1.131 0-1.131-.733v-10.683c.019-.433.131-.855.328-1.23.196-.375.472-.692.803-.926Z" fill="#fff"/><path d="M434.281 175.141v-54.123l63.724-40.592v54.122l-63.724 40.593Z" fill="#EBEBEB"/><path d="m434.281 121.018-79.665-50.733v54.123l79.665 50.733v-54.123Z" fill="#E6E6E6"/><path d="m434.281 121.018 65.617-41.813-81.558-51.94-65.605 41.8 81.546 51.953Z" fill="#F5F5F5"/><path d="M434.281 121.018v13.531l65.617-41.785V79.206l-65.617 41.812Z" fill="#EBEBEB"/><path d="m434.281 134.549 63.724-40.592v2.983l-63.724 40.578v-2.969Z" fill="#E6E6E6"/><path d="m352.735 69.064 81.546 51.954v13.531l-81.546-51.94V69.065Z" fill="#EBEBEB"/><path d="m434.281 134.548-79.665-50.733v2.97l79.665 50.732v-2.969Z" fill="#E0E0E0" style="mix-blend-mode:multiply" opacity=".5"/><path d="m455.26 129.248 21.766-13.87c.934-.597 1.696-.109 1.696 1.085v14.195a4.522 4.522 0 0 1-.499 1.848 4.047 4.047 0 0 1-1.197 1.405l-21.766 13.856c-.946.597-1.696.109-1.696-1.084v-14.195a4.383 4.383 0 0 1 .49-1.848 3.916 3.916 0 0 1 1.206-1.392Z" fill="#E0E0E0"/><path d="m456.649 130.847 18.976-12.08c.627-.393 1.143-.081 1.143.719v10.588c-.024.435-.14.858-.338 1.235a2.725 2.725 0 0 1-.805.935l-18.976 12.08c-.627.406-1.131.081-1.131-.719v-10.643c.024-.426.139-.839.336-1.207.196-.367.469-.678.795-.908Z" fill="#fff"/><path d="m494.564 136.731-60.283 38.41-76.224-48.578-1.868 1.22 78.092 49.567 62.164-39.426-1.881-1.193Z" fill="#E0E0E0"/></svg>