<svg width="543" height="501" fill="none" xmlns="http://www.w3.org/2000/svg"><path d="M122.067 460.171c93.478 53.366 245.038 53.366 338.515 0 93.478-53.366 93.492-139.916 0-193.282-93.491-53.366-245.037-53.38-338.515 0-93.478 53.38-93.478 139.902 0 193.282Z" fill="#EBEBEB"/><path d="m488.078 327.76-13.636-8.48s-3.342-31.248-1.123-55.443c3.132-34.018 23.664-74.905 48.146-65.323 24.483 9.583-11.243 44.307-19.171 73.138-7.927 28.831-14.216 56.108-14.216 56.108Z" fill="#02897A"/><path opacity=".1" d="m488.078 327.76-13.636-8.48s-3.342-31.248-1.123-55.443c3.132-34.018 23.664-74.905 48.146-65.323 24.483 9.583-11.243 44.307-19.171 73.138-7.927 28.831-14.216 56.108-14.216 56.108Z" fill="#000"/><path d="M480.983 323.93a.508.508 0 0 1-.349-.135.575.575 0 0 1-.18-.346c-4.638-38.158 8.06-95.835 33.692-117.713a.494.494 0 0 1 .726.085.593.593 0 0 1-.079.792c-25.355 21.651-37.893 78.875-33.295 116.681a.594.594 0 0 1-.102.417.523.523 0 0 1-.347.219h-.066Z" fill="#fff"/><path d="m495.358 333.795-9.698-6.007s-1.652-21.439 8.178-47.486c8.549-22.613 29.781-41.495 40.457-37.537 10.675 3.957 10.411 12.055 5.205 20.549-5.205 8.494-36.876 28.746-44.142 70.481Z" fill="#02897A"/><path d="M489.346 334.346a.501.501 0 0 1-.362-.186.582.582 0 0 1-.127-.408c3.197-53.365 28.433-79.61 43.601-83.61a.512.512 0 0 1 .401.065c.121.077.209.2.246.345a.603.603 0 0 1-.061.423.53.53 0 0 1-.322.255c-15.974 4.24-39.809 32.647-42.795 82.593a.595.595 0 0 1-.056.217.548.548 0 0 1-.316.284c-.067.022-.139.03-.209.022Z" fill="#fff"/><path d="M95.352 331.915s1.81-31.333-15.208-52.815c-17.017-21.482-39.175-21.397-46.508-17.397-7.332 3.999-12.26 15.433.357 23.616 12.618 8.183 39.452 24.563 43.918 39.176l17.44 7.42Z" fill="#02897A"/><path opacity=".1" d="M95.352 331.915s1.81-31.333-15.208-52.815c-17.017-21.482-39.175-21.397-46.508-17.397-7.332 3.999-12.26 15.433.357 23.616 12.618 8.183 39.452 24.563 43.918 39.176l17.44 7.42Z" fill="#000"/><path d="M87.345 324.072a.654.654 0 0 1-.442-.185.74.74 0 0 1-.219-.451c-3.501-34.668-35.898-53.875-48.806-56.051a.633.633 0 0 1-.246-.095.685.685 0 0 1-.193-.187.76.76 0 0 1-.035-.793.697.697 0 0 1 .176-.207.649.649 0 0 1 .496-.132c13.212 2.219 46.336 21.864 49.93 57.309a.737.737 0 0 1-.146.522.677.677 0 0 1-.2.176.632.632 0 0 1-.25.08l-.065.014Z" fill="#fff"/><path d="M81.043 316.114c-4.268-10.401-9.09-15.065-22.964-12.578-13.873 2.488-11.89 2.106-28.869-2.544-7.16-1.95-15.207-2.261-22.078 1.046-5.8 2.827-10.134 8.48-4.518 14.5 6.315 6.728 15.736 9.031 22.712 14.953 1.582 1.197 2.84 2.821 3.646 4.706 1.837 5.003-1.836 10.642-.766 15.886 1.07 5.243 6.223 8.041 11.059 8.381 4.836.339 9.605-1.216 14.428-1.809 4.822-.594 10.24 0 13.57 3.83 3.566 4.056 3.659 10.543 6.975 14.853 4.968 6.459 17.176 8.254 23.783 4.24l17.295-10.67c11.428-16.479-6.607-29.538-16.053-42.328-4.585-6.233-15.657-6.205-18.22-12.466Z" fill="#02897A"/><path d="M104.6 360.959a.593.593 0 0 1-.321-.088.646.646 0 0 1-.234-.252c-19.726-34.187-73.434-51.486-92.434-52.899a.649.649 0 0 1-.447-.241.741.741 0 0 1 .064-.992.646.646 0 0 1 .476-.18c19.25 1.413 73.474 18.966 93.464 53.606a.761.761 0 0 1 .073.536.725.725 0 0 1-.297.439.746.746 0 0 1-.344.071Z" fill="#fff"/><path d="M42.119 344.847a.596.596 0 0 1-.297-.072.64.64 0 0 1-.232-.211.743.743 0 0 1 .132-.989c.688-.551 17.07-13.412 33.032-13.667a.608.608 0 0 1 .251.049.653.653 0 0 1 .359.376.73.73 0 0 1 .05.268.746.746 0 0 1-.184.504.656.656 0 0 1-.463.217c-15.498.24-32.054 13.256-32.225 13.384a.585.585 0 0 1-.423.141Z" fill="#fff"/><path d="M103.372 372.971a13.774 13.774 0 0 0 1.726 5.811 12.753 12.753 0 0 0 3.995 4.351l160.306 99.001a11.982 11.982 0 0 0 5.721 1.463c1.988 0 3.948-.501 5.721-1.463L500.167 346.67c1.729-.976 3.176-2.438 4.185-4.229a12.105 12.105 0 0 0 1.543-5.933c0-2.091-.534-4.142-1.543-5.933-1.009-1.79-2.456-3.252-4.185-4.228l-160.293-98.931a11.982 11.982 0 0 0-5.721-1.463c-1.988 0-3.948.501-5.721 1.463L109.093 362.838a12.76 12.76 0 0 0-3.989 4.338 13.77 13.77 0 0 0-1.732 5.795Z" fill="#37474F"/><path d="m169.513 325.498-60.42 37.339c-1.729.976-3.176 2.439-4.185 4.229a12.094 12.094 0 0 0-1.543 5.933c0 2.091.533 4.142 1.543 5.933 1.009 1.791 2.456 3.253 4.185 4.229l160.306 99.001a11.053 11.053 0 0 0 5.721 1.413V325.498H169.513Z" fill="#263238"/><path d="M97.994 363.036a12.88 12.88 0 0 1-3.839-4.511 13.86 13.86 0 0 1-1.525-5.877V148.017a14.21 14.21 0 0 1 1.674-6.032 13.17 13.17 0 0 1 4.047-4.567L317.677 1.954a10.256 10.256 0 0 1 5.517-1.757c1.954-.038 3.88.493 5.573 1.538 1.693 1.045 3.087 2.563 4.034 4.392a12.168 12.168 0 0 1 1.339 5.988V216.76a14.25 14.25 0 0 1-1.677 6.031 13.217 13.217 0 0 1-4.044 4.569L109.093 362.838a11.674 11.674 0 0 1-5.528 1.516 11.625 11.625 0 0 1-5.57-1.318Z" fill="#455A64"/><path d="m119.478 157.529-25.17-15.546a13.195 13.195 0 0 0-1.599 6.034v204.631a13.86 13.86 0 0 0 1.525 5.877 12.878 12.878 0 0 0 3.84 4.511 11.626 11.626 0 0 0 5.567 1.3 11.654 11.654 0 0 0 5.518-1.527l25.024-15.447-14.705-189.833Z" fill="#263238"/><path d="M103.372 154.66v204.616c0 3.901 2.563 5.484 5.721 3.533l219.326-135.45a13.214 13.214 0 0 0 4.044-4.568 14.25 14.25 0 0 0 1.677-6.031V12.13c0-3.901-2.564-5.484-5.721-3.534L109.093 144.06a13.162 13.162 0 0 0-4.047 4.567 14.208 14.208 0 0 0-1.674 6.033Z" fill="#37474F"/><path d="m109.093 369.904 160.306 98.93a11.983 11.983 0 0 0 5.721 1.464c1.988 0 3.948-.502 5.721-1.464L500.167 333.37c3.171-1.95 3.171-5.116 0-7.066l-160.293-98.931a11.982 11.982 0 0 0-5.721-1.463c-1.988 0-3.948.501-5.721 1.463L109.093 362.837c-3.171 1.922-3.171 5.088 0 7.067Z" fill="#455A64"/><path d="M112.171 155.409 325.354 23.761c1.889-1.173 3.435-.226 3.435 2.12v177.128a8.559 8.559 0 0 1-1.009 3.617 7.945 7.945 0 0 1-2.426 2.742L112.171 341.016c-1.902 1.173-3.435.227-3.435-2.119V161.769a8.529 8.529 0 0 1 1.005-3.621 7.899 7.899 0 0 1 2.43-2.739Z" fill="#fff"/><path d="m127.696 364.576 203.59-125.783a5.99 5.99 0 0 1 2.86-.731c.994 0 1.974.25 2.861.731l10.425 6.43c.345.126.644.363.857.68.212.317.326.697.326 1.087s-.114.77-.326 1.087a1.765 1.765 0 0 1-.857.68l-203.63 125.768a5.994 5.994 0 0 1-2.861.731c-.994 0-1.974-.25-2.86-.731l-10.385-6.416a1.755 1.755 0 0 1-.857-.68 1.95 1.95 0 0 1-.327-1.086c0-.39.114-.77.327-1.087.212-.317.512-.555.857-.68ZM154.543 381.21 358.12 255.427a6.017 6.017 0 0 1 2.867-.731c.996 0 1.978.25 2.867.731l64.041 39.572c.345.126.645.363.857.68.212.317.327.697.327 1.087s-.115.77-.327 1.087a1.76 1.76 0 0 1-.857.68L224.543 424.061a6.017 6.017 0 0 1-2.867.731 6.02 6.02 0 0 1-2.868-.731l-64.265-39.388a1.754 1.754 0 0 1-.811-.68 1.946 1.946 0 0 1-.306-1.052c0-.375.107-.742.306-1.052.2-.309.483-.546.811-.679Z" fill="#263238"/><path d="m337.033 311.959 6.382-3.943c.264-.17.251-.438 0-.622l-7.373-4.551a1.057 1.057 0 0 0-.508-.132 1.06 1.06 0 0 0-.509.132l-6.369 3.943c-.277.17-.264.439 0 .622l7.373 4.551a1.048 1.048 0 0 0 1.004 0Zm-12.578-15.546-6.368 3.943c-.278.155-.265.438 0 .622l7.372 4.551c.157.086.332.132.509.132s.351-.046.508-.132l6.382-3.943c.264-.17.251-.453 0-.622l-7.386-4.551a1.046 1.046 0 0 0-1.017 0Zm-20.585 12.72-10.795 6.656c-.264.17-.251.452 0 .636l7.373 4.551a1.05 1.05 0 0 0 1.017 0l10.782-6.657c.277-.169.251-.452 0-.621l-7.373-4.565a1.023 1.023 0 0 0-1.004 0Zm11.27-6.968-6.368 3.943c-.278.17-.264.452 0 .622l7.372 4.551a1.052 1.052 0 0 0 1.018 0l6.381-3.943c.265-.17.251-.438 0-.622l-7.385-4.65a1.052 1.052 0 0 0-1.018 0v.099Zm-25.011 15.447-6.368 3.929c-.278.17-.251.453 0 .636l7.372 4.551a1.066 1.066 0 0 0 1.004 0l6.382-3.943c.264-.17.251-.452 0-.622l-7.373-4.551a1.057 1.057 0 0 0-.508-.132 1.06 1.06 0 0 0-.509.132Zm-9.249 5.752-6.368 3.943c-.277.156-.251.439 0 .622l7.373 4.551a1.046 1.046 0 0 0 1.017 0l6.381-3.943c.265-.17.252-.452 0-.622l-7.451-4.65a1.064 1.064 0 0 0-.509-.132c-.177 0-.351.046-.509.132l.066.099Zm29.002 18.515 6.368-3.944c.277-.169.251-.438 0-.621l-7.373-4.551a1.02 1.02 0 0 0-1.004 0l-6.381 3.943c-.265.169-.251.438 0 .622l7.372 4.551a1.056 1.056 0 0 0 .952-.071l.066.071Zm-9.328 5.752 6.381-3.943c.265-.156.251-.439 0-.622l-7.372-4.551a1.052 1.052 0 0 0-1.018 0l-6.368 3.943c-.277.17-.251.452 0 .622l7.372 4.551a1.031 1.031 0 0 0 .939-.071l.066.071Zm-9.315 5.752 6.381-3.929c.265-.17.252-.453 0-.636l-7.372-4.551a1.082 1.082 0 0 0-1.017 0l-6.369 3.943c-.277.17-.251.452 0 .622l7.36 4.551a1.052 1.052 0 0 0 .951-.071l.066.071Zm-9.249 5.752 6.382-3.929c.264-.17.251-.452 0-.636l-7.373-4.551a1.046 1.046 0 0 0-1.017 0l-6.368 3.929c-.278.17-.265.452 0 .636l7.372 4.551c.288.1.601.075.872-.071l.132.071Zm45.861-41.325 6.381-3.943c.264-.155.251-.438 0-.622l-7.372-4.551a1.099 1.099 0 0 0-1.018 0l-6.368 3.944c-.278.169-.264.452 0 .621l7.372 4.551a1.048 1.048 0 0 0 .872-.071l.133.071Zm-8.589 18.373 14.217-8.791c.264-.155.251-.438 0-.622l-17.903-11.052a1.06 1.06 0 0 0-.508-.132 1.06 1.06 0 0 0-.509.132l-7.346 4.551c-.278.156-.251.438 0 .622l9.486 5.851c.291.184.304.467 0 .636l-5.985 3.477c-.264.155-.251.438 0 .622l7.399 4.508a1.046 1.046 0 0 0 1.017.071l.132.127Zm-47.63-7.066-6.369 3.943c-.277.169-.264.438 0 .621l7.373 4.551a1.05 1.05 0 0 0 1.017 0l6.382-3.943c.264-.169.251-.438 0-.622l-7.373-4.55a1.04 1.04 0 0 0-1.162-.071l.132.071Zm-9.249 5.752-6.58 3.943c-.264.169-.251.452 0 .622l7.373 4.55a1.046 1.046 0 0 0 1.017 0l6.382-3.943c.264-.155.251-.438 0-.622l-7.426-4.593a1.053 1.053 0 0 0-.964-.028l.198.071Zm-46.798 64.446c.157.086.331.132.508.132s.352-.046.509-.132l6.382-3.943c.264-.156.251-.439 0-.622l-7.399-4.523a1.052 1.052 0 0 0-1.018 0l-6.368 3.943c-.278.17-.264.453 0 .622l7.386 4.523Zm-27.971-18.486-6.382 3.943c-.264.169-.251.438 0 .622l7.373 4.551c.157.086.332.132.509.132s.351-.046.508-.132l6.382-3.944c.264-.169.251-.438 0-.621l-7.373-4.551a1.048 1.048 0 0 0-.977 0h-.04Zm14.996 13.497a1.05 1.05 0 0 0 1.017 0l6.369-3.943c.277-.156.251-.438 0-.622l-7.36-4.551a1.046 1.046 0 0 0-1.017 0l-6.381 3.943c-.265.17-.252.452 0 .622l7.372 4.551Zm29.424 8.479 6.382-3.943c.264-.169.251-.438 0-.621l-7.373-4.551a1.05 1.05 0 0 0-1.017 0l-6.369 3.943c-.277.155-.251.438 0 .622l7.36 4.55a1.051 1.051 0 0 0 1.057.015l-.04-.015Zm-10.332 5.654c.157.086.332.132.509.132s.351-.046.508-.132l6.382-3.943c.264-.156.251-.439 0-.622l-7.373-4.551a1.046 1.046 0 0 0-1.017 0l-6.368 3.943c-.278.17-.265.452 0 .622l7.359 4.551Zm-24.773-33.467-6.369 3.943c-.277.155-.264.438 0 .622l7.373 4.551c.157.086.332.132.509.132.176 0 .351-.046.508-.132l6.382-3.943c.264-.17.251-.453 0-.622l-7.373-4.551a1.045 1.045 0 0 0-.991.085l-.039-.085Zm46.587-28.761-6.382 3.929c-.264.17-.251.453 0 .622l7.373 4.565a1.08 1.08 0 0 0 1.017 0l6.368-3.929c.278-.169.265-.452 0-.636l-7.372-4.551a1.064 1.064 0 0 0-.492-.076c-.167.015-.328.07-.473.161l-.039-.085Zm-37.18 23.094-6.368 3.929c-.278.169-.265.452 0 .636l7.372 4.55a1.082 1.082 0 0 0 1.017 0l6.382-3.943c.264-.169.251-.452 0-.622l-7.373-4.565a1.093 1.093 0 0 0-.516-.123c-.179.003-.355.05-.514.138Zm46.587-28.775-6.435 3.915c-.264.169-.251.452 0 .622l7.373 4.55a1.047 1.047 0 0 0 1.017 0l6.369-3.928c.277-.17.264-.453 0-.636l-7.346-4.495a1.098 1.098 0 0 0-1.031-.028h.053Zm-18.63 11.518-6.381 3.929c-.264.17-.251.453 0 .636l7.372 4.551a1.088 1.088 0 0 0 1.018 0l6.368-3.929c.278-.169.251-.452 0-.636l-7.359-4.551a1.1 1.1 0 0 0-.535-.141c-.187 0-.37.049-.535.141h.052Zm-9.328 5.752-6.368 3.929c-.277.17-.251.453 0 .636l7.373 4.551a1.08 1.08 0 0 0 1.017 0l6.368-3.929c.265-.169.251-.452 0-.636l-7.372-4.551a1.1 1.1 0 0 0-.535-.141c-.187 0-.37.049-.535.141h.052Zm-9.38 5.753-6.369 3.928c-.277.17-.251.453 0 .636l7.36 4.551a1.046 1.046 0 0 0 1.017 0l6.382-3.929c.264-.169.251-.452 0-.636l-7.373-4.55a1.082 1.082 0 0 0-1.017 0Zm47.63 7.066 6.369-3.929c.277-.17.264-.452 0-.636l-7.386-4.65a1.094 1.094 0 0 0-.509-.127c-.176 0-.35.044-.508.127l-6.382 3.929c-.264.17-.251.453 0 .636l7.373 4.551c.16.098.34.153.525.158.184.004.367-.04.532-.13l-.014.071Zm81.851-86.946-6.381 3.943c-.265.17-.251.439 0 .622l7.372 4.551a1.052 1.052 0 0 0 1.018 0l6.368-3.943c.277-.17.264-.438 0-.622l-7.373-4.551a1.052 1.052 0 0 0-1.004 0Zm-11.283 6.968-6.368 3.943c-.278.155-.252.438 0 .622l7.359 4.551c.158.083.332.127.509.127.176 0 .35-.044.508-.127l6.382-3.944c.264-.169.251-.452 0-.621l-7.373-4.551a1.066 1.066 0 0 0-.507-.172 1.054 1.054 0 0 0-.523.101l.013.071Zm20.598-12.72-6.368 3.943c-.278.156-.265.438 0 .622l7.372 4.551a1.05 1.05 0 0 0 1.018 0l6.381-3.943c.264-.17.251-.452 0-.622l-7.372-4.551a1.044 1.044 0 0 0-1.097-.07l.066.07Zm-48.225 53.197 6.381-3.944c.265-.169.251-.452 0-.621l-7.372-4.551a1.052 1.052 0 0 0-1.018 0l-6.368 3.943c-.277.155-.264.438 0 .622l7.373 4.551a1.06 1.06 0 0 0 .991-.071l.013.071Zm58.557-58.921a1.06 1.06 0 0 0-.509-.132c-.177 0-.351.046-.508.132l-6.369 3.943c-.277.156-.264.439 0 .622l7.373 4.551a1.082 1.082 0 0 0 1.017 0l6.382-3.943c.264-.17.251-.452 0-.622l-7.386-4.551Zm-92.17 92.599 6.382-3.929c.264-.169.251-.452 0-.636l-7.412-4.48a1.052 1.052 0 0 0-1.018 0l-6.368 3.929c-.277.17-.264.452 0 .636l7.373 4.551a1.087 1.087 0 0 0 1.043-.071Zm114.248-70.551 6.382-3.943c.264-.156.251-.438 0-.622l-7.412-4.593a1.052 1.052 0 0 0-1.018 0l-6.368 3.943c-.278.169-.264.452 0 .622l7.372 4.55a1.047 1.047 0 0 0 1.044.043Zm-19.819-.749 6.382-3.943c.264-.17.251-.439 0-.622l-7.372-4.551a1.052 1.052 0 0 0-1.018 0l-6.368 3.943c-.278.17-.264.438 0 .622l7.372 4.551a1.05 1.05 0 0 0 .978.07l.026-.07Zm8.285-14.868a1.052 1.052 0 0 0-1.018 0l-6.368 3.943c-.278.155-.264.438 0 .622l7.372 4.551c.158.086.332.132.509.132s.352-.046.509-.132l6.381-3.943c.265-.17.251-.453 0-.622l-7.385-4.551Zm1.968-1.216 17.89 11.052a1.05 1.05 0 0 0 1.017 0l6.382-3.943c.264-.169.251-.438 0-.622l-17.903-11.052a1.06 1.06 0 0 0-.509-.132c-.177 0-.351.046-.508.132l-6.369 3.944c-.343.155-.317.438-.026.621h.026Zm-21.615 12.72-6.382 3.943c-.264.17-.251.452 0 .622l7.373 4.551a1.046 1.046 0 0 0 1.017 0l6.368-3.943c.278-.156.265-.438 0-.622l-7.372-4.551a1.044 1.044 0 0 0-.978-.028l-.026.028Zm-70.118 43.303-6.409 3.943c-.264.17-.251.453 0 .622l7.373 4.551a1.05 1.05 0 0 0 1.017 0l6.369-3.943c.277-.156.264-.438 0-.622l-7.373-4.551a1.05 1.05 0 0 0-1.004-.028l.027.028Zm90.993-33.438a1.052 1.052 0 0 0 1.018 0l6.381-3.943c.265-.156.251-.438 0-.622l-7.372-4.551a1.094 1.094 0 0 0-1.018 0l-6.368 3.943c-.277.17-.264.452 0 .622l7.359 4.551Zm-81.679 27.686-6.368 3.943c-.278.17-.264.438 0 .622l7.372 4.551a1.052 1.052 0 0 0 1.018 0l6.381-3.943c.265-.17.251-.438 0-.622l-7.372-4.551a1.045 1.045 0 0 0-1.057-.028l.026.028Zm-69.841 65.888a1.052 1.052 0 0 0 1.018 0l6.381-3.943c.265-.17.251-.438 0-.622l-7.372-4.551a1.05 1.05 0 0 0-1.017 0l-6.369 3.943c-.277.17-.251.438 0 .622l7.359 4.551Zm-14.005-14.133-6.381 3.943c-.265.17-.251.438 0 .622l7.372 4.551c.157.086.332.132.509.132s.351-.046.509-.132l6.368-3.943c.277-.17.264-.439 0-.622l-7.373-4.551a1.052 1.052 0 0 0-1.03 0h.026Zm24.351 8.381 6.368-3.943c.264-.17.251-.453 0-.622l-7.372-4.551a1.052 1.052 0 0 0-1.018 0l-6.434 3.901c-.264.155-.251.438 0 .622l7.372 4.55c.159.101.339.157.524.165.184.007.368-.035.533-.122h.027Zm9.315-5.752 6.368-3.943c.277-.17.251-.453 0-.622l-7.359-4.551a1.052 1.052 0 0 0-1.018 0l-6.381 3.929c-.265.169-.251.452 0 .636l7.372 4.551a1.093 1.093 0 0 0 1.044 0h-.026Zm9.248-5.767 6.369-3.929c.277-.169.264-.452 0-.621l-7.373-4.565a1.082 1.082 0 0 0-1.017 0l-6.382 3.929c-.264.169-.251.452 0 .636l7.373 4.55c.162.094.344.144.528.144.185 0 .366-.05.529-.144h-.027Zm-33.665-2.614-6.382 3.943c-.264.155-.251.438 0 .622l7.373 4.551c.157.086.332.132.509.132s.351-.046.508-.132l6.382-3.944c.264-.169.251-.452 0-.621l-7.373-4.551a1.048 1.048 0 0 0-.977 0h-.04Zm9.315-5.752-6.369 3.929c-.277.169-.264.452 0 .636l7.373 4.55a1.082 1.082 0 0 0 1.017 0l6.501-3.914c.264-.17.251-.453 0-.622l-7.373-4.551a1.05 1.05 0 0 0-1.11-.028h-.039Zm37.272-23.009-6.289 3.929c-.264.17-.251.453 0 .636l7.372 4.551a1.088 1.088 0 0 0 1.018 0l6.368-3.929c.278-.169.251-.452 0-.636l-7.359-4.551a1.056 1.056 0 0 0-1.07 0h-.04Zm-9.328 5.752-6.368 3.929c-.265.17-.251.453 0 .636l7.372 4.551a1.082 1.082 0 0 0 1.017 0l6.369-3.929c.277-.169.251-.452 0-.636l-7.373-4.551a1.095 1.095 0 0 0-.977 0h-.04Zm18.643-11.518-6.355 3.943c-.265.17-.252.452 0 .622l7.372 4.565a1.082 1.082 0 0 0 1.017 0l6.369-3.943c.277-.156.264-.438 0-.622l-7.373-4.551a1.093 1.093 0 0 0-.991-.014h-.039Zm-37.273 23.023-6.368 3.929c-.277.169-.264.452 0 .636l7.373 4.55a1.08 1.08 0 0 0 1.017 0l6.382-3.943c.264-.169.251-.452 0-.622l-7.373-4.564a1.09 1.09 0 0 0-.497-.114 1.09 1.09 0 0 0-.494.128h-.04Zm9.315-5.752-6.368 3.929c-.278.169-.251.452 0 .635l7.372 4.551a1.026 1.026 0 0 0 1.005 0l6.381-3.929c.264-.169.251-.452 0-.636l-7.372-4.55a1.087 1.087 0 0 0-.978 0h-.04Zm-6.791 40.618 6.368-3.944c.265-.169.251-.452 0-.621l-7.372-4.551a1.05 1.05 0 0 0-1.017 0l-6.369 3.943c-.277.155-.251.438 0 .622l7.373 4.551a1.052 1.052 0 0 0 1.057 0h-.04Zm-54.633-5.965-7.373-4.55a1.049 1.049 0 0 0-1.017 0l-6.355 3.971c-.265.17-.251.438 0 .622l7.372 4.551c.157.086.332.132.509.132s.351-.046.509-.132l6.368-3.943c.291-.128.277-.41-.013-.651Zm13.952 4.382-7.373-4.551a1.063 1.063 0 0 0-1.004 0l-9.75 6.091c-.265.17-.251.452 0 .622l7.372 4.551a1.05 1.05 0 0 0 1.017 0l9.804-6.049c.304-.141.225-.424-.066-.608v-.056Zm-25.262-13.186-7.399-4.495a1.06 1.06 0 0 0-.509-.132c-.177 0-.351.046-.508.132l-7.822 4.82c-.264.169-.251.452 0 .636l7.372 4.55c.158.087.332.133.509.133s.351-.046.509-.133l7.835-4.833c.317-.155.304-.438.013-.622v-.056Zm6.012-3.717c.157.086.331.132.508.132s.352-.046.509-.132l6.368-3.943c.278-.156.265-.439 0-.622l-7.372-4.551a1.052 1.052 0 0 0-1.018 0l-6.381 3.943c-.264.17-.251.452 0 .622l7.386 4.551Zm32.238 21.892-7.333-4.495a1.094 1.094 0 0 0-.509-.127c-.176 0-.35.044-.508.127l-12.262 7.576c-.264.169-.251.452 0 .621l7.373 4.565a1.082 1.082 0 0 0 1.017 0l12.261-7.575c.265-.17.251-.452-.039-.636v-.056Zm6.117 9.228-7.372-4.466a1.064 1.064 0 0 0-.509-.132c-.177 0-.351.046-.509.132l-7.848 4.848c-.264.17-.251.452 0 .636l7.373 4.551c.158.083.332.127.508.127.177 0 .351-.044.509-.127l7.848-4.848c.304-.198.291-.48 0-.664v-.057Zm30.917-73.901a1.052 1.052 0 0 0 1.018 0l6.368-3.929c.277-.169.251-.452 0-.636l-7.373-4.55a1.08 1.08 0 0 0-1.017 0l-6.368 3.999c-.265.17-.251.453 0 .622l7.372 4.494Zm-18.642 11.519c.158.083.332.127.508.127.177 0 .351-.044.509-.127l6.381-3.929c.265-.17.252-.453 0-.636l-7.372-4.551a1.082 1.082 0 0 0-1.017 0l-6.369 3.929c-.277.17-.251.452 0 .636l7.36 4.551Zm-41.316 25.566a1.052 1.052 0 0 0 1.018 0l6.368-3.943c.277-.17.264-.438 0-.622l-7.373-4.551a1.057 1.057 0 0 0-.508-.132 1.06 1.06 0 0 0-.509.132l-6.381 3.943c-.265.17-.251.439 0 .622l7.385 4.551Zm50.643-31.248a1.058 1.058 0 0 0 1.005 0l6.381-3.929c.264-.169.251-.452 0-.636l-7.372-4.55a1.054 1.054 0 0 0-.509-.133c-.177 0-.351.046-.509.133l-6.368 3.928c-.278.17-.251.453 0 .636l7.372 4.551Zm-18.642 11.504a1.046 1.046 0 0 0 1.017 0l6.382-3.929c.264-.169.251-.452 0-.635l-7.373-4.551a1.082 1.082 0 0 0-1.017 0l-6.369 3.929c-.277.169-.264.452 0 .636l7.36 4.55Zm2.153 57.366a1.08 1.08 0 0 0-1.017 0l-9.804 6.035c-.264.169-.251.452 0 .636l7.373 4.55a1.047 1.047 0 0 0 1.017 0l9.804-6.048c.277-.17.251-.453 0-.636l-7.373-4.537Zm-15.524-49.084a1.08 1.08 0 0 0 1.017 0l6.382-3.943c.264-.169.251-.452 0-.622l-7.373-4.55a1.046 1.046 0 0 0-1.017 0l-6.369 3.943c-.277.155-.264.438 0 .622l7.36 4.55Zm-9.315 5.653a1.047 1.047 0 0 0 1.017 0l6.382-3.943c.264-.169.251-.452 0-.621l-7.373-4.551a1.046 1.046 0 0 0-1.017 0l-6.368 3.943c-.278.155-.265.438 0 .622l7.359 4.55Zm197.446-63.174a1.057 1.057 0 0 0-.508-.132 1.06 1.06 0 0 0-.509.132l-15.749 9.667c-.264.17-.251.453 0 .636l7.372 4.551a1.088 1.088 0 0 0 1.018 0l15.775-9.624c.278-.17.265-.453 0-.636l-7.399-4.594Zm-20.598 12.72a1.046 1.046 0 0 0-1.017 0l-6.369 3.929c-.277.17-.264.452 0 .636l7.373 4.551c.158.083.332.127.509.127.176 0 .35-.044.508-.127l6.382-3.929c.264-.17.251-.452 0-.636l-7.386-4.551Zm-126.192 74.692 6.369-3.943c.277-.169.251-.452 0-.621l-7.36-4.565a1.08 1.08 0 0 0-1.017 0l-6.381 3.929c-.265.169-.251.452 0 .636l7.372 4.55a1.081 1.081 0 0 0 1.017.014Zm107.563-63.188a1.1 1.1 0 0 0-.509-.127 1.1 1.1 0 0 0-.509.127l-6.381 3.929c-.265.17-.251.452 0 .636l7.372 4.551a1.052 1.052 0 0 0 1.018 0l6.368-3.929c.277-.17.264-.452 0-.636l-7.359-4.551Zm48.542-29.976a1.094 1.094 0 0 0-.509-.127c-.176 0-.35.044-.508.127l-6.369 3.915c-.277.17-.264.452 0 .622l7.373 4.565c.158.083.332.127.509.127.176 0 .35-.044.508-.127l6.382-3.929c.264-.17.251-.452 0-.636l-7.386-4.537Zm16.687-1.201-17.902-11.052a1.052 1.052 0 0 0-1.018 0l-6.368 3.943c-.278.17-.264.452 0 .622l17.903 11.052a1.046 1.046 0 0 0 1.017 0l6.382-3.943c.29-.156.277-.438-.014-.622Zm-100.044 52.687a1.06 1.06 0 0 0-.509-.132c-.177 0-.351.046-.508.132l-7.849 4.848c-.264.17-.251.452 0 .622l7.373 4.551c.157.086.332.132.509.132s.351-.046.508-.132l7.849-4.848c.264-.169.251-.452 0-.622l-7.373-4.551Zm23.531-14.542a1.046 1.046 0 0 0-1.017 0l-9.804 6.049c-.264.169-.251.452 0 .621l7.373 4.565a1.082 1.082 0 0 0 1.017 0l9.804-6.048c.264-.17.251-.453 0-.636l-7.373-4.551Zm-45.107 27.856a1.082 1.082 0 0 0-1.017 0l-52.467 32.392c-.264.17-.251.453 0 .636l7.373 4.551a1.08 1.08 0 0 0 1.017 0l52.467-32.407c.264-.169.251-.452 0-.636l-7.373-4.536Zm-55.413 34.23a1.046 1.046 0 0 0-1.017 0l-7.835 4.847c-.278.17-.264.452 0 .622l7.372 4.551a1.052 1.052 0 0 0 1.018 0l7.888-4.791c.264-.17.251-.452 0-.622l-7.426-4.607Zm66.194-40.887a1.093 1.093 0 0 0-.508-.127c-.177 0-.351.044-.509.127l-7.835 4.848c-.277.169-.264.452 0 .636l7.373 4.55a1.08 1.08 0 0 0 1.017 0l7.848-4.847c.278-.156.251-.438 0-.622l-7.386-4.565Zm-76.975 47.529a1.094 1.094 0 0 0-.509-.127c-.176 0-.35.044-.508.127l-7.849 4.848c-.264.169-.251.452 0 .636l7.373 4.55a1.082 1.082 0 0 0 1.017 0l7.835-4.833c.278-.17.264-.452 0-.636l-7.359-4.565Zm98.551-60.87a1.08 1.08 0 0 0-1.017 0l-7.835 4.833c-.277.17-.264.452 0 .636l7.373 4.551c.158.083.332.127.508.127.177 0 .351-.044.509-.127l7.848-4.848c.278-.169.251-.452 0-.636l-7.386-4.536Zm33.348-20.592a1.046 1.046 0 0 0-1.017 0l-6.368 3.929c-.278.17-.265.452 0 .636l7.372 4.551a1.094 1.094 0 0 0 1.018 0l6.381-3.929c.264-.17.251-.453 0-.636l-7.386-4.551Zm20.414-15.857 6.368-3.929c.277-.17.264-.452 0-.636l-7.373-4.551a1.093 1.093 0 0 0-.508-.127c-.177 0-.351.044-.509.127l-6.381 3.943c-.265.17-.251.452 0 .622l7.372 4.565a1.085 1.085 0 0 0 1.031 0v-.014Zm-41.619-.198 6.381-3.943c.264-.17.251-.452 0-.622l-7.372-4.551a1.052 1.052 0 0 0-1.018 0l-6.368 3.943c-.278.17-.251.438 0 .622l7.359 4.551a1.05 1.05 0 0 0 1.018 0Zm-21.14 39.049 18.629-11.504c.264-.17.251-.452 0-.636l-7.372-4.551a1.1 1.1 0 0 0-.509-.127c-.176 0-.351.044-.509.127l-18.629 11.519c-.264.155-.251.438 0 .621l7.372 4.551a1.041 1.041 0 0 0 1.018-.07v.07Zm52.427-33.028c.158.083.332.127.508.127.177 0 .351-.044.509-.127l6.368-3.929c.278-.17.265-.453 0-.636l-7.372-4.551a1.052 1.052 0 0 0-1.018 0l-6.381 3.929c-.264.169-.251.452 0 .636l7.386 4.551Zm-9.513-6.487 6.368-3.929c.277-.17.264-.453 0-.636l-7.373-4.551a1.08 1.08 0 0 0-1.017 0l-6.382 3.943c-.264.17-.251.452 0 .622l7.373 4.565a1.079 1.079 0 0 0 1.031-.085v.071Zm-52.229 45.225 6.368-3.943c.278-.17.251-.438 0-.622l-7.372-4.551a1.052 1.052 0 0 0-1.018 0l-6.408 3.929c-.277.17-.251.438 0 .622l7.373 4.551c.171.104.366.158.563.156a1.06 1.06 0 0 0 .56-.17l-.066.028Zm41.143-26.061a1.1 1.1 0 0 0 .509.127c.176 0 .351-.044.509-.127l6.381-3.929c.265-.17.251-.452 0-.636l-7.372-4.551a1.094 1.094 0 0 0-1.018 0l-6.368 3.943c-.277.17-.264.452 0 .622l7.359 4.551Zm-87.73 54.793 6.368-3.929c.278-.169.265-.452 0-.636l-7.372-4.551a1.094 1.094 0 0 0-1.018 0l-6.381 3.929c-.264.17-.251.453 0 .636l7.372 4.551a1.09 1.09 0 0 0 1.031 0Zm9.315-5.752 6.381-3.929c.265-.17.251-.452 0-.636l-7.359-4.551a1.06 1.06 0 0 0-.509-.132c-.177 0-.351.046-.508.132l-6.382 3.929c-.264.17-.251.452 0 .636l7.373 4.551a1.089 1.089 0 0 0 1.004 0Zm-18.63 11.504 6.369-3.929c.277-.169.264-.452 0-.636l-7.36-4.551a1.092 1.092 0 0 0-1.017 0l-6.382 3.929c-.264.17-.251.453 0 .636l7.373 4.551a1.05 1.05 0 0 0 1.017 0Zm37.259-23.008 6.382-3.929c.264-.17.251-.452 0-.636l-7.373-4.551a1.093 1.093 0 0 0-.508-.127c-.177 0-.351.044-.509.127l-6.368 3.943c-.278.17-.265.452 0 .622l7.372 4.551a1.058 1.058 0 0 0 1.004 0Zm-9.248 5.752 6.381-3.929c.264-.17.251-.452 0-.636l-7.491-4.551a1.052 1.052 0 0 0-1.018 0l-6.368 3.929c-.278.17-.264.452 0 .622l7.372 4.565c.164.09.345.138.529.138.184 0 .365-.048.528-.138h.067Zm18.629-11.504 6.382-3.943c.264-.156.251-.438 0-.622l-7.373-4.551a1.05 1.05 0 0 0-1.017 0l-6.474 3.858c-.278.17-.251.453 0 .622l7.359 4.551a1.048 1.048 0 0 0 1.057.085h.066Zm42.623-85.123a1.052 1.052 0 0 0 1.018 0l6.381-3.943c.264-.155.251-.438 0-.622l-1.955-1.215a1.082 1.082 0 0 0-1.018 0l-6.381 3.929c-.264.169-.251.452 0 .636l1.955 1.215Zm-45.834 31.658a1.052 1.052 0 0 0 1.018 0l6.368-3.929c.278-.17.264-.452 0-.636l-7.372-4.551a1.1 1.1 0 0 0-.509-.127c-.176 0-.351.044-.509.127l-6.381 3.929c-.265.17-.251.452 0 .636l7.385 4.551Zm18.63-11.504c.158.083.332.127.509.127.176 0 .35-.044.508-.127l6.382-3.929c.264-.17.251-.452 0-.636l-7.373-4.551a1.046 1.046 0 0 0-1.017 0l-6.421 3.929c-.278.17-.265.452 0 .636l7.412 4.551Zm-30.005 18.528c.158.083.332.127.508.127.177 0 .351-.044.509-.127l6.368-3.943c.278-.17.264-.452 0-.622l-7.372-4.565a1.097 1.097 0 0 0-.509-.127 1.1 1.1 0 0 0-.509.127l-6.381 3.929c-.264.17-.251.452 0 .636l7.386 4.565Zm20.69-12.72a1.082 1.082 0 0 0 1.017 0l6.382-3.929c.264-.169.251-.452 0-.636l-7.372-4.55a1.088 1.088 0 0 0-1.018 0l-6.368 3.929c-.278.169-.264.452 0 .636l7.359 4.55Zm-39.386 24.224a1.05 1.05 0 0 0 1.017 0l6.369-3.943c.277-.17.251-.452 0-.622l-7.36-4.551a1.057 1.057 0 0 0-.508-.132 1.06 1.06 0 0 0-.509.132l-6.382 3.944c-.264.155-.251.438 0 .621l7.373 4.551Zm9.315-5.752a1.08 1.08 0 0 0 1.017 0l6.368-3.943c.278-.17.265-.452 0-.622l-7.359-4.551a1.06 1.06 0 0 0-.509-.132c-.177 0-.351.046-.508.132l-6.382 3.943c-.264.156-.251.439 0 .622l7.373 4.551Zm47.895-32.915a1.092 1.092 0 0 0 1.017 0l6.382-3.929c.264-.17.251-.453 0-.636l-1.969-1.216a1.094 1.094 0 0 0-.509-.127c-.176 0-.35.044-.508.127l-6.369 3.929c-.277.17-.251.452 0 .636l1.956 1.216Zm27.957-17.271a1.023 1.023 0 0 0 1.004 0l6.382-3.943c.264-.17.251-.438 0-.622l-1.956-1.215a1.046 1.046 0 0 0-1.017 0l-6.381 3.929c-.265.169-.252.452 0 .636l1.968 1.215Zm15.472 9.568a1.082 1.082 0 0 0 1.017 0l6.382-3.943c.264-.17.251-.452 0-.622l-7.373-4.565a1.093 1.093 0 0 0-.508-.127c-.177 0-.351.044-.509.127l-6.368 3.929c-.278.17-.251.452 0 .636l7.359 4.565Zm23.293 25.284 6.382-3.943c.264-.156.251-.438 0-.622l-7.373-4.551a1.093 1.093 0 0 0-.508-.127c-.177 0-.351.044-.509.127l-6.368 3.943c-.278.17-.265.452 0 .622l7.372 4.551a1.058 1.058 0 0 0 1.004 0Zm-57.408-23.334a1.088 1.088 0 0 0 1.018 0l6.381-3.929c.265-.169.251-.452 0-.636l-1.968-1.215a1.094 1.094 0 0 0-1.018 0l-6.368 3.929c-.264.17-.251.452 0 .636l1.955 1.215Zm-75.839 50.172a1.05 1.05 0 0 0 1.018 0l6.368-3.943c.264-.169.251-.438 0-.622l-7.373-4.55a1.046 1.046 0 0 0-1.017 0l-6.368 3.943c-.265.169-.251.438 0 .621l7.372 4.551Z" fill="#455A64"/><path d="m301.954 389.549 69.762-43.091 42.94 26.513-69.775 43.091-42.927-26.513Z" fill="#263238"/><path d="M146.88 172.411 354.791 44.013c4.056-2.515 7.385-.452 7.385 4.565v172.238a8.549 8.549 0 0 1-1.009 3.618 7.925 7.925 0 0 1-2.426 2.742L145.559 358.838c-1.89 1.159-3.435.212-3.435-2.12V181.216a11.876 11.876 0 0 1 1.4-5.007 11.022 11.022 0 0 1 3.356-3.798Z" fill="#F5F5F5"/><path d="M362.242 52.705v-4.127c0-5.017-3.329-7.066-7.385-4.565L146.88 172.411a11.022 11.022 0 0 0-3.356 3.798 11.876 11.876 0 0 0-1.4 5.007v7.391L362.242 52.705Z" fill="#F03E3D"/><path d="M331.22 62.104a5.862 5.862 0 0 0-1.803 2.033 6.32 6.32 0 0 0-.747 2.687c0 1.738 1.136 2.445 2.55 1.569a5.849 5.849 0 0 0 1.795-2.028 6.295 6.295 0 0 0 .741-2.678c0-1.739-1.136-2.445-2.536-1.583ZM341.314 55.87a5.875 5.875 0 0 0-1.796 2.036c-.44.82-.694 1.74-.741 2.685 0 1.738 1.137 2.43 2.537 1.569a5.873 5.873 0 0 0 1.803-2.034c.443-.82.699-1.741.747-2.687 0-1.738-1.136-2.445-2.55-1.569ZM351.421 49.624a5.918 5.918 0 0 0-1.799 2.036c-.442.82-.7 1.74-.751 2.684 0 1.739 1.15 2.445 2.55 1.57a5.848 5.848 0 0 0 1.802-2.028 6.319 6.319 0 0 0 .748-2.68c0-1.738-1.149-2.444-2.55-1.582Z" fill="#fff"/><path d="m193.463 272.934-8.089-4.996-19.812 36.706 8.089 4.996 19.812-36.706Z" fill="#37474F"/><path d="m193.479 272.923-4.039-2.495-19.812 36.706 4.039 2.495 19.812-36.706Z" fill="#263238"/><path d="M143.841 376.32c-3.686 6.855-21.14-4.027-17.467-10.783l45.517-75.936a.892.892 0 0 1 .536-.411.835.835 0 0 1 .653.1l9.143 5.653a.924.924 0 0 1 .407.548.99.99 0 0 1-.063.696l-38.726 80.133Z" fill="#11B5E4"/><path opacity=".1" d="m143.841 376.321 38.712-80.134a.99.99 0 0 0 .064-.696.924.924 0 0 0-.407-.548l-4.162-2.572-44.381 84.388c4.043 2.134 8.509 2.657 10.174-.438Z" fill="#000"/><path d="M277.683 197.553c0-.579 0-1.145-.079-1.71-.08-.565 0-1.116-.119-1.668-.119-.551 0-.734-.106-1.102a45.938 45.938 0 0 0-.37-2.827c-.066-.409-.132-.833-.211-1.243-.08-.41-.146-.778-.225-1.159a47.085 47.085 0 0 0-.74-3.039c-.145-.466-.277-.932-.423-1.413a1.373 1.373 0 0 1-.066-.212c-.158-.452-.303-.89-.462-1.314-.159-.424-.37-.99-.581-1.414-.212-.424-.291-.692-.463-1.031a5.179 5.179 0 0 0-.343-.735 10.658 10.658 0 0 0-.436-.876c-.159-.283-.066-.142-.106-.198-.04-.057-.278-.509-.423-.764-.145-.254-.198-.325-.291-.48a25.623 25.623 0 0 0-2.272-3.236l-.423-.509-.357-.396c-.145-.17-.303-.325-.462-.495a15.306 15.306 0 0 0-1.321-1.314 9.46 9.46 0 0 0-.701-.594l-.726-.565c-.378-.296-.77-.57-1.176-.82l-.317-.212h-.066l-18.722-11.56-.106-.071c-3.592-2.143-7.647-3.239-11.759-3.18-6.131 0-13.054 2.148-20.387 6.671-25.183 15.546-45.609 53.394-45.609 84.515 0 15.546 5.074 26.428 13.278 31.544h.08l18.735 11.547h.079l.225.127c.351.222.713.425 1.083.608.449.24.912.452 1.321.65.41.198.833.353 1.256.495l.673.212c.236.096.48.172.727.226.244.079.49.145.74.198.178.055.359.098.542.127.317.07.66.141.991.183.074.014.15.014.224 0 .397.076.793.132 1.189.17 6.792.763 14.693-1.286 23.149-6.501 25.196-15.546 45.622-53.408 45.622-84.515-.066-.65-.066-1.385-.066-2.12Zm-30.56-22.005a46.359 46.359 0 0 1 1.44 11.872c0 27.446-18.775 62.185-40.959 75.95a38.268 38.268 0 0 1-10.398 4.622 46.975 46.975 0 0 1-1.44-11.886c0-27.446 18.775-62.185 40.959-75.95a38.165 38.165 0 0 1 10.358-4.608h.04Z" fill="#11B5E4"/><path opacity=".1" d="m199.161 287.297-18.193-11.221c-8.205-5.13-13.279-16.041-13.279-31.531 0-13.878 4.07-29.085 10.795-43.048l18.735 11.532c-6.738 13.963-10.794 29.17-10.794 43.049 0 15.207 4.835 25.962 12.736 31.219Z" fill="#000"/><path opacity=".4" d="M277.683 197.553c0-.579 0-1.144-.079-1.71-.08-.565 0-1.116-.119-1.667-.119-.552 0-.735-.106-1.103a45.803 45.803 0 0 0-.37-2.826c-.066-.41-.132-.834-.211-1.244-.08-.41-.146-.777-.225-1.159a47.053 47.053 0 0 0-.74-3.038c-.145-.467-.277-.933-.423-1.414a1.373 1.373 0 0 1-.066-.212c-.158-.452-.303-.89-.462-1.314-.159-.424-.37-.989-.581-1.413-.212-.424-.291-.693-.463-1.032a5.23 5.23 0 0 0-.343-.735 10.658 10.658 0 0 0-.436-.876c-.159-.283-.066-.142-.106-.198-.04-.057-.278-.509-.423-.763-.145-.255-.198-.325-.291-.481a25.623 25.623 0 0 0-2.272-3.236l-.423-.509-.357-.396c-.145-.169-.303-.325-.462-.494a15.176 15.176 0 0 0-1.321-1.315 9.208 9.208 0 0 0-.701-.593l-.726-.566c-.378-.296-.77-.569-1.176-.819-8.284-5.385-19.819-4.749-32.648 3.151-25.196 15.546-45.622 53.394-45.622 84.515 0 15.758 5.284 26.768 13.674 31.771.352.222.713.425 1.084.608.449.24.911.452 1.321.65.41.198.832.353 1.255.494l.674.212c.236.097.479.173.727.226.243.08.49.146.74.198.177.056.358.099.541.128.317.07.661.141.991.183a.608.608 0 0 0 .225 0c.396.076.793.132 1.189.17 6.791.763 14.692-1.286 23.148-6.501 25.196-15.546 45.623-53.409 45.623-84.515-.04-.707-.04-1.442-.04-2.177Zm-50.207 78.17c-5.655 3.49-11.099 5.328-15.749 5.328-8.734 0-12.75-6.374-14.534-13.059a46.964 46.964 0 0 1-1.44-11.886c0-27.446 18.775-62.185 40.958-75.95a38.194 38.194 0 0 1 10.398-4.608c1.73-.458 3.504-.7 5.285-.72 14.442 0 15.987 17.44 15.987 24.944.053 27.39-18.722 62.227-40.905 75.951Z" fill="#fff"/><path opacity=".1" d="M268.434 199.772c0 27.446-18.761 62.185-40.958 75.95-5.655 3.491-11.099 5.328-15.749 5.328-8.734 0-12.75-6.374-14.534-13.058a38.281 38.281 0 0 0 10.398-4.622c22.223-13.723 40.959-48.504 40.959-75.95a46.315 46.315 0 0 0-1.441-11.872c1.73-.458 3.504-.7 5.285-.721 14.481.043 16.04 17.44 16.04 24.945Z" fill="#000"/><path opacity=".7" d="M260.507 194.981c0 27.446-18.762 62.185-40.959 75.95-5.655 3.491-11.098 5.328-15.749 5.328a15.5 15.5 0 0 1-2.761-.24 22.21 22.21 0 0 1-3.819-8.027 46.975 46.975 0 0 1-1.44-11.886c0-27.446 18.775-62.185 40.958-75.95a38.2 38.2 0 0 1 10.399-4.608c1.729-.458 3.503-.7 5.285-.721.929-.002 1.857.078 2.774.241 4.572 5.752 5.312 14.981 5.312 19.913Z" fill="#fff"/><path d="M292.441 166.391v31.29c0 2.346 1.546 3.293 3.436 2.12L487.589 81.409a7.946 7.946 0 0 0 2.426-2.742 8.562 8.562 0 0 0 1.009-3.617V43.717c0-2.346-1.546-3.293-3.435-2.12L295.877 159.988a7.964 7.964 0 0 0-2.434 2.762 8.584 8.584 0 0 0-1.002 3.641Z" fill="#E6E6E6"/><path d="m295.877 159.988 34.14-21.072v39.77l-34.14 21.072c-1.89 1.173-3.436.226-3.436-2.12V166.39a8.588 8.588 0 0 1 1.002-3.641 7.96 7.96 0 0 1 2.434-2.761Z" fill="#BA68C8"/><path d="M318.721 156.272c-2.154-1.329-4.875-1.117-7.663.607-2.65 1.816-4.854 4.284-6.428 7.198a22.164 22.164 0 0 0-2.623 9.55c-.093 2.179.549 4.321 1.81 6.035l-3.673 6.727a2.27 2.27 0 0 0-.162 1.568c.135.525.453.976.889 1.258.303.183.644.28.991.283.348 0 .69-.097.991-.284.302-.186.552-.453.726-.776l3.634-6.727c.392.079.79.121 1.189.127a8.803 8.803 0 0 0 4.598-1.413c2.644-1.82 4.844-4.289 6.416-7.202a22.208 22.208 0 0 0 2.621-9.546c.04-3.434-1.149-6.063-3.316-7.405Zm-7.663 20.492a2.96 2.96 0 0 1-1.758.993 2.85 2.85 0 0 1-1.954-.395 3.174 3.174 0 0 1-1.298-1.61 3.438 3.438 0 0 1-.077-2.125 17.825 17.825 0 0 1 2.099-7.425 16.54 16.54 0 0 1 4.97-5.648 5.1 5.1 0 0 1 2.642-.89c.387-.016.771.082 1.11.282a4.175 4.175 0 0 1 1.11 1.691 4.42 4.42 0 0 1 .211 2.054 17.824 17.824 0 0 1-2.093 7.423c-1.224 2.268-2.922 4.202-4.962 5.65Z" fill="#fff"/></svg>