<svg xmlns="http://www.w3.org/2000/svg" width="68" height="67" fill="none"><path fill="url(#a)" d="m37.68 8.426-19.53 6.012c-7.118 2.19-10.153 7.707-8.392 15.253l4.825 20.688c1.76 7.546 6.79 10.58 13.907 8.39l19.53-6.011c7.118-2.191 10.134-7.702 8.374-15.248l-4.826-20.688c-1.76-7.546-6.77-10.586-13.888-8.396Z"/><g filter="url(#b)" opacity=".5"><path fill="#E31313" d="m36.281 17.68-12.9 3.97c-4.702 1.447-6.738 4.954-5.632 9.698l3.034 13.005c1.107 4.744 4.397 6.612 9.098 5.165l12.901-3.97c4.701-1.447 6.726-4.951 5.619-9.695l-3.034-13.005c-1.106-4.744-4.385-6.616-9.086-5.169Z"/></g><g filter="url(#c)"><path fill="#F03E3D" d="M50.563 19.297H32.105c-7.217 0-12.07 5.557-12.07 13.824v19.078c0 8.243 4.853 13.8 12.07 13.8h18.458c7.217 0 12.05-5.557 12.05-13.8V33.121c0-8.267-4.833-13.824-12.05-13.824Z"/><path stroke="url(#d)" stroke-linecap="round" stroke-linejoin="round" d="M50.563 18.797H32.105c-3.745 0-6.903 1.446-9.118 3.983-2.21 2.53-3.453 6.112-3.453 10.34V52.2c0 4.218 1.243 7.793 3.453 10.32 2.215 2.535 5.373 3.98 9.118 3.98h18.458c3.745 0 6.898-1.446 9.108-3.98 2.205-2.528 3.442-6.103 3.442-10.32V33.121c0-4.229-1.237-7.81-3.442-10.34-2.21-2.538-5.362-3.984-9.108-3.984Z"/></g><g filter="url(#e)"><path fill="url(#f)" d="M64.871 15.866c-1.727 0-3.128 1.536-3.128 3.431s1.4 3.431 3.128 3.431c1.728 0 3.129-1.536 3.129-3.431 0-.91-.33-1.783-.917-2.426-.586-.644-1.382-1.005-2.212-1.005Z"/></g><g filter="url(#g)"><path fill="url(#h)" d="m52.462 38.513-6.085 8.611a1.55 1.55 0 0 1-1.063.677 1.478 1.478 0 0 1-1.183-.369l-5.84-5.023-5.261 7.463c-.381.663-1.123.962-1.806.725-.682-.236-1.133-.947-1.096-1.73a1.786 1.786 0 0 1 .337-1.066l6.29-8.898a1.552 1.552 0 0 1 1.05-.678c.42-.061.844.064 1.178.35l5.84 5.043 5.13-7.238c.246-.373.62-.62 1.037-.686.416-.066.84.056 1.172.338.687.59.82 1.672.3 2.44v.04Z"/><path stroke="url(#i)" stroke-width=".4" d="m46.214 47.01-.002.002a1.35 1.35 0 0 1-.925.59 1.278 1.278 0 0 1-1.024-.32l-.002-.002-5.84-5.023-.167-.144-.127.18-5.26 7.464-.006.007-.005.008c-.337.588-.982.839-1.566.636-.59-.204-.995-.827-.962-1.531v-.011c-.003-.346.104-.68.298-.947l.002-.002 6.29-8.9.002-.002c.224-.328.555-.539.915-.592.36-.053.726.054 1.017.303l5.84 5.044.167.144.128-.18 5.13-7.238.003-.005c.218-.33.544-.543.901-.6.357-.056.721.048 1.011.293.607.521.73 1.49.264 2.176l-.035.05v.04l-6.047 8.56Z"/></g><defs><linearGradient id="a" x1="36.846" x2="2.468" y1="35.621" y2="63.315" gradientUnits="userSpaceOnUse"><stop stop-color="#F03E3D"/><stop offset="1" stop-color="#870404"/></linearGradient><linearGradient id="d" x1="26.812" x2="57.065" y1="24.738" y2="58.897" gradientUnits="userSpaceOnUse"><stop stop-color="#fff" stop-opacity=".25"/><stop offset="1" stop-color="#fff" stop-opacity="0"/></linearGradient><linearGradient id="f" x1="65.332" x2="59.651" y1="19.756" y2="22.275" gradientUnits="userSpaceOnUse"><stop stop-color="#FF759F" stop-opacity="0"/><stop offset="1" stop-color="#FF196E"/></linearGradient><linearGradient id="h" x1="51.173" x2="25.974" y1="38.385" y2="39.626" gradientUnits="userSpaceOnUse"><stop stop-color="#fff"/><stop offset="1" stop-color="#fff" stop-opacity=".2"/></linearGradient><linearGradient id="i" x1="33.732" x2="41.873" y1="37.424" y2="52.65" gradientUnits="userSpaceOnUse"><stop stop-color="#fff" stop-opacity=".25"/><stop offset="1" stop-color="#fff" stop-opacity="0"/></linearGradient><filter id="b" width="65.243" height="66.795" x=".454" y=".201" color-interpolation-filters="sRGB" filterUnits="userSpaceOnUse"><feFlood flood-opacity="0" result="BackgroundImageFix"/><feBlend in="SourceGraphic" in2="BackgroundImageFix" result="shape"/><feGaussianBlur result="effect1_foregroundBlur_42_44" stdDeviation="8.5"/></filter><filter id="c" width="92.578" height="96.703" x="-4.966" y="-5.703" color-interpolation-filters="sRGB" filterUnits="userSpaceOnUse"><feFlood flood-opacity="0" result="BackgroundImageFix"/><feGaussianBlur in="BackgroundImageFix" stdDeviation="12"/><feComposite in2="SourceAlpha" operator="in" result="effect1_backgroundBlur_42_44"/><feBlend in="SourceGraphic" in2="effect1_backgroundBlur_42_44" result="shape"/></filter><filter id="e" width="36.257" height="36.862" x="46.743" y=".866" color-interpolation-filters="sRGB" filterUnits="userSpaceOnUse"><feFlood flood-opacity="0" result="BackgroundImageFix"/><feGaussianBlur in="BackgroundImageFix" stdDeviation="7.5"/><feComposite in2="SourceAlpha" operator="in" result="effect1_backgroundBlur_42_44"/><feBlend in="SourceGraphic" in2="effect1_backgroundBlur_42_44" result="shape"/></filter><filter id="g" width="52.653" height="45.001" x="15.126" y="20.677" color-interpolation-filters="sRGB" filterUnits="userSpaceOnUse"><feFlood flood-opacity="0" result="BackgroundImageFix"/><feGaussianBlur in="BackgroundImageFix" stdDeviation="7.5"/><feComposite in2="SourceAlpha" operator="in" result="effect1_backgroundBlur_42_44"/><feColorMatrix in="SourceAlpha" result="hardAlpha" values="0 0 0 0 0 0 0 0 0 0 0 0 0 0 0 0 0 0 127 0"/><feOffset dx="5" dy="5"/><feGaussianBlur stdDeviation="5"/><feColorMatrix values="0 0 0 0 1 0 0 0 0 0.321569 0 0 0 0 0.54902 0 0 0 0.5 0"/><feBlend in2="effect1_backgroundBlur_42_44" result="effect2_dropShadow_42_44"/><feBlend in="SourceGraphic" in2="effect2_dropShadow_42_44" result="shape"/></filter></defs></svg>