<svg width="32" height="30" fill="none" xmlns="http://www.w3.org/2000/svg"><path fill-rule="evenodd" clip-rule="evenodd" d="M2.506 27.567A2.514 2.514 0 0 1 0 25.06v-8.763h6.309v-.01h3.792c.977-.024 1.805-.876 1.805-1.88 0-1.027-.853-1.879-1.88-1.879H5.013v.002H0v-2.508a2.514 2.514 0 0 1 2.506-2.507h7.52c1.905 0 3.534.677 4.862 2.03 1.354 1.329 2.03 2.958 2.03 4.863 0 1.88-.651 3.509-1.98 4.837-1.328 1.329-2.932 2.03-4.812 2.056H5.013v3.76a2.514 2.514 0 0 1-2.507 2.506Z" fill="#02BC6B"/><path fill-rule="evenodd" clip-rule="evenodd" d="M20.078 4.606c2.77 2.69 4.165 6.04 4.165 9.848 0 3.744-1.337 7.09-4.064 9.789L16.31 20.6c1.695-1.678 2.527-3.698 2.527-6.147 0-2.467-.857-4.484-2.594-6.17l3.836-3.678Z" fill="#02897A"/><path fill-rule="evenodd" clip-rule="evenodd" d="M26.004 0C29.993 3.982 32 8.92 32 14.587c0 5.579-1.926 10.513-5.85 14.504l-3.735-3.65c2.922-2.973 4.354-6.578 4.354-10.854 0-4.318-1.48-7.92-4.466-10.902L26.004 0Z" fill="#035B81"/><path fill-rule="evenodd" clip-rule="evenodd" d="M0 21.322h5.013v3.739a2.514 2.514 0 0 1-2.507 2.506A2.514 2.514 0 0 1 0 25.061v-3.74Z" fill="#028E37"/></svg>