<svg width="349" height="308" viewBox="0 0 349 308" fill="none" xmlns="http://www.w3.org/2000/svg">
<path d="M51.1088 277.687C119.254 316.861 229.746 316.861 297.891 277.687C366.036 238.514 366.036 174.999 297.891 135.817C229.746 96.6343 119.285 96.6429 51.1088 135.817C-17.0674 174.99 -17.0051 238.514 51.1088 277.687Z" fill="#F5F5F5"/>
<path d="M32.1129 213.444L9.96143 199.374V147.091L32.1129 161.17V213.444Z" fill="#E0E0E0"/>
<path d="M32.1128 161.17L63.7621 141.064V193.338L32.1128 213.444V161.17Z" fill="#EBEBEB"/>
<path d="M63.7622 141.064L32.1129 161.169L9.96143 147.091L41.6108 126.986L63.7622 141.064Z" fill="#F5F5F5"/>
<path d="M35.2842 163.176L60.599 147.092L61.1833 147.46V166.828L35.8607 182.913L35.2764 182.544L35.2842 163.176Z" fill="#E0E0E0"/>
<path d="M35.8606 163.553L61.1832 147.46V166.828L35.8606 182.913V163.553Z" fill="#F5F5F5"/>
<path d="M45.7871 160.526L50.0958 157.791C50.649 157.431 51.1009 157.594 51.1009 158.152C51.0608 158.493 50.9491 158.819 50.7747 159.105C50.6002 159.391 50.3678 159.628 50.0958 159.798L45.7871 162.533C45.2261 162.893 44.7742 162.73 44.7742 162.173C44.8146 161.83 44.9272 161.503 45.1031 161.217C45.279 160.931 45.5132 160.695 45.7871 160.526V160.526Z" fill="#E0E0E0"/>
<path d="M34.6997 187.679L60.0145 171.595V190.963L60.5989 191.332L35.2763 207.416L34.6997 207.048V187.679Z" fill="#E0E0E0"/>
<path d="M35.2764 188.049L60.599 171.964V191.332L35.2764 207.417V188.049Z" fill="#F5F5F5"/>
<path d="M45.2027 185.031L49.5504 182.304C50.1114 181.944 50.5633 182.107 50.5633 182.664C50.5229 183.007 50.4103 183.334 50.2344 183.62C50.0585 183.905 49.8243 184.142 49.5504 184.31L45.2417 187.045C44.6807 187.406 44.2288 187.243 44.2288 186.685C44.2638 186.345 44.3699 186.019 44.5389 185.732C44.7079 185.445 44.9351 185.205 45.2027 185.031Z" fill="#E0E0E0"/>
<path d="M32.1129 158.152L9.96143 144.073V91.7988L32.1129 105.868V158.152Z" fill="#E0E0E0"/>
<path d="M32.1128 105.869L63.7621 85.7632V138.046L32.1128 158.152V105.869Z" fill="#EBEBEB"/>
<path d="M63.7622 85.763L32.1129 105.869L9.96143 91.7989L41.6108 71.6934L63.7622 85.763Z" fill="#F5F5F5"/>
<path d="M35.2764 107.883L60.599 91.7986L61.1833 92.1673V111.535L35.8607 127.62L35.2764 127.243V107.883Z" fill="#E0E0E0"/>
<path d="M45.7871 105.225L50.088 102.49C50.649 102.139 51.1009 102.302 51.1009 102.859C51.0594 103.201 50.9462 103.528 50.7705 103.813C50.5947 104.099 50.3611 104.336 50.088 104.505L45.7871 107.24C45.2261 107.592 44.7742 107.438 44.7742 106.88C44.8152 106.537 44.928 106.209 45.1038 105.922C45.2795 105.635 45.5134 105.396 45.7871 105.225V105.225Z" fill="#E0E0E0"/>
<path d="M34.6997 132.387L60.0145 116.303V135.663L60.5989 136.031L35.2763 152.116L34.6997 151.747V132.387Z" fill="#E0E0E0"/>
<path d="M35.2764 132.756L60.599 116.671V136.031L35.2764 152.116V132.756Z" fill="#F5F5F5"/>
<path d="M45.2026 129.729L49.5503 126.994C50.1035 126.643 50.5632 126.806 50.5632 127.363C50.5193 127.704 50.4053 128.03 50.2298 128.315C50.0542 128.6 49.8218 128.838 49.5503 129.009L45.2026 131.719C44.6416 132.07 44.1897 131.907 44.1897 131.358C44.2341 131.02 44.3485 130.697 44.5241 130.414C44.6997 130.132 44.9318 129.898 45.2026 129.729V129.729Z" fill="#E0E0E0"/>
<path d="M35.2764 107.883L60.599 91.7986V111.158L35.2764 127.243V107.883Z" fill="#E0E0E0"/>
<path d="M73.2601 101.367L59.3989 92.562V109.624L73.2601 118.421V101.367Z" fill="#E0E0E0"/>
<path d="M44.7742 130.004V105.869L50.2049 102.405L51.1009 103.862L66.9256 93.8054V115.926L44.7742 130.004Z" fill="#EBEBEB"/>
<path d="M44.7742 130.004L46.3559 108.887L68.5073 94.8169L66.9256 115.926L44.7742 130.004Z" fill="#F5F5F5"/>
<path d="M47.9375 117.452L35.8606 109.778V126.84L47.9375 134.505V117.452Z" fill="#EBEBEB"/>
<path d="M47.9375 115.925L73.2601 99.8408V119.2L47.9375 135.285V115.925Z" fill="#F5F5F5"/>
<path d="M57.864 112.899L62.1649 110.164C62.7259 109.812 63.1778 109.975 63.1778 110.533C63.1357 110.874 63.0223 111.201 62.8466 111.486C62.6709 111.772 62.4376 112.009 62.1649 112.179L57.864 114.914C57.303 115.265 56.8511 115.103 56.8511 114.554C56.8921 114.211 57.0049 113.882 57.1807 113.595C57.3564 113.308 57.5903 113.07 57.864 112.899Z" fill="#E0E0E0"/>
<path d="M47.9377 115.925L47.0962 115.394V134.753L47.9377 135.285V115.925Z" fill="#E0E0E0"/>
<path d="M47.0962 115.394L72.411 99.3008L73.2603 99.8409L47.9377 115.925L47.0962 115.394Z" fill="#EBEBEB"/>
<path d="M293.816 181.772L271.657 167.694V115.419L293.816 129.489V181.772Z" fill="#E0E0E0"/>
<path d="M293.816 129.489L325.466 109.384V161.667L293.816 181.772V129.489Z" fill="#EBEBEB"/>
<path d="M325.466 109.384L293.816 129.489L271.657 115.42L303.314 95.3054L325.466 109.384Z" fill="#F5F5F5"/>
<path d="M296.979 131.504L322.302 115.419L322.886 115.788L322.879 135.148L297.564 151.232L296.979 150.864V131.504Z" fill="#E0E0E0"/>
<path d="M297.564 131.873L322.887 115.789L322.879 135.148L297.564 151.233V131.873Z" fill="#F5F5F5"/>
<path d="M307.49 128.846L311.791 126.111C312.352 125.76 312.804 125.923 312.804 126.472C312.763 126.815 312.65 127.143 312.475 127.43C312.299 127.717 312.065 127.955 311.791 128.126L307.49 130.861C306.929 131.213 306.478 131.05 306.478 130.501C306.519 130.158 306.631 129.83 306.807 129.543C306.983 129.256 307.217 129.017 307.49 128.846V128.846Z" fill="#E0E0E0"/>
<path d="M296.395 156.008L321.718 139.915V159.283L322.302 159.652L296.98 175.736L296.395 175.368V156.008Z" fill="#E0E0E0"/>
<path d="M296.979 156.376L322.302 140.292V159.652L296.979 175.736V156.376Z" fill="#F5F5F5"/>
<path d="M306.906 153.35L311.215 150.615C311.768 150.263 312.22 150.426 312.22 150.975C312.179 151.317 312.066 151.644 311.892 151.931C311.718 152.218 311.486 152.457 311.215 152.63L306.906 155.365C306.345 155.716 305.893 155.553 305.893 154.996C305.935 154.654 306.049 154.328 306.224 154.042C306.4 153.757 306.633 153.52 306.906 153.35Z" fill="#E0E0E0"/>
<path d="M83.0542 236.414C83.0542 236.414 83.1399 222.816 75.3483 212.621C68.4528 203.593 64.7829 197.866 66.9568 195.225C69.1306 192.584 73.8056 191.95 80.109 199.255C86.4123 206.56 86.9032 226.794 86.0305 231.372L83.0542 236.414Z" fill="#02897A"/>
<path opacity="0.2" d="M83.0542 236.414C83.0542 236.414 83.1399 222.816 75.3483 212.621C68.4528 203.593 64.7829 197.866 66.9568 195.225C69.1306 192.584 73.8056 191.95 80.109 199.255C86.4123 206.56 86.9032 226.794 86.0305 231.372L83.0542 236.414Z" fill="black"/>
<path d="M84.3632 221.795C84.2744 221.795 84.1882 221.763 84.1188 221.702C84.0494 221.641 84.0009 221.556 83.9814 221.461C81.2543 207.425 74.2575 199.666 70.3228 196.288C70.2413 196.218 70.1882 196.116 70.1751 196.004C70.1619 195.891 70.1898 195.778 70.2527 195.688C70.3172 195.598 70.4114 195.539 70.5149 195.524C70.6184 195.51 70.7229 195.541 70.8059 195.611C74.8185 199.04 81.9634 206.979 84.745 221.281C84.7564 221.335 84.7578 221.392 84.749 221.447C84.7402 221.502 84.7215 221.555 84.6939 221.602C84.6663 221.649 84.6304 221.69 84.5883 221.722C84.5462 221.753 84.4988 221.775 84.4489 221.786L84.3632 221.795Z" fill="white"/>
<path d="M82.7581 241.464L79.587 243.478C79.2487 242.461 78.6782 241.557 77.9304 240.853C77.1826 240.149 76.2827 239.668 75.3172 239.457C71.8499 238.6 68.2502 238.746 65.8193 235.436C63.3883 232.127 66.3491 228.526 65.8193 226.091C65.2894 223.656 64.9466 222.953 60.5989 220.518C56.2512 218.083 54.5371 214.045 57.8095 211.31C61.082 208.574 66.3803 210.581 69.5904 213.024C72.4421 215.168 75.1536 215.734 78.3403 216.171C81.5271 216.608 86.7162 218.554 85.9215 226.7C85.4011 231.741 84.3392 236.697 82.7581 241.464V241.464Z" fill="#02897A"/>
<path d="M70.5877 230.764C70.5047 230.763 70.424 230.733 70.3569 230.68C70.2899 230.626 70.2398 230.55 70.2137 230.463C70.1843 230.354 70.1946 230.237 70.2426 230.136C70.2907 230.035 70.3725 229.959 70.4709 229.923C70.7514 229.829 77.4833 227.48 80.3428 230C80.4138 230.074 80.457 230.175 80.464 230.282C80.4709 230.389 80.4411 230.495 80.3804 230.579C80.3196 230.663 80.2324 230.719 80.136 230.736C80.0396 230.752 79.941 230.729 79.8597 230.669C77.3352 228.44 70.7747 230.721 70.7046 230.746L70.5877 230.764Z" fill="white"/>
<path d="M83.1089 240.812C83.014 240.812 82.9224 240.774 82.8518 240.704C82.7812 240.634 82.7368 240.538 82.7271 240.434C80.9896 222.378 61.2223 213.813 61.0276 213.727C60.9793 213.707 60.935 213.677 60.8975 213.638C60.8599 213.599 60.8297 213.552 60.8087 213.5C60.7877 213.448 60.7762 213.392 60.775 213.336C60.7738 213.279 60.7828 213.222 60.8016 213.17C60.8399 213.066 60.913 212.982 61.0058 212.936C61.0986 212.889 61.204 212.884 61.3003 212.921C61.5106 213.015 81.7142 221.761 83.4984 240.357C83.5094 240.47 83.4795 240.582 83.4153 240.671C83.3511 240.759 83.2577 240.816 83.1556 240.829L83.1089 240.812Z" fill="white"/>
<path d="M276.908 229.606C276.994 229.306 280.337 210.375 276.908 196.948C273.792 184.636 269.725 180.092 263.928 179.089C258.131 178.086 255.614 182.682 258.692 188.906C261.769 195.131 269.179 203.387 270.995 217.294C271.774 223.021 272.366 227.994 272.366 227.994L276.908 229.606Z" fill="#02897A"/>
<path opacity="0.2" d="M276.908 229.606C276.994 229.306 280.337 210.375 276.908 196.948C273.792 184.636 269.725 180.092 263.928 179.089C258.131 178.086 255.614 182.682 258.692 188.906C261.769 195.131 269.179 203.387 270.995 217.294C271.774 223.021 272.366 227.994 272.366 227.994L276.908 229.606Z" fill="black"/>
<path d="M274.953 218.734C274.902 218.731 274.852 218.717 274.805 218.692C274.759 218.668 274.718 218.633 274.684 218.591C274.65 218.549 274.624 218.5 274.607 218.446C274.59 218.393 274.584 218.336 274.587 218.28C275.366 202.95 270.816 189.266 262.658 182.553C262.575 182.485 262.52 182.383 262.506 182.271C262.491 182.158 262.518 182.044 262.58 181.953C262.643 181.864 262.735 181.805 262.837 181.789C262.939 181.773 263.042 181.801 263.125 181.867C271.486 188.726 276.176 202.719 275.358 218.331C275.352 218.444 275.306 218.549 275.23 218.624C275.155 218.7 275.055 218.739 274.953 218.734Z" fill="white"/>
<path d="M285.877 239.466C285.432 235.942 287.271 230.661 291.642 229.409C296.013 228.157 297.961 225.396 296.387 222.378C294.814 219.36 295.18 216.591 299.146 215.339C303.112 214.088 306.587 211.91 304.304 207.297C302.644 203.962 302.278 201.801 306.345 195.234C309.719 189.781 306.961 186.583 302.738 187.183C298.515 187.783 295.904 193.322 293.263 194.248C290.622 195.174 290.014 190.235 286.531 192.447C283.048 194.659 283.259 200.327 283.15 204.279C283.04 208.232 282.807 209.123 279.659 208.643C276.511 208.163 273.426 208.729 273.496 217.106C273.55 224.29 277.033 233.19 277.033 233.19L285.877 239.466Z" fill="#02897A"/>
<path d="M280.352 234.107H280.313C280.209 234.094 280.114 234.037 280.048 233.947C279.983 233.857 279.952 233.742 279.963 233.627C282.16 212.03 299.005 193.81 303.4 190.115C303.483 190.046 303.587 190.015 303.69 190.031C303.793 190.046 303.886 190.106 303.949 190.197C304.012 190.288 304.04 190.402 304.026 190.516C304.012 190.629 303.958 190.732 303.875 190.801C299.535 194.445 282.908 212.424 280.742 233.722C280.731 233.827 280.685 233.924 280.613 233.995C280.542 234.066 280.449 234.106 280.352 234.107V234.107Z" fill="white"/>
<path d="M288.035 211.018C287.956 211.018 287.879 210.991 287.814 210.942C287.749 210.893 287.698 210.824 287.669 210.744C287.635 210.636 287.641 210.518 287.685 210.414C287.728 210.31 287.806 210.229 287.902 210.186C294.182 207.614 301.304 208.832 301.608 208.883C301.709 208.902 301.799 208.964 301.859 209.056C301.918 209.147 301.943 209.261 301.927 209.372C301.908 209.483 301.852 209.581 301.769 209.648C301.687 209.715 301.585 209.745 301.483 209.732C301.413 209.732 294.26 208.497 288.175 210.992C288.13 211.009 288.083 211.018 288.035 211.018V211.018Z" fill="white"/>
<path d="M282.441 223.999C282.386 223.998 282.332 223.985 282.282 223.96C282.233 223.934 282.188 223.898 282.152 223.853C279.541 220.506 277.77 216.465 277.018 212.133C277.01 212.077 277.012 212.02 277.025 211.965C277.037 211.91 277.059 211.859 277.089 211.813C277.12 211.768 277.158 211.73 277.202 211.701C277.246 211.672 277.294 211.652 277.345 211.644C277.396 211.635 277.447 211.638 277.497 211.651C277.547 211.665 277.594 211.689 277.635 211.722C277.676 211.756 277.711 211.798 277.737 211.846C277.764 211.895 277.781 211.948 277.789 212.004C278.534 216.166 280.238 220.048 282.737 223.279C282.785 223.342 282.817 223.419 282.827 223.501C282.838 223.583 282.827 223.666 282.796 223.742C282.765 223.817 282.715 223.881 282.652 223.927C282.589 223.972 282.516 223.997 282.441 223.999V223.999Z" fill="white"/>
<path d="M82.7581 108.766V241.471L206.192 163.055L206.184 42.4133L114.407 100.724L111.236 90.6667L82.7581 108.766Z" fill="#22343D"/>
<path d="M82.7581 241.471L89.0848 120.829L212.519 42.4133L206.192 163.055L82.7581 241.471Z" fill="#E0E0E0"/>
<path d="M82.7581 241.472L92.2482 122.845L215.682 44.4199L206.192 163.056L82.7581 241.472Z" fill="#22343D"/>
<path d="M101.746 120.83V253.544L225.18 175.119V54.4773L133.396 112.788L130.232 102.731L101.746 120.83Z" fill="#F03E3D"/>
<path d="M101.746 253.544L108.073 132.893L231.507 54.4773L225.18 175.119L101.746 253.544Z" fill="#E0E0E0"/>
<path d="M101.746 253.544L111.236 134.908L234.671 56.4834L225.18 175.119L101.746 253.544Z" fill="#F03E3D"/>
<path d="M206.161 295.77C184.002 281.692 163.448 266.388 154.067 248.434L182.584 230.318L206.161 295.77Z" fill="#E0E0E0"/>
<path d="M123.898 134.908V267.613L247.332 189.197V68.5552L155.547 126.866L152.384 116.809L123.898 134.908Z" fill="#02897A"/>
<path opacity="0.2" d="M123.898 134.908V267.613L247.332 189.197V68.5552L155.547 126.866L152.384 116.809L123.898 134.908Z" fill="black"/>
<path d="M159.459 174.141C159.147 174.141 159.1 173.747 159.1 173.515V60.3411C159.125 59.9021 159.242 59.4754 159.442 59.0946C159.642 58.7137 159.92 58.3891 160.253 58.1462L249.342 1.55906C249.464 1.47532 249.604 1.42804 249.747 1.42188C250.059 1.42187 250.106 1.81627 250.106 2.04777V115.222C250.081 115.662 249.964 116.091 249.764 116.473C249.564 116.855 249.286 117.181 248.952 117.426L159.864 174.013C159.741 174.092 159.601 174.137 159.459 174.141Z" fill="white"/>
<path d="M249.7 1.81672C249.707 1.8794 249.707 1.94266 249.7 2.00534V115.18C249.675 115.545 249.575 115.899 249.41 116.216C249.244 116.534 249.016 116.806 248.742 117.014L159.653 173.602L159.497 173.679C159.487 173.616 159.487 173.552 159.497 173.49V60.3158C159.524 59.9523 159.624 59.5998 159.79 59.284C159.956 58.9682 160.183 58.6968 160.456 58.4896L249.545 1.90245C249.594 1.86463 249.649 1.83837 249.708 1.82529L249.7 1.81672ZM249.755 0.96791C249.543 0.974861 249.336 1.04285 249.155 1.16511L160.066 57.7522C159.675 58.0353 159.349 58.4155 159.115 58.8621C158.881 59.3088 158.745 59.8096 158.718 60.3244V173.499C158.718 174.167 159.022 174.553 159.497 174.553C159.71 174.547 159.917 174.479 160.097 174.356L249.186 117.769C249.58 117.488 249.907 117.108 250.141 116.661C250.375 116.214 250.51 115.712 250.534 115.197V2.02249C250.534 1.35373 250.23 0.959337 249.755 0.96791V0.96791Z" fill="#02897A"/>
<path opacity="0.7" d="M249.7 1.81672C249.707 1.8794 249.707 1.94266 249.7 2.00534V115.18C249.675 115.545 249.575 115.899 249.41 116.216C249.244 116.534 249.016 116.806 248.742 117.014L159.653 173.602L159.497 173.679C159.487 173.616 159.487 173.552 159.497 173.49V60.3158C159.524 59.9523 159.624 59.5998 159.79 59.284C159.956 58.9682 160.183 58.6968 160.456 58.4896L249.545 1.90245C249.594 1.86463 249.649 1.83837 249.708 1.82529L249.7 1.81672ZM249.755 0.96791C249.543 0.974861 249.336 1.04285 249.155 1.16511L160.066 57.7522C159.675 58.0353 159.349 58.4155 159.115 58.8621C158.881 59.3088 158.745 59.8096 158.718 60.3244V173.499C158.718 174.167 159.022 174.553 159.497 174.553C159.71 174.547 159.917 174.479 160.097 174.356L249.186 117.769C249.58 117.488 249.907 117.108 250.141 116.661C250.375 116.214 250.51 115.712 250.534 115.197V2.02249C250.534 1.35373 250.23 0.959337 249.755 0.96791V0.96791Z" fill="white"/>
<path d="M168.208 64.6371L199.858 44.5315V84.7427L168.208 104.848V64.6371Z" fill="#02897A"/>
<path opacity="0.8" d="M168.208 64.6371L199.858 44.5315V84.7427L168.208 104.848V64.6371Z" fill="#11B5E4"/>
<path d="M195.113 54.5544V66.6435L194.115 67.2523V63.5569C194.115 61.5164 192.612 60.8219 190.742 62.0051L177.332 70.536C175.47 71.7192 173.959 74.3342 173.959 76.3748V80.0701L172.969 80.7217V68.6584L195.113 54.5544Z" fill="white"/>
<path d="M189.02 85.3341C187.399 86.363 186.082 85.2827 186.082 82.9077V63.5566L182.007 65.9916V85.497C182.007 87.8634 180.69 90.6413 179.07 91.6444L176.125 93.5135V94.7996L191.949 84.7425V83.465L189.02 85.3341Z" fill="white"/>
<path d="M206.161 42.5512C206.161 43.6658 207.073 43.9831 208.187 43.28L238.979 23.6889C239.526 23.3481 239.993 22.8727 240.344 22.3C240.696 21.7274 240.922 21.0729 241.005 20.3879C241.005 19.2819 240.093 18.9561 238.979 19.6677L208.21 39.216C207.655 39.5561 207.18 40.0352 206.824 40.6146C206.468 41.194 206.241 41.8574 206.161 42.5512V42.5512Z" fill="#455A64"/>
<path d="M206.161 54.5545C206.161 55.6691 207.073 55.9949 208.187 55.2833L238.956 35.735C239.502 35.3942 239.969 34.9189 240.321 34.3462C240.672 33.7735 240.899 33.119 240.982 32.4341C240.982 31.3281 240.07 31.0023 238.956 31.7139L208.187 51.2622C207.642 51.6021 207.175 52.0761 206.824 52.6472C206.472 53.2183 206.245 53.8711 206.161 54.5545Z" fill="#455A64"/>
<path d="M206.161 66.643C206.161 67.7576 207.073 68.0834 208.187 67.3717L238.956 47.8235C239.501 47.4836 239.968 47.0095 240.319 46.4384C240.671 45.8673 240.897 45.2146 240.982 44.5311C240.982 43.4165 240.07 43.0907 238.956 43.8023L208.187 63.3506C207.642 63.6905 207.175 64.1646 206.824 64.7357C206.472 65.3068 206.245 65.9595 206.161 66.643V66.643Z" fill="#455A64"/>
<path d="M206.161 78.7069C206.161 79.8215 207.073 80.1473 208.187 79.4357L238.956 59.8874C239.501 59.5475 239.968 59.0735 240.319 58.5024C240.671 57.9313 240.897 57.2785 240.982 56.5951C240.982 55.4805 240.07 55.1547 238.956 55.8663L208.187 75.4146C207.642 75.7545 207.175 76.2285 206.824 76.7996C206.472 77.3707 206.245 78.0235 206.161 78.7069V78.7069Z" fill="#455A64"/>
<path d="M168.208 114.905C168.208 116.02 169.112 116.346 170.234 115.634L238.979 71.9078C239.525 71.5689 239.992 71.0952 240.344 70.5239C240.696 69.9526 240.922 69.2993 241.005 68.6155C241.005 67.5009 240.093 67.1836 238.979 67.8867L170.234 111.613C169.688 111.951 169.22 112.425 168.868 112.996C168.517 113.568 168.291 114.221 168.208 114.905V114.905Z" fill="#455A64"/>
<path d="M168.208 126.969C168.208 128.083 169.112 128.409 170.234 127.697L238.979 84.0223C239.525 83.6816 239.993 83.2062 240.344 82.6335C240.696 82.0609 240.922 81.4064 241.005 80.7214C241.005 79.6154 240.093 79.2896 238.979 80.0012L170.234 123.676C169.688 124.015 169.22 124.488 168.868 125.06C168.517 125.631 168.291 126.285 168.208 126.969V126.969Z" fill="#455A64"/>
<path d="M168.208 139.04C168.208 140.146 169.112 140.472 170.234 139.761L238.979 96.0856C239.525 95.7448 239.993 95.2695 240.344 94.6968C240.696 94.1241 240.922 93.4696 241.005 92.7847C241.005 91.6786 240.093 91.3528 238.979 92.0645L170.234 135.739C169.687 136.079 169.218 136.554 168.867 137.127C168.515 137.7 168.29 138.355 168.208 139.04V139.04Z" fill="#455A64"/>
<path d="M123.898 267.613L146.049 161.05L269.483 82.625L247.332 189.197L123.898 267.613Z" fill="#02897A"/>
<path d="M154.098 169.392V248.434L182.584 230.334V151.301L154.098 169.392Z" fill="#02897A"/>
<path opacity="0.2" d="M154.098 169.392V248.434L182.584 230.334V151.301L154.098 169.392Z" fill="black"/>
<path d="M206.216 295.256C203.792 293.267 180.433 273.624 168.559 245.528C155.921 215.656 155.937 180.812 155.937 167.703V167.292L240.615 113.5C240.615 126.729 240.615 161.624 253.308 191.598C264.909 219.035 287.373 238.428 290.933 241.395L206.216 295.256Z" fill="white"/>
<path d="M240.226 114.271C240.226 128.058 240.467 162.284 252.957 191.812C264.169 218.306 285.487 237.357 290.232 241.378L206.239 294.741C202.959 292.023 180.48 272.706 168.917 245.382C156.295 215.596 156.295 180.821 156.295 167.729V167.566L240.195 114.262L240.226 114.271ZM240.974 112.779L155.516 167.077C155.516 179.415 155.282 215.262 168.177 245.742C180.87 275.656 206.161 295.77 206.161 295.77L291.642 241.463C291.642 241.463 266.32 221.349 253.666 191.435C240.763 160.955 241.005 125.108 241.005 112.771L240.974 112.779Z" fill="#02897A"/>
<path opacity="0.7" d="M240.226 114.271C240.226 128.058 240.467 162.284 252.957 191.812C264.169 218.306 285.487 237.357 290.232 241.378L206.239 294.741C202.959 292.023 180.48 272.706 168.917 245.382C156.295 215.596 156.295 180.821 156.295 167.729V167.566L240.195 114.262L240.226 114.271ZM240.974 112.779L155.516 167.077C155.516 179.415 155.282 215.262 168.177 245.742C180.87 275.656 206.161 295.77 206.161 295.77L291.642 241.463C291.642 241.463 266.32 221.349 253.666 191.435C240.763 160.955 241.005 125.108 241.005 112.771L240.974 112.779Z" fill="white"/>
<path d="M231.336 130.989L204.315 148.137C203.774 148.465 203.313 148.931 202.971 149.497C202.629 150.063 202.416 150.711 202.351 151.387C202.39 152.475 203.333 152.784 204.447 152.072L231.476 134.925C232.01 134.6 232.467 134.14 232.807 133.582C233.147 133.025 233.361 132.385 233.432 131.718C233.385 130.587 232.458 130.278 231.336 130.989Z" fill="#455A64"/>
<path d="M231.912 142.693L204.891 159.841C204.357 160.157 203.904 160.617 203.574 161.177C203.244 161.738 203.049 162.381 203.006 163.047C203.091 164.102 204.073 164.385 205.187 163.673L232.216 146.526C232.748 146.211 233.198 145.752 233.524 145.192C233.85 144.632 234.041 143.991 234.078 143.327C234 142.264 233.034 142.007 231.912 142.693Z" fill="#455A64"/>
<path d="M232.995 154.071L205.966 171.218C204.852 171.93 204.042 173.345 204.174 174.365C204.307 175.385 205.327 175.651 206.449 174.939L233.478 157.792C234.592 157.08 235.387 155.674 235.247 154.654C235.107 153.633 234.109 153.359 232.995 154.071Z" fill="#455A64"/>
<path d="M234.616 165.105L207.587 182.252C206.473 182.964 205.701 184.353 205.888 185.348C206.075 186.342 207.135 186.565 208.226 185.853L235.247 168.706C236.369 167.994 237.117 166.614 236.93 165.619C236.743 164.625 235.769 164.393 234.616 165.105Z" fill="#455A64"/>
<path d="M236.813 175.771L209.784 192.919C208.67 193.63 207.946 194.985 208.226 195.937C208.507 196.888 209.574 197.103 210.688 196.391L237.717 179.243C238.839 178.532 239.54 177.186 239.275 176.225C239.011 175.265 237.927 175.059 236.813 175.771Z" fill="#455A64"/>
<path d="M239.665 186.051L173.795 227.9C172.681 228.611 172.003 229.932 172.307 230.849C172.611 231.767 173.772 231.938 174.886 231.226L240.756 189.378C241.878 188.666 242.524 187.354 242.221 186.428C241.917 185.502 240.74 185.339 239.665 186.051Z" fill="#455A64"/>
<path d="M243.132 195.868L177.27 237.716C176.148 238.428 175.532 239.714 175.906 240.589C176.28 241.463 177.465 241.6 178.602 240.889L244.472 199.04C245.594 198.328 246.194 197.042 245.82 196.168C245.446 195.293 244.254 195.165 243.132 195.868Z" fill="#455A64"/>
<path d="M247.456 205.222L181.586 247.071C180.464 247.782 179.911 249.034 180.355 249.866C180.799 250.697 182.069 250.783 183.191 250.072L249.015 208.223C250.129 207.52 250.666 206.277 250.222 205.445C249.778 204.613 248.547 204.51 247.456 205.222Z" fill="#455A64"/>
<path d="M252.498 214.07L186.635 255.91C185.513 256.622 185.015 257.848 185.521 258.628C186.028 259.408 187.36 259.485 188.482 258.765L254.344 216.916C255.466 216.205 255.949 214.996 255.443 214.207C254.936 213.418 253.62 213.358 252.498 214.07Z" fill="#455A64"/>
<path d="M258.248 222.481L192.378 264.321C191.263 265.033 190.819 266.224 191.38 266.97C191.941 267.716 193.32 267.751 194.442 267.039L260.312 225.173C261.427 224.461 261.871 223.287 261.294 222.541C260.718 221.795 259.37 221.744 258.248 222.481Z" fill="#455A64"/>
<path d="M264.598 230.488L198.751 272.329C197.629 273.04 197.193 274.206 197.848 274.901C198.502 275.595 199.889 275.612 201.003 274.901L266.873 233.052C267.995 232.34 268.385 231.191 267.761 230.48C267.138 229.768 265.735 229.785 264.598 230.488Z" fill="#455A64"/>
<path d="M271.61 238.145L205.74 279.986C204.626 280.697 204.26 281.838 204.961 282.515C205.663 283.192 207.096 283.166 208.218 282.455L274.034 240.606C275.148 239.894 275.498 238.78 274.813 238.094C274.127 237.408 272.701 237.434 271.61 238.145Z" fill="#455A64"/>
<path d="M194.521 154.388L163.448 174.107C163.791 186.497 165.076 204.364 169.782 222.361L200.863 202.641C196.149 184.645 194.863 166.768 194.521 154.388Z" fill="#02897A"/>
<path opacity="0.8" d="M194.521 154.388L163.448 174.107C163.791 186.497 165.076 204.364 169.782 222.361L200.863 202.641C196.149 184.645 194.863 166.768 194.521 154.388Z" fill="#11B5E4"/>
<path d="M176.117 171.381C176.159 170.581 176.046 169.781 175.785 169.033C175.524 168.285 175.122 167.606 174.605 167.042L163.448 174.124C163.541 177.4 163.697 181.061 163.97 185.005C165.421 185.188 166.889 184.89 168.185 184.147C172.572 181.935 176.117 176.199 176.117 171.381Z" fill="#02897A"/>
<path opacity="0.6" d="M176.117 171.381C176.159 170.581 176.046 169.781 175.785 169.033C175.524 168.285 175.122 167.606 174.605 167.042L163.448 174.124C163.541 177.4 163.697 181.061 163.97 185.005C165.421 185.188 166.889 184.89 168.185 184.147C172.572 181.935 176.117 176.199 176.117 171.381Z" fill="white"/>
<path d="M198.222 190.809C196.149 187.937 191.934 179.063 190.134 175.196C190.063 175.043 189.952 174.918 189.816 174.835C189.679 174.752 189.524 174.716 189.368 174.732C189.213 174.747 189.066 174.814 188.945 174.923C188.825 175.032 188.737 175.178 188.692 175.342C186.745 182.666 185.615 190.224 185.327 197.848C182.732 195.581 180.501 192.851 178.727 189.772C178.651 189.653 178.546 189.559 178.424 189.504C178.302 189.448 178.168 189.432 178.038 189.457C177.908 189.482 177.787 189.548 177.689 189.646C177.592 189.744 177.522 189.871 177.488 190.012C174.091 204.407 175.797 218.571 175.797 218.571L200.863 202.641C199.819 198.663 198.954 194.702 198.222 190.809Z" fill="#02897A"/>
<path opacity="0.6" d="M198.222 190.809C196.149 187.937 191.934 179.063 190.134 175.196C190.063 175.043 189.952 174.918 189.816 174.835C189.679 174.752 189.524 174.716 189.368 174.732C189.213 174.747 189.066 174.814 188.945 174.923C188.825 175.032 188.737 175.178 188.692 175.342C186.745 182.666 185.615 190.224 185.327 197.848C182.732 195.581 180.501 192.851 178.727 189.772C178.651 189.653 178.546 189.559 178.424 189.504C178.302 189.448 178.168 189.432 178.038 189.457C177.908 189.482 177.787 189.548 177.689 189.646C177.592 189.744 177.522 189.871 177.488 190.012C174.091 204.407 175.797 218.571 175.797 218.571L200.863 202.641C199.819 198.663 198.954 194.702 198.222 190.809Z" fill="white"/>
</svg>
