<svg width="350" height="293" viewBox="0 0 350 293" fill="none" xmlns="http://www.w3.org/2000/svg">
<path d="M65.3661 260.237C130.466 302.651 236.054 302.651 301.154 260.237C366.253 217.823 366.253 149.066 301.154 106.661C236.054 64.2552 130.466 64.2465 65.3661 106.661C0.2665 149.075 0.242683 217.832 65.3661 260.237Z" fill="#FAFAFA"/>
<path d="M319.937 103.552C320.295 98.63 323.732 90.24 328.821 84.2847C333.91 78.3294 342.055 75.4218 347.081 77.8302C351.765 80.081 350.733 86.9996 344.556 91.0895C338.38 95.1794 329.186 100.206 326.034 107.957L319.937 117.258V103.552Z" fill="#02897A"/>
<path opacity="0.2" d="M319.937 103.552C320.295 98.63 323.732 90.24 328.821 84.2847C333.91 78.3294 342.055 75.4218 347.081 77.8302C351.765 80.081 350.733 86.9996 344.556 91.0895C338.38 95.1794 329.186 100.206 326.034 107.957L319.937 117.258V103.552Z" fill="black"/>
<path d="M345.136 80.1074C339.301 81.3335 322.2 93.4806 319.961 111.819" stroke="white" stroke-miterlimit="10" stroke-linecap="round"/>
<path d="M320.628 125.648C321.525 123.021 325.431 118.143 331.052 115.752C336.673 113.361 340.912 111.224 342.96 107.371C345.009 103.517 341.444 99.7337 335.768 100.005C330.091 100.277 320.636 106.836 319.969 117.258L320.628 125.648Z" fill="#02897A"/>
<path d="M338.657 103.123C333.751 103.657 321.827 111.635 320.223 120.568" stroke="white" stroke-miterlimit="10" stroke-linecap="round"/>
<path d="M27.386 150.66C27.1434 143.702 25.7413 136.853 23.2498 130.456C19.0659 119.517 10.603 113.728 6.09365 112.94C1.58432 112.152 -3.07586 118.195 2.66402 125.376C8.4039 132.558 19.4073 142.174 22.567 156.72L27.7353 166.652L27.386 150.66Z" fill="#02897A"/>
<path opacity="0.2" d="M27.386 150.66C27.1434 143.702 25.7413 136.853 23.2498 130.456C19.0659 119.517 10.603 113.728 6.09365 112.94C1.58432 112.152 -3.07586 118.195 2.66402 125.376C8.4039 132.558 19.4073 142.174 22.567 156.72L27.7353 166.652L27.386 150.66Z" fill="black"/>
<path d="M6.09375 116.277C15.3506 122.355 26.0762 138.303 27.5766 159.497" stroke="white" stroke-linecap="round" stroke-linejoin="round"/>
<path d="M26.6794 176.837C25.4013 171.188 22.059 165.68 15.3823 160.145C8.7056 154.61 -0.217814 149.854 0.512571 144.205C1.24296 138.557 8.00697 138.951 12.9609 141.447C17.9148 143.943 26.5048 154.216 27.7353 166.634L26.6794 176.837Z" fill="#02897A"/>
<path d="M5.19653 142.437C11.6271 144.188 25.4251 158.113 27.4257 169.971" stroke="white" stroke-linecap="round" stroke-linejoin="round"/>
<path d="M28.5054 180.323C27.972 179.939 27.5285 179.422 27.2111 178.813C26.8937 178.204 26.7115 177.521 26.6794 176.819V50.4006C26.7128 49.6994 26.8955 49.0168 27.2128 48.4082C27.53 47.7995 27.9729 47.282 28.5054 46.8975L69.4467 20.8255C69.9761 20.4609 70.5854 20.2623 71.2093 20.2507C71.8333 20.2392 72.4483 20.4152 72.9885 20.7599C73.5286 21.1047 73.9735 21.6051 74.2754 22.2076C74.5774 22.81 74.7249 23.4918 74.7023 24.1797V32.6222C74.7023 33.9096 75.4962 34.4351 76.5362 33.787L127.766 1.1642C128.295 0.800156 128.904 0.601565 129.527 0.589678C130.15 0.577791 130.765 0.753055 131.305 1.09672C131.844 1.44038 132.289 1.93951 132.592 2.54069C132.894 3.14187 133.043 3.82247 133.022 4.50968V198.828L95.2643 222.859L28.5054 180.323Z" fill="#263238"/>
<path d="M131.307 1.10305C130.754 0.805502 130.145 0.656727 129.529 0.668905C128.914 0.681082 128.31 0.853868 127.767 1.17311L76.5363 33.7959C75.5201 34.444 74.7024 33.9185 74.7024 32.6311V24.1886C74.725 23.5007 74.5774 22.8189 74.2755 22.2165C73.9736 21.614 73.5287 21.1136 72.9885 20.7688C72.4484 20.4241 71.8334 20.2481 71.2094 20.2596C70.5855 20.2712 69.9762 20.4699 69.4468 20.8344L28.5055 46.9064C27.9674 47.2821 27.5227 47.7998 27.2114 48.4127L50.6949 63.371L133.022 10.9205V4.51859C133 3.8407 132.833 3.17819 132.535 2.58477C132.237 1.99136 131.816 1.48373 131.307 1.10305Z" fill="#455A64"/>
<path d="M131.196 3.35353L76.5363 38.1658C75.5201 38.8139 74.7024 38.2884 74.7024 37.001V24.1883C74.7024 22.9009 73.9085 22.3755 72.8764 23.0236L31.9351 49.0955C31.4021 49.4795 30.9589 49.997 30.6416 50.6057C30.3243 51.2145 30.1419 51.8974 30.1091 52.5987V174.691C30.1415 175.394 30.3246 176.077 30.6434 176.687C30.9623 177.296 31.4077 177.812 31.943 178.194L98.7178 220.722L133.022 198.88V4.51832C133.022 3.23092 132.204 2.71421 131.196 3.35353Z" fill="#37474F"/>
<path d="M30.6489 176.636C30.9554 177.252 31.4012 177.771 31.943 178.142L98.7177 220.67L133.022 198.828V111.434L30.6489 176.636Z" fill="#263238"/>
<path d="M38.9371 204.468L38.437 204.152C38.0105 203.847 37.6553 203.434 37.4002 202.949C37.145 202.464 36.997 201.919 36.9683 201.359V82.7343C36.9952 82.1736 37.1423 81.628 37.3977 81.1423C37.653 80.6566 38.0092 80.2447 38.437 79.9405L148.709 9.70295C149.163 9.44837 149.665 9.31567 150.174 9.31567C150.683 9.31567 151.185 9.44837 151.639 9.70295L152.139 10.027C152.567 10.3312 152.923 10.7431 153.178 11.2288C153.434 11.7144 153.581 12.2601 153.608 12.8207V131.419C153.579 131.979 153.431 132.524 153.176 133.009C152.921 133.495 152.565 133.907 152.139 134.213L41.8666 204.468C41.4128 204.722 40.911 204.855 40.4019 204.855C39.8928 204.855 39.3909 204.722 38.9371 204.468Z" fill="#F5F5F5"/>
<path d="M43.8275 85.2129L37.397 81.1143C37.1348 81.5973 36.9873 82.1455 36.9683 82.7082V201.333C36.997 201.893 37.145 202.438 37.4002 202.923C37.6553 203.408 38.0105 203.821 38.437 204.126L38.9371 204.442C39.3909 204.696 39.8928 204.829 40.4019 204.829C40.911 204.829 41.4128 204.696 41.8666 204.442L43.8275 203.189V85.2129Z" fill="#E0E0E0"/>
<path d="M40.406 203.513V84.8889C40.4333 84.3293 40.5798 83.7847 40.8336 83.2993C41.0874 82.8139 41.4414 82.4014 41.8668 82.0951L152.139 11.8576C152.933 11.3496 153.608 11.7612 153.608 12.7946V131.419C153.579 131.979 153.431 132.524 153.176 133.009C152.921 133.495 152.566 133.907 152.139 134.213L41.8668 204.468C41.057 204.958 40.406 204.547 40.406 203.513Z" fill="#EBEBEB"/>
<path d="M49.0911 86.2375L144.915 25.2131C145.923 24.565 146.741 25.0905 146.741 26.3779V117.844C146.708 118.546 146.526 119.229 146.209 119.838C145.892 120.447 145.448 120.964 144.915 121.347L49.0911 182.363C48.0828 183.011 47.2651 182.486 47.2651 181.198V89.7406C47.2985 89.0394 47.4812 88.3569 47.7985 87.7482C48.1157 87.1395 48.5586 86.622 49.0911 86.2375Z" fill="white"/>
<path d="M64.9295 81.6748C70.8996 77.8739 75.7344 80.9567 75.7344 88.5585C75.7344 96.1602 70.8996 105.4 64.9295 109.201C58.9593 113.001 54.1245 109.927 54.1245 102.326C54.1245 94.724 58.9593 85.4757 64.9295 81.6748Z" fill="#FFB900"/>
<path d="M74.9404 109.244C75.3069 108.491 75.8298 107.843 76.4664 107.355C77.103 106.867 77.8352 106.552 78.6032 106.436C79.3712 106.32 80.1532 106.406 80.8854 106.687C81.6175 106.968 82.2791 107.436 82.8159 108.053L95.2642 122.355L118.922 58.3262C119.27 57.3874 119.849 56.5748 120.593 55.9808C121.338 55.3868 122.219 55.0351 123.136 54.9658C124.053 54.8965 124.97 55.1123 125.781 55.5886C126.593 56.065 127.267 56.7828 127.727 57.6606L146.725 93.953V117.844C146.693 118.546 146.51 119.229 146.193 119.838C145.876 120.447 145.432 120.964 144.899 121.347L49.0911 182.363C48.0828 183.011 47.2651 182.486 47.2651 181.198V166.047L74.9404 109.244Z" fill="#FFB900"/>
<path d="M59.5389 217.605L59.0308 217.281C58.6054 216.975 58.2514 216.562 57.9976 216.077C57.7438 215.591 57.5973 215.047 57.5701 214.487V95.8188C57.5973 95.2592 57.7438 94.7146 57.9976 94.2292C58.2514 93.7438 58.6054 93.3312 59.0308 93.025L169.311 22.7962C169.763 22.5382 170.264 22.4036 170.772 22.4036C171.28 22.4036 171.781 22.5382 172.233 22.7962L172.741 23.1115C173.166 23.4177 173.52 23.8303 173.774 24.3157C174.028 24.8011 174.174 25.3457 174.202 25.9052V144.53C174.179 145.09 174.034 145.637 173.78 146.123C173.526 146.609 173.169 147.021 172.741 147.323L62.4446 217.605C61.9952 217.86 61.4971 217.993 60.9918 217.993C60.4864 217.993 59.9883 217.86 59.5389 217.605Z" fill="#F5F5F5"/>
<path d="M64.4135 98.3323L57.9829 94.2336C57.7217 94.714 57.5742 95.2591 57.5542 95.8188V214.443C57.5815 215.003 57.728 215.547 57.9818 216.033C58.2356 216.518 58.5895 216.931 59.015 217.237L59.5231 217.561C59.9745 217.819 60.4754 217.954 60.9838 217.954C61.4922 217.954 61.9932 217.819 62.4446 217.561L64.4135 216.309V98.3323Z" fill="#E0E0E0"/>
<path d="M60.9836 216.633V98.0082C61.0115 97.4488 61.1583 96.9044 61.412 96.4191C61.6658 95.9338 62.0194 95.5212 62.4444 95.2144L172.725 24.9768C173.519 24.4601 174.186 24.8805 174.186 25.9052V144.53C174.163 145.09 174.018 145.637 173.764 146.123C173.51 146.609 173.153 147.021 172.725 147.323L62.4444 217.605C61.6426 218.078 60.9836 217.657 60.9836 216.633Z" fill="#EBEBEB"/>
<path d="M69.6769 99.3746L165.5 38.3415C166.509 37.7021 167.326 38.2276 167.326 39.5063V130.955C167.294 131.657 167.111 132.339 166.794 132.948C166.477 133.557 166.033 134.074 165.5 134.458L69.6769 195.491C68.6607 196.131 67.843 195.614 67.843 194.327V102.878C67.876 102.175 68.0594 101.492 68.3782 100.883C68.6969 100.274 69.142 99.7571 69.6769 99.3746Z" fill="white"/>
<path d="M85.5152 94.7937C91.4773 90.9928 96.3201 94.0756 96.3201 101.677C96.3201 109.279 91.4773 118.519 85.5152 122.319C79.553 126.12 74.7102 123.038 74.7102 115.436C74.7102 107.834 79.545 98.5946 85.5152 94.7937Z" fill="#11B5E4"/>
<path d="M95.5262 122.364C95.8918 121.61 96.4139 120.963 97.0498 120.475C97.6857 119.987 98.4173 119.672 99.1847 119.556C99.9522 119.44 100.734 119.526 101.465 119.807C102.197 120.088 102.858 120.556 103.394 121.173L115.906 135.474L139.556 71.446C139.902 70.5049 140.481 69.6901 141.227 69.0944C141.972 68.4987 142.855 68.146 143.773 68.0766C144.692 68.0073 145.61 68.2239 146.422 68.702C147.234 69.18 147.909 69.9002 148.368 70.7804L167.358 107.073V130.955C167.325 131.657 167.143 132.339 166.826 132.948C166.508 133.557 166.065 134.074 165.532 134.458L69.7087 195.492C68.6925 196.131 67.8748 195.614 67.8748 194.327V179.176L95.5262 122.364Z" fill="#11B5E4"/>
<path d="M80.1008 230.662L79.6007 230.347C79.1753 230.041 78.8213 229.628 78.5675 229.143C78.3137 228.657 78.1672 228.113 78.1399 227.553V108.929C78.1668 108.368 78.314 107.822 78.5693 107.337C78.8246 106.851 79.1808 106.439 79.6086 106.135L189.881 35.8973C190.335 35.6427 190.837 35.51 191.346 35.51C191.855 35.51 192.357 35.6427 192.81 35.8973L193.311 36.2213C193.738 36.5255 194.095 36.9374 194.35 37.4231C194.605 37.9088 194.752 38.4544 194.779 39.0151V157.64C194.751 158.2 194.603 158.745 194.347 159.23C194.092 159.715 193.737 160.127 193.311 160.433L83.0383 230.662C82.5835 230.918 82.0801 231.052 81.5695 231.052C81.0589 231.052 80.5556 230.918 80.1008 230.662Z" fill="#F5F5F5"/>
<path d="M84.9993 111.434L78.5925 107.335C78.3303 107.818 78.1829 108.367 78.1638 108.929V227.554C78.1911 228.113 78.3376 228.658 78.5914 229.143C78.8452 229.629 79.1992 230.041 79.6246 230.348L80.1247 230.663C80.5785 230.917 81.0804 231.05 81.5895 231.05C82.0986 231.05 82.6004 230.917 83.0542 230.663L85.0231 229.41L84.9993 111.434Z" fill="#E0E0E0"/>
<path d="M81.5696 229.734V111.11C81.5969 110.55 81.7433 110.006 81.9972 109.52C82.251 109.035 82.6049 108.622 83.0303 108.316L193.303 38.0697C194.097 37.5618 194.771 37.9734 194.771 39.0068V157.64C194.743 158.2 194.595 158.745 194.34 159.23C194.084 159.716 193.729 160.128 193.303 160.434L83.0303 230.663C82.2206 231.179 81.5696 230.741 81.5696 229.734Z" fill="#EBEBEB"/>
<path d="M90.2547 112.45L186.078 51.4255C187.086 50.7774 187.904 51.3029 187.904 52.5903V144.039C187.871 144.741 187.689 145.423 187.372 146.032C187.054 146.641 186.611 147.158 186.078 147.542L90.2547 208.584C89.2464 209.232 88.4287 208.707 88.4287 207.419V115.944C88.4633 115.245 88.6466 114.564 88.9638 113.957C89.281 113.35 89.7232 112.833 90.2547 112.45Z" fill="white"/>
<path d="M106.093 107.896C112.063 104.095 116.898 107.177 116.898 114.779C116.898 122.381 112.063 131.62 106.093 135.421C100.123 139.222 95.2642 136.157 95.2642 128.546C95.2642 120.936 100.123 111.696 106.093 107.896Z" fill="#F03E3D"/>
<path d="M116.104 135.465C116.47 134.712 116.993 134.064 117.63 133.576C118.267 133.088 118.999 132.773 119.767 132.657C120.535 132.541 121.317 132.627 122.049 132.908C122.781 133.189 123.443 133.657 123.979 134.274L136.452 148.575L160.11 84.5472C160.457 83.6084 161.036 82.7958 161.781 82.2017C162.526 81.6077 163.407 81.2561 164.324 81.1868C165.241 81.1174 166.157 81.3332 166.969 81.8096C167.78 82.2859 168.454 83.0038 168.914 83.8816L187.912 120.174V144.039C187.877 144.741 187.692 145.423 187.374 146.032C187.055 146.64 186.611 147.157 186.078 147.542L90.2547 208.584C89.2464 209.232 88.4287 208.707 88.4287 207.419V192.268L116.104 135.465Z" fill="#F03E3D"/>
<path d="M98.7178 220.669L109.007 214.119V227.229L98.7178 220.669Z" fill="#263238"/>
<path d="M109.007 129.055V224.9C109.007 226.187 108.213 226.704 107.181 226.065L98.7176 220.67L95.2642 222.859L110.586 232.616C111.153 232.935 111.78 233.102 112.416 233.102C113.053 233.102 113.68 232.935 114.246 232.616L220.382 165.058C220.916 164.674 221.361 164.157 221.68 163.549C221.998 162.94 222.182 162.257 222.216 161.555V61.3306C222.237 60.6424 222.088 59.9609 221.785 59.3589C221.482 58.7569 221.037 58.2569 220.496 57.9125C219.956 57.5681 219.341 57.3921 218.717 57.4033C218.092 57.4146 217.483 57.6126 216.953 57.9763L110.84 125.56C110.307 125.942 109.862 126.457 109.543 127.065C109.225 127.672 109.041 128.354 109.007 129.055Z" fill="#263238"/>
<path d="M115.906 131.095L222.288 63.3711V61.3306C222.309 60.6424 222.16 59.9609 221.857 59.3589C221.554 58.7569 221.108 58.2569 220.568 57.9125C220.027 57.5681 219.412 57.3921 218.788 57.4033C218.164 57.4146 217.554 57.6126 217.024 57.9763L110.84 125.56C110.299 125.931 109.853 126.45 109.546 127.067L115.906 131.095Z" fill="#455A64"/>
<path d="M220.383 60.1652L114.27 127.749C113.736 128.133 113.292 128.65 112.973 129.259C112.654 129.867 112.471 130.55 112.436 131.252V231.45C112.436 232.738 113.23 233.263 114.27 232.615L220.383 165.057C220.917 164.674 221.361 164.157 221.68 163.548C221.998 162.939 222.182 162.256 222.216 161.554V61.33C222.216 60.0426 221.391 59.5172 220.383 60.1652Z" fill="#37474F"/>
<path d="M140.691 189.816C140.488 189.819 140.288 189.762 140.112 189.65C139.9 189.496 139.73 189.283 139.62 189.031C139.51 188.78 139.463 188.5 139.484 188.222V139.511C139.512 138.875 139.678 138.256 139.966 137.705C140.255 137.153 140.658 136.686 141.144 136.341L193.112 103.245C193.313 103.07 193.557 102.966 193.813 102.946C194.068 102.926 194.323 102.99 194.545 103.132C194.766 103.274 194.944 103.485 195.055 103.74C195.167 103.994 195.206 104.28 195.168 104.559V153.27C195.14 153.906 194.975 154.525 194.687 155.077C194.398 155.628 193.994 156.095 193.509 156.44L141.541 189.58C141.281 189.738 140.988 189.82 140.691 189.816ZM193.962 103.841C193.8 103.849 193.643 103.907 193.509 104.007L141.541 137.094C141.176 137.363 140.873 137.721 140.654 138.14C140.435 138.56 140.307 139.029 140.278 139.511V188.222C140.264 188.346 140.277 188.471 140.318 188.587C140.358 188.703 140.423 188.806 140.509 188.888C140.614 188.93 140.728 188.942 140.84 188.922C140.951 188.902 141.055 188.851 141.144 188.774L193.112 155.678C193.477 155.412 193.781 155.055 194 154.637C194.219 154.22 194.347 153.752 194.375 153.27V104.559C194.39 104.436 194.376 104.31 194.336 104.194C194.296 104.078 194.23 103.974 194.144 103.893C194.089 103.858 194.026 103.84 193.962 103.841Z" fill="#FAFAFA"/>
<path d="M149.067 147.866C148.614 147.871 148.167 147.745 147.773 147.498C147.282 147.127 146.891 146.618 146.64 146.023C146.388 145.429 146.286 144.771 146.344 144.118C146.429 142.436 146.871 140.799 147.635 139.34C148.399 137.881 149.463 136.641 150.742 135.719C151.206 135.303 151.774 135.052 152.371 135.001C152.967 134.949 153.564 135.099 154.081 135.431C154.598 135.763 155.012 136.261 155.266 136.858C155.52 137.456 155.604 138.125 155.505 138.776C155.422 140.458 154.981 142.096 154.217 143.555C153.452 145.014 152.387 146.254 151.107 147.174C150.491 147.593 149.789 147.831 149.067 147.866ZM152.814 135.903C152.22 135.932 151.642 136.131 151.139 136.481C149.981 137.321 149.018 138.45 148.328 139.777C147.639 141.104 147.242 142.591 147.169 144.118C147.064 144.619 147.108 145.144 147.294 145.615C147.479 146.087 147.798 146.48 148.201 146.737C148.605 146.994 149.073 147.101 149.536 147.043C149.999 146.984 150.433 146.763 150.774 146.412C151.932 145.572 152.894 144.442 153.584 143.116C154.273 141.789 154.67 140.303 154.743 138.776C154.798 138.276 154.731 137.769 154.55 137.308C154.368 136.846 154.079 136.446 153.711 136.148C153.438 135.977 153.128 135.892 152.814 135.903Z" fill="#FAFAFA"/>
<path d="M139.881 186.155C139.824 186.142 139.77 186.115 139.722 186.077C139.676 186.051 139.635 186.015 139.601 185.971C139.568 185.927 139.542 185.877 139.527 185.822C139.511 185.767 139.506 185.71 139.511 185.653C139.516 185.596 139.531 185.54 139.556 185.49L154.941 152.166C155.173 151.662 155.508 151.225 155.921 150.89C156.334 150.555 156.812 150.332 157.317 150.238C157.822 150.144 158.34 150.183 158.829 150.351C159.319 150.518 159.765 150.81 160.134 151.203L175.345 167.352C175.382 167.392 175.411 167.44 175.431 167.493C175.451 167.545 175.461 167.602 175.461 167.659C175.461 167.716 175.451 167.772 175.431 167.825C175.411 167.878 175.382 167.925 175.345 167.965C175.308 168.006 175.264 168.039 175.215 168.061C175.167 168.083 175.115 168.095 175.063 168.095C175.01 168.095 174.959 168.083 174.91 168.061C174.862 168.039 174.818 168.006 174.781 167.965L159.57 151.86C159.29 151.564 158.952 151.345 158.583 151.219C158.213 151.094 157.821 151.065 157.44 151.135C157.058 151.206 156.696 151.374 156.384 151.626C156.072 151.878 155.817 152.207 155.64 152.587L140.254 185.919C140.219 185.993 140.165 186.055 140.099 186.096C140.033 186.138 139.957 186.159 139.881 186.155Z" fill="#FAFAFA"/>
<path d="M167.326 159.934C167.274 159.947 167.22 159.947 167.168 159.934C167.073 159.888 166.998 159.803 166.959 159.696C166.92 159.59 166.921 159.471 166.961 159.365L178.87 128.993C179.082 128.441 179.42 127.959 179.85 127.592C180.28 127.225 180.789 126.987 181.327 126.899C181.864 126.811 182.414 126.877 182.922 127.09C183.43 127.303 183.88 127.657 184.229 128.117L195.057 142.559C195.091 142.602 195.117 142.653 195.133 142.707C195.149 142.762 195.155 142.819 195.151 142.876C195.146 142.934 195.132 142.989 195.107 143.04C195.083 143.091 195.05 143.136 195.01 143.172C194.937 143.235 194.847 143.268 194.754 143.266C194.662 143.265 194.573 143.228 194.502 143.163L183.673 128.722C183.413 128.374 183.077 128.106 182.697 127.943C182.316 127.78 181.904 127.728 181.5 127.791C181.096 127.854 180.713 128.031 180.389 128.305C180.065 128.578 179.809 128.939 179.648 129.352L167.739 159.715C167.699 159.794 167.638 159.858 167.564 159.897C167.49 159.936 167.407 159.949 167.326 159.934Z" fill="#FAFAFA"/>
<path d="M206.299 82.3839C203.845 82.3839 202.202 80.7637 202.202 78.3553L202.416 63.1693C202.416 59.0269 202.416 52.7388 206.608 50.0326C207.474 49.4258 208.473 49.0873 209.498 49.0527C210.524 49.0182 211.539 49.2887 212.437 49.836C213.335 50.3833 214.083 51.1872 214.602 52.1633C215.122 53.1394 215.393 54.2518 215.389 55.3836C215.389 56.6009 215.349 58.0898 215.286 59.8151C215.282 59.9884 215.246 60.159 215.181 60.3169C215.116 60.4748 215.023 60.6168 214.908 60.7344C214.792 60.8519 214.657 60.9428 214.509 61.0015C214.361 61.0602 214.204 61.0856 214.047 61.0762C213.891 61.0683 213.737 61.0265 213.595 60.9531C213.454 60.8797 213.326 60.7762 213.221 60.6485C213.115 60.5207 213.034 60.3713 212.981 60.2088C212.928 60.0462 212.904 59.8738 212.912 59.7012C212.967 58.046 213.007 56.5484 213.007 55.3836C213.012 54.7125 212.851 54.0526 212.54 53.4753C212.23 52.8981 211.782 52.4256 211.246 52.109C210.709 51.7924 210.105 51.6437 209.497 51.679C208.89 51.7144 208.302 51.9325 207.799 52.3096C205.028 54.0612 204.798 58.4401 204.798 63.1518L204.584 78.3553C204.584 79.4938 205.513 79.7391 206.299 79.7391C207.594 79.705 208.827 79.1168 209.736 78.0987C210.646 77.0806 211.161 75.7123 211.173 74.2829L211.086 68.2838C211.086 67.9354 211.211 67.6013 211.435 67.3549C211.658 67.1086 211.961 66.9702 212.277 66.9702C212.593 66.9702 212.895 67.1086 213.119 67.3549C213.342 67.6013 213.468 67.9354 213.468 68.2838L213.555 74.2917C213.561 76.4249 212.801 78.474 211.441 79.9906C210.081 81.5072 208.232 82.3677 206.299 82.3839Z" fill="#BA68C8"/>
<path d="M224.177 175.725L141.35 228.482C140.924 228.787 140.568 229.2 140.313 229.685C140.058 230.17 139.91 230.715 139.881 231.275V231.915C139.91 232.476 140.057 233.023 140.312 233.509C140.568 233.996 140.923 234.41 141.35 234.717L210.459 278.734C210.913 278.989 211.415 279.121 211.924 279.121C212.433 279.121 212.935 278.989 213.388 278.734L296.216 225.977C296.642 225.671 296.997 225.259 297.253 224.774C297.508 224.288 297.656 223.743 297.684 223.183V222.535C297.656 221.975 297.508 221.43 297.253 220.945C296.997 220.459 296.642 220.047 296.216 219.741L227.107 175.725C226.653 175.47 226.151 175.337 225.642 175.337C225.133 175.337 224.631 175.47 224.177 175.725Z" fill="#455A64"/>
<path d="M139.881 231.275V231.914C139.91 232.476 140.057 233.022 140.312 233.509C140.568 233.996 140.923 234.41 141.35 234.717L210.459 278.734C210.909 278.995 211.411 279.128 211.92 279.119V270.922L143.311 227.238L141.35 228.49C140.925 228.795 140.57 229.206 140.315 229.69C140.06 230.173 139.911 230.716 139.881 231.275Z" fill="#263238"/>
<path d="M141.35 228.481L224.177 175.724C224.631 175.47 225.133 175.337 225.642 175.337C226.151 175.337 226.653 175.47 227.107 175.724L296.216 219.741C296.394 219.805 296.55 219.93 296.66 220.097C296.77 220.265 296.83 220.467 296.83 220.674C296.83 220.881 296.77 221.082 296.66 221.25C296.55 221.417 296.394 221.542 296.216 221.606L213.388 274.363C212.935 274.618 212.433 274.751 211.924 274.751C211.414 274.751 210.913 274.618 210.459 274.363L141.35 230.347C141.172 230.283 141.016 230.158 140.906 229.99C140.795 229.823 140.736 229.621 140.736 229.414C140.736 229.207 140.795 229.005 140.906 228.838C141.016 228.67 141.172 228.545 141.35 228.481Z" fill="#37474F"/>
<path d="M151.631 230.347L205.306 264.502C205.758 264.76 206.259 264.895 206.767 264.895C207.276 264.895 207.777 264.76 208.228 264.502L280.774 218.305C280.953 218.241 281.108 218.116 281.219 217.948C281.329 217.781 281.388 217.579 281.388 217.372C281.388 217.165 281.329 216.963 281.219 216.796C281.108 216.628 280.953 216.503 280.774 216.439L227.099 182.284C226.644 182.033 226.143 181.903 225.634 181.903C225.126 181.903 224.624 182.033 224.169 182.284L151.631 228.481C151.453 228.545 151.297 228.67 151.187 228.838C151.076 229.005 151.017 229.207 151.017 229.414C151.017 229.621 151.076 229.823 151.187 229.99C151.297 230.158 151.453 230.283 151.631 230.347Z" fill="white"/>
<path d="M168.184 223.121C171.971 220.713 178.116 220.713 181.902 223.121C185.689 225.53 185.697 229.445 181.902 231.879C178.108 234.314 171.971 234.288 168.184 231.879C164.397 229.471 164.397 225.539 168.184 223.121Z" fill="#02897A"/>
<path d="M280.782 216.466L265.095 206.473L217.461 201.577C216.882 201.518 216.298 201.624 215.767 201.884C215.235 202.145 214.773 202.552 214.425 203.066C214.077 203.581 213.854 204.185 213.778 204.821C213.702 205.457 213.776 206.105 213.992 206.701L222.217 229.41L196.018 227.763C195.507 227.73 194.996 227.824 194.523 228.039C194.05 228.255 193.627 228.585 193.286 229.007C192.946 229.428 192.696 229.929 192.556 230.472C192.416 231.015 192.389 231.586 192.477 232.142L196.51 258.932L205.338 264.555C205.79 264.813 206.291 264.947 206.799 264.947C207.308 264.947 207.808 264.813 208.26 264.555L280.806 218.357C280.993 218.298 281.158 218.172 281.274 217.999C281.39 217.826 281.451 217.616 281.448 217.401C281.446 217.186 281.379 216.979 281.259 216.809C281.138 216.64 280.971 216.52 280.782 216.466Z" fill="#02897A"/>
<path d="M280.528 152.946V117.985L321.692 91.7727V126.725L280.528 152.946Z" fill="#EBEBEB"/>
<path d="M280.528 117.985L229.068 85.2129V120.174L280.528 152.946V117.985Z" fill="#E6E6E6"/>
<path d="M280.528 117.985L322.915 90.9842L270.232 57.4243L227.853 84.4334L280.528 117.985Z" fill="#F0F0F0"/>
<path d="M280.528 117.984V126.724L322.915 99.7329V90.9839L280.528 117.984Z" fill="#EBEBEB"/>
<path d="M280.528 126.725L321.692 100.512V102.43L280.528 128.651V126.725Z" fill="#E6E6E6"/>
<path d="M227.853 84.4333L280.528 117.984V126.725L227.853 93.1736V84.4333Z" fill="#EBEBEB"/>
<g style="mix-blend-mode:multiply" opacity="0.5">
<path d="M280.528 126.725L229.068 93.9534V95.8801L280.528 128.652V126.725Z" fill="#E0E0E0"/>
</g>
<path d="M294.08 123.3L308.14 114.341C308.744 113.956 309.236 114.271 309.236 115.042V124.211C309.216 124.632 309.106 125.042 308.916 125.407C308.725 125.772 308.46 126.082 308.14 126.313L294.08 135.281C293.469 135.666 292.985 135.36 292.985 134.589V125.394C293.002 124.973 293.111 124.564 293.301 124.2C293.492 123.836 293.759 123.527 294.08 123.3Z" fill="#E0E0E0"/>
<path d="M294.977 124.343L307.235 116.531C307.64 116.277 307.973 116.487 307.973 116.995V123.896C307.962 124.178 307.888 124.453 307.76 124.697C307.631 124.941 307.451 125.147 307.235 125.297L294.977 133.109C294.572 133.363 294.247 133.109 294.247 132.636V125.735C294.259 125.456 294.331 125.183 294.459 124.941C294.586 124.699 294.763 124.494 294.977 124.343Z" fill="white"/>
<path d="M280.528 113.597V78.6357L321.692 52.4148V87.3759L280.528 113.597Z" fill="#EBEBEB"/>
<path d="M280.528 78.636L229.068 45.8643V80.8254L280.528 113.597V78.636Z" fill="#E6E6E6"/>
<path d="M280.528 78.6357L322.915 51.6266L270.232 18.0754L227.853 45.0757L280.528 78.6357Z" fill="#F5F5F5"/>
<path d="M280.528 78.636V87.3763L322.915 60.3848V51.627L280.528 78.636Z" fill="#EBEBEB"/>
<path d="M280.528 87.3761L321.692 61.1553V63.082L280.528 89.2941V87.3761Z" fill="#E6E6E6"/>
<path d="M227.853 45.0759L280.528 78.6358V87.3761L227.853 53.825V45.0759Z" fill="#EBEBEB"/>
<g style="mix-blend-mode:multiply" opacity="0.5">
<path d="M280.528 87.3757L229.068 54.604V56.522L280.528 89.2937V87.3757Z" fill="#E0E0E0"/>
</g>
<path d="M294.08 83.9518L308.14 74.9926C308.744 74.6072 309.236 74.9225 309.236 75.6932V84.8626C309.214 85.2828 309.103 85.6916 308.913 86.0565C308.723 86.4214 308.458 86.7323 308.14 86.9645L294.08 95.915C293.469 96.3003 292.985 95.985 292.985 95.2143V86.0449C293.002 85.6248 293.111 85.2154 293.301 84.8511C293.492 84.4869 293.759 84.1785 294.08 83.9518Z" fill="#E0E0E0"/>
<path d="M294.977 84.985L307.235 77.1817C307.64 76.9278 307.973 77.1292 307.973 77.6459V84.4858C307.958 84.7667 307.883 85.0397 307.755 85.283C307.627 85.5263 307.449 85.7332 307.235 85.887L294.977 93.6902C294.572 93.9529 294.247 93.7427 294.247 93.226V86.3512C294.263 86.0761 294.337 85.809 294.464 85.5716C294.591 85.3342 294.767 85.1332 294.977 84.985Z" fill="white"/>
<path d="M319.469 88.7861L280.528 113.597L231.291 82.2178L230.084 83.006L280.528 115.024L320.684 89.5568L319.469 88.7861Z" fill="#E0E0E0"/>
</svg>
