<svg width="350" height="320" viewBox="0 0 350 320" fill="none" xmlns="http://www.w3.org/2000/svg">
<path d="M78.6805 294.012C138.933 328.115 236.624 328.115 296.876 294.012C357.129 259.909 357.138 204.6 296.876 170.496C236.615 136.393 138.933 136.384 78.6805 170.496C18.4278 204.609 18.4278 259.9 78.6805 294.012Z" fill="#EBEBEB"/>
<path d="M314.599 209.395L305.81 203.977C305.81 203.977 303.655 184.008 305.086 168.546C307.105 146.807 320.339 120.679 336.12 126.802C351.9 132.926 328.872 155.116 323.762 173.54C318.653 191.965 314.599 209.395 314.599 209.395Z" fill="#02897A"/>
<path opacity="0.1" d="M314.599 209.395L305.81 203.977C305.81 203.977 303.655 184.008 305.086 168.546C307.105 146.807 320.339 120.679 336.12 126.802C351.9 132.926 328.872 155.116 323.762 173.54C318.653 191.965 314.599 209.395 314.599 209.395Z" fill="black"/>
<path d="M310.026 206.948C309.943 206.949 309.864 206.918 309.801 206.862C309.738 206.805 309.697 206.727 309.685 206.641C306.696 182.256 314.88 145.398 331.401 131.417C331.435 131.388 331.475 131.366 331.517 131.353C331.559 131.34 331.603 131.336 331.646 131.341C331.69 131.346 331.732 131.36 331.77 131.382C331.809 131.405 331.842 131.435 331.87 131.471C331.926 131.546 331.952 131.641 331.942 131.735C331.933 131.83 331.888 131.917 331.819 131.977C315.476 145.813 307.394 182.382 310.358 206.541C310.37 206.636 310.346 206.732 310.292 206.808C310.238 206.884 310.157 206.934 310.068 206.948H310.026Z" fill="white"/>
<path d="M319.291 213.252L313.04 209.414C313.04 209.414 311.976 195.713 318.312 179.068C323.822 164.617 337.508 152.551 344.389 155.08C351.27 157.609 351.1 162.784 347.744 168.212C344.389 173.64 323.975 186.582 319.291 213.252Z" fill="#02897A"/>
<path d="M315.416 213.604C315.372 213.602 315.329 213.59 315.288 213.57C315.248 213.549 315.213 213.521 315.183 213.485C315.154 213.45 315.131 213.409 315.117 213.364C315.103 213.319 315.098 213.272 315.101 213.225C317.162 179.122 333.428 162.35 343.205 159.794C343.293 159.772 343.386 159.787 343.464 159.836C343.541 159.885 343.598 159.964 343.622 160.056C343.643 160.149 343.629 160.246 343.583 160.327C343.536 160.408 343.462 160.466 343.375 160.49C333.079 163.199 317.716 181.353 315.791 213.27C315.788 213.318 315.776 213.366 315.755 213.409C315.734 213.452 315.706 213.49 315.671 213.521C315.636 213.553 315.595 213.576 315.551 213.59C315.508 213.604 315.462 213.609 315.416 213.604Z" fill="white"/>
<path d="M61.4607 212.051C61.4607 212.051 62.6274 192.028 51.6584 178.3C40.6894 164.572 26.4076 164.626 21.6811 167.182C16.9545 169.738 13.7779 177.044 21.911 182.274C30.0441 187.503 47.3406 197.971 50.2192 207.309L61.4607 212.051Z" fill="#02897A"/>
<path opacity="0.1" d="M61.4607 212.051C61.4607 212.051 62.6274 192.028 51.6584 178.3C40.6894 164.572 26.4076 164.626 21.6811 167.182C16.9545 169.738 13.7779 177.044 21.911 182.274C30.0441 187.503 47.3406 197.971 50.2192 207.309L61.4607 212.051Z" fill="black"/>
<path d="M56.2996 207.038C56.1942 207.037 56.0929 206.995 56.0145 206.92C55.9362 206.845 55.8861 206.743 55.8737 206.632C53.6169 184.478 32.735 172.204 24.4146 170.813C24.3586 170.804 24.3049 170.784 24.2565 170.753C24.208 170.722 24.1658 170.681 24.1322 170.633C24.0986 170.585 24.0742 170.53 24.0606 170.472C24.0469 170.413 24.0442 170.353 24.0526 170.294C24.061 170.234 24.0803 170.177 24.1095 170.126C24.1386 170.075 24.177 170.03 24.2225 169.994C24.268 169.959 24.3196 169.933 24.3745 169.918C24.4294 169.904 24.4864 169.901 24.5423 169.91C33.0586 171.328 54.4089 183.882 56.7254 206.533C56.7313 206.592 56.726 206.652 56.7099 206.709C56.6937 206.766 56.6671 206.82 56.6314 206.866C56.5958 206.912 56.5519 206.95 56.5022 206.978C56.4526 207.006 56.3982 207.024 56.3421 207.029L56.2996 207.038Z" fill="white"/>
<path d="M52.2374 201.954C49.4866 195.306 46.3782 192.326 37.4361 193.916C28.494 195.505 29.7714 195.261 18.828 192.29C14.2122 191.043 9.02575 190.845 4.59728 192.958C0.858632 194.765 -1.93471 198.377 1.68471 202.225C5.7555 206.524 11.8276 207.996 16.3242 211.78C17.3443 212.545 18.1553 213.582 18.6747 214.787C19.8585 217.985 17.4909 221.588 18.1808 224.939C18.8706 228.29 22.1919 230.078 25.3089 230.295C28.4259 230.511 31.5002 229.518 34.6087 229.139C37.7171 228.759 41.2088 229.139 43.3549 231.586C45.6543 234.178 45.7139 238.324 47.8515 241.078C51.0536 245.206 58.9227 246.353 63.1808 243.788L74.3287 236.969C81.6953 226.438 70.0705 218.093 63.9814 209.919C61.0262 205.937 53.8896 205.955 52.2374 201.954Z" fill="#02897A"/>
<path d="M67.4218 230.611C67.3493 230.613 67.2776 230.593 67.2146 230.555C67.1516 230.517 67.0996 230.461 67.0641 230.394C54.3493 208.547 19.7306 197.492 7.48415 196.589C7.37266 196.58 7.26908 196.524 7.19578 196.435C7.12248 196.345 7.08535 196.229 7.0924 196.11C7.10113 195.991 7.15306 195.881 7.23725 195.802C7.32145 195.722 7.43133 195.681 7.54376 195.686C19.952 196.589 54.9029 207.806 67.788 229.943C67.845 230.046 67.8618 230.169 67.8348 230.285C67.8078 230.402 67.7391 230.502 67.6432 230.566C67.5736 230.598 67.4979 230.614 67.4218 230.611V230.611Z" fill="white"/>
<path d="M27.1485 220.315C27.0821 220.316 27.0164 220.301 26.9571 220.269C26.8977 220.238 26.8465 220.191 26.8078 220.134C26.7401 220.038 26.711 219.918 26.7269 219.799C26.7429 219.681 26.8026 219.574 26.893 219.502C27.3358 219.15 37.896 210.931 48.1837 210.768C48.2392 210.767 48.2944 210.778 48.346 210.799C48.3976 210.821 48.4446 210.854 48.4843 210.895C48.524 210.936 48.5555 210.985 48.577 211.039C48.5985 211.094 48.6095 211.152 48.6095 211.211C48.6107 211.27 48.6008 211.329 48.5804 211.384C48.56 211.44 48.5296 211.49 48.4909 211.533C48.4521 211.576 48.4058 211.61 48.3545 211.634C48.3033 211.658 48.2481 211.67 48.1922 211.672C38.2026 211.825 27.5317 220.143 27.421 220.224C27.3441 220.29 27.2468 220.322 27.1485 220.315V220.315Z" fill="white"/>
<path d="M66.6299 238.287C66.7209 239.601 67.1021 240.873 67.7427 242.001C68.3834 243.129 69.2654 244.082 70.3174 244.781L173.646 308.047C174.788 308.662 176.052 308.982 177.333 308.982C178.615 308.982 179.878 308.662 181.021 308.047L322.391 221.48C323.505 220.856 324.438 219.922 325.089 218.777C325.739 217.633 326.083 216.322 326.083 214.986C326.083 213.65 325.739 212.339 325.089 211.195C324.438 210.05 323.505 209.116 322.391 208.492L219.071 145.272C217.929 144.657 216.665 144.336 215.384 144.336C214.102 144.336 212.839 144.657 211.696 145.272L70.3174 231.812C69.2676 232.51 68.3869 233.459 67.7464 234.584C67.1059 235.709 66.7235 236.977 66.6299 238.287V238.287Z" fill="#37474F"/>
<path d="M109.262 207.95L70.3174 231.812C69.2031 232.435 68.2705 233.37 67.6199 234.514C66.9693 235.658 66.6255 236.969 66.6255 238.305C66.6255 239.641 66.9693 240.952 67.6199 242.097C68.2705 243.241 69.2031 244.175 70.3174 244.799L173.646 308.065C174.782 308.694 176.051 309.005 177.333 308.968V207.95H109.262Z" fill="#263238"/>
<path d="M63.1637 231.938C62.1373 231.196 61.2897 230.209 60.6891 229.056C60.0885 227.903 59.7518 226.616 59.7061 225.3V94.5325C59.7746 93.1753 60.1443 91.8545 60.7851 90.6775C61.4259 89.5004 62.3196 88.5004 63.3936 87.7589L204.764 1.19163C205.831 0.481795 207.06 0.093725 208.32 0.0691187C209.579 0.0445124 210.821 0.384296 211.912 1.05197C213.003 1.71964 213.902 2.68996 214.512 3.85867C215.123 5.02738 215.421 6.3503 215.375 7.6853V138.462C215.305 139.819 214.935 141.139 214.294 142.316C213.654 143.493 212.761 144.493 211.688 145.236L70.3174 231.812C69.2179 232.427 67.9975 232.759 66.7547 232.78C65.512 232.802 64.2818 232.514 63.1637 231.938V231.938Z" fill="#455A64"/>
<path d="M77.0108 100.611L60.7873 90.676C60.1412 91.8481 59.7866 93.1752 59.7568 94.5325V225.3C59.8026 226.616 60.1393 227.903 60.7399 229.056C61.3405 230.209 62.1881 231.196 63.2144 231.938C64.3328 232.51 65.5621 232.794 66.8033 232.769C68.0444 232.744 69.2626 232.41 70.3596 231.794L86.4895 221.922L77.0108 100.611Z" fill="#263238"/>
<path d="M66.6299 98.7771V229.536C66.6299 232.028 68.282 233.04 70.3174 231.793L211.688 145.235C212.761 144.493 213.654 143.492 214.295 142.316C214.935 141.139 215.306 139.818 215.375 138.462V7.69408C215.375 5.20137 213.723 4.18984 211.688 5.43619L70.3174 92.0034C69.2434 92.745 68.3497 93.745 67.7089 94.922C67.0682 96.0991 66.6984 97.4199 66.6299 98.7771V98.7771Z" fill="#37474F"/>
<path d="M70.3174 236.327L173.646 299.548C174.788 300.163 176.052 300.483 177.333 300.483C178.614 300.483 179.878 300.163 181.021 299.548L322.391 212.981C324.435 211.734 324.435 209.711 322.391 208.465L219.071 145.244C217.929 144.629 216.665 144.309 215.384 144.309C214.102 144.309 212.839 144.629 211.696 145.244L70.3174 231.811C68.2734 233.04 68.2734 235.063 70.3174 236.327Z" fill="#455A64"/>
<path d="M72.3016 99.256L209.712 15.1273C210.93 14.3777 211.926 14.9828 211.926 16.482V129.674C211.883 130.488 211.661 131.28 211.276 131.986C210.891 132.692 210.356 133.292 209.712 133.738L72.3016 217.867C71.0753 218.617 70.0874 218.012 70.0874 216.512V103.32C70.1283 102.506 70.3502 101.713 70.7351 101.007C71.1199 100.3 71.6566 99.7004 72.3016 99.256V99.256Z" fill="white"/>
<path d="M82.3083 232.922L213.536 152.542C214.107 152.235 214.739 152.075 215.38 152.075C216.02 152.075 216.652 152.235 217.223 152.542L223.943 156.651C224.165 156.731 224.358 156.883 224.495 157.086C224.632 157.288 224.706 157.531 224.706 157.78C224.706 158.029 224.632 158.272 224.495 158.475C224.358 158.677 224.165 158.829 223.943 158.909L92.6897 239.281C92.1182 239.588 91.4866 239.748 90.8459 239.748C90.2053 239.748 89.5736 239.588 89.0021 239.281L82.3083 235.18C82.0859 235.1 81.8927 234.948 81.7558 234.746C81.619 234.543 81.5454 234.301 81.5454 234.051C81.5454 233.802 81.619 233.559 81.7558 233.357C81.8927 233.154 82.0859 233.002 82.3083 232.922V232.922Z" fill="#263238"/>
<path d="M99.6134 243.552L230.832 163.172C231.405 162.865 232.038 162.705 232.68 162.705C233.322 162.705 233.955 162.865 234.528 163.172L275.807 188.46C276.029 188.54 276.223 188.692 276.359 188.895C276.496 189.097 276.57 189.34 276.57 189.589C276.57 189.838 276.496 190.081 276.359 190.284C276.223 190.486 276.029 190.638 275.807 190.718L144.733 270.936C144.16 271.243 143.527 271.403 142.885 271.403C142.243 271.403 141.61 271.243 141.037 270.936L99.6134 245.765C99.4016 245.68 99.2193 245.529 99.0906 245.331C98.962 245.133 98.8931 244.899 98.8931 244.659C98.8931 244.419 98.962 244.184 99.0906 243.987C99.2193 243.789 99.4016 243.638 99.6134 243.552V243.552Z" fill="#263238"/>
<path d="M217.24 199.298L221.354 196.778C221.524 196.67 221.516 196.498 221.354 196.381L216.602 193.473C216.5 193.417 216.388 193.388 216.274 193.388C216.16 193.388 216.047 193.417 215.946 193.473L211.841 195.993C211.662 196.101 211.671 196.273 211.841 196.39L216.593 199.298C216.693 199.352 216.804 199.38 216.917 199.38C217.029 199.38 217.14 199.352 217.24 199.298ZM209.133 189.364L205.028 191.883C204.849 191.983 204.858 192.163 205.028 192.281L209.78 195.189C209.881 195.244 209.994 195.273 210.108 195.273C210.222 195.273 210.334 195.244 210.436 195.189L214.549 192.669C214.72 192.561 214.711 192.38 214.549 192.272L209.789 189.364C209.687 189.308 209.575 189.279 209.461 189.279C209.347 189.279 209.234 189.308 209.133 189.364ZM195.864 197.492L188.907 201.746C188.736 201.854 188.745 202.035 188.907 202.152L193.659 205.06C193.76 205.116 193.873 205.145 193.987 205.145C194.101 205.145 194.213 205.116 194.315 205.06L201.264 200.806C201.443 200.698 201.426 200.517 201.264 200.409L196.512 197.492C196.412 197.437 196.301 197.408 196.188 197.408C196.075 197.408 195.964 197.437 195.864 197.492ZM203.129 193.039L199.024 195.559C198.845 195.668 198.854 195.848 199.024 195.957L203.776 198.865C203.877 198.92 203.99 198.949 204.104 198.949C204.218 198.949 204.33 198.92 204.432 198.865L208.545 196.345C208.716 196.237 208.707 196.065 208.545 195.948L203.785 192.976C203.683 192.921 203.571 192.892 203.457 192.892C203.343 192.892 203.23 192.921 203.129 192.976V193.039ZM187.008 202.911L182.903 205.422C182.724 205.53 182.741 205.711 182.903 205.828L187.655 208.736C187.755 208.789 187.866 208.817 187.978 208.817C188.091 208.817 188.202 208.789 188.302 208.736L192.415 206.216C192.586 206.108 192.577 205.927 192.415 205.819L187.663 202.911C187.562 202.855 187.449 202.826 187.335 202.826C187.221 202.826 187.109 202.855 187.008 202.911V202.911ZM181.046 206.587L176.941 209.106C176.762 209.206 176.779 209.386 176.941 209.504L181.693 212.412C181.795 212.467 181.907 212.496 182.021 212.496C182.135 212.496 182.248 212.467 182.349 212.412L186.463 209.892C186.633 209.784 186.624 209.603 186.463 209.495L181.659 206.523C181.558 206.468 181.446 206.439 181.331 206.439C181.217 206.439 181.105 206.468 181.004 206.523L181.046 206.587ZM199.739 218.418L203.844 215.898C204.023 215.79 204.006 215.618 203.844 215.501L199.092 212.593C198.992 212.537 198.881 212.508 198.769 212.508C198.656 212.508 198.545 212.537 198.445 212.593L194.332 215.112C194.161 215.221 194.17 215.392 194.332 215.51L199.084 218.418C199.183 218.459 199.289 218.477 199.395 218.469C199.501 218.461 199.604 218.428 199.697 218.373L199.739 218.418ZM193.727 222.094L197.84 219.574C198.011 219.475 198.002 219.294 197.84 219.177L193.088 216.268C192.987 216.213 192.874 216.184 192.76 216.184C192.646 216.184 192.534 216.213 192.432 216.268L188.328 218.788C188.149 218.897 188.166 219.077 188.328 219.186L193.08 222.094C193.177 222.135 193.282 222.152 193.387 222.144C193.492 222.137 193.593 222.104 193.684 222.049L193.727 222.094ZM187.723 225.77L191.836 223.259C192.007 223.15 191.998 222.97 191.836 222.852L187.084 219.944C186.982 219.891 186.87 219.863 186.756 219.863C186.643 219.863 186.53 219.891 186.428 219.944L182.324 222.464C182.145 222.572 182.162 222.753 182.324 222.861L187.067 225.77C187.166 225.811 187.272 225.828 187.379 225.82C187.485 225.813 187.588 225.78 187.68 225.724L187.723 225.77ZM181.762 229.445L185.875 226.935C186.045 226.826 186.037 226.646 185.875 226.528L181.123 223.62C181.021 223.565 180.909 223.536 180.795 223.536C180.681 223.536 180.568 223.565 180.467 223.62L176.362 226.131C176.183 226.239 176.192 226.42 176.362 226.537L181.114 229.445C181.3 229.51 181.502 229.493 181.676 229.4L181.762 229.445ZM211.322 203.037L215.435 200.517C215.605 200.418 215.597 200.237 215.435 200.12L210.683 197.212C210.581 197.159 210.469 197.131 210.355 197.131C210.241 197.131 210.129 197.159 210.027 197.212L205.922 199.732C205.743 199.84 205.752 200.021 205.922 200.129L210.674 203.037C210.766 203.071 210.863 203.084 210.96 203.076C211.056 203.068 211.15 203.04 211.236 202.992L211.322 203.037ZM205.786 214.778L214.95 209.161C215.12 209.061 215.111 208.881 214.95 208.763L203.41 201.701C203.309 201.645 203.196 201.616 203.082 201.616C202.968 201.616 202.856 201.645 202.754 201.701L198.019 204.609C197.84 204.708 197.857 204.889 198.019 205.006L204.134 208.745C204.321 208.863 204.33 209.043 204.134 209.152L200.276 211.373C200.106 211.473 200.114 211.653 200.276 211.771L205.045 214.652C205.143 214.714 205.254 214.751 205.368 214.759C205.482 214.767 205.596 214.746 205.701 214.697L205.786 214.778ZM175.085 210.263L170.98 212.782C170.801 212.891 170.81 213.062 170.98 213.18L175.732 216.088C175.833 216.143 175.946 216.172 176.06 216.172C176.174 216.172 176.286 216.143 176.388 216.088L180.501 213.568C180.671 213.46 180.663 213.288 180.501 213.171L175.749 210.263C175.64 210.182 175.513 210.135 175.38 210.127C175.248 210.119 175.116 210.15 175 210.217L175.085 210.263ZM169.123 213.938L164.882 216.458C164.712 216.567 164.72 216.747 164.882 216.856L169.634 219.764C169.736 219.819 169.848 219.848 169.962 219.848C170.076 219.848 170.189 219.819 170.29 219.764L174.403 217.244C174.574 217.145 174.565 216.964 174.403 216.846L169.617 213.911C169.522 213.859 169.416 213.83 169.308 213.827C169.201 213.824 169.094 213.846 168.996 213.893L169.123 213.938ZM138.959 255.122C139.06 255.178 139.172 255.206 139.287 255.206C139.401 255.206 139.513 255.178 139.614 255.122L143.728 252.602C143.898 252.503 143.89 252.322 143.728 252.205L138.959 249.315C138.857 249.259 138.745 249.23 138.631 249.23C138.517 249.23 138.404 249.259 138.303 249.315L134.198 251.835C134.019 251.943 134.028 252.124 134.198 252.232L138.959 255.122ZM120.93 243.309L116.816 245.829C116.646 245.937 116.654 246.109 116.816 246.226L121.568 249.134C121.67 249.19 121.782 249.219 121.896 249.219C122.01 249.219 122.123 249.19 122.224 249.134L126.337 246.614C126.508 246.506 126.499 246.334 126.337 246.217L121.585 243.309C121.487 243.258 121.38 243.231 121.27 243.231C121.161 243.231 121.053 243.258 120.955 243.309H120.93ZM130.596 251.934C130.697 251.989 130.809 252.018 130.924 252.018C131.038 252.018 131.15 251.989 131.251 251.934L135.356 249.414C135.535 249.315 135.518 249.134 135.356 249.017L130.613 246.109C130.511 246.053 130.399 246.024 130.285 246.024C130.171 246.024 130.058 246.053 129.957 246.109L125.844 248.628C125.673 248.737 125.682 248.917 125.844 249.026L130.596 251.934ZM149.561 257.353L153.675 254.833C153.845 254.725 153.837 254.553 153.675 254.436L148.923 251.528C148.821 251.472 148.709 251.443 148.595 251.443C148.481 251.443 148.368 251.472 148.267 251.528L144.162 254.047C143.983 254.147 144 254.327 144.162 254.445L148.906 257.353C149.01 257.414 149.126 257.447 149.245 257.449C149.364 257.451 149.482 257.421 149.587 257.362L149.561 257.353ZM142.902 260.966C143.003 261.021 143.115 261.05 143.23 261.05C143.344 261.05 143.456 261.021 143.557 260.966L147.671 258.446C147.841 258.346 147.833 258.166 147.671 258.048L142.919 255.14C142.817 255.085 142.705 255.056 142.591 255.056C142.477 255.056 142.364 255.085 142.263 255.14L138.158 257.66C137.979 257.768 137.988 257.949 138.158 258.057L142.902 260.966ZM126.934 239.579L122.829 242.099C122.65 242.198 122.658 242.379 122.829 242.496L127.581 245.404C127.682 245.46 127.795 245.489 127.909 245.489C128.023 245.489 128.135 245.46 128.237 245.404L132.35 242.884C132.52 242.776 132.512 242.595 132.35 242.487L127.598 239.579C127.495 239.535 127.383 239.516 127.273 239.526C127.162 239.535 127.054 239.572 126.959 239.633L126.934 239.579ZM156.962 221.2L152.849 223.71C152.678 223.819 152.687 223.999 152.849 224.108L157.601 227.025C157.703 227.078 157.815 227.106 157.929 227.106C158.042 227.106 158.155 227.078 158.257 227.025L162.361 224.514C162.54 224.406 162.532 224.225 162.361 224.108L157.609 221.2C157.509 221.158 157.4 221.142 157.293 221.151C157.185 221.16 157.081 221.196 156.988 221.254L156.962 221.2ZM132.997 235.957L128.892 238.468C128.714 238.576 128.722 238.757 128.892 238.874L133.644 241.783C133.746 241.836 133.859 241.864 133.972 241.864C134.086 241.864 134.198 241.836 134.3 241.783L138.414 239.263C138.584 239.154 138.575 238.974 138.414 238.865L133.662 235.948C133.558 235.895 133.444 235.868 133.328 235.869C133.213 235.871 133.1 235.901 132.997 235.957V235.957ZM163.026 217.569L158.878 220.071C158.708 220.179 158.716 220.36 158.878 220.468L163.63 223.376C163.732 223.432 163.844 223.461 163.958 223.461C164.072 223.461 164.185 223.432 164.286 223.376L168.391 220.866C168.57 220.757 168.561 220.576 168.391 220.459L163.656 217.587C163.554 217.529 163.441 217.498 163.326 217.495C163.21 217.491 163.096 217.517 162.992 217.569H163.026ZM151.018 224.93L146.904 227.44C146.734 227.549 146.743 227.729 146.904 227.847L151.656 230.755C151.758 230.808 151.871 230.836 151.984 230.836C152.098 230.836 152.21 230.808 152.312 230.755L156.417 228.244C156.596 228.136 156.579 227.955 156.417 227.838L151.673 224.93C151.567 224.87 151.449 224.839 151.329 224.839C151.208 224.839 151.09 224.87 150.984 224.93H151.018ZM145.005 228.606L140.9 231.116C140.722 231.225 140.739 231.405 140.9 231.523L145.652 234.431C145.754 234.484 145.867 234.512 145.98 234.512C146.094 234.512 146.206 234.484 146.308 234.431L150.413 231.92C150.583 231.812 150.575 231.631 150.413 231.514L145.661 228.606C145.555 228.546 145.436 228.515 145.316 228.515C145.196 228.515 145.078 228.546 144.971 228.606H145.005ZM138.959 232.281L134.854 234.792C134.675 234.9 134.692 235.081 134.854 235.199L139.597 238.107C139.699 238.162 139.811 238.191 139.925 238.191C140.039 238.191 140.152 238.162 140.253 238.107L144.366 235.596C144.537 235.488 144.528 235.307 144.366 235.19L139.614 232.281C139.512 232.228 139.4 232.2 139.287 232.2C139.173 232.2 139.061 232.228 138.959 232.281ZM169.66 236.797L173.765 234.286C173.944 234.178 173.935 233.997 173.765 233.88L169.004 230.909C168.902 230.855 168.79 230.827 168.676 230.827C168.563 230.827 168.45 230.855 168.348 230.909L164.235 233.419C164.065 233.528 164.073 233.708 164.235 233.826L168.987 236.734C169.09 236.797 169.207 236.831 169.326 236.835C169.445 236.838 169.562 236.809 169.668 236.752L169.66 236.797ZM222.418 181.235L218.305 183.755C218.135 183.863 218.143 184.035 218.305 184.152L223.057 187.061C223.158 187.116 223.271 187.145 223.385 187.145C223.499 187.145 223.611 187.116 223.713 187.061L227.818 184.541C227.996 184.432 227.988 184.261 227.818 184.143L223.066 181.235C222.965 181.181 222.854 181.153 222.742 181.153C222.629 181.153 222.519 181.181 222.418 181.235ZM215.145 185.688L211.041 188.207C210.862 188.307 210.879 188.487 211.041 188.605L215.784 191.513C215.886 191.566 215.998 191.594 216.112 191.594C216.226 191.594 216.338 191.566 216.44 191.513L220.553 188.993C220.724 188.885 220.715 188.704 220.553 188.596L215.801 185.688C215.702 185.624 215.59 185.586 215.474 185.578C215.359 185.57 215.243 185.592 215.137 185.643L215.145 185.688ZM228.422 177.559L224.317 180.079C224.139 180.178 224.147 180.359 224.317 180.477L229.07 183.385C229.171 183.44 229.283 183.469 229.397 183.469C229.511 183.469 229.624 183.44 229.725 183.385L233.839 180.865C234.009 180.756 234 180.576 233.839 180.467L229.087 177.559C228.983 177.487 228.863 177.445 228.739 177.437C228.615 177.43 228.491 177.456 228.38 177.514L228.422 177.559ZM197.338 211.554L201.451 209.034C201.622 208.926 201.613 208.745 201.451 208.637L196.699 205.729C196.598 205.673 196.485 205.644 196.371 205.644C196.257 205.644 196.145 205.673 196.043 205.729L191.938 208.248C191.76 208.348 191.768 208.528 191.938 208.646L196.691 211.554C196.793 211.6 196.904 211.619 197.015 211.611C197.126 211.604 197.233 211.568 197.329 211.509L197.338 211.554ZM235.082 173.902C234.981 173.846 234.868 173.817 234.754 173.817C234.64 173.817 234.528 173.846 234.426 173.902L230.321 176.421C230.143 176.521 230.151 176.701 230.321 176.819L235.073 179.727C235.175 179.78 235.288 179.808 235.401 179.808C235.515 179.808 235.627 179.78 235.729 179.727L239.843 177.207C240.013 177.099 240.004 176.918 239.843 176.81L235.082 173.902ZM175.672 233.076L179.786 230.565C179.956 230.457 179.948 230.276 179.786 230.159L175.008 227.296C174.907 227.241 174.794 227.212 174.68 227.212C174.566 227.212 174.454 227.241 174.352 227.296L170.247 229.807C170.069 229.915 170.077 230.096 170.247 230.213L175 233.121C175.107 233.171 175.224 233.192 175.341 233.185C175.458 233.177 175.572 233.14 175.672 233.076V233.076ZM249.313 187.991L253.426 185.471C253.596 185.372 253.588 185.191 253.426 185.074L248.648 182.138C248.547 182.083 248.435 182.054 248.321 182.054C248.207 182.054 248.094 182.083 247.993 182.138L243.888 184.658C243.709 184.766 243.718 184.947 243.888 185.056L248.64 187.964C248.741 188.026 248.856 188.062 248.973 188.066C249.09 188.071 249.207 188.045 249.313 187.991V187.991ZM236.538 187.512L240.652 184.992C240.822 184.884 240.813 184.712 240.652 184.595L235.9 181.687C235.798 181.631 235.686 181.602 235.572 181.602C235.458 181.602 235.345 181.631 235.244 181.687L231.139 184.207C230.96 184.315 230.969 184.487 231.139 184.604L235.891 187.512C235.986 187.57 236.092 187.605 236.201 187.612C236.31 187.62 236.42 187.601 236.521 187.557L236.538 187.512ZM241.878 178.011C241.777 177.955 241.664 177.927 241.55 177.927C241.436 177.927 241.324 177.955 241.222 178.011L237.117 180.531C236.939 180.63 236.947 180.811 237.117 180.928L241.869 183.836C241.971 183.892 242.083 183.921 242.197 183.921C242.311 183.921 242.424 183.892 242.525 183.836L246.639 181.316C246.809 181.208 246.8 181.027 246.639 180.919L241.878 178.011ZM243.147 177.234L254.678 184.297C254.779 184.352 254.892 184.381 255.006 184.381C255.12 184.381 255.232 184.352 255.334 184.297L259.447 181.777C259.617 181.669 259.609 181.497 259.447 181.38L247.908 174.317C247.806 174.262 247.694 174.233 247.58 174.233C247.466 174.233 247.353 174.262 247.252 174.317L243.147 176.837C242.926 176.936 242.943 177.117 243.13 177.234H243.147ZM229.214 185.363L225.101 187.882C224.931 187.991 224.939 188.171 225.101 188.28L229.853 191.188C229.954 191.243 230.067 191.272 230.181 191.272C230.295 191.272 230.407 191.243 230.509 191.188L234.614 188.668C234.792 188.569 234.784 188.388 234.614 188.271L229.862 185.363C229.765 185.309 229.658 185.279 229.548 185.276C229.439 185.273 229.331 185.296 229.231 185.344L229.214 185.363ZM184.018 213.035L179.888 215.555C179.718 215.663 179.726 215.844 179.888 215.952L184.64 218.861C184.741 218.916 184.854 218.945 184.968 218.945C185.082 218.945 185.194 218.916 185.296 218.861L189.401 216.341C189.579 216.241 189.571 216.061 189.401 215.943L184.649 213.035C184.55 212.978 184.439 212.947 184.327 212.944C184.214 212.941 184.103 212.966 184.001 213.017L184.018 213.035ZM242.67 191.667C242.771 191.722 242.884 191.751 242.998 191.751C243.112 191.751 243.224 191.722 243.326 191.667L247.439 189.147C247.609 189.047 247.601 188.867 247.439 188.749L242.687 185.841C242.585 185.788 242.473 185.76 242.359 185.76C242.245 185.76 242.133 185.788 242.031 185.841L237.926 188.361C237.748 188.469 237.756 188.65 237.926 188.758L242.67 191.667ZM190.022 209.359L185.917 211.879C185.739 211.988 185.747 212.159 185.917 212.277L190.67 215.185C190.771 215.24 190.883 215.269 190.997 215.269C191.112 215.269 191.224 215.24 191.325 215.185L195.439 212.665C195.609 212.556 195.6 212.385 195.439 212.267L190.687 209.359C190.583 209.296 190.467 209.262 190.348 209.259C190.229 209.256 190.111 209.284 190.005 209.341L190.022 209.359ZM145.005 251.464C145.107 251.52 145.219 251.549 145.333 251.549C145.447 251.549 145.56 251.52 145.661 251.464L149.774 248.945C149.945 248.836 149.936 248.665 149.774 248.547L145.022 245.639C144.921 245.584 144.808 245.555 144.694 245.555C144.58 245.555 144.468 245.584 144.366 245.639L140.262 248.159C140.083 248.267 140.1 248.439 140.262 248.556L145.005 251.464ZM135.978 242.433L131.865 244.953C131.694 245.061 131.703 245.233 131.865 245.35L136.617 248.258C136.718 248.314 136.83 248.343 136.945 248.343C137.059 248.343 137.171 248.314 137.272 248.258L141.377 245.738C141.556 245.63 141.548 245.458 141.377 245.341L136.625 242.433C136.523 242.376 136.409 242.346 136.293 242.346C136.177 242.346 136.063 242.376 135.961 242.433H135.978ZM151.673 247.789L155.778 245.269C155.949 245.16 155.94 244.98 155.778 244.871L151.026 241.963C150.925 241.908 150.812 241.879 150.698 241.879C150.584 241.879 150.472 241.908 150.37 241.963L146.223 244.456C146.053 244.555 146.061 244.736 146.223 244.853L150.975 247.761C151.078 247.826 151.194 247.862 151.313 247.867C151.432 247.871 151.55 247.844 151.656 247.789H151.673ZM157.677 244.113L161.782 241.593C161.961 241.484 161.944 241.304 161.782 241.195L157.039 238.287C156.937 238.232 156.825 238.203 156.711 238.203C156.597 238.203 156.484 238.232 156.383 238.287L152.27 240.798C152.099 240.906 152.108 241.087 152.27 241.205L157.022 244.113C157.126 244.169 157.241 244.198 157.358 244.198C157.475 244.198 157.59 244.169 157.694 244.113H157.677ZM163.639 240.428L167.744 237.917C167.923 237.809 167.914 237.628 167.744 237.52L162.992 234.602C162.89 234.549 162.777 234.521 162.664 234.521C162.55 234.521 162.438 234.549 162.336 234.602L158.222 237.113C158.052 237.222 158.061 237.402 158.222 237.52L162.975 240.428C163.079 240.488 163.196 240.519 163.315 240.519C163.434 240.519 163.551 240.488 163.656 240.428H163.639ZM141.939 238.757L137.826 241.277C137.656 241.376 137.664 241.557 137.826 241.674L142.578 244.582C142.679 244.638 142.792 244.667 142.906 244.667C143.02 244.667 143.132 244.638 143.234 244.582L147.347 242.063C147.518 241.954 147.509 241.774 147.347 241.665L142.595 238.757C142.497 238.706 142.389 238.679 142.28 238.679C142.171 238.679 142.063 238.706 141.965 238.757H141.939ZM147.943 235.081L143.838 237.592C143.66 237.7 143.668 237.881 143.838 237.998L148.591 240.906C148.693 240.96 148.805 240.988 148.918 240.988C149.032 240.988 149.144 240.96 149.246 240.906L153.436 238.405C153.607 238.296 153.598 238.116 153.436 238.007L148.684 235.099C148.577 235.03 148.454 234.992 148.329 234.988C148.203 234.985 148.079 235.017 147.969 235.081H147.943ZM171.968 220.378L167.914 222.889C167.744 222.997 167.752 223.178 167.914 223.295L172.666 226.203C172.768 226.257 172.88 226.284 172.994 226.284C173.108 226.284 173.22 226.257 173.322 226.203L177.427 223.692C177.606 223.584 177.589 223.403 177.427 223.286L172.683 220.378C172.577 220.316 172.459 220.284 172.338 220.284C172.218 220.284 172.099 220.316 171.993 220.378H171.968ZM165.955 224.054L161.85 226.564C161.68 226.673 161.689 226.853 161.85 226.971L166.603 229.879C166.704 229.932 166.817 229.96 166.93 229.96C167.044 229.96 167.156 229.932 167.258 229.879L171.363 227.368C171.542 227.26 171.525 227.079 171.363 226.962L166.611 224.054C166.512 224.005 166.405 223.979 166.296 223.979C166.187 223.979 166.079 224.005 165.981 224.054H165.955ZM177.972 216.693L173.875 219.213C173.705 219.321 173.714 219.502 173.875 219.61L178.628 222.527C178.729 222.581 178.842 222.608 178.955 222.608C179.069 222.608 179.181 222.581 179.283 222.527L183.388 220.008C183.567 219.908 183.558 219.728 183.388 219.61L178.636 216.702C178.537 216.65 178.428 216.622 178.318 216.621C178.207 216.619 178.098 216.644 177.997 216.693H177.972ZM153.947 231.405L149.842 233.916C149.664 234.024 149.672 234.205 149.842 234.322L154.595 237.231C154.697 237.284 154.809 237.312 154.922 237.312C155.036 237.312 155.148 237.284 155.25 237.231L159.364 234.711C159.534 234.602 159.525 234.422 159.364 234.313L154.612 231.396C154.511 231.347 154.402 231.322 154.291 231.324C154.181 231.326 154.072 231.353 153.973 231.405H153.947ZM159.951 227.729L155.846 230.24C155.668 230.349 155.685 230.529 155.846 230.647L160.599 233.555C160.698 233.61 160.809 233.639 160.922 233.639C161.035 233.639 161.146 233.61 161.246 233.555L165.359 231.044C165.529 230.936 165.521 230.755 165.359 230.638L160.607 227.729C160.508 227.68 160.401 227.655 160.292 227.655C160.183 227.655 160.075 227.68 159.977 227.729H159.951ZM155.574 253.686L159.679 251.166C159.849 251.058 159.841 250.877 159.679 250.769L154.927 247.861C154.825 247.805 154.713 247.776 154.599 247.776C154.485 247.776 154.372 247.805 154.271 247.861L150.166 250.381C149.987 250.48 150.004 250.661 150.166 250.778L154.918 253.686C155.023 253.746 155.14 253.778 155.259 253.778C155.378 253.778 155.495 253.746 155.599 253.686H155.574ZM120.359 249.875L115.607 246.967C115.506 246.911 115.393 246.882 115.279 246.882C115.165 246.882 115.053 246.911 114.951 246.967L110.855 249.504C110.685 249.613 110.693 249.784 110.855 249.902L115.607 252.81C115.708 252.865 115.821 252.894 115.935 252.894C116.049 252.894 116.161 252.865 116.263 252.81L120.368 250.29C120.555 250.209 120.546 250.028 120.359 249.875ZM129.352 252.675L124.6 249.766C124.5 249.713 124.389 249.685 124.277 249.685C124.164 249.685 124.053 249.713 123.953 249.766L117.668 253.659C117.498 253.767 117.506 253.948 117.668 254.056L122.42 256.965C122.521 257.02 122.634 257.049 122.748 257.049C122.862 257.049 122.974 257.02 123.076 256.965L129.395 253.099C129.591 253.009 129.54 252.828 129.352 252.711V252.675ZM113.069 244.248L108.3 241.376C108.199 241.321 108.086 241.292 107.972 241.292C107.858 241.292 107.746 241.321 107.644 241.376L102.603 244.456C102.432 244.564 102.441 244.745 102.603 244.862L107.355 247.77C107.456 247.826 107.568 247.855 107.683 247.855C107.797 247.855 107.909 247.826 108.01 247.77L113.061 244.682C113.265 244.582 113.256 244.402 113.069 244.284V244.248ZM116.944 241.873C117.045 241.928 117.158 241.957 117.272 241.957C117.386 241.957 117.498 241.928 117.6 241.873L121.705 239.353C121.883 239.254 121.875 239.073 121.705 238.956L116.953 236.048C116.851 235.992 116.739 235.963 116.625 235.963C116.511 235.963 116.398 235.992 116.297 236.048L112.183 238.567C112.013 238.676 112.022 238.856 112.183 238.965L116.944 241.873ZM137.724 255.863L132.997 252.991C132.895 252.937 132.783 252.91 132.669 252.91C132.556 252.91 132.443 252.937 132.341 252.991L124.438 257.832C124.268 257.94 124.277 258.121 124.438 258.229L129.19 261.146C129.292 261.2 129.405 261.227 129.518 261.227C129.632 261.227 129.744 261.2 129.846 261.146L137.749 256.305C137.92 256.197 137.911 256.016 137.724 255.899V255.863ZM141.667 261.76L136.915 258.906C136.813 258.851 136.701 258.822 136.587 258.822C136.473 258.822 136.36 258.851 136.259 258.906L131.2 262.004C131.03 262.112 131.038 262.293 131.2 262.411L135.952 265.319C136.054 265.372 136.167 265.4 136.28 265.4C136.394 265.4 136.506 265.372 136.608 265.319L141.667 262.221C141.863 262.094 141.854 261.914 141.667 261.796V261.76ZM161.595 214.534C161.696 214.59 161.809 214.619 161.923 214.619C162.037 214.619 162.149 214.59 162.251 214.534L166.356 212.024C166.534 211.915 166.517 211.735 166.356 211.617L161.603 208.709C161.501 208.656 161.389 208.628 161.276 208.628C161.162 208.628 161.05 208.656 160.948 208.709L156.843 211.265C156.673 211.373 156.681 211.554 156.843 211.662L161.595 214.534ZM149.578 221.895C149.68 221.948 149.793 221.976 149.906 221.976C150.02 221.976 150.132 221.948 150.234 221.895L154.348 219.384C154.518 219.276 154.509 219.095 154.348 218.978L149.595 216.07C149.494 216.016 149.381 215.989 149.268 215.989C149.154 215.989 149.042 216.016 148.94 216.07L144.835 218.581C144.656 218.689 144.673 218.87 144.835 218.987L149.578 221.895ZM122.948 238.233C123.049 238.289 123.162 238.318 123.276 238.318C123.39 238.318 123.502 238.289 123.604 238.233L127.709 235.713C127.887 235.605 127.879 235.433 127.709 235.316L122.957 232.408C122.855 232.352 122.743 232.323 122.629 232.323C122.515 232.323 122.402 232.352 122.301 232.408L118.187 234.928C118.017 235.036 118.026 235.208 118.187 235.325L122.948 238.233ZM155.591 218.264C155.691 218.318 155.802 218.345 155.915 218.345C156.027 218.345 156.138 218.318 156.238 218.264L160.352 215.754C160.522 215.645 160.513 215.465 160.352 215.347L155.599 212.439C155.498 212.384 155.386 212.355 155.272 212.355C155.158 212.355 155.045 212.384 154.944 212.439L150.839 214.95C150.66 215.058 150.677 215.239 150.839 215.356L155.591 218.264ZM143.574 225.616C143.676 225.672 143.788 225.7 143.902 225.7C144.016 225.7 144.129 225.672 144.23 225.616L148.344 223.105C148.514 222.997 148.505 222.816 148.344 222.699L143.592 219.791C143.49 219.737 143.377 219.71 143.264 219.71C143.15 219.71 143.038 219.737 142.936 219.791L138.831 222.302C138.652 222.41 138.661 222.591 138.831 222.708L143.574 225.616ZM144.963 262.275C144.861 262.222 144.748 262.194 144.635 262.194C144.521 262.194 144.409 262.222 144.307 262.275L137.988 266.132C137.817 266.24 137.826 266.421 137.988 266.538L142.74 269.446C142.841 269.502 142.954 269.53 143.068 269.53C143.182 269.53 143.294 269.502 143.396 269.446L149.715 265.581C149.894 265.472 149.877 265.292 149.715 265.174L144.963 262.275ZM134.956 230.909C135.058 230.962 135.17 230.99 135.284 230.99C135.398 230.99 135.51 230.962 135.612 230.909L139.725 228.389C139.895 228.28 139.887 228.1 139.725 227.991L134.973 225.083C134.872 225.028 134.759 224.999 134.645 224.999C134.531 224.999 134.419 225.028 134.317 225.083L130.212 227.603C130.034 227.702 130.042 227.883 130.212 228L134.956 230.909ZM128.952 234.521C129.053 234.577 129.166 234.606 129.28 234.606C129.394 234.606 129.506 234.577 129.608 234.521L133.721 232.001C133.891 231.893 133.883 231.712 133.721 231.604L128.969 228.696C128.868 228.64 128.755 228.611 128.641 228.611C128.527 228.611 128.415 228.64 128.313 228.696L124.208 231.216C124.03 231.315 124.038 231.496 124.208 231.613L128.952 234.521ZM256.219 194.15C256.118 194.095 256.006 194.066 255.892 194.066C255.777 194.066 255.665 194.095 255.564 194.15L245.412 200.328C245.242 200.436 245.25 200.617 245.412 200.734L250.164 203.642C250.266 203.696 250.379 203.723 250.492 203.723C250.606 203.723 250.718 203.696 250.82 203.642L260.989 197.492C261.167 197.384 261.159 197.203 260.989 197.085L256.219 194.15ZM242.943 202.279C242.841 202.223 242.729 202.194 242.615 202.194C242.501 202.194 242.388 202.223 242.287 202.279L238.182 204.789C238.003 204.898 238.012 205.078 238.182 205.196L242.934 208.104C243.036 208.157 243.148 208.185 243.262 208.185C243.376 208.185 243.488 208.157 243.59 208.104L247.703 205.593C247.873 205.485 247.865 205.304 247.703 205.187L242.943 202.279ZM161.603 250.01L165.708 247.49C165.887 247.382 165.87 247.201 165.708 247.093L160.965 244.176C160.863 244.123 160.751 244.095 160.637 244.095C160.523 244.095 160.411 244.123 160.309 244.176L156.196 246.687C156.025 246.795 156.034 246.976 156.196 247.093L160.948 250.001C161.049 250.056 161.161 250.085 161.275 250.087C161.388 250.088 161.501 250.062 161.603 250.01V250.01ZM230.935 209.63C230.833 209.577 230.72 209.549 230.607 209.549C230.493 209.549 230.381 209.577 230.279 209.63L226.165 212.141C225.995 212.249 226.004 212.43 226.165 212.547L230.918 215.456C231.019 215.511 231.131 215.54 231.245 215.54C231.359 215.54 231.472 215.511 231.573 215.456L235.678 212.945C235.857 212.836 235.848 212.656 235.678 212.538L230.935 209.63ZM262.223 190.474C262.121 190.421 262.009 190.393 261.896 190.393C261.782 190.393 261.67 190.421 261.568 190.474L257.463 192.976C257.284 193.085 257.292 193.265 257.463 193.374L262.215 196.291C262.317 196.344 262.429 196.372 262.543 196.372C262.656 196.372 262.769 196.344 262.871 196.291L266.984 193.78C267.154 193.672 267.146 193.491 266.984 193.374L262.223 190.474ZM272.979 189.707L261.44 182.644C261.339 182.589 261.226 182.56 261.112 182.56C260.998 182.56 260.886 182.589 260.784 182.644L256.679 185.164C256.5 185.272 256.509 185.453 256.679 185.561L268.219 192.624C268.32 192.679 268.433 192.708 268.547 192.708C268.661 192.708 268.773 192.679 268.875 192.624L272.988 190.104C273.175 190.005 273.167 189.824 272.979 189.707ZM208.494 223.376C208.393 223.321 208.28 223.292 208.166 223.292C208.052 223.292 207.94 223.321 207.838 223.376L202.78 226.474C202.609 226.582 202.618 226.763 202.78 226.871L207.532 229.78C207.633 229.835 207.746 229.864 207.86 229.864C207.974 229.864 208.086 229.835 208.188 229.78L213.246 226.682C213.417 226.573 213.408 226.393 213.246 226.284L208.494 223.376ZM223.662 214.083C223.56 214.027 223.448 213.998 223.334 213.998C223.22 213.998 223.107 214.027 223.006 214.083L216.687 217.948C216.516 218.057 216.525 218.237 216.687 218.346L221.439 221.263C221.541 221.316 221.653 221.344 221.767 221.344C221.88 221.344 221.993 221.316 222.095 221.263L228.414 217.397C228.584 217.289 228.576 217.108 228.414 216.991L223.662 214.083ZM194.587 231.884C194.485 231.831 194.373 231.803 194.259 231.803C194.145 231.803 194.033 231.831 193.931 231.884L160.113 252.584C159.943 252.693 159.951 252.873 160.113 252.991L164.865 255.899C164.967 255.952 165.079 255.98 165.193 255.98C165.307 255.98 165.419 255.952 165.521 255.899L199.339 235.19C199.509 235.081 199.501 234.901 199.339 234.783L194.587 231.884ZM158.87 253.758C158.768 253.703 158.656 253.674 158.542 253.674C158.428 253.674 158.315 253.703 158.214 253.758L153.164 256.856C152.985 256.965 152.993 257.145 153.164 257.254L157.916 260.162C158.017 260.217 158.13 260.246 158.244 260.246C158.358 260.246 158.47 260.217 158.572 260.162L163.656 257.1C163.826 256.992 163.818 256.811 163.656 256.703L158.87 253.758ZM201.536 227.63C201.434 227.577 201.322 227.549 201.208 227.549C201.095 227.549 200.983 227.577 200.881 227.63L195.83 230.728C195.652 230.836 195.66 231.017 195.83 231.134L200.583 234.043C200.684 234.096 200.797 234.124 200.91 234.124C201.024 234.124 201.136 234.096 201.238 234.043L206.297 230.945C206.476 230.845 206.459 230.665 206.297 230.547L201.536 227.63ZM151.92 258.003C151.818 257.95 151.706 257.922 151.593 257.922C151.479 257.922 151.367 257.95 151.265 258.003L146.206 261.101C146.036 261.209 146.044 261.39 146.206 261.507L150.958 264.416C151.06 264.469 151.172 264.497 151.286 264.497C151.4 264.497 151.512 264.469 151.614 264.416L156.664 261.327C156.843 261.218 156.834 261.038 156.664 260.92L151.92 258.003ZM215.443 219.104C215.341 219.051 215.229 219.023 215.116 219.023C215.002 219.023 214.89 219.051 214.788 219.104L209.738 222.193C209.559 222.302 209.567 222.482 209.738 222.6L214.49 225.508C214.592 225.561 214.704 225.589 214.818 225.589C214.931 225.589 215.043 225.561 215.145 225.508L220.204 222.41C220.383 222.302 220.366 222.121 220.204 222.003L215.443 219.104ZM236.939 205.945C236.837 205.89 236.725 205.861 236.611 205.861C236.497 205.861 236.384 205.89 236.283 205.945L232.178 208.456C231.999 208.565 232.008 208.745 232.178 208.863L236.93 211.771C237.032 211.824 237.144 211.852 237.258 211.852C237.372 211.852 237.484 211.824 237.586 211.771L241.699 209.26C241.87 209.152 241.861 208.971 241.699 208.854L236.939 205.945ZM250.096 195.812L254.201 193.301C254.38 193.193 254.371 193.012 254.201 192.895L249.449 189.987C249.347 189.933 249.235 189.906 249.121 189.906C249.007 189.906 248.895 189.933 248.793 189.987L244.68 192.507C244.51 192.615 244.518 192.796 244.68 192.904L249.432 195.821C249.535 195.876 249.649 195.904 249.764 195.904C249.879 195.904 249.993 195.876 250.096 195.821V195.812ZM223.27 195.686L227.383 193.166C227.554 193.057 227.545 192.877 227.383 192.768L222.631 189.86C222.53 189.805 222.417 189.776 222.303 189.776C222.189 189.776 222.077 189.805 221.975 189.86L217.871 192.38C217.692 192.488 217.709 192.66 217.871 192.777L222.614 195.686C222.716 195.741 222.828 195.77 222.942 195.77C223.056 195.77 223.169 195.741 223.27 195.686ZM209.644 220.64L221.652 213.288C221.822 213.18 221.814 212.999 221.652 212.882L216.9 209.973C216.798 209.92 216.686 209.892 216.572 209.892C216.458 209.892 216.346 209.92 216.244 209.973L204.236 217.334C204.066 217.434 204.074 217.614 204.236 217.732L208.988 220.64C209.093 220.688 209.207 220.71 209.321 220.702C209.435 220.694 209.546 220.657 209.644 220.595V220.64ZM243.436 199.533C243.538 199.586 243.651 199.614 243.764 199.614C243.878 199.614 243.99 199.586 244.092 199.533L248.197 197.022C248.376 196.914 248.367 196.733 248.197 196.616L243.445 193.708C243.344 193.652 243.231 193.623 243.117 193.623C243.003 193.623 242.891 193.652 242.789 193.708L238.676 196.218C238.506 196.327 238.514 196.507 238.676 196.625L243.436 199.533ZM237.305 195.388L241.41 192.877C241.588 192.768 241.58 192.588 241.41 192.47L236.658 189.562C236.556 189.509 236.443 189.481 236.33 189.481C236.216 189.481 236.104 189.509 236.002 189.562L231.888 192.082C231.718 192.19 231.727 192.371 231.888 192.479L236.64 195.397C236.748 195.443 236.863 195.463 236.979 195.453C237.094 195.444 237.206 195.406 237.305 195.342V195.388ZM203.64 224.288L207.745 221.769C207.924 221.66 207.907 221.489 207.745 221.371L202.993 218.463C202.891 218.408 202.779 218.379 202.665 218.379C202.551 218.379 202.438 218.408 202.337 218.463L198.206 220.974C198.028 221.082 198.045 221.254 198.206 221.371L202.959 224.279C203.069 224.346 203.194 224.381 203.322 224.379C203.449 224.378 203.573 224.34 203.682 224.27L203.64 224.288ZM230.16 207.634C230.262 207.688 230.374 207.715 230.487 207.715C230.601 207.715 230.713 207.688 230.815 207.634L234.929 205.124C235.099 205.015 235.091 204.835 234.929 204.717L230.177 201.809C230.075 201.756 229.962 201.728 229.849 201.728C229.735 201.728 229.623 201.756 229.521 201.809L225.416 204.329C225.237 204.437 225.246 204.618 225.416 204.726L230.16 207.634ZM173.611 242.65L177.716 240.139C177.895 240.03 177.887 239.85 177.716 239.732L172.964 236.824C172.862 236.771 172.75 236.743 172.636 236.743C172.523 236.743 172.41 236.771 172.308 236.824L168.195 239.335C168.025 239.443 168.033 239.624 168.195 239.741L172.947 242.65C173.05 242.704 173.164 242.733 173.279 242.733C173.395 242.733 173.508 242.704 173.611 242.65V242.65ZM179.615 238.974L183.729 236.463C183.899 236.355 183.891 236.174 183.729 236.057L178.985 233.148C178.884 233.093 178.771 233.064 178.657 233.064C178.543 233.064 178.431 233.093 178.329 233.148L174.216 235.659C174.046 235.768 174.054 235.948 174.216 236.066L178.968 238.974C179.069 239.026 179.18 239.053 179.292 239.053C179.404 239.053 179.515 239.026 179.615 238.974ZM167.607 246.325L171.712 243.815C171.891 243.706 171.883 243.526 171.712 243.408L166.969 240.5C166.867 240.447 166.755 240.419 166.641 240.419C166.527 240.419 166.415 240.447 166.313 240.5L162.2 243.011C162.029 243.119 162.038 243.3 162.2 243.417L166.952 246.325C167.053 246.381 167.165 246.41 167.28 246.41C167.394 246.41 167.506 246.381 167.607 246.325V246.325ZM191.623 231.622L195.737 229.111C195.907 229.003 195.899 228.822 195.737 228.705L190.985 225.797C190.883 225.743 190.77 225.716 190.657 225.716C190.543 225.716 190.431 225.743 190.329 225.797L186.224 228.317C186.045 228.425 186.054 228.606 186.224 228.714L190.976 231.622C191.076 231.676 191.187 231.704 191.3 231.704C191.412 231.704 191.523 231.676 191.623 231.622V231.622ZM185.662 235.298L189.775 232.787C189.946 232.679 189.937 232.498 189.775 232.381L184.947 229.473C184.845 229.417 184.733 229.388 184.619 229.388C184.505 229.388 184.392 229.417 184.291 229.473L180.186 231.983C180.007 232.092 180.016 232.272 180.186 232.381L184.938 235.298C185.043 235.356 185.16 235.386 185.279 235.386C185.397 235.386 185.514 235.356 185.619 235.298H185.662ZM197.67 227.946L201.783 225.426C201.954 225.327 201.945 225.146 201.783 225.029L197.031 222.121C196.93 222.065 196.817 222.037 196.703 222.037C196.589 222.037 196.477 222.065 196.375 222.121L192.202 224.586C192.024 224.695 192.041 224.876 192.202 224.984L196.946 227.892C197.046 227.961 197.161 228.002 197.28 228.011C197.399 228.02 197.519 227.998 197.627 227.946H197.67ZM225.144 173.549C225.245 173.605 225.357 173.634 225.471 173.634C225.585 173.634 225.698 173.605 225.799 173.549L229.913 171.03C230.083 170.93 230.074 170.75 229.913 170.632L228.652 169.855C228.55 169.802 228.438 169.774 228.324 169.774C228.211 169.774 228.098 169.802 227.996 169.855L223.883 172.366C223.713 172.475 223.721 172.655 223.883 172.773L225.144 173.549ZM195.6 193.78C195.702 193.835 195.814 193.864 195.928 193.864C196.042 193.864 196.155 193.835 196.256 193.78L200.361 191.269C200.54 191.161 200.531 190.98 200.361 190.863L195.609 187.955C195.507 187.901 195.395 187.874 195.281 187.874C195.167 187.874 195.055 187.901 194.953 187.955L190.84 190.465C190.67 190.574 190.678 190.754 190.84 190.872L195.6 193.78ZM207.608 186.428C207.71 186.482 207.823 186.509 207.936 186.509C208.05 186.509 208.162 186.482 208.264 186.428L212.378 183.918C212.548 183.809 212.539 183.629 212.378 183.511L207.625 180.603C207.524 180.547 207.412 180.519 207.298 180.519C207.184 180.519 207.071 180.547 206.97 180.603L202.831 183.114C202.652 183.222 202.66 183.403 202.831 183.52L207.608 186.428ZM188.268 198.269C188.37 198.322 188.482 198.35 188.596 198.35C188.71 198.35 188.822 198.322 188.924 198.269L193.029 195.749C193.207 195.64 193.199 195.46 193.029 195.351L188.276 192.434C188.175 192.381 188.062 192.353 187.949 192.353C187.835 192.353 187.723 192.381 187.621 192.434L183.507 194.945C183.337 195.053 183.346 195.234 183.507 195.351L188.268 198.269ZM201.604 190.14C201.706 190.194 201.819 190.221 201.932 190.221C202.046 190.221 202.158 190.194 202.26 190.14L206.374 187.629C206.544 187.521 206.535 187.34 206.374 187.223L201.621 184.315C201.52 184.262 201.407 184.234 201.294 184.234C201.18 184.234 201.068 184.262 200.966 184.315L196.861 186.826C196.682 186.934 196.691 187.115 196.861 187.232L201.604 190.14ZM176.217 205.62C176.319 205.676 176.431 205.705 176.545 205.705C176.659 205.705 176.772 205.676 176.873 205.62L180.978 203.1C181.157 202.992 181.14 202.811 180.978 202.703L176.234 199.795C176.133 199.739 176.021 199.711 175.907 199.711C175.792 199.711 175.68 199.739 175.579 199.795L171.465 202.315C171.295 202.414 171.304 202.595 171.465 202.712L176.217 205.62ZM182.221 201.944C182.323 201.998 182.436 202.026 182.549 202.026C182.663 202.026 182.775 201.998 182.877 201.944L186.982 199.425C187.161 199.316 187.152 199.136 186.982 199.027L182.238 196.119C182.137 196.064 182.025 196.035 181.911 196.035C181.796 196.035 181.684 196.064 181.583 196.119L177.469 198.639C177.299 198.738 177.307 198.919 177.469 199.036L182.221 201.944ZM213.093 180.91C213.195 180.963 213.307 180.991 213.421 180.991C213.535 180.991 213.647 180.963 213.749 180.91L217.862 178.399C218.032 178.291 218.024 178.11 217.862 177.993L216.593 177.216C216.491 177.163 216.379 177.135 216.265 177.135C216.152 177.135 216.039 177.163 215.937 177.216L211.833 179.727C211.654 179.835 211.671 180.016 211.833 180.133L213.093 180.91ZM231.113 169.874C231.213 169.929 231.324 169.958 231.437 169.958C231.55 169.958 231.661 169.929 231.761 169.874L235.874 167.354C236.044 167.245 236.036 167.074 235.874 166.956L234.614 166.18C234.512 166.124 234.4 166.095 234.286 166.095C234.172 166.095 234.059 166.124 233.958 166.18L229.844 168.69C229.674 168.799 229.683 168.979 229.844 169.097L231.113 169.874ZM241.086 175.988C241.188 176.041 241.3 176.069 241.414 176.069C241.528 176.069 241.64 176.041 241.742 175.988L245.855 173.468C246.025 173.36 246.017 173.179 245.855 173.071L241.103 170.153C241.001 170.1 240.889 170.072 240.775 170.072C240.661 170.072 240.549 170.1 240.447 170.153L236.342 172.664C236.164 172.773 236.181 172.953 236.342 173.071L241.086 175.988ZM256.1 192.145L260.214 189.625C260.384 189.526 260.375 189.345 260.214 189.228L255.461 186.32C255.36 186.267 255.247 186.239 255.134 186.239C255.02 186.239 254.908 186.267 254.806 186.32L250.701 188.84C250.522 188.948 250.531 189.129 250.701 189.237L255.453 192.145C255.553 192.199 255.664 192.227 255.777 192.227C255.889 192.227 256 192.199 256.1 192.145V192.145ZM219.097 177.234C219.199 177.288 219.311 177.315 219.425 177.315C219.539 177.315 219.651 177.288 219.753 177.234L223.866 174.723C224.036 174.615 224.028 174.434 223.866 174.317L222.597 173.54C222.495 173.487 222.383 173.459 222.269 173.459C222.156 173.459 222.043 173.487 221.941 173.54L217.837 176.051C217.666 176.159 217.675 176.34 217.837 176.457L219.097 177.234ZM170.213 209.296C170.315 209.352 170.427 209.38 170.541 209.38C170.655 209.38 170.768 209.352 170.869 209.296L174.974 206.776C175.144 206.668 175.136 206.496 174.974 206.379L170.222 203.471C170.121 203.415 170.008 203.386 169.894 203.386C169.78 203.386 169.668 203.415 169.566 203.471L165.461 205.991C165.291 206.099 165.3 206.271 165.461 206.388L170.213 209.296Z" fill="#455A64"/>
<path d="M194.63 248.881L239.596 221.344L267.274 238.287L222.299 265.824L194.63 248.881Z" fill="#263238"/>
<path d="M94.674 110.121L228.686 28.0695C231.301 26.4618 233.447 27.7804 233.447 30.9866V141.054C233.404 141.868 233.181 142.66 232.797 143.366C232.412 144.072 231.876 144.672 231.233 145.118L93.8224 229.256C92.6046 229.996 91.6082 229.391 91.6082 227.901V115.748C91.6693 114.621 91.9785 113.525 92.5109 112.548C93.0433 111.571 93.7842 110.74 94.674 110.121Z" fill="#F5F5F5"/>
<path d="M233.49 33.6245V30.9873C233.49 27.7811 231.343 26.4716 228.729 28.0701L94.674 110.122C93.7842 110.74 93.0433 111.572 92.5109 112.549C91.9785 113.526 91.6693 114.622 91.6082 115.748V120.472L233.49 33.6245Z" fill="#F03E3D"/>
<path d="M213.493 39.63C213.015 39.9602 212.617 40.4055 212.331 40.9297C212.045 41.4538 211.88 42.0421 211.85 42.6465C211.85 43.7574 212.582 44.209 213.493 43.649C213.97 43.3198 214.366 42.8757 214.651 42.3531C214.935 41.8304 215.098 41.244 215.128 40.6415C215.128 39.5307 214.396 39.0791 213.493 39.63Z" fill="white"/>
<path d="M220 35.6466C219.523 35.9778 219.126 36.4235 218.842 36.9476C218.558 37.4717 218.395 38.0594 218.365 38.6631C218.365 39.774 219.097 40.2165 220 39.6656C220.478 39.3354 220.877 38.8901 221.162 38.3659C221.448 37.8418 221.613 37.2535 221.644 36.6491C221.644 35.5382 220.911 35.0866 220 35.6466Z" fill="white"/>
<path d="M226.515 31.6549C226.038 31.9867 225.641 32.4324 225.355 32.9562C225.07 33.48 224.904 34.0675 224.871 34.6714C224.871 35.7823 225.612 36.2339 226.515 35.6739C226.993 35.3451 227.39 34.9014 227.676 34.3788C227.962 33.8562 228.127 33.2695 228.158 32.6664C228.158 31.5556 227.417 31.104 226.515 31.6549Z" fill="white"/>
<path d="M124.7 174.359L119.486 171.167L106.716 194.623L111.93 197.816L124.7 174.359Z" fill="#37474F"/>
<path d="M124.711 174.352L122.107 172.758L109.337 196.215L111.941 197.809L124.711 174.352Z" fill="#263238"/>
<path d="M92.7155 240.428C90.3394 244.808 79.0894 237.854 81.4569 233.537L110.796 185.01C110.875 184.879 110.998 184.785 111.141 184.748C111.284 184.711 111.435 184.734 111.562 184.812L117.455 188.424C117.582 188.5 117.676 188.626 117.718 188.774C117.759 188.922 117.744 189.082 117.677 189.219L92.7155 240.428Z" fill="#11B5E4"/>
<path opacity="0.1" d="M92.7153 240.428L117.668 189.219C117.735 189.082 117.75 188.922 117.709 188.774C117.668 188.626 117.573 188.5 117.447 188.424L114.764 186.781L86.1577 240.708C88.7637 242.072 91.6422 242.406 92.7153 240.428Z" fill="black"/>
<path d="M178.985 126.188C178.985 125.818 178.985 125.456 178.934 125.095C178.883 124.734 178.934 124.382 178.858 124.029C178.781 123.677 178.858 123.56 178.789 123.325C178.73 122.711 178.645 122.106 178.551 121.519C178.508 121.257 178.466 120.986 178.415 120.724C178.364 120.462 178.321 120.227 178.27 119.983C178.125 119.315 177.972 118.665 177.793 118.041C177.699 117.743 177.614 117.445 177.521 117.138C177.503 117.095 177.488 117.049 177.478 117.003C177.376 116.714 177.282 116.434 177.18 116.163C177.078 115.892 176.941 115.531 176.805 115.26C176.669 114.989 176.618 114.817 176.507 114.6C176.445 114.438 176.371 114.281 176.286 114.131C176.201 113.941 176.107 113.751 176.005 113.571C175.902 113.39 175.962 113.481 175.937 113.444C175.911 113.408 175.758 113.119 175.664 112.957C175.57 112.794 175.536 112.749 175.477 112.65C175.04 111.921 174.55 111.229 174.012 110.581L173.739 110.256L173.509 110.003C173.416 109.895 173.314 109.796 173.211 109.687C172.944 109.389 172.659 109.109 172.36 108.847C172.215 108.712 172.062 108.585 171.908 108.468L171.44 108.107C171.197 107.918 170.943 107.743 170.682 107.583L170.478 107.447H170.435L158.367 100.06L158.299 100.015C155.984 98.6452 153.37 97.9445 150.72 97.9824C146.768 97.9824 142.306 99.3552 137.579 102.245C121.347 112.18 108.181 136.366 108.181 156.254C108.181 166.189 111.451 173.143 116.74 176.412H116.791L128.867 183.791H128.918L129.063 183.872C129.289 184.014 129.522 184.144 129.761 184.261C130.051 184.414 130.349 184.55 130.613 184.676C130.877 184.803 131.149 184.902 131.422 184.992L131.856 185.128C132.008 185.189 132.165 185.238 132.325 185.272C132.481 185.323 132.641 185.365 132.802 185.399C132.916 185.434 133.033 185.461 133.151 185.48C133.355 185.525 133.576 185.57 133.789 185.597C133.837 185.606 133.886 185.606 133.934 185.597C134.19 185.645 134.445 185.682 134.701 185.706C139.078 186.193 144.171 184.884 149.621 181.551C165.862 171.616 179.028 147.421 179.028 127.543C178.985 127.127 178.985 126.658 178.985 126.188ZM159.287 112.126C159.925 114.597 160.237 117.15 160.215 119.712C160.215 137.252 148.114 159.451 133.815 168.248C131.725 169.565 129.468 170.56 127.113 171.201C126.478 168.726 126.166 166.17 126.184 163.606C126.184 146.066 138.286 123.867 152.585 115.07C154.667 113.757 156.915 112.766 159.262 112.126H159.287Z" fill="#11B5E4"/>
<path opacity="0.1" d="M128.373 183.538L116.646 176.367C111.357 173.089 108.087 166.117 108.087 156.218C108.087 147.349 110.71 137.631 115.045 128.708L127.121 136.078C122.778 145.001 120.163 154.719 120.163 163.588C120.163 173.306 123.28 180.179 128.373 183.538Z" fill="black"/>
<path opacity="0.4" d="M178.986 126.188C178.986 125.818 178.986 125.457 178.934 125.095C178.883 124.734 178.934 124.382 178.858 124.03C178.781 123.677 178.858 123.56 178.79 123.325C178.73 122.711 178.645 122.106 178.551 121.519C178.509 121.257 178.466 120.986 178.415 120.724C178.364 120.462 178.321 120.227 178.27 119.983C178.125 119.315 177.972 118.665 177.793 118.042C177.7 117.744 177.614 117.446 177.521 117.139C177.503 117.095 177.489 117.049 177.478 117.003C177.376 116.714 177.282 116.434 177.18 116.163C177.078 115.892 176.942 115.531 176.805 115.26C176.669 114.989 176.618 114.817 176.507 114.601C176.446 114.438 176.372 114.281 176.286 114.131C176.201 113.941 176.107 113.752 176.005 113.571C175.903 113.39 175.962 113.481 175.937 113.445C175.911 113.408 175.758 113.119 175.664 112.957C175.571 112.794 175.536 112.749 175.477 112.65C175.04 111.921 174.551 111.229 174.012 110.582L173.74 110.256L173.51 110.004C173.416 109.895 173.314 109.796 173.212 109.687C172.944 109.389 172.66 109.109 172.36 108.848C172.215 108.712 172.062 108.586 171.909 108.468L171.44 108.107C171.197 107.918 170.944 107.743 170.682 107.583C165.342 104.142 157.908 104.549 149.638 109.597C133.398 119.532 120.232 143.718 120.232 163.606C120.232 173.676 123.638 180.711 129.046 183.909C129.273 184.05 129.506 184.18 129.744 184.297C130.034 184.451 130.332 184.586 130.596 184.712C130.86 184.839 131.133 184.938 131.405 185.029L131.839 185.164C131.992 185.226 132.148 185.274 132.308 185.309C132.465 185.359 132.624 185.401 132.785 185.435C132.899 185.471 133.016 185.498 133.134 185.516C133.338 185.561 133.56 185.607 133.773 185.634C133.821 185.642 133.869 185.642 133.917 185.634C134.173 185.682 134.428 185.718 134.684 185.742C139.061 186.23 144.154 184.92 149.604 181.588C165.845 171.653 179.011 147.457 179.011 127.579C178.986 127.127 178.986 126.658 178.986 126.188ZM146.624 176.141C142.979 178.372 139.47 179.546 136.472 179.546C130.843 179.546 128.254 175.473 127.104 171.201C126.47 168.726 126.158 166.171 126.176 163.606C126.176 146.067 138.278 123.867 152.577 115.07C154.667 113.755 156.924 112.764 159.279 112.126C160.394 111.833 161.537 111.678 162.685 111.665C171.994 111.665 172.99 122.81 172.99 127.606C173.024 145.109 160.923 167.372 146.624 176.141Z" fill="white"/>
<path opacity="0.1" d="M173.024 127.606C173.024 145.145 160.931 167.344 146.624 176.141C142.979 178.372 139.47 179.546 136.472 179.546C130.843 179.546 128.254 175.473 127.104 171.201C129.459 170.56 131.716 169.565 133.807 168.248C148.131 159.478 160.207 137.251 160.207 119.712C160.229 117.15 159.917 114.597 159.279 112.126C160.394 111.833 161.537 111.678 162.685 111.665C172.019 111.692 173.024 122.81 173.024 127.606Z" fill="black"/>
<path opacity="0.7" d="M167.914 124.544C167.914 142.083 155.821 164.283 141.514 173.079C137.869 175.31 134.36 176.484 131.362 176.484C130.766 176.486 130.171 176.435 129.582 176.331C128.432 174.823 127.593 173.075 127.121 171.201C126.487 168.726 126.175 166.17 126.193 163.605C126.193 146.066 138.295 123.867 152.593 115.07C154.684 113.755 156.941 112.763 159.296 112.126C160.411 111.833 161.554 111.678 162.702 111.665C163.301 111.664 163.9 111.715 164.491 111.819C167.437 115.494 167.914 121.392 167.914 124.544Z" fill="white"/>
<path d="M188.498 106.274V126.269C188.498 127.769 189.494 128.374 190.712 127.624L314.284 51.967C314.927 51.521 315.463 50.9208 315.848 50.2148C316.232 49.5089 316.455 48.7169 316.498 47.9029V27.8799C316.498 26.3807 315.501 25.7756 314.284 26.5252L190.712 102.182C190.066 102.632 189.528 103.236 189.144 103.947C188.759 104.658 188.538 105.455 188.498 106.274Z" fill="#E6E6E6"/>
<path d="M190.712 102.182L212.718 88.7161V114.131L190.712 127.597C189.494 128.346 188.498 127.741 188.498 126.242V106.273C188.538 105.455 188.759 104.658 189.144 103.947C189.528 103.236 190.066 102.631 190.712 102.182Z" fill="#BA68C8"/>
<path d="M205.437 99.8074C204.049 98.9584 202.294 99.0939 200.498 100.196C198.79 101.356 197.369 102.933 196.354 104.795C195.339 106.657 194.76 108.75 194.664 110.898C194.604 112.29 195.018 113.659 195.831 114.755L193.463 119.054C193.309 119.361 193.271 119.72 193.359 120.056C193.446 120.391 193.651 120.679 193.931 120.86C194.127 120.976 194.346 121.038 194.57 121.041C194.795 121.041 195.015 120.978 195.209 120.859C195.404 120.74 195.565 120.569 195.677 120.363L198.019 116.064C198.272 116.114 198.529 116.142 198.786 116.145C199.831 116.125 200.853 115.814 201.749 115.242C203.454 114.079 204.872 112.501 205.885 110.64C206.898 108.778 207.478 106.687 207.575 104.54C207.6 102.345 206.834 100.665 205.437 99.8074ZM200.498 112.903C200.198 113.244 199.799 113.468 199.364 113.537C198.93 113.607 198.486 113.518 198.105 113.285C197.725 113.052 197.43 112.689 197.269 112.256C197.108 111.822 197.09 111.344 197.219 110.898C197.318 109.227 197.781 107.603 198.572 106.154C199.362 104.704 200.459 103.469 201.775 102.544C202.286 102.199 202.873 102.003 203.478 101.975C203.728 101.965 203.975 102.027 204.194 102.156C204.514 102.446 204.76 102.818 204.909 103.236C205.058 103.655 205.105 104.106 205.045 104.549C204.947 106.219 204.485 107.843 203.696 109.292C202.907 110.742 201.812 111.978 200.498 112.903Z" fill="white"/>
</svg>
