<svg width="107" height="19" fill="none" xmlns="http://www.w3.org/2000/svg"><path d="M18.296 6.587a.918.918 0 0 0-.796-.62l-5.23-.416L10.009.542a.916.916 0 0 0-1.671 0l-2.263 5.01-5.23.415a.917.917 0 0 0-.567 1.57l3.864 3.768-1.366 5.918a.917.917 0 0 0 1.403.97l4.994-3.33 4.995 3.33a.918.918 0 0 0 1.391-1.015l-1.678-5.87 4.161-3.745a.919.919 0 0 0 .255-.976ZM40.31 6.587a.918.918 0 0 0-.796-.62l-5.23-.416L32.023.542a.915.915 0 0 0-1.671 0l-2.263 5.01-5.229.415a.917.917 0 0 0-.568 1.57l3.864 3.768-1.366 5.918a.917.917 0 0 0 1.403.97l4.994-3.33 4.995 3.33a.918.918 0 0 0 1.391-1.015l-1.677-5.87 4.16-3.745a.919.919 0 0 0 .255-.976ZM62.321 6.587a.918.918 0 0 0-.796-.62l-5.23-.416L54.034.542a.916.916 0 0 0-1.671 0l-2.263 5.01-5.23.415a.917.917 0 0 0-.567 1.57l3.864 3.768-1.366 5.918a.918.918 0 0 0 1.403.97l4.994-3.33 4.995 3.33a.918.918 0 0 0 1.391-1.015l-1.678-5.87 4.161-3.745a.919.919 0 0 0 .255-.976ZM84.337 6.587a.918.918 0 0 0-.796-.62l-5.23-.416L76.05.542a.916.916 0 0 0-1.671 0l-2.263 5.01-5.23.415a.917.917 0 0 0-.567 1.57l3.864 3.768-1.366 5.918a.918.918 0 0 0 1.403.97l4.994-3.33 4.995 3.33a.919.919 0 0 0 1.391-1.015l-1.678-5.87 4.161-3.745a.919.919 0 0 0 .255-.976ZM92.198 11.305l-1.367 5.918a.916.916 0 0 0 1.402.97l4.995-3.33 4.994 3.33a.918.918 0 0 0 1.392-1.015l-1.678-5.87 4.161-3.744a.916.916 0 0 0-.051-1.406.915.915 0 0 0-.491-.19l-5.229-.417L98.063.542a.916.916 0 0 0-1.67 0l-2.264 5.01-5.229.415a.917.917 0 0 0-.568 1.57l3.866 3.768Zm2.617-3.968a.916.916 0 0 0 .763-.538l1.65-3.651 1.65 3.651a.915.915 0 0 0 .763.538l3.643.289-3 2.7a.92.92 0 0 0-.269.934l1.15 4.022-3.427-2.285a.913.913 0 0 0-1.017 0l-3.581 2.388.963-4.17a.918.918 0 0 0-.253-.862l-2.787-2.717 3.751-.299Z" fill="#F3CD03"/></svg>