<svg xmlns="http://www.w3.org/2000/svg" width="159" height="50" fill="none"><g clip-path="url(#a)"><path fill="#FF385C" d="M45.58 35.436c-.25-.61-.483-1.25-.733-1.797l-1.153-2.609-.047-.047c-3.43-7.5-7.093-15.125-10.974-22.625l-.156-.312c-.39-.735-.78-1.547-1.185-2.297-.498-.89-.982-1.844-1.777-2.75a8.265 8.265 0 0 0-6.39-3.034A8.246 8.246 0 0 0 16.772 3c-.733.906-1.278 1.86-1.777 2.75-.39.812-.78 1.61-1.185 2.343l-.156.313C9.836 15.905 6.111 23.53 2.681 31.03l-.093.094c-.343.812-.749 1.656-1.138 2.562a29.99 29.99 0 0 0-.748 1.797 10.648 10.648 0 0 0 1.508 10.42 10.603 10.603 0 0 0 4.328 3.292c1.704.702 3.56.946 5.387.71a13.044 13.044 0 0 0 4.957-1.719c2.027-1.14 3.975-2.797 6.157-5.187 2.183 2.39 4.178 4.047 6.158 5.203a13.04 13.04 0 0 0 6.266 1.797 10.57 10.57 0 0 0 6.963-2.58 10.616 10.616 0 0 0 3.56-6.53 9.302 9.302 0 0 0-.406-5.468v.015ZM23.195 38.03c-2.68-3.438-4.427-6.594-5.02-9.297a8.143 8.143 0 0 1-.155-3.062c.11-.797.405-1.5.81-2.094.936-1.36 2.573-2.203 4.365-2.203a5.134 5.134 0 0 1 4.365 2.187c.405.625.702 1.313.795 2.11.156.906.094 1.953-.156 3.062-.592 2.656-2.338 5.844-5.004 9.297Zm19.86 2.313a7.447 7.447 0 0 1-1.481 3.533 7.423 7.423 0 0 1-3.04 2.326c-1.184.5-2.494.64-3.772.5-1.247-.156-2.494-.563-3.773-1.313a24.396 24.396 0 0 1-5.658-4.843c3.274-4.063 5.253-7.766 6.001-11.063.359-1.562.406-2.969.25-4.265a8.651 8.651 0 0 0-1.34-3.438 8.36 8.36 0 0 0-3.057-2.656 8.338 8.338 0 0 0-3.943-.906c-2.884 0-5.456 1.343-7.015 3.546a8.106 8.106 0 0 0-1.325 3.454 10.309 10.309 0 0 0 .25 4.265c.748 3.297 2.775 7.047 6.001 11.094a22.353 22.353 0 0 1-5.658 4.875c-1.294.75-2.525 1.14-3.773 1.297a7.407 7.407 0 0 1-5.45-1.47 7.44 7.44 0 0 1-2.843-4.89c-.155-1.25-.046-2.5.453-3.906.155-.5.39-1 .639-1.594.343-.812.748-1.656 1.138-2.5l.062-.109A511.797 511.797 0 0 1 16.586 9.764l.156-.312c.39-.75.78-1.547 1.184-2.297.406-.797.842-1.563 1.404-2.188a5.177 5.177 0 0 1 3.967-1.856 5.166 5.166 0 0 1 3.967 1.857c.546.625.998 1.39 1.403 2.187.39.75.78 1.562 1.184 2.297l.156.312A619.92 619.92 0 0 1 40.92 32.28l.047.047c.405.812.748 1.719 1.138 2.5.25.61.499 1.094.655 1.61.296 1.406.452 2.656.296 3.906Zm21.699-2.657a7.81 7.81 0 0 1-6.158-2.86 10.25 10.25 0 0 1-2.494-7 10.89 10.89 0 0 1 2.588-7.155 8.263 8.263 0 0 1 6.36-2.907 6.69 6.69 0 0 1 5.767 3l.156-2.453h4.552v18.875h-4.567l-.156-2.75a7.033 7.033 0 0 1-6.048 3.25Zm1.184-4.5c.904 0 1.7-.25 2.448-.703.686-.5 1.247-1.156 1.683-1.953.39-.797.593-1.75.593-2.813a5.354 5.354 0 0 0-2.292-4.75 4.59 4.59 0 0 0-4.864 0c-.685.5-1.246 1.157-1.683 1.954a6.28 6.28 0 0 0-.592 2.812 5.356 5.356 0 0 0 2.291 4.75 4.5 4.5 0 0 0 2.416.703ZM83.32 13.218c0 .546-.093 1.046-.343 1.453-.25.39-.592.75-1.044 1-.452.25-.936.343-1.434.343-.5 0-.998-.093-1.45-.343a2.87 2.87 0 0 1-1.044-1 2.85 2.85 0 0 1-.343-1.454c0-.562.109-1.062.343-1.453.249-.468.608-.75 1.044-1 .452-.25.935-.359 1.45-.359a2.861 2.861 0 0 1 2.494 1.344c.227.455.339.96.327 1.468Zm-5.3 23.906V18.28h4.957v18.875h-4.972l.015-.031Zm18.207-13.907v.063c-.234-.11-.545-.156-.78-.203-.311-.063-.56-.063-.856-.063-1.388 0-2.432.407-3.118 1.25-.748.86-1.091 2.063-1.091 3.61v9.265h-4.973V18.264h4.567l.156 2.86c.499-1 1.091-1.75 1.933-2.313a4.824 4.824 0 0 1 2.822-.781c.358 0 .701.031.997.094.156.047.25.047.343.094v5Zm1.996 13.907V10.53h4.957v10.156c.701-.906 1.496-1.61 2.494-2.156a7.807 7.807 0 0 1 9.477 2.047 10.244 10.244 0 0 1 2.494 7.015 10.89 10.89 0 0 1-2.587 7.157 8.25 8.25 0 0 1-6.36 2.906 6.691 6.691 0 0 1-5.768-3l-.156 2.453-4.551.047v-.031Zm9.586-3.938c.889 0 1.684-.25 2.432-.703.686-.5 1.247-1.156 1.684-1.953.405-.797.592-1.75.592-2.813 0-1.046-.187-2-.592-2.796a5.864 5.864 0 0 0-1.684-1.953 4.591 4.591 0 0 0-4.863 0c-.702.5-1.248 1.156-1.7 1.953a6.276 6.276 0 0 0-.592 2.812 5.349 5.349 0 0 0 2.292 4.75 4.508 4.508 0 0 0 2.431.703Zm11.707 3.953V18.264h4.567l.156 2.454a6.176 6.176 0 0 1 5.519-2.954 6.378 6.378 0 0 1 3.55 1.007 6.399 6.399 0 0 1 2.404 2.806c.546 1.187.842 2.656.842 4.297v11.312h-4.973V26.53c0-1.313-.296-2.344-.888-3.11-.593-.75-1.403-1.156-2.432-1.156-.748 0-1.403.157-1.98.5-.545.36-.997.813-1.34 1.454a4.223 4.223 0 0 0-.499 2.109v10.812h-4.926Zm19.517 0V10.514h4.972v10.157a7.267 7.267 0 0 1 5.815-2.953 7.812 7.812 0 0 1 6.157 2.859 10.277 10.277 0 0 1 2.478 7 10.873 10.873 0 0 1-2.587 7.156 8.248 8.248 0 0 1-6.36 2.906 6.691 6.691 0 0 1-5.768-3l-.14 2.453-4.567.047Zm9.633-3.953c.904 0 1.699-.25 2.432-.703.701-.5 1.247-1.156 1.699-1.953.39-.797.592-1.75.592-2.813a5.348 5.348 0 0 0-2.291-4.75 4.591 4.591 0 0 0-4.864 0c-.686.5-1.247 1.157-1.683 1.954a5.693 5.693 0 0 0-.593 2.812 5.348 5.348 0 0 0 2.292 4.75c.733.453 1.481.703 2.416.703Z"/></g><defs><clipPath id="a"><path fill="#fff" d="M0 0h159v50H0z"/></clipPath></defs></svg>