<svg width="140" height="42" fill="none" xmlns="http://www.w3.org/2000/svg"><g clip-path="url(#a)"><path d="m104.109 40.743 11.676-12.931-11.676-12.933h12.319l5.783 6.282 5.568-6.282h11.889l-11.62 12.88 11.78 12.984h-12.37l-5.73-6.334-5.676 6.334h-11.943Z" fill="#F60"/><path d="M104.109 9.081H90.886v5.798h13.223v8.738H90.886v8.02h13.223v9.106H81.167V0h22.942v9.081Z" fill="#F60"/><path d="M71.489 0v16.674h-.107c-2.142-2.428-4.82-3.271-7.926-3.271-6.362 0-11.155 4.263-12.838 9.9-1.918-6.21-6.866-10.017-14.203-10.017-5.959 0-10.664 2.637-13.12 6.933v-5.34H10.98V9.082h13.44V0H0v40.744h10.979V23.617h10.943a16.013 16.013 0 0 0-.5 4.026c0 8.5 6.587 14.463 14.993 14.463 7.068 0 11.727-3.272 14.19-9.236h-9.408c-1.273 1.792-2.238 2.324-4.782 2.324-2.95 0-5.494-2.537-5.494-5.545h19.158c.83 6.75 6.165 12.572 13.486 12.572a9.415 9.415 0 0 0 7.817-4.116h.107v2.637h9.678V0H71.49ZM31.226 23.738c.61-2.587 2.647-4.279 5.189-4.279 2.798 0 4.73 1.64 5.239 4.28H31.226Zm34.39 10.802c-3.568 0-5.785-3.277-5.785-6.698 0-3.657 1.928-7.174 5.785-7.174 3.998 0 5.591 3.517 5.591 7.174 0 3.468-1.688 6.698-5.591 6.698Z" fill="#652C8F"/></g><defs><clipPath id="a"><path fill="#fff" d="M0 0h140v42H0z"/></clipPath></defs></svg>