<svg xmlns="http://www.w3.org/2000/svg" width="146" height="50" fill="none"><path fill="#EA4335" d="M62.13 25.641c0 6.94-5.362 12.055-11.943 12.055-6.58 0-11.943-5.115-11.943-12.055 0-6.989 5.362-12.054 11.943-12.054 6.58 0 11.943 5.065 11.943 12.054Zm-5.228 0c0-4.337-3.108-7.304-6.715-7.304-3.607 0-6.715 2.967-6.715 7.304 0 4.294 3.108 7.305 6.715 7.305 3.607 0 6.715-3.017 6.715-7.305Z"/><path fill="#FBBC05" d="M87.895 25.641c0 6.94-5.362 12.055-11.943 12.055-6.58 0-11.943-5.115-11.943-12.055 0-6.983 5.362-12.054 11.943-12.054 6.58 0 11.943 5.065 11.943 12.054Zm-5.228 0c0-4.337-3.108-7.304-6.715-7.304-3.607 0-6.715 2.967-6.715 7.304 0 4.294 3.108 7.305 6.715 7.305 3.607 0 6.715-3.017 6.715-7.305Z"/><path fill="#4285F4" d="M112.586 14.315v21.641c0 8.903-5.185 12.538-11.315 12.538-5.77 0-9.243-3.907-10.553-7.103l4.552-1.918c.81 1.962 2.797 4.277 5.996 4.277 3.923 0 6.355-2.451 6.355-7.065V34.95h-.183c-1.17 1.462-3.424 2.74-6.269 2.74-5.953 0-11.406-5.25-11.406-12.006 0-6.805 5.453-12.098 11.406-12.098 2.839 0 5.094 1.277 6.269 2.695h.183v-1.961h4.965v-.006Zm-4.595 11.37c0-4.245-2.796-7.348-6.355-7.348-3.607 0-6.63 3.103-6.63 7.348 0 4.2 3.023 7.26 6.63 7.26 3.559 0 6.355-3.06 6.355-7.26Z"/><path fill="#34A853" d="M120.772 1.63v35.326h-5.099V1.63h5.099Z"/><path fill="#EA4335" d="m140.643 29.609 4.058 2.739c-1.309 1.962-4.465 5.342-9.919 5.342-6.763 0-11.814-5.293-11.814-12.054 0-7.169 5.094-12.054 11.229-12.054 6.178 0 9.2 4.978 10.188 7.668l.542 1.37-15.915 6.673c1.218 2.419 3.113 3.653 5.77 3.653 2.662 0 4.509-1.326 5.861-3.337Zm-12.49-4.337 10.639-4.473c-.585-1.506-2.346-2.555-4.418-2.555-2.657 0-6.355 2.375-6.221 7.028Z"/><path fill="#4285F4" d="M18.943 22.505v-5.114h17.02c.167.892.253 1.946.253 3.087 0 3.837-1.036 8.582-4.375 11.962-3.247 3.424-7.397 5.25-12.893 5.25C8.76 37.69.193 29.288.193 18.973S8.76.255 18.948.255c5.636 0 9.65 2.24 12.668 5.158L28.05 9.022c-2.163-2.055-5.093-3.652-9.108-3.652-7.44 0-13.259 6.07-13.259 13.603 0 7.532 5.819 13.603 13.259 13.603 4.825 0 7.573-1.962 9.334-3.745 1.428-1.445 2.367-3.51 2.737-6.331l-12.071.005Z"/></svg>