<svg xmlns="http://www.w3.org/2000/svg" width="213" height="44" fill="none"><g clip-path="url(#a)"><path fill="#737373" d="m75.184 25.343-1.27 3.479h-.105c-.212-.785-.6-1.979-1.234-3.411L65.769 8.868h-6.666v26.366h4.409v-16.27c0-1.023 0-2.183-.036-3.615-.035-.716-.105-1.262-.14-1.671h.105c.212 1.023.459 1.773.635 2.25l8.181 19.238h3.104l8.11-19.408c.177-.443.353-1.33.53-2.08h.105a238.248 238.248 0 0 0-.211 4.74v16.714h4.69V8.8h-6.418l-6.983 16.543Zm17.844-9.107h4.585v18.896h-4.585V16.236Zm2.328-7.982c-.776 0-1.41.273-1.94.75-.529.478-.81 1.092-.81 1.843 0 .716.281 1.33.81 1.807.53.478 1.164.716 1.94.716s1.446-.272 1.94-.716a2.364 2.364 0 0 0 .81-1.807c0-.717-.282-1.33-.81-1.842-.459-.478-1.13-.75-1.94-.75Zm18.514 7.811a13.196 13.196 0 0 0-2.574-.273c-2.081 0-3.985.444-5.572 1.33-1.587.887-2.857 2.115-3.668 3.65-.846 1.569-1.269 3.377-1.269 5.457 0 1.808.423 3.411 1.234 4.878.811 1.432 1.939 2.592 3.456 3.377 1.446.784 3.138 1.194 5.043 1.194 2.186 0 4.055-.444 5.536-1.262l.036-.035v-4.093l-.177.137c-.67.477-1.446.887-2.221 1.125-.812.273-1.552.41-2.187.41-1.834 0-3.279-.512-4.302-1.638-1.058-1.091-1.587-2.592-1.587-4.468 0-1.944.529-3.479 1.622-4.604 1.093-1.126 2.539-1.706 4.302-1.706 1.482 0 2.998.478 4.373 1.433l.177.136v-4.332l-.036-.034c-.599-.238-1.269-.511-2.186-.682Zm15.129-.136a4.942 4.942 0 0 0-3.104 1.057c-.776.614-1.305 1.5-1.763 2.558h-.035v-3.308h-4.585v18.896h4.585v-9.653c0-1.637.352-3.002 1.128-3.99.776-1.024 1.763-1.536 2.962-1.536.424 0 .847.103 1.376.171.493.136.846.273 1.093.443l.176.137V16.27l-.105-.034c-.318-.205-.953-.307-1.728-.307Zm12.483-.103c-3.209 0-5.783.921-7.582 2.729-1.833 1.808-2.715 4.298-2.715 7.436 0 2.933.917 5.32 2.68 7.06 1.763 1.706 4.161 2.592 7.159 2.592 3.138 0 5.642-.92 7.441-2.762 1.834-1.842 2.715-4.298 2.715-7.334 0-3.001-.846-5.389-2.574-7.128-1.658-1.74-4.091-2.593-7.124-2.593Zm3.668 14.53c-.846 1.058-2.187 1.57-3.844 1.57s-2.998-.512-3.95-1.638c-.952-1.057-1.41-2.592-1.41-4.536 0-2.012.493-3.547 1.41-4.639.952-1.091 2.257-1.637 3.915-1.637 1.622 0 2.891.512 3.808 1.569.917 1.057 1.411 2.592 1.411 4.605-.071 2.046-.458 3.65-1.34 4.707Zm16.257-6.275c-1.446-.58-2.363-1.024-2.786-1.399-.353-.341-.529-.819-.529-1.432 0-.512.212-1.024.741-1.365.529-.34 1.128-.511 2.01-.511.776 0 1.587.136 2.363.34.775.205 1.481.512 2.045.922l.176.136v-4.161l-.106-.034a13.058 13.058 0 0 0-2.08-.58 14.6 14.6 0 0 0-2.257-.205c-2.187 0-3.985.512-5.396 1.637-1.41 1.058-2.08 2.49-2.08 4.162 0 .886.141 1.671.458 2.319a5.187 5.187 0 0 0 1.411 1.774c.634.477 1.551 1.023 2.821 1.535 1.058.443 1.869.784 2.363 1.057.493.273.811.58 1.058.819.176.272.282.614.282 1.057 0 1.262-.988 1.876-2.998 1.876-.776 0-1.587-.137-2.539-.444a9.93 9.93 0 0 1-2.574-1.262l-.177-.136v4.332l.106.034c.67.307 1.481.511 2.469.75.987.17 1.869.307 2.645.307 2.362 0 4.302-.511 5.677-1.637 1.411-1.091 2.151-2.49 2.151-4.298 0-1.262-.352-2.387-1.128-3.24a14.408 14.408 0 0 0-4.126-2.353Zm17.35-8.255c-3.209 0-5.783.921-7.582 2.729-1.798 1.808-2.715 4.298-2.715 7.436 0 2.933.917 5.32 2.68 7.06 1.763 1.706 4.161 2.592 7.159 2.592 3.138 0 5.642-.92 7.441-2.762 1.834-1.842 2.715-4.298 2.715-7.334 0-3.001-.846-5.389-2.574-7.128-1.658-1.74-4.091-2.593-7.124-2.593Zm3.633 14.53c-.847 1.058-2.187 1.57-3.844 1.57-1.693 0-2.998-.512-3.95-1.638-.952-1.057-1.411-2.592-1.411-4.536 0-2.012.494-3.547 1.411-4.639.952-1.091 2.257-1.637 3.914-1.637 1.587 0 2.892.512 3.809 1.569.917 1.057 1.411 2.592 1.411 4.605 0 2.046-.459 3.65-1.34 4.707Zm30.574-10.47v-3.65h-4.619v-5.594l-.141.034-4.373 1.262-.106.034v4.264h-6.912v-2.388c0-1.091.282-1.944.776-2.49.493-.546 1.234-.819 2.151-.819.635 0 1.305.137 2.045.444l.177.102V7.231l-.106-.034c-.635-.205-1.481-.341-2.575-.341a8.488 8.488 0 0 0-3.667.818c-1.093.58-1.904 1.365-2.504 2.422-.599 1.023-.917 2.183-.917 3.513v2.627h-3.209v3.615h3.209v15.28h4.62V19.886h6.912v9.721c0 3.99 1.939 6.003 5.819 6.003.634 0 1.304-.102 1.939-.204.67-.137 1.164-.307 1.446-.444l.035-.034v-3.65l-.176.137c-.282.17-.529.307-.952.41-.353.101-.67.136-.917.136-.917 0-1.552-.205-2.01-.717-.423-.477-.635-1.262-.635-2.421v-8.937h4.69Z"/><path fill="#F25022" d="M0 0h21.617v20.909H0V0Z"/><path fill="#7FBA00" d="M23.874 0h21.617v20.909H23.874V0Z"/><path fill="#00A4EF" d="M0 23.091h21.617V44H0V23.091Z"/><path fill="#FFB900" d="M23.874 23.091h21.617V44H23.874V23.091Z"/></g><defs><clipPath id="a"><path fill="#fff" d="M0 0h213v44H0z"/></clipPath></defs></svg>