<svg width="240" height="71" viewBox="0 0 240 71" fill="none" xmlns="http://www.w3.org/2000/svg">
<g clip-path="url(#clip0_17_202)">
<g filter="url(#filter0_d_17_202)">
<path fill-rule="evenodd" clip-rule="evenodd" d="M26.5 0.758545C11.8645 0.758545 0 12.623 0 27.2585C0 41.8941 11.8645 53.7585 26.5 53.7585H187.374C188.441 57.2329 191.676 59.7585 195.5 59.7585C199.324 59.7585 202.559 57.2329 203.626 53.7585H213.5C228.136 53.7585 240 41.8941 240 27.2585C240 12.623 228.136 0.758545 213.5 0.758545H26.5Z" fill="white"/>
</g>
<g filter="url(#filter1_d_17_202)">
<circle cx="218.5" cy="66.2585" r="4.5" fill="white"/>
</g>
<path d="M25.2349 22.6385V33.7585H23.4109V22.6385H25.2349ZM31.1779 29.3425C31.1779 28.4359 31.3593 27.6412 31.7219 26.9585C32.0953 26.2652 32.6073 25.7319 33.2579 25.3585C33.9086 24.9852 34.6553 24.7985 35.4979 24.7985C36.5646 24.7985 37.4446 25.0545 38.1379 25.5665C38.8419 26.0679 39.3166 26.7879 39.5619 27.7265H37.5939C37.4339 27.2892 37.1779 26.9479 36.8259 26.7025C36.4739 26.4572 36.0313 26.3345 35.4979 26.3345C34.7513 26.3345 34.1539 26.6012 33.7059 27.1345C33.2686 27.6572 33.0499 28.3932 33.0499 29.3425C33.0499 30.2919 33.2686 31.0332 33.7059 31.5665C34.1539 32.0999 34.7513 32.3665 35.4979 32.3665C36.5539 32.3665 37.2526 31.9025 37.5939 30.9745H39.5619C39.3059 31.8705 38.8259 32.5852 38.1219 33.1185C37.4179 33.6412 36.5433 33.9025 35.4979 33.9025C34.6553 33.9025 33.9086 33.7159 33.2579 33.3425C32.6073 32.9585 32.0953 32.4252 31.7219 31.7425C31.3593 31.0492 31.1779 30.2492 31.1779 29.3425ZM40.7717 29.3105C40.7717 28.4252 40.953 27.6412 41.3157 26.9585C41.689 26.2759 42.1904 25.7479 42.8197 25.3745C43.4597 24.9905 44.1637 24.7985 44.9317 24.7985C45.625 24.7985 46.2277 24.9372 46.7397 25.2145C47.2624 25.4812 47.6784 25.8172 47.9877 26.2225V24.9425H49.8277V33.7585H47.9877V32.4465C47.6784 32.8625 47.257 33.2092 46.7237 33.4865C46.1904 33.7639 45.5824 33.9025 44.8997 33.9025C44.1424 33.9025 43.449 33.7105 42.8197 33.3265C42.1904 32.9319 41.689 32.3879 41.3157 31.6945C40.953 30.9905 40.7717 30.1959 40.7717 29.3105ZM47.9877 29.3425C47.9877 28.7345 47.8597 28.2065 47.6037 27.7585C47.3584 27.3105 47.033 26.9692 46.6277 26.7345C46.2224 26.4999 45.785 26.3825 45.3157 26.3825C44.8464 26.3825 44.409 26.4999 44.0037 26.7345C43.5984 26.9585 43.2677 27.2945 43.0117 27.7425C42.7664 28.1799 42.6437 28.7025 42.6437 29.3105C42.6437 29.9185 42.7664 30.4519 43.0117 30.9105C43.2677 31.3692 43.5984 31.7212 44.0037 31.9665C44.4197 32.2012 44.857 32.3185 45.3157 32.3185C45.785 32.3185 46.2224 32.2012 46.6277 31.9665C47.033 31.7319 47.3584 31.3905 47.6037 30.9425C47.8597 30.4839 47.9877 29.9505 47.9877 29.3425ZM56.6714 24.7985C57.3648 24.7985 57.9834 24.9425 58.5274 25.2305C59.0821 25.5185 59.5141 25.9452 59.8234 26.5105C60.1328 27.0759 60.2874 27.7585 60.2874 28.5585V33.7585H58.4794V28.8305C58.4794 28.0412 58.2821 27.4385 57.8874 27.0225C57.4928 26.5959 56.9541 26.3825 56.2714 26.3825C55.5888 26.3825 55.0448 26.5959 54.6394 27.0225C54.2448 27.4385 54.0474 28.0412 54.0474 28.8305V33.7585H52.2234V24.9425H54.0474V25.9505C54.3461 25.5879 54.7248 25.3052 55.1834 25.1025C55.6528 24.8999 56.1488 24.7985 56.6714 24.7985ZM68.5943 26.2385C68.9036 25.8332 69.325 25.4919 69.8583 25.2145C70.3916 24.9372 70.9943 24.7985 71.6663 24.7985C72.4343 24.7985 73.133 24.9905 73.7623 25.3745C74.4023 25.7479 74.9036 26.2759 75.2663 26.9585C75.629 27.6412 75.8103 28.4252 75.8103 29.3105C75.8103 30.1959 75.629 30.9905 75.2663 31.6945C74.9036 32.3879 74.4023 32.9319 73.7623 33.3265C73.133 33.7105 72.4343 33.9025 71.6663 33.9025C70.9943 33.9025 70.397 33.7692 69.8743 33.5025C69.3516 33.2252 68.925 32.8839 68.5943 32.4785V37.9505H66.7703V24.9425H68.5943V26.2385ZM73.9543 29.3105C73.9543 28.7025 73.8263 28.1799 73.5703 27.7425C73.325 27.2945 72.9943 26.9585 72.5783 26.7345C72.173 26.4999 71.7356 26.3825 71.2663 26.3825C70.8076 26.3825 70.3703 26.4999 69.9543 26.7345C69.549 26.9692 69.2183 27.3105 68.9623 27.7585C68.717 28.2065 68.5943 28.7345 68.5943 29.3425C68.5943 29.9505 68.717 30.4839 68.9623 30.9425C69.2183 31.3905 69.549 31.7319 69.9543 31.9665C70.3703 32.2012 70.8076 32.3185 71.2663 32.3185C71.7356 32.3185 72.173 32.2012 72.5783 31.9665C72.9943 31.7212 73.325 31.3692 73.5703 30.9105C73.8263 30.4519 73.9543 29.9185 73.9543 29.3105ZM79.4381 26.2225C79.7047 25.7745 80.0567 25.4279 80.4941 25.1825C80.9421 24.9265 81.4701 24.7985 82.0781 24.7985V26.6865H81.6141C80.8994 26.6865 80.3554 26.8679 79.9821 27.2305C79.6194 27.5932 79.4381 28.2225 79.4381 29.1185V33.7585H77.6141V24.9425H79.4381V26.2225ZM87.5787 33.9025C86.7467 33.9025 85.9947 33.7159 85.3227 33.3425C84.6507 32.9585 84.1227 32.4252 83.7387 31.7425C83.3547 31.0492 83.1627 30.2492 83.1627 29.3425C83.1627 28.4465 83.36 27.6519 83.7547 26.9585C84.1494 26.2652 84.688 25.7319 85.3707 25.3585C86.0534 24.9852 86.816 24.7985 87.6587 24.7985C88.5014 24.7985 89.264 24.9852 89.9467 25.3585C90.6294 25.7319 91.168 26.2652 91.5627 26.9585C91.9574 27.6519 92.1547 28.4465 92.1547 29.3425C92.1547 30.2385 91.952 31.0332 91.5467 31.7265C91.1414 32.4199 90.5867 32.9585 89.8827 33.3425C89.1894 33.7159 88.4214 33.9025 87.5787 33.9025ZM87.5787 32.3185C88.048 32.3185 88.4854 32.2065 88.8907 31.9825C89.3067 31.7585 89.6427 31.4225 89.8987 30.9745C90.1547 30.5265 90.2827 29.9825 90.2827 29.3425C90.2827 28.7025 90.16 28.1639 89.9147 27.7265C89.6694 27.2785 89.344 26.9425 88.9387 26.7185C88.5334 26.4945 88.096 26.3825 87.6267 26.3825C87.1574 26.3825 86.72 26.4945 86.3147 26.7185C85.92 26.9425 85.6054 27.2785 85.3707 27.7265C85.136 28.1639 85.0187 28.7025 85.0187 29.3425C85.0187 30.2919 85.2587 31.0279 85.7387 31.5505C86.2294 32.0625 86.8427 32.3185 87.5787 32.3185ZM96.0858 26.4305V31.3105C96.0858 31.6412 96.1605 31.8812 96.3098 32.0305C96.4698 32.1692 96.7365 32.2385 97.1098 32.2385H98.2298V33.7585H96.7898C95.9685 33.7585 95.3391 33.5665 94.9018 33.1825C94.4645 32.7985 94.2458 32.1745 94.2458 31.3105V26.4305H93.2058V24.9425H94.2458V22.7505H96.0858V24.9425H98.2298V26.4305H96.0858ZM103.735 33.9025C102.903 33.9025 102.151 33.7159 101.479 33.3425C100.807 32.9585 100.279 32.4252 99.8949 31.7425C99.5109 31.0492 99.3189 30.2492 99.3189 29.3425C99.3189 28.4465 99.5163 27.6519 99.9109 26.9585C100.306 26.2652 100.844 25.7319 101.527 25.3585C102.21 24.9852 102.972 24.7985 103.815 24.7985C104.658 24.7985 105.42 24.9852 106.103 25.3585C106.786 25.7319 107.324 26.2652 107.719 26.9585C108.114 27.6519 108.311 28.4465 108.311 29.3425C108.311 30.2385 108.108 31.0332 107.703 31.7265C107.298 32.4199 106.743 32.9585 106.039 33.3425C105.346 33.7159 104.578 33.9025 103.735 33.9025ZM103.735 32.3185C104.204 32.3185 104.642 32.2065 105.047 31.9825C105.463 31.7585 105.799 31.4225 106.055 30.9745C106.311 30.5265 106.439 29.9825 106.439 29.3425C106.439 28.7025 106.316 28.1639 106.071 27.7265C105.826 27.2785 105.5 26.9425 105.095 26.7185C104.69 26.4945 104.252 26.3825 103.783 26.3825C103.314 26.3825 102.876 26.4945 102.471 26.7185C102.076 26.9425 101.762 27.2785 101.527 27.7265C101.292 28.1639 101.175 28.7025 101.175 29.3425C101.175 30.2919 101.415 31.0279 101.895 31.5505C102.386 32.0625 102.999 32.3185 103.735 32.3185ZM112.242 26.4305V31.3105C112.242 31.6412 112.317 31.8812 112.466 32.0305C112.626 32.1692 112.893 32.2385 113.266 32.2385H114.386V33.7585H112.946C112.125 33.7585 111.495 33.5665 111.058 33.1825C110.621 32.7985 110.402 32.1745 110.402 31.3105V26.4305H109.362V24.9425H110.402V22.7505H112.242V24.9425H114.386V26.4305H112.242ZM124.003 24.9425L118.595 37.9025H116.707L118.499 33.6145L115.027 24.9425H117.059L119.539 31.6625L122.115 24.9425H124.003ZM127.204 26.2385C127.513 25.8332 127.934 25.4919 128.468 25.2145C129.001 24.9372 129.604 24.7985 130.276 24.7985C131.044 24.7985 131.742 24.9905 132.372 25.3745C133.012 25.7479 133.513 26.2759 133.876 26.9585C134.238 27.6412 134.42 28.4252 134.42 29.3105C134.42 30.1959 134.238 30.9905 133.876 31.6945C133.513 32.3879 133.012 32.9319 132.372 33.3265C131.742 33.7105 131.044 33.9025 130.276 33.9025C129.604 33.9025 129.006 33.7692 128.484 33.5025C127.961 33.2252 127.534 32.8839 127.204 32.4785V37.9505H125.38V24.9425H127.204V26.2385ZM132.564 29.3105C132.564 28.7025 132.436 28.1799 132.18 27.7425C131.934 27.2945 131.604 26.9585 131.188 26.7345C130.782 26.4999 130.345 26.3825 129.876 26.3825C129.417 26.3825 128.98 26.4999 128.564 26.7345C128.158 26.9692 127.828 27.3105 127.572 27.7585C127.326 28.2065 127.204 28.7345 127.204 29.3425C127.204 29.9505 127.326 30.4839 127.572 30.9425C127.828 31.3905 128.158 31.7319 128.564 31.9665C128.98 32.2012 129.417 32.3185 129.876 32.3185C130.345 32.3185 130.782 32.2012 131.188 31.9665C131.604 31.7212 131.934 31.3692 132.18 30.9105C132.436 30.4519 132.564 29.9185 132.564 29.3105ZM144.303 29.1345C144.303 29.4652 144.282 29.7639 144.239 30.0305H137.503C137.557 30.7345 137.818 31.2999 138.287 31.7265C138.757 32.1532 139.333 32.3665 140.015 32.3665C140.997 32.3665 141.69 31.9559 142.095 31.1345H144.063C143.797 31.9452 143.311 32.6119 142.607 33.1345C141.914 33.6465 141.05 33.9025 140.015 33.9025C139.173 33.9025 138.415 33.7159 137.743 33.3425C137.082 32.9585 136.559 32.4252 136.175 31.7425C135.802 31.0492 135.615 30.2492 135.615 29.3425C135.615 28.4359 135.797 27.6412 136.159 26.9585C136.533 26.2652 137.05 25.7319 137.711 25.3585C138.383 24.9852 139.151 24.7985 140.015 24.7985C140.847 24.7985 141.589 24.9799 142.239 25.3425C142.89 25.7052 143.397 26.2172 143.759 26.8785C144.122 27.5292 144.303 28.2812 144.303 29.1345ZM142.399 28.5585C142.389 27.8865 142.149 27.3479 141.679 26.9425C141.21 26.5372 140.629 26.3345 139.935 26.3345C139.306 26.3345 138.767 26.5372 138.319 26.9425C137.871 27.3372 137.605 27.8759 137.519 28.5585H142.399ZM158.191 24.9425L152.783 37.9025H150.895L152.687 33.6145L149.215 24.9425H151.247L153.727 31.6625L156.303 24.9425H158.191ZM163.391 33.9025C162.559 33.9025 161.807 33.7159 161.135 33.3425C160.463 32.9585 159.935 32.4252 159.551 31.7425C159.167 31.0492 158.975 30.2492 158.975 29.3425C158.975 28.4465 159.173 27.6519 159.567 26.9585C159.962 26.2652 160.501 25.7319 161.183 25.3585C161.866 24.9852 162.629 24.7985 163.471 24.7985C164.314 24.7985 165.077 24.9852 165.759 25.3585C166.442 25.7319 166.981 26.2652 167.375 26.9585C167.77 27.6519 167.967 28.4465 167.967 29.3425C167.967 30.2385 167.765 31.0332 167.359 31.7265C166.954 32.4199 166.399 32.9585 165.695 33.3425C165.002 33.7159 164.234 33.9025 163.391 33.9025ZM163.391 32.3185C163.861 32.3185 164.298 32.2065 164.703 31.9825C165.119 31.7585 165.455 31.4225 165.711 30.9745C165.967 30.5265 166.095 29.9825 166.095 29.3425C166.095 28.7025 165.973 28.1639 165.727 27.7265C165.482 27.2785 165.157 26.9425 164.751 26.7185C164.346 26.4945 163.909 26.3825 163.439 26.3825C162.97 26.3825 162.533 26.4945 162.127 26.7185C161.733 26.9425 161.418 27.2785 161.183 27.7265C160.949 28.1639 160.831 28.7025 160.831 29.3425C160.831 30.2919 161.071 31.0279 161.551 31.5505C162.042 32.0625 162.655 32.3185 163.391 32.3185ZM177.754 24.9425V33.7585H175.93V32.7185C175.642 33.0812 175.264 33.3692 174.794 33.5825C174.336 33.7852 173.845 33.8865 173.322 33.8865C172.629 33.8865 172.005 33.7425 171.45 33.4545C170.906 33.1665 170.474 32.7399 170.154 32.1745C169.845 31.6092 169.69 30.9265 169.69 30.1265V24.9425H171.498V29.8545C171.498 30.6439 171.696 31.2519 172.09 31.6785C172.485 32.0945 173.024 32.3025 173.706 32.3025C174.389 32.3025 174.928 32.0945 175.322 31.6785C175.728 31.2519 175.93 30.6439 175.93 29.8545V24.9425H177.754ZM181.985 26.2225C182.252 25.7745 182.604 25.4279 183.041 25.1825C183.489 24.9265 184.017 24.7985 184.625 24.7985V26.6865H184.161C183.446 26.6865 182.902 26.8679 182.529 27.2305C182.166 27.5932 181.985 28.2225 181.985 29.1185V33.7585H180.161V24.9425H181.985V26.2225ZM189.85 29.3105C189.85 28.4252 190.031 27.6412 190.394 26.9585C190.767 26.2759 191.268 25.7479 191.898 25.3745C192.538 24.9905 193.242 24.7985 194.01 24.7985C194.703 24.7985 195.306 24.9372 195.818 25.2145C196.34 25.4812 196.756 25.8172 197.066 26.2225V24.9425H198.906V33.7585H197.066V32.4465C196.756 32.8625 196.335 33.2092 195.802 33.4865C195.268 33.7639 194.66 33.9025 193.978 33.9025C193.22 33.9025 192.527 33.7105 191.898 33.3265C191.268 32.9319 190.767 32.3879 190.394 31.6945C190.031 30.9905 189.85 30.1959 189.85 29.3105ZM197.066 29.3425C197.066 28.7345 196.938 28.2065 196.682 27.7585C196.436 27.3105 196.111 26.9692 195.706 26.7345C195.3 26.4999 194.863 26.3825 194.394 26.3825C193.924 26.3825 193.487 26.4999 193.082 26.7345C192.676 26.9585 192.346 27.2945 192.09 27.7425C191.844 28.1799 191.722 28.7025 191.722 29.3105C191.722 29.9185 191.844 30.4519 192.09 30.9105C192.346 31.3692 192.676 31.7212 193.082 31.9665C193.498 32.2012 193.935 32.3185 194.394 32.3185C194.863 32.3185 195.3 32.2012 195.706 31.9665C196.111 31.7319 196.436 31.3905 196.682 30.9425C196.938 30.4839 197.066 29.9505 197.066 29.3425ZM203.126 26.2385C203.435 25.8332 203.856 25.4919 204.39 25.2145C204.923 24.9372 205.526 24.7985 206.198 24.7985C206.966 24.7985 207.664 24.9905 208.294 25.3745C208.934 25.7479 209.435 26.2759 209.798 26.9585C210.16 27.6412 210.342 28.4252 210.342 29.3105C210.342 30.1959 210.16 30.9905 209.798 31.6945C209.435 32.3879 208.934 32.9319 208.294 33.3265C207.664 33.7105 206.966 33.9025 206.198 33.9025C205.526 33.9025 204.928 33.7692 204.406 33.5025C203.883 33.2252 203.456 32.8839 203.126 32.4785V37.9505H201.302V24.9425H203.126V26.2385ZM208.486 29.3105C208.486 28.7025 208.358 28.1799 208.102 27.7425C207.856 27.2945 207.526 26.9585 207.11 26.7345C206.704 26.4999 206.267 26.3825 205.798 26.3825C205.339 26.3825 204.902 26.4999 204.486 26.7345C204.08 26.9692 203.75 27.3105 203.494 27.7585C203.248 28.2065 203.126 28.7345 203.126 29.3425C203.126 29.9505 203.248 30.4839 203.494 30.9425C203.75 31.3905 204.08 31.7319 204.486 31.9665C204.902 32.2012 205.339 32.3185 205.798 32.3185C206.267 32.3185 206.704 32.2012 207.11 31.9665C207.526 31.7212 207.856 31.3692 208.102 30.9105C208.358 30.4519 208.486 29.9185 208.486 29.3105ZM213.969 26.2385C214.279 25.8332 214.7 25.4919 215.233 25.2145C215.767 24.9372 216.369 24.7985 217.041 24.7985C217.809 24.7985 218.508 24.9905 219.137 25.3745C219.777 25.7479 220.279 26.2759 220.641 26.9585C221.004 27.6412 221.185 28.4252 221.185 29.3105C221.185 30.1959 221.004 30.9905 220.641 31.6945C220.279 32.3879 219.777 32.9319 219.137 33.3265C218.508 33.7105 217.809 33.9025 217.041 33.9025C216.369 33.9025 215.772 33.7692 215.249 33.5025C214.727 33.2252 214.3 32.8839 213.969 32.4785V37.9505H212.145V24.9425H213.969V26.2385ZM219.329 29.3105C219.329 28.7025 219.201 28.1799 218.945 27.7425C218.7 27.2945 218.369 26.9585 217.953 26.7345C217.548 26.4999 217.111 26.3825 216.641 26.3825C216.183 26.3825 215.745 26.4999 215.329 26.7345C214.924 26.9692 214.593 27.3105 214.337 27.7585C214.092 28.2065 213.969 28.7345 213.969 29.3425C213.969 29.9505 214.092 30.4839 214.337 30.9425C214.593 31.3905 214.924 31.7319 215.329 31.9665C215.745 32.2012 216.183 32.3185 216.641 32.3185C217.111 32.3185 217.548 32.2012 217.953 31.9665C218.369 31.7212 218.7 31.3692 218.945 30.9105C219.201 30.4519 219.329 29.9185 219.329 29.3105Z" fill="#2F281E"/>
</g>
<defs>
<filter id="filter0_d_17_202" x="-8" y="-5.24146" width="256" height="75" filterUnits="userSpaceOnUse" color-interpolation-filters="sRGB">
<feFlood flood-opacity="0" result="BackgroundImageFix"/>
<feColorMatrix in="SourceAlpha" type="matrix" values="0 0 0 0 0 0 0 0 0 0 0 0 0 0 0 0 0 0 127 0" result="hardAlpha"/>
<feOffset dy="2"/>
<feGaussianBlur stdDeviation="4"/>
<feColorMatrix type="matrix" values="0 0 0 0 0.337255 0 0 0 0 0.458824 0 0 0 0 0.572549 0 0 0 0.1 0"/>
<feBlend mode="normal" in2="BackgroundImageFix" result="effect1_dropShadow_17_202"/>
<feBlend mode="normal" in="SourceGraphic" in2="effect1_dropShadow_17_202" result="shape"/>
</filter>
<filter id="filter1_d_17_202" x="199" y="48.7585" width="39" height="39" filterUnits="userSpaceOnUse" color-interpolation-filters="sRGB">
<feFlood flood-opacity="0" result="BackgroundImageFix"/>
<feColorMatrix in="SourceAlpha" type="matrix" values="0 0 0 0 0 0 0 0 0 0 0 0 0 0 0 0 0 0 127 0" result="hardAlpha"/>
<feOffset dy="2"/>
<feGaussianBlur stdDeviation="7.5"/>
<feColorMatrix type="matrix" values="0 0 0 0 0.0901961 0 0 0 0 0.227451 0 0 0 0 0.337255 0 0 0 0.1 0"/>
<feBlend mode="normal" in2="BackgroundImageFix" result="effect1_dropShadow_17_202"/>
<feBlend mode="normal" in="SourceGraphic" in2="effect1_dropShadow_17_202" result="shape"/>
</filter>
<clipPath id="clip0_17_202">
<rect width="240" height="70" fill="white" transform="translate(0 0.758545)"/>
</clipPath>
</defs>
</svg>
