<svg width="274" height="71" viewBox="0 0 274 71" fill="none" xmlns="http://www.w3.org/2000/svg">
<g clip-path="url(#clip0_1_75)">
<g filter="url(#filter0_d_1_75)">
<path fill-rule="evenodd" clip-rule="evenodd" d="M26.5 0.542969C11.8645 0.542969 0 12.4074 0 27.043C0 41.6785 11.8645 53.543 26.5 53.543H32.3736C33.4412 57.0173 36.6756 59.543 40.5 59.543C44.3244 59.543 47.5588 57.0173 48.6264 53.543H247.5C262.136 53.543 274 41.6785 274 27.043C274 12.4074 262.136 0.542969 247.5 0.542969H26.5Z" fill="white"/>
</g>
<g filter="url(#filter1_d_1_75)">
<circle cx="25.5" cy="66.043" r="4.5" fill="white"/>
</g>
<path d="M28.024 22.423V33.543H26.2V22.423H28.024ZM33.967 29.127C33.967 28.2203 34.1483 27.4256 34.511 26.743C34.8843 26.0496 35.3963 25.5163 36.047 25.143C36.6977 24.7696 37.4443 24.583 38.287 24.583C39.3537 24.583 40.2337 24.839 40.927 25.351C41.631 25.8523 42.1057 26.5723 42.351 27.511H40.383C40.223 27.0736 39.967 26.7323 39.615 26.487C39.263 26.2416 38.8203 26.119 38.287 26.119C37.5403 26.119 36.943 26.3856 36.495 26.919C36.0577 27.4416 35.839 28.1776 35.839 29.127C35.839 30.0763 36.0577 30.8176 36.495 31.351C36.943 31.8843 37.5403 32.151 38.287 32.151C39.343 32.151 40.0417 31.687 40.383 30.759H42.351C42.095 31.655 41.615 32.3696 40.911 32.903C40.207 33.4256 39.3323 33.687 38.287 33.687C37.4443 33.687 36.6977 33.5003 36.047 33.127C35.3963 32.743 34.8843 32.2096 34.511 31.527C34.1483 30.8336 33.967 30.0336 33.967 29.127ZM43.5608 29.095C43.5608 28.2096 43.7421 27.4256 44.1048 26.743C44.4781 26.0603 44.9794 25.5323 45.6088 25.159C46.2488 24.775 46.9528 24.583 47.7208 24.583C48.4141 24.583 49.0168 24.7216 49.5288 24.999C50.0514 25.2656 50.4674 25.6016 50.7768 26.007V24.727H52.6168V33.543H50.7768V32.231C50.4674 32.647 50.0461 32.9936 49.5128 33.271C48.9794 33.5483 48.3714 33.687 47.6888 33.687C46.9314 33.687 46.2381 33.495 45.6088 33.111C44.9794 32.7163 44.4781 32.1723 44.1048 31.479C43.7421 30.775 43.5608 29.9803 43.5608 29.095ZM50.7768 29.127C50.7768 28.519 50.6488 27.991 50.3928 27.543C50.1474 27.095 49.8221 26.7536 49.4168 26.519C49.0114 26.2843 48.5741 26.167 48.1048 26.167C47.6354 26.167 47.1981 26.2843 46.7928 26.519C46.3874 26.743 46.0568 27.079 45.8008 27.527C45.5554 27.9643 45.4328 28.487 45.4328 29.095C45.4328 29.703 45.5554 30.2363 45.8008 30.695C46.0568 31.1536 46.3874 31.5056 46.7928 31.751C47.2088 31.9856 47.6461 32.103 48.1048 32.103C48.5741 32.103 49.0114 31.9856 49.4168 31.751C49.8221 31.5163 50.1474 31.175 50.3928 30.727C50.6488 30.2683 50.7768 29.735 50.7768 29.127ZM59.4605 24.583C60.1538 24.583 60.7725 24.727 61.3165 25.015C61.8712 25.303 62.3032 25.7296 62.6125 26.295C62.9218 26.8603 63.0765 27.543 63.0765 28.343V33.543H61.2685V28.615C61.2685 27.8256 61.0712 27.223 60.6765 26.807C60.2818 26.3803 59.7432 26.167 59.0605 26.167C58.3778 26.167 57.8338 26.3803 57.4285 26.807C57.0338 27.223 56.8365 27.8256 56.8365 28.615V33.543H55.0125V24.727H56.8365V25.735C57.1352 25.3723 57.5138 25.0896 57.9725 24.887C58.4418 24.6843 58.9378 24.583 59.4605 24.583ZM71.6874 26.215V31.095C71.6874 31.4256 71.762 31.6656 71.9114 31.815C72.0714 31.9536 72.338 32.023 72.7114 32.023H73.8314V33.543H72.3914C71.57 33.543 70.9407 33.351 70.5034 32.967C70.066 32.583 69.8474 31.959 69.8474 31.095V26.215H68.8074V24.727H69.8474V22.535H71.6874V24.727H73.8314V26.215H71.6874ZM74.9045 29.095C74.9045 28.2096 75.0858 27.4256 75.4485 26.743C75.8218 26.0603 76.3232 25.5323 76.9525 25.159C77.5925 24.775 78.2965 24.583 79.0645 24.583C79.7578 24.583 80.3605 24.7216 80.8725 24.999C81.3952 25.2656 81.8112 25.6016 82.1205 26.007V24.727H83.9605V33.543H82.1205V32.231C81.8112 32.647 81.3898 32.9936 80.8565 33.271C80.3232 33.5483 79.7152 33.687 79.0325 33.687C78.2752 33.687 77.5818 33.495 76.9525 33.111C76.3232 32.7163 75.8218 32.1723 75.4485 31.479C75.0858 30.775 74.9045 29.9803 74.9045 29.095ZM82.1205 29.127C82.1205 28.519 81.9925 27.991 81.7365 27.543C81.4912 27.095 81.1658 26.7536 80.7605 26.519C80.3552 26.2843 79.9178 26.167 79.4485 26.167C78.9792 26.167 78.5418 26.2843 78.1365 26.519C77.7312 26.743 77.4005 27.079 77.1445 27.527C76.8992 27.9643 76.7765 28.487 76.7765 29.095C76.7765 29.703 76.8992 30.2363 77.1445 30.695C77.4005 31.1536 77.7312 31.5056 78.1365 31.751C78.5525 31.9856 78.9898 32.103 79.4485 32.103C79.9178 32.103 80.3552 31.9856 80.7605 31.751C81.1658 31.5163 81.4912 31.175 81.7365 30.727C81.9925 30.2683 82.1205 29.735 82.1205 29.127ZM89.8443 29.143L93.9083 33.543H91.4443L88.1803 29.751V33.543H86.3563V21.703H88.1803V28.583L91.3803 24.727H93.9083L89.8443 29.143ZM103.296 28.919C103.296 29.2496 103.274 29.5483 103.232 29.815H96.4956C96.549 30.519 96.8103 31.0843 97.2796 31.511C97.749 31.9376 98.325 32.151 99.0076 32.151C99.989 32.151 100.682 31.7403 101.088 30.919H103.056C102.789 31.7296 102.304 32.3963 101.6 32.919C100.906 33.431 100.042 33.687 99.0076 33.687C98.165 33.687 97.4076 33.5003 96.7356 33.127C96.0743 32.743 95.5516 32.2096 95.1676 31.527C94.7943 30.8336 94.6076 30.0336 94.6076 29.127C94.6076 28.2203 94.789 27.4256 95.1516 26.743C95.525 26.0496 96.0423 25.5163 96.7036 25.143C97.3756 24.7696 98.1436 24.583 99.0076 24.583C99.8396 24.583 100.581 24.7643 101.232 25.127C101.882 25.4896 102.389 26.0016 102.752 26.663C103.114 27.3136 103.296 28.0656 103.296 28.919ZM101.392 28.343C101.381 27.671 101.141 27.1323 100.672 26.727C100.202 26.3216 99.621 26.119 98.9276 26.119C98.2983 26.119 97.7596 26.3216 97.3116 26.727C96.8636 27.1216 96.597 27.6603 96.5116 28.343H101.392ZM108.639 29.127C108.639 28.2203 108.82 27.4256 109.183 26.743C109.556 26.0496 110.068 25.5163 110.719 25.143C111.37 24.7696 112.116 24.583 112.959 24.583C114.026 24.583 114.906 24.839 115.599 25.351C116.303 25.8523 116.778 26.5723 117.023 27.511H115.055C114.895 27.0736 114.639 26.7323 114.287 26.487C113.935 26.2416 113.492 26.119 112.959 26.119C112.212 26.119 111.615 26.3856 111.167 26.919C110.73 27.4416 110.511 28.1776 110.511 29.127C110.511 30.0763 110.73 30.8176 111.167 31.351C111.615 31.8843 112.212 32.151 112.959 32.151C114.015 32.151 114.714 31.687 115.055 30.759H117.023C116.767 31.655 116.287 32.3696 115.583 32.903C114.879 33.4256 114.004 33.687 112.959 33.687C112.116 33.687 111.37 33.5003 110.719 33.127C110.068 32.743 109.556 32.2096 109.183 31.527C108.82 30.8336 108.639 30.0336 108.639 29.127ZM118.233 29.095C118.233 28.2096 118.414 27.4256 118.777 26.743C119.15 26.0603 119.651 25.5323 120.281 25.159C120.921 24.775 121.625 24.583 122.393 24.583C123.086 24.583 123.689 24.7216 124.201 24.999C124.723 25.2656 125.139 25.6016 125.449 26.007V24.727H127.289V33.543H125.449V32.231C125.139 32.647 124.718 32.9936 124.185 33.271C123.651 33.5483 123.043 33.687 122.361 33.687C121.603 33.687 120.91 33.495 120.281 33.111C119.651 32.7163 119.15 32.1723 118.777 31.479C118.414 30.775 118.233 29.9803 118.233 29.095ZM125.449 29.127C125.449 28.519 125.321 27.991 125.065 27.543C124.819 27.095 124.494 26.7536 124.089 26.519C123.683 26.2843 123.246 26.167 122.777 26.167C122.307 26.167 121.87 26.2843 121.465 26.519C121.059 26.743 120.729 27.079 120.473 27.527C120.227 27.9643 120.105 28.487 120.105 29.095C120.105 29.703 120.227 30.2363 120.473 30.695C120.729 31.1536 121.059 31.5056 121.465 31.751C121.881 31.9856 122.318 32.103 122.777 32.103C123.246 32.103 123.683 31.9856 124.089 31.751C124.494 31.5163 124.819 31.175 125.065 30.727C125.321 30.2683 125.449 29.735 125.449 29.127ZM131.508 26.007C131.775 25.559 132.127 25.2123 132.564 24.967C133.012 24.711 133.54 24.583 134.148 24.583V26.471H133.684C132.97 26.471 132.426 26.6523 132.052 27.015C131.69 27.3776 131.508 28.007 131.508 28.903V33.543H129.684V24.727H131.508V26.007ZM143.905 28.919C143.905 29.2496 143.884 29.5483 143.841 29.815H137.105C137.158 30.519 137.42 31.0843 137.889 31.511C138.358 31.9376 138.934 32.151 139.617 32.151C140.598 32.151 141.292 31.7403 141.697 30.919H143.665C143.398 31.7296 142.913 32.3963 142.209 32.919C141.516 33.431 140.652 33.687 139.617 33.687C138.774 33.687 138.017 33.5003 137.345 33.127C136.684 32.743 136.161 32.2096 135.777 31.527C135.404 30.8336 135.217 30.0336 135.217 29.127C135.217 28.2203 135.398 27.4256 135.761 26.743C136.134 26.0496 136.652 25.5163 137.313 25.143C137.985 24.7696 138.753 24.583 139.617 24.583C140.449 24.583 141.19 24.7643 141.841 25.127C142.492 25.4896 142.998 26.0016 143.361 26.663C143.724 27.3136 143.905 28.0656 143.905 28.919ZM142.001 28.343C141.99 27.671 141.75 27.1323 141.281 26.727C140.812 26.3216 140.23 26.119 139.537 26.119C138.908 26.119 138.369 26.3216 137.921 26.727C137.473 27.1216 137.206 27.6603 137.121 28.343H142.001ZM153.68 33.687C152.848 33.687 152.096 33.5003 151.424 33.127C150.752 32.743 150.224 32.2096 149.84 31.527C149.456 30.8336 149.264 30.0336 149.264 29.127C149.264 28.231 149.462 27.4363 149.856 26.743C150.251 26.0496 150.79 25.5163 151.472 25.143C152.155 24.7696 152.918 24.583 153.76 24.583C154.603 24.583 155.366 24.7696 156.048 25.143C156.731 25.5163 157.27 26.0496 157.664 26.743C158.059 27.4363 158.256 28.231 158.256 29.127C158.256 30.023 158.054 30.8176 157.648 31.511C157.243 32.2043 156.688 32.743 155.984 33.127C155.291 33.5003 154.523 33.687 153.68 33.687ZM153.68 32.103C154.15 32.103 154.587 31.991 154.992 31.767C155.408 31.543 155.744 31.207 156 30.759C156.256 30.311 156.384 29.767 156.384 29.127C156.384 28.487 156.262 27.9483 156.016 27.511C155.771 27.063 155.446 26.727 155.04 26.503C154.635 26.279 154.198 26.167 153.728 26.167C153.259 26.167 152.822 26.279 152.416 26.503C152.022 26.727 151.707 27.063 151.472 27.511C151.238 27.9483 151.12 28.487 151.12 29.127C151.12 30.0763 151.36 30.8123 151.84 31.335C152.331 31.847 152.944 32.103 153.68 32.103ZM163.755 26.215H162.123V33.543H160.283V26.215H159.243V24.727H160.283V24.103C160.283 23.0896 160.55 22.3536 161.083 21.895C161.627 21.4256 162.475 21.191 163.627 21.191V22.711C163.073 22.711 162.683 22.8176 162.459 23.031C162.235 23.2336 162.123 23.591 162.123 24.103V24.727H163.755V26.215ZM177.464 24.727L172.056 37.687H170.168L171.96 33.399L168.488 24.727H170.52L173 31.447L175.576 24.727H177.464ZM182.665 33.687C181.833 33.687 181.081 33.5003 180.409 33.127C179.737 32.743 179.209 32.2096 178.825 31.527C178.441 30.8336 178.249 30.0336 178.249 29.127C178.249 28.231 178.446 27.4363 178.841 26.743C179.235 26.0496 179.774 25.5163 180.457 25.143C181.139 24.7696 181.902 24.583 182.745 24.583C183.587 24.583 184.35 24.7696 185.033 25.143C185.715 25.5163 186.254 26.0496 186.649 26.743C187.043 27.4363 187.241 28.231 187.241 29.127C187.241 30.023 187.038 30.8176 186.633 31.511C186.227 32.2043 185.673 32.743 184.969 33.127C184.275 33.5003 183.507 33.687 182.665 33.687ZM182.665 32.103C183.134 32.103 183.571 31.991 183.977 31.767C184.393 31.543 184.729 31.207 184.985 30.759C185.241 30.311 185.369 29.767 185.369 29.127C185.369 28.487 185.246 27.9483 185.001 27.511C184.755 27.063 184.43 26.727 184.025 26.503C183.619 26.279 183.182 26.167 182.713 26.167C182.243 26.167 181.806 26.279 181.401 26.503C181.006 26.727 180.691 27.063 180.457 27.511C180.222 27.9483 180.105 28.487 180.105 29.127C180.105 30.0763 180.345 30.8123 180.825 31.335C181.315 31.847 181.929 32.103 182.665 32.103ZM197.028 24.727V33.543H195.204V32.503C194.916 32.8656 194.537 33.1536 194.068 33.367C193.609 33.5696 193.118 33.671 192.596 33.671C191.902 33.671 191.278 33.527 190.724 33.239C190.18 32.951 189.748 32.5243 189.428 31.959C189.118 31.3936 188.964 30.711 188.964 29.911V24.727H190.772V29.639C190.772 30.4283 190.969 31.0363 191.364 31.463C191.758 31.879 192.297 32.087 192.98 32.087C193.662 32.087 194.201 31.879 194.596 31.463C195.001 31.0363 195.204 30.4283 195.204 29.639V24.727H197.028ZM201.258 26.007C201.525 25.559 201.877 25.2123 202.314 24.967C202.762 24.711 203.29 24.583 203.898 24.583V26.471H203.434C202.72 26.471 202.176 26.6523 201.802 27.015C201.44 27.3776 201.258 28.007 201.258 28.903V33.543H199.434V24.727H201.258V26.007ZM211.555 26.023C211.865 25.6176 212.286 25.2763 212.819 24.999C213.353 24.7216 213.955 24.583 214.627 24.583C215.395 24.583 216.094 24.775 216.723 25.159C217.363 25.5323 217.865 26.0603 218.227 26.743C218.59 27.4256 218.771 28.2096 218.771 29.095C218.771 29.9803 218.59 30.775 218.227 31.479C217.865 32.1723 217.363 32.7163 216.723 33.111C216.094 33.495 215.395 33.687 214.627 33.687C213.955 33.687 213.358 33.5536 212.835 33.287C212.313 33.0096 211.886 32.6683 211.555 32.263V37.735H209.731V24.727H211.555V26.023ZM216.915 29.095C216.915 28.487 216.787 27.9643 216.531 27.527C216.286 27.079 215.955 26.743 215.539 26.519C215.134 26.2843 214.697 26.167 214.227 26.167C213.769 26.167 213.331 26.2843 212.915 26.519C212.51 26.7536 212.179 27.095 211.923 27.543C211.678 27.991 211.555 28.519 211.555 29.127C211.555 29.735 211.678 30.2683 211.923 30.727C212.179 31.175 212.51 31.5163 212.915 31.751C213.331 31.9856 213.769 32.103 214.227 32.103C214.697 32.103 215.134 31.9856 215.539 31.751C215.955 31.5056 216.286 31.1536 216.531 30.695C216.787 30.2363 216.915 29.703 216.915 29.095ZM221.503 23.559C221.172 23.559 220.895 23.447 220.671 23.223C220.447 22.999 220.335 22.7216 220.335 22.391C220.335 22.0603 220.447 21.783 220.671 21.559C220.895 21.335 221.172 21.223 221.503 21.223C221.823 21.223 222.095 21.335 222.319 21.559C222.543 21.783 222.655 22.0603 222.655 22.391C222.655 22.7216 222.543 22.999 222.319 23.223C222.095 23.447 221.823 23.559 221.503 23.559ZM222.399 24.727V33.543H220.575V24.727H222.399ZM226.922 26.215V31.095C226.922 31.4256 226.996 31.6656 227.146 31.815C227.306 31.9536 227.572 32.023 227.946 32.023H229.066V33.543H227.626C226.804 33.543 226.175 33.351 225.738 32.967C225.3 32.583 225.082 31.959 225.082 31.095V26.215H224.042V24.727H225.082V22.535H226.922V24.727H229.066V26.215H226.922ZM230.139 29.127C230.139 28.2203 230.32 27.4256 230.683 26.743C231.056 26.0496 231.568 25.5163 232.219 25.143C232.87 24.7696 233.616 24.583 234.459 24.583C235.526 24.583 236.406 24.839 237.099 25.351C237.803 25.8523 238.278 26.5723 238.523 27.511H236.555C236.395 27.0736 236.139 26.7323 235.787 26.487C235.435 26.2416 234.992 26.119 234.459 26.119C233.712 26.119 233.115 26.3856 232.667 26.919C232.23 27.4416 232.011 28.1776 232.011 29.127C232.011 30.0763 232.23 30.8176 232.667 31.351C233.115 31.8843 233.712 32.151 234.459 32.151C235.515 32.151 236.214 31.687 236.555 30.759H238.523C238.267 31.655 237.787 32.3696 237.083 32.903C236.379 33.4256 235.504 33.687 234.459 33.687C233.616 33.687 232.87 33.5003 232.219 33.127C231.568 32.743 231.056 32.2096 230.683 31.527C230.32 30.8336 230.139 30.0336 230.139 29.127ZM244.901 24.583C245.573 24.583 246.17 24.727 246.693 25.015C247.226 25.303 247.642 25.7296 247.941 26.295C248.25 26.8603 248.405 27.543 248.405 28.343V33.543H246.597V28.615C246.597 27.8256 246.399 27.223 246.005 26.807C245.61 26.3803 245.071 26.167 244.389 26.167C243.706 26.167 243.162 26.3803 242.757 26.807C242.362 27.223 242.165 27.8256 242.165 28.615V33.543H240.341V21.703H242.165V25.751C242.474 25.3776 242.863 25.0896 243.333 24.887C243.813 24.6843 244.335 24.583 244.901 24.583Z" fill="#2F281E"/>
</g>
<defs>
<filter id="filter0_d_1_75" x="-8" y="-5.45703" width="290" height="75" filterUnits="userSpaceOnUse" color-interpolation-filters="sRGB">
<feFlood flood-opacity="0" result="BackgroundImageFix"/>
<feColorMatrix in="SourceAlpha" type="matrix" values="0 0 0 0 0 0 0 0 0 0 0 0 0 0 0 0 0 0 127 0" result="hardAlpha"/>
<feOffset dy="2"/>
<feGaussianBlur stdDeviation="4"/>
<feColorMatrix type="matrix" values="0 0 0 0 0.337255 0 0 0 0 0.458824 0 0 0 0 0.572549 0 0 0 0.1 0"/>
<feBlend mode="normal" in2="BackgroundImageFix" result="effect1_dropShadow_1_75"/>
<feBlend mode="normal" in="SourceGraphic" in2="effect1_dropShadow_1_75" result="shape"/>
</filter>
<filter id="filter1_d_1_75" x="6" y="48.543" width="39" height="39" filterUnits="userSpaceOnUse" color-interpolation-filters="sRGB">
<feFlood flood-opacity="0" result="BackgroundImageFix"/>
<feColorMatrix in="SourceAlpha" type="matrix" values="0 0 0 0 0 0 0 0 0 0 0 0 0 0 0 0 0 0 127 0" result="hardAlpha"/>
<feOffset dy="2"/>
<feGaussianBlur stdDeviation="7.5"/>
<feColorMatrix type="matrix" values="0 0 0 0 0.0901961 0 0 0 0 0.227451 0 0 0 0 0.337255 0 0 0 0.1 0"/>
<feBlend mode="normal" in2="BackgroundImageFix" result="effect1_dropShadow_1_75"/>
<feBlend mode="normal" in="SourceGraphic" in2="effect1_dropShadow_1_75" result="shape"/>
</filter>
<clipPath id="clip0_1_75">
<rect width="274" height="70" fill="white" transform="translate(0 0.542969)"/>
</clipPath>
</defs>
</svg>
