<svg width="274" height="71" viewBox="0 0 274 71" fill="none" xmlns="http://www.w3.org/2000/svg">
<g clip-path="url(#clip0_17_194)">
<g filter="url(#filter0_d_17_194)">
<path fill-rule="evenodd" clip-rule="evenodd" d="M26.5 0.758545C11.8645 0.758545 0 12.623 0 27.2585C0 41.8941 11.8645 53.7585 26.5 53.7585H32.3736C33.4412 57.2329 36.6756 59.7585 40.5 59.7585C44.3244 59.7585 47.5588 57.2329 48.6264 53.7585H247.5C262.136 53.7585 274 41.8941 274 27.2585C274 12.623 262.136 0.758545 247.5 0.758545H26.5Z" fill="white"/>
</g>
<g filter="url(#filter1_d_17_194)">
<circle cx="25.5" cy="66.2585" r="4.5" fill="white"/>
</g>
<path d="M22.024 20.88V32H20.2V20.88H22.024ZM27.967 27.584C27.967 26.6773 28.1483 25.8827 28.511 25.2C28.8843 24.5067 29.3963 23.9733 30.047 23.6C30.6977 23.2267 31.4443 23.04 32.287 23.04C33.3537 23.04 34.2337 23.296 34.927 23.808C35.631 24.3093 36.1057 25.0293 36.351 25.968H34.383C34.223 25.5307 33.967 25.1893 33.615 24.944C33.263 24.6987 32.8203 24.576 32.287 24.576C31.5403 24.576 30.943 24.8427 30.495 25.376C30.0577 25.8987 29.839 26.6347 29.839 27.584C29.839 28.5333 30.0577 29.2747 30.495 29.808C30.943 30.3413 31.5403 30.608 32.287 30.608C33.343 30.608 34.0417 30.144 34.383 29.216H36.351C36.095 30.112 35.615 30.8267 34.911 31.36C34.207 31.8827 33.3323 32.144 32.287 32.144C31.4443 32.144 30.6977 31.9573 30.047 31.584C29.3963 31.2 28.8843 30.6667 28.511 29.984C28.1483 29.2907 27.967 28.4907 27.967 27.584ZM37.5608 27.552C37.5608 26.6667 37.7421 25.8827 38.1048 25.2C38.4781 24.5173 38.9794 23.9893 39.6088 23.616C40.2488 23.232 40.9528 23.04 41.7208 23.04C42.4141 23.04 43.0168 23.1787 43.5288 23.456C44.0514 23.7227 44.4674 24.0587 44.7768 24.464V23.184H46.6168V32H44.7768V30.688C44.4674 31.104 44.0461 31.4507 43.5128 31.728C42.9794 32.0053 42.3714 32.144 41.6888 32.144C40.9314 32.144 40.2381 31.952 39.6088 31.568C38.9794 31.1733 38.4781 30.6293 38.1048 29.936C37.7421 29.232 37.5608 28.4373 37.5608 27.552ZM44.7768 27.584C44.7768 26.976 44.6488 26.448 44.3928 26C44.1474 25.552 43.8221 25.2107 43.4168 24.976C43.0114 24.7413 42.5741 24.624 42.1048 24.624C41.6354 24.624 41.1981 24.7413 40.7928 24.976C40.3874 25.2 40.0568 25.536 39.8008 25.984C39.5554 26.4213 39.4328 26.944 39.4328 27.552C39.4328 28.16 39.5554 28.6933 39.8008 29.152C40.0568 29.6107 40.3874 29.9627 40.7928 30.208C41.2088 30.4427 41.6461 30.56 42.1048 30.56C42.5741 30.56 43.0114 30.4427 43.4168 30.208C43.8221 29.9733 44.1474 29.632 44.3928 29.184C44.6488 28.7253 44.7768 28.192 44.7768 27.584ZM53.4605 23.04C54.1538 23.04 54.7725 23.184 55.3165 23.472C55.8712 23.76 56.3032 24.1867 56.6125 24.752C56.9218 25.3173 57.0765 26 57.0765 26.8V32H55.2685V27.072C55.2685 26.2827 55.0712 25.68 54.6765 25.264C54.2818 24.8373 53.7432 24.624 53.0605 24.624C52.3778 24.624 51.8338 24.8373 51.4285 25.264C51.0338 25.68 50.8365 26.2827 50.8365 27.072V32H49.0125V23.184H50.8365V24.192C51.1352 23.8293 51.5138 23.5467 51.9725 23.344C52.4418 23.1413 52.9378 23.04 53.4605 23.04ZM68.1194 23.04C68.7914 23.04 69.3887 23.184 69.9114 23.472C70.4447 23.76 70.8607 24.1867 71.1594 24.752C71.4687 25.3173 71.6234 26 71.6234 26.8V32H69.8154V27.072C69.8154 26.2827 69.618 25.68 69.2234 25.264C68.8287 24.8373 68.29 24.624 67.6074 24.624C66.9247 24.624 66.3807 24.8373 65.9754 25.264C65.5807 25.68 65.3834 26.2827 65.3834 27.072V32H63.5594V20.16H65.3834V24.208C65.6927 23.8347 66.082 23.5467 66.5514 23.344C67.0314 23.1413 67.554 23.04 68.1194 23.04ZM82.03 27.376C82.03 27.7067 82.0087 28.0053 81.966 28.272H75.23C75.2833 28.976 75.5447 29.5413 76.014 29.968C76.4833 30.3947 77.0593 30.608 77.742 30.608C78.7233 30.608 79.4167 30.1973 79.822 29.376H81.79C81.5233 30.1867 81.038 30.8533 80.334 31.376C79.6407 31.888 78.7767 32.144 77.742 32.144C76.8993 32.144 76.142 31.9573 75.47 31.584C74.8087 31.2 74.286 30.6667 73.902 29.984C73.5287 29.2907 73.342 28.4907 73.342 27.584C73.342 26.6773 73.5233 25.8827 73.886 25.2C74.2593 24.5067 74.7767 23.9733 75.438 23.6C76.11 23.2267 76.878 23.04 77.742 23.04C78.574 23.04 79.3153 23.2213 79.966 23.584C80.6167 23.9467 81.1233 24.4587 81.486 25.12C81.8487 25.7707 82.03 26.5227 82.03 27.376ZM80.126 26.8C80.1153 26.128 79.8753 25.5893 79.406 25.184C78.9367 24.7787 78.3553 24.576 77.662 24.576C77.0327 24.576 76.494 24.7787 76.046 25.184C75.598 25.5787 75.3313 26.1173 75.246 26.8H80.126ZM85.649 20.16V32H83.825V20.16H85.649ZM89.8678 24.48C90.1771 24.0747 90.5984 23.7333 91.1318 23.456C91.6651 23.1787 92.2678 23.04 92.9398 23.04C93.7078 23.04 94.4064 23.232 95.0358 23.616C95.6758 23.9893 96.1771 24.5173 96.5398 25.2C96.9024 25.8827 97.0838 26.6667 97.0838 27.552C97.0838 28.4373 96.9024 29.232 96.5398 29.936C96.1771 30.6293 95.6758 31.1733 95.0358 31.568C94.4064 31.952 93.7078 32.144 92.9398 32.144C92.2678 32.144 91.6704 32.0107 91.1478 31.744C90.6251 31.4667 90.1984 31.1253 89.8678 30.72V36.192H88.0438V23.184H89.8678V24.48ZM95.2278 27.552C95.2278 26.944 95.0998 26.4213 94.8438 25.984C94.5984 25.536 94.2678 25.2 93.8518 24.976C93.4464 24.7413 93.0091 24.624 92.5398 24.624C92.0811 24.624 91.6438 24.7413 91.2278 24.976C90.8224 25.2107 90.4918 25.552 90.2358 26C89.9904 26.448 89.8678 26.976 89.8678 27.584C89.8678 28.192 89.9904 28.7253 90.2358 29.184C90.4918 29.632 90.8224 29.9733 91.2278 30.208C91.6438 30.4427 92.0811 30.56 92.5398 30.56C93.0091 30.56 93.4464 30.4427 93.8518 30.208C94.2678 29.9627 94.5984 29.6107 94.8438 29.152C95.0998 28.6933 95.2278 28.16 95.2278 27.552ZM113.716 23.04C114.409 23.04 115.028 23.184 115.572 23.472C116.126 23.76 116.558 24.1867 116.868 24.752C117.188 25.3173 117.348 26 117.348 26.8V32H115.54V27.072C115.54 26.2827 115.342 25.68 114.948 25.264C114.553 24.8373 114.014 24.624 113.332 24.624C112.649 24.624 112.105 24.8373 111.7 25.264C111.305 25.68 111.108 26.2827 111.108 27.072V32H109.3V27.072C109.3 26.2827 109.102 25.68 108.708 25.264C108.313 24.8373 107.774 24.624 107.092 24.624C106.409 24.624 105.865 24.8373 105.46 25.264C105.065 25.68 104.868 26.2827 104.868 27.072V32H103.044V23.184H104.868V24.192C105.166 23.8293 105.545 23.5467 106.004 23.344C106.462 23.1413 106.953 23.04 107.476 23.04C108.18 23.04 108.809 23.1893 109.364 23.488C109.918 23.7867 110.345 24.2187 110.644 24.784C110.91 24.2507 111.326 23.8293 111.892 23.52C112.457 23.2 113.065 23.04 113.716 23.04ZM119.061 27.552C119.061 26.6667 119.242 25.8827 119.605 25.2C119.978 24.5173 120.479 23.9893 121.109 23.616C121.749 23.232 122.453 23.04 123.221 23.04C123.914 23.04 124.517 23.1787 125.029 23.456C125.551 23.7227 125.967 24.0587 126.277 24.464V23.184H128.117V32H126.277V30.688C125.967 31.104 125.546 31.4507 125.013 31.728C124.479 32.0053 123.871 32.144 123.189 32.144C122.431 32.144 121.738 31.952 121.109 31.568C120.479 31.1733 119.978 30.6293 119.605 29.936C119.242 29.232 119.061 28.4373 119.061 27.552ZM126.277 27.584C126.277 26.976 126.149 26.448 125.893 26C125.647 25.552 125.322 25.2107 124.917 24.976C124.511 24.7413 124.074 24.624 123.605 24.624C123.135 24.624 122.698 24.7413 122.293 24.976C121.887 25.2 121.557 25.536 121.301 25.984C121.055 26.4213 120.933 26.944 120.933 27.552C120.933 28.16 121.055 28.6933 121.301 29.152C121.557 29.6107 121.887 29.9627 122.293 30.208C122.709 30.4427 123.146 30.56 123.605 30.56C124.074 30.56 124.511 30.4427 124.917 30.208C125.322 29.9733 125.647 29.632 125.893 29.184C126.149 28.7253 126.277 28.192 126.277 27.584ZM132.337 24.464C132.603 24.016 132.955 23.6693 133.393 23.424C133.841 23.168 134.369 23.04 134.977 23.04V24.928H134.513C133.798 24.928 133.254 25.1093 132.881 25.472C132.518 25.8347 132.337 26.464 132.337 27.36V32H130.513V23.184H132.337V24.464ZM140.141 27.6L144.205 32H141.741L138.477 28.208V32H136.653V20.16H138.477V27.04L141.677 23.184H144.205L140.141 27.6ZM153.593 27.376C153.593 27.7067 153.571 28.0053 153.529 28.272H146.793C146.846 28.976 147.107 29.5413 147.577 29.968C148.046 30.3947 148.622 30.608 149.305 30.608C150.286 30.608 150.979 30.1973 151.385 29.376H153.352C153.086 30.1867 152.601 30.8533 151.897 31.376C151.203 31.888 150.339 32.144 149.305 32.144C148.462 32.144 147.705 31.9573 147.033 31.584C146.371 31.2 145.849 30.6667 145.465 29.984C145.091 29.2907 144.905 28.4907 144.905 27.584C144.905 26.6773 145.086 25.8827 145.449 25.2C145.822 24.5067 146.339 23.9733 147.001 23.6C147.673 23.2267 148.441 23.04 149.305 23.04C150.137 23.04 150.878 23.2213 151.529 23.584C152.179 23.9467 152.686 24.4587 153.049 25.12C153.411 25.7707 153.593 26.5227 153.593 27.376ZM151.689 26.8C151.678 26.128 151.438 25.5893 150.969 25.184C150.499 24.7787 149.918 24.576 149.225 24.576C148.595 24.576 148.057 24.7787 147.609 25.184C147.161 25.5787 146.894 26.1173 146.809 26.8H151.689ZM157.516 24.672V29.552C157.516 29.8827 157.59 30.1227 157.74 30.272C157.9 30.4107 158.166 30.48 158.54 30.48H159.66V32H158.22C157.398 32 156.769 31.808 156.332 31.424C155.894 31.04 155.676 30.416 155.676 29.552V24.672H154.636V23.184H155.676V20.992H157.516V23.184H159.66V24.672H157.516ZM162.269 22.016C161.938 22.016 161.661 21.904 161.437 21.68C161.213 21.456 161.101 21.1787 161.101 20.848C161.101 20.5173 161.213 20.24 161.437 20.016C161.661 19.792 161.938 19.68 162.269 19.68C162.589 19.68 162.861 19.792 163.085 20.016C163.309 20.24 163.421 20.5173 163.421 20.848C163.421 21.1787 163.309 21.456 163.085 21.68C162.861 21.904 162.589 22.016 162.269 22.016ZM163.165 23.184V32H161.341V23.184H163.165ZM170.007 23.04C170.701 23.04 171.319 23.184 171.863 23.472C172.418 23.76 172.85 24.1867 173.159 24.752C173.469 25.3173 173.623 26 173.623 26.8V32H171.815V27.072C171.815 26.2827 171.618 25.68 171.223 25.264C170.829 24.8373 170.29 24.624 169.607 24.624C168.925 24.624 168.381 24.8373 167.975 25.264C167.581 25.68 167.383 26.2827 167.383 27.072V32H165.559V23.184H167.383V24.192C167.682 23.8293 168.061 23.5467 168.519 23.344C168.989 23.1413 169.485 23.04 170.007 23.04ZM179.502 23.04C180.185 23.04 180.787 23.1787 181.31 23.456C181.843 23.7227 182.259 24.0587 182.558 24.464V23.184H184.398V32.144C184.398 32.9547 184.227 33.6747 183.886 34.304C183.545 34.944 183.049 35.4453 182.398 35.808C181.758 36.1707 180.99 36.352 180.094 36.352C178.899 36.352 177.907 36.0693 177.118 35.504C176.329 34.9493 175.881 34.192 175.774 33.232H177.582C177.721 33.6907 178.014 34.0587 178.462 34.336C178.921 34.624 179.465 34.768 180.094 34.768C180.83 34.768 181.422 34.544 181.87 34.096C182.329 33.648 182.558 32.9973 182.558 32.144V30.672C182.249 31.088 181.827 31.44 181.294 31.728C180.771 32.0053 180.174 32.144 179.502 32.144C178.734 32.144 178.03 31.952 177.39 31.568C176.761 31.1733 176.259 30.6293 175.886 29.936C175.523 29.232 175.342 28.4373 175.342 27.552C175.342 26.6667 175.523 25.8827 175.886 25.2C176.259 24.5173 176.761 23.9893 177.39 23.616C178.03 23.232 178.734 23.04 179.502 23.04ZM182.558 27.584C182.558 26.976 182.43 26.448 182.174 26C181.929 25.552 181.603 25.2107 181.198 24.976C180.793 24.7413 180.355 24.624 179.886 24.624C179.417 24.624 178.979 24.7413 178.574 24.976C178.169 25.2 177.838 25.536 177.582 25.984C177.337 26.4213 177.214 26.944 177.214 27.552C177.214 28.16 177.337 28.6933 177.582 29.152C177.838 29.6107 178.169 29.9627 178.574 30.208C178.99 30.4427 179.427 30.56 179.886 30.56C180.355 30.56 180.793 30.4427 181.198 30.208C181.603 29.9733 181.929 29.632 182.174 29.184C182.43 28.7253 182.558 28.192 182.558 27.584ZM194.15 32.144C193.457 32.144 192.833 32.0213 192.278 31.776C191.734 31.52 191.302 31.1787 190.982 30.752C190.662 30.3147 190.491 29.8293 190.47 29.296H192.358C192.39 29.6693 192.566 29.984 192.886 30.24C193.217 30.4853 193.627 30.608 194.118 30.608C194.63 30.608 195.025 30.512 195.302 30.32C195.59 30.1173 195.734 29.8613 195.734 29.552C195.734 29.2213 195.574 28.976 195.254 28.816C194.945 28.656 194.449 28.48 193.766 28.288C193.105 28.1067 192.566 27.9307 192.15 27.76C191.734 27.5893 191.371 27.328 191.062 26.976C190.763 26.624 190.614 26.16 190.614 25.584C190.614 25.1147 190.753 24.688 191.03 24.304C191.307 23.9093 191.702 23.6 192.214 23.376C192.737 23.152 193.334 23.04 194.006 23.04C195.009 23.04 195.814 23.296 196.422 23.808C197.041 24.3093 197.371 24.9973 197.414 25.872H195.59C195.558 25.4773 195.398 25.1627 195.11 24.928C194.822 24.6933 194.433 24.576 193.942 24.576C193.462 24.576 193.094 24.6667 192.838 24.848C192.582 25.0293 192.454 25.2693 192.454 25.568C192.454 25.8027 192.539 26 192.71 26.16C192.881 26.32 193.089 26.448 193.334 26.544C193.579 26.6293 193.942 26.7413 194.422 26.88C195.062 27.0507 195.585 27.2267 195.99 27.408C196.406 27.5787 196.763 27.8347 197.062 28.176C197.361 28.5173 197.515 28.9707 197.526 29.536C197.526 30.0373 197.387 30.4853 197.11 30.88C196.833 31.2747 196.438 31.584 195.926 31.808C195.425 32.032 194.833 32.144 194.15 32.144ZM201.625 24.672V29.552C201.625 29.8827 201.7 30.1227 201.849 30.272C202.009 30.4107 202.276 30.48 202.649 30.48H203.769V32H202.329C201.508 32 200.878 31.808 200.441 31.424C200.004 31.04 199.785 30.416 199.785 29.552V24.672H198.745V23.184H199.785V20.992H201.625V23.184H203.769V24.672H201.625ZM207.274 24.464C207.541 24.016 207.893 23.6693 208.33 23.424C208.778 23.168 209.306 23.04 209.914 23.04V24.928H209.45C208.735 24.928 208.191 25.1093 207.818 25.472C207.455 25.8347 207.274 26.464 207.274 27.36V32H205.45V23.184H207.274V24.464ZM210.983 27.552C210.983 26.6667 211.164 25.8827 211.527 25.2C211.9 24.5173 212.401 23.9893 213.031 23.616C213.671 23.232 214.375 23.04 215.143 23.04C215.836 23.04 216.439 23.1787 216.951 23.456C217.473 23.7227 217.889 24.0587 218.199 24.464V23.184H220.039V32H218.199V30.688C217.889 31.104 217.468 31.4507 216.935 31.728C216.401 32.0053 215.793 32.144 215.111 32.144C214.353 32.144 213.66 31.952 213.031 31.568C212.401 31.1733 211.9 30.6293 211.527 29.936C211.164 29.232 210.983 28.4373 210.983 27.552ZM218.199 27.584C218.199 26.976 218.071 26.448 217.815 26C217.569 25.552 217.244 25.2107 216.839 24.976C216.433 24.7413 215.996 24.624 215.527 24.624C215.057 24.624 214.62 24.7413 214.215 24.976C213.809 25.2 213.479 25.536 213.223 25.984C212.977 26.4213 212.855 26.944 212.855 27.552C212.855 28.16 212.977 28.6933 213.223 29.152C213.479 29.6107 213.809 29.9627 214.215 30.208C214.631 30.4427 215.068 30.56 215.527 30.56C215.996 30.56 216.433 30.4427 216.839 30.208C217.244 29.9733 217.569 29.632 217.815 29.184C218.071 28.7253 218.199 28.192 218.199 27.584ZM224.562 24.672V29.552C224.562 29.8827 224.637 30.1227 224.786 30.272C224.946 30.4107 225.213 30.48 225.586 30.48H226.706V32H225.266C224.445 32 223.816 31.808 223.378 31.424C222.941 31.04 222.722 30.416 222.722 29.552V24.672H221.682V23.184H222.722V20.992H224.562V23.184H226.706V24.672H224.562ZM236.468 27.376C236.468 27.7067 236.446 28.0053 236.404 28.272H229.668C229.721 28.976 229.982 29.5413 230.452 29.968C230.921 30.3947 231.497 30.608 232.18 30.608C233.161 30.608 233.854 30.1973 234.26 29.376H236.227C235.961 30.1867 235.476 30.8533 234.772 31.376C234.078 31.888 233.214 32.144 232.18 32.144C231.337 32.144 230.58 31.9573 229.908 31.584C229.246 31.2 228.724 30.6667 228.34 29.984C227.966 29.2907 227.78 28.4907 227.78 27.584C227.78 26.6773 227.961 25.8827 228.324 25.2C228.697 24.5067 229.214 23.9733 229.876 23.6C230.548 23.2267 231.316 23.04 232.18 23.04C233.012 23.04 233.753 23.2213 234.404 23.584C235.054 23.9467 235.561 24.4587 235.924 25.12C236.286 25.7707 236.468 26.5227 236.468 27.376ZM234.564 26.8C234.553 26.128 234.313 25.5893 233.844 25.184C233.374 24.7787 232.793 24.576 232.1 24.576C231.47 24.576 230.932 24.7787 230.484 25.184C230.036 25.5787 229.769 26.1173 229.684 26.8H234.564ZM241.815 23.04C242.497 23.04 243.1 23.1787 243.623 23.456C244.156 23.7227 244.572 24.0587 244.871 24.464V23.184H246.711V32.144C246.711 32.9547 246.54 33.6747 246.199 34.304C245.857 34.944 245.361 35.4453 244.711 35.808C244.071 36.1707 243.303 36.352 242.407 36.352C241.212 36.352 240.22 36.0693 239.431 35.504C238.641 34.9493 238.193 34.192 238.087 33.232H239.895C240.033 33.6907 240.327 34.0587 240.775 34.336C241.233 34.624 241.777 34.768 242.407 34.768C243.143 34.768 243.735 34.544 244.183 34.096C244.641 33.648 244.871 32.9973 244.871 32.144V30.672C244.561 31.088 244.14 31.44 243.607 31.728C243.084 32.0053 242.487 32.144 241.815 32.144C241.047 32.144 240.343 31.952 239.703 31.568C239.073 31.1733 238.572 30.6293 238.199 29.936C237.836 29.232 237.655 28.4373 237.655 27.552C237.655 26.6667 237.836 25.8827 238.199 25.2C238.572 24.5173 239.073 23.9893 239.703 23.616C240.343 23.232 241.047 23.04 241.815 23.04ZM244.871 27.584C244.871 26.976 244.743 26.448 244.487 26C244.241 25.552 243.916 25.2107 243.511 24.976C243.105 24.7413 242.668 24.624 242.199 24.624C241.729 24.624 241.292 24.7413 240.887 24.976C240.481 25.2 240.151 25.536 239.895 25.984C239.649 26.4213 239.527 26.944 239.527 27.552C239.527 28.16 239.649 28.6933 239.895 29.152C240.151 29.6107 240.481 29.9627 240.887 30.208C241.303 30.4427 241.74 30.56 242.199 30.56C242.668 30.56 243.105 30.4427 243.511 30.208C243.916 29.9733 244.241 29.632 244.487 29.184C244.743 28.7253 244.871 28.192 244.871 27.584ZM257.042 23.184L251.634 36.144H249.746L251.538 31.856L248.066 23.184H250.098L252.578 29.904L255.154 23.184H257.042Z" fill="#2F281E"/>
</g>
<defs>
<filter id="filter0_d_17_194" x="-8" y="-5.24146" width="290" height="75" filterUnits="userSpaceOnUse" color-interpolation-filters="sRGB">
<feFlood flood-opacity="0" result="BackgroundImageFix"/>
<feColorMatrix in="SourceAlpha" type="matrix" values="0 0 0 0 0 0 0 0 0 0 0 0 0 0 0 0 0 0 127 0" result="hardAlpha"/>
<feOffset dy="2"/>
<feGaussianBlur stdDeviation="4"/>
<feColorMatrix type="matrix" values="0 0 0 0 0.337255 0 0 0 0 0.458824 0 0 0 0 0.572549 0 0 0 0.1 0"/>
<feBlend mode="normal" in2="BackgroundImageFix" result="effect1_dropShadow_17_194"/>
<feBlend mode="normal" in="SourceGraphic" in2="effect1_dropShadow_17_194" result="shape"/>
</filter>
<filter id="filter1_d_17_194" x="6" y="48.7585" width="39" height="39" filterUnits="userSpaceOnUse" color-interpolation-filters="sRGB">
<feFlood flood-opacity="0" result="BackgroundImageFix"/>
<feColorMatrix in="SourceAlpha" type="matrix" values="0 0 0 0 0 0 0 0 0 0 0 0 0 0 0 0 0 0 127 0" result="hardAlpha"/>
<feOffset dy="2"/>
<feGaussianBlur stdDeviation="7.5"/>
<feColorMatrix type="matrix" values="0 0 0 0 0.0901961 0 0 0 0 0.227451 0 0 0 0 0.337255 0 0 0 0.1 0"/>
<feBlend mode="normal" in2="BackgroundImageFix" result="effect1_dropShadow_17_194"/>
<feBlend mode="normal" in="SourceGraphic" in2="effect1_dropShadow_17_194" result="shape"/>
</filter>
<clipPath id="clip0_17_194">
<rect width="274" height="70" fill="white" transform="translate(0 0.758545)"/>
</clipPath>
</defs>
</svg>
