<svg width="216" height="64" viewBox="0 0 216 64" fill="none" xmlns="http://www.w3.org/2000/svg">
<g clip-path="url(#clip0_17_1326)">
<g filter="url(#filter0_d_17_1326)">
<path fill-rule="evenodd" clip-rule="evenodd" d="M26.5 0.727051C11.8645 0.727051 0 12.5915 0 27.2271V38.3916C0 53.0271 11.8644 64.8916 26.5 64.8916H168.254C169.212 69.0979 172.117 72.1556 175.551 72.1556C178.985 72.1556 181.89 69.0979 182.848 64.8916H189.01C203.646 64.8916 215.51 53.0271 215.51 38.3916V27.2271C215.51 12.5915 203.646 0.727051 189.01 0.727051H26.5Z" fill="white"/>
</g>
<g filter="url(#filter1_d_17_1326)">
<circle cx="196.204" cy="59.5433" r="4.04082" fill="white"/>
</g>
<path d="M31.1295 18.607V29.7271H29.3055V18.607H31.1295ZM37.0725 25.3111C37.0725 24.4044 37.2538 23.6097 37.6165 22.9271C37.9898 22.2337 38.5018 21.7004 39.1525 21.3271C39.8032 20.9537 40.5498 20.7671 41.3925 20.7671C42.4592 20.7671 43.3392 21.0231 44.0325 21.5351C44.7365 22.0364 45.2112 22.7564 45.4565 23.6951H43.4885C43.3285 23.2577 43.0725 22.9164 42.7205 22.6711C42.3685 22.4257 41.9258 22.3031 41.3925 22.3031C40.6458 22.3031 40.0485 22.5697 39.6005 23.1031C39.1632 23.6257 38.9445 24.3617 38.9445 25.3111C38.9445 26.2604 39.1632 27.0017 39.6005 27.5351C40.0485 28.0684 40.6458 28.3351 41.3925 28.3351C42.4485 28.3351 43.1472 27.8711 43.4885 26.9431H45.4565C45.2005 27.8391 44.7205 28.5537 44.0165 29.0871C43.3125 29.6097 42.4378 29.8711 41.3925 29.8711C40.5498 29.8711 39.8032 29.6844 39.1525 29.3111C38.5018 28.9271 37.9898 28.3937 37.6165 27.7111C37.2538 27.0177 37.0725 26.2177 37.0725 25.3111ZM46.6662 25.2791C46.6662 24.3937 46.8476 23.6097 47.2102 22.9271C47.5836 22.2444 48.0849 21.7164 48.7142 21.3431C49.3542 20.9591 50.0582 20.7671 50.8262 20.7671C51.5196 20.7671 52.1222 20.9057 52.6342 21.1831C53.1569 21.4497 53.5729 21.7857 53.8822 22.1911V20.9111H55.7222V29.7271H53.8822V28.4151C53.5729 28.8311 53.1516 29.1777 52.6182 29.4551C52.0849 29.7324 51.4769 29.8711 50.7942 29.8711C50.0369 29.8711 49.3436 29.6791 48.7142 29.2951C48.0849 28.9004 47.5836 28.3564 47.2102 27.6631C46.8476 26.9591 46.6662 26.1644 46.6662 25.2791ZM53.8822 25.3111C53.8822 24.7031 53.7542 24.1751 53.4982 23.7271C53.2529 23.2791 52.9276 22.9377 52.5222 22.7031C52.1169 22.4684 51.6796 22.3511 51.2102 22.3511C50.7409 22.3511 50.3036 22.4684 49.8982 22.7031C49.4929 22.9271 49.1622 23.2631 48.9062 23.7111C48.6609 24.1484 48.5382 24.6711 48.5382 25.2791C48.5382 25.8871 48.6609 26.4204 48.9062 26.8791C49.1622 27.3377 49.4929 27.6897 49.8982 27.9351C50.3142 28.1697 50.7516 28.2871 51.2102 28.2871C51.6796 28.2871 52.1169 28.1697 52.5222 27.9351C52.9276 27.7004 53.2529 27.3591 53.4982 26.9111C53.7542 26.4524 53.8822 25.9191 53.8822 25.3111ZM62.566 20.7671C63.2593 20.7671 63.878 20.9111 64.422 21.199C64.9767 21.4871 65.4087 21.9137 65.718 22.4791C66.0273 23.0444 66.182 23.7271 66.182 24.5271V29.7271H64.374V24.7991C64.374 24.0097 64.1767 23.4071 63.782 22.9911C63.3873 22.5644 62.8487 22.3511 62.166 22.3511C61.4833 22.3511 60.9393 22.5644 60.534 22.9911C60.1393 23.4071 59.942 24.0097 59.942 24.7991V29.7271H58.118V20.9111H59.942V21.9191C60.2407 21.5564 60.6193 21.2737 61.078 21.0711C61.5473 20.8684 62.0433 20.7671 62.566 20.7671ZM74.4889 22.2071C74.7982 21.8017 75.2195 21.4604 75.7529 21.1831C76.2862 20.9057 76.8889 20.7671 77.5609 20.7671C78.3289 20.7671 79.0275 20.9591 79.6569 21.3431C80.2969 21.7164 80.7982 22.2444 81.1609 22.9271C81.5235 23.6097 81.7049 24.3937 81.7049 25.2791C81.7049 26.1644 81.5235 26.9591 81.1609 27.6631C80.7982 28.3564 80.2969 28.9004 79.6569 29.2951C79.0275 29.6791 78.3289 29.8711 77.5609 29.8711C76.8889 29.8711 76.2915 29.7377 75.7689 29.4711C75.2462 29.1937 74.8195 28.8524 74.4889 28.4471V33.9191H72.6649V20.9111H74.4889V22.2071ZM79.8489 25.2791C79.8489 24.6711 79.7209 24.1484 79.4649 23.7111C79.2195 23.2631 78.8889 22.9271 78.4729 22.7031C78.0675 22.4684 77.6302 22.3511 77.1609 22.3511C76.7022 22.3511 76.2649 22.4684 75.8489 22.7031C75.4435 22.9377 75.1129 23.2791 74.8569 23.7271C74.6115 24.1751 74.4889 24.7031 74.4889 25.3111C74.4889 25.9191 74.6115 26.4524 74.8569 26.9111C75.1129 27.3591 75.4435 27.7004 75.8489 27.9351C76.2649 28.1697 76.7022 28.2871 77.1609 28.2871C77.6302 28.2871 78.0675 28.1697 78.4729 27.9351C78.8889 27.6897 79.2195 27.3377 79.4649 26.8791C79.7209 26.4204 79.8489 25.8871 79.8489 25.2791ZM85.3326 22.1911C85.5993 21.7431 85.9513 21.3964 86.3886 21.1511C86.8366 20.8951 87.3646 20.7671 87.9726 20.7671V22.6551H87.5086C86.794 22.6551 86.25 22.8364 85.8766 23.1991C85.514 23.5617 85.3326 24.1911 85.3326 25.0871V29.7271H83.5086V20.9111H85.3326V22.1911ZM93.4732 29.8711C92.6412 29.8711 91.8892 29.6844 91.2172 29.3111C90.5452 28.9271 90.0172 28.3937 89.6332 27.7111C89.2492 27.0177 89.0572 26.2177 89.0572 25.3111C89.0572 24.4151 89.2546 23.6204 89.6492 22.9271C90.0439 22.2337 90.5826 21.7004 91.2652 21.3271C91.9479 20.9537 92.7106 20.7671 93.5532 20.7671C94.3959 20.7671 95.1586 20.9537 95.8412 21.3271C96.5239 21.7004 97.0626 22.2337 97.4572 22.9271C97.8519 23.6204 98.0492 24.4151 98.0492 25.3111C98.0492 26.2071 97.8466 27.0017 97.4412 27.6951C97.0359 28.3884 96.4812 28.9271 95.7772 29.3111C95.0839 29.6844 94.3159 29.8711 93.4732 29.8711ZM93.4732 28.2871C93.9426 28.2871 94.3799 28.1751 94.7852 27.9511C95.2012 27.7271 95.5372 27.3911 95.7932 26.9431C96.0492 26.4951 96.1772 25.9511 96.1772 25.3111C96.1772 24.6711 96.0546 24.1324 95.8092 23.6951C95.5639 23.2471 95.2386 22.9111 94.8332 22.6871C94.4279 22.4631 93.9906 22.3511 93.5212 22.3511C93.0519 22.3511 92.6146 22.4631 92.2092 22.6871C91.8146 22.9111 91.4999 23.2471 91.2652 23.6951C91.0306 24.1324 90.9132 24.6711 90.9132 25.3111C90.9132 26.2604 91.1532 26.9964 91.6332 27.5191C92.1239 28.0311 92.7372 28.2871 93.4732 28.2871ZM101.98 22.3991V27.2791C101.98 27.6097 102.055 27.8497 102.204 27.9991C102.364 28.1377 102.631 28.2071 103.004 28.2071H104.124V29.7271H102.684C101.863 29.7271 101.234 29.5351 100.796 29.1511C100.359 28.7671 100.14 28.1431 100.14 27.2791V22.3991H99.1004V20.9111H100.14V18.7191H101.98V20.9111H104.124V22.3991H101.98ZM109.629 29.8711C108.797 29.8711 108.045 29.6844 107.373 29.3111C106.701 28.9271 106.173 28.3937 105.789 27.7111C105.405 27.0177 105.213 26.2177 105.213 25.3111C105.213 24.4151 105.411 23.6204 105.805 22.9271C106.2 22.2337 106.739 21.7004 107.421 21.3271C108.104 20.9537 108.867 20.7671 109.709 20.7671C110.552 20.7671 111.315 20.9537 111.997 21.3271C112.68 21.7004 113.219 22.2337 113.613 22.9271C114.008 23.6204 114.205 24.4151 114.205 25.3111C114.205 26.2071 114.003 27.0017 113.597 27.6951C113.192 28.3884 112.637 28.9271 111.933 29.3111C111.24 29.6844 110.472 29.8711 109.629 29.8711ZM109.629 28.2871C110.099 28.2871 110.536 28.1751 110.941 27.9511C111.357 27.7271 111.693 27.3911 111.949 26.9431C112.205 26.4951 112.333 25.9511 112.333 25.3111C112.333 24.6711 112.211 24.1324 111.965 23.6951C111.72 23.2471 111.395 22.9111 110.989 22.6871C110.584 22.4631 110.147 22.3511 109.677 22.3511C109.208 22.3511 108.771 22.4631 108.365 22.6871C107.971 22.9111 107.656 23.2471 107.421 23.6951C107.187 24.1324 107.069 24.6711 107.069 25.3111C107.069 26.2604 107.309 26.9964 107.789 27.5191C108.28 28.0311 108.893 28.2871 109.629 28.2871ZM118.137 22.3991V27.2791C118.137 27.6097 118.211 27.8497 118.361 27.9991C118.521 28.1377 118.787 28.2071 119.161 28.2071H120.281V29.7271H118.841C118.019 29.7271 117.39 29.5351 116.953 29.1511C116.515 28.7671 116.297 28.1431 116.297 27.2791V22.3991H115.257V20.9111H116.297V18.7191H118.137V20.9111H120.281V22.3991H118.137ZM129.898 20.9111L124.49 33.8711H122.602L124.394 29.5831L120.922 20.9111H122.954L125.434 27.6311L128.01 20.9111H129.898ZM133.098 22.2071C133.408 21.8017 133.829 21.4604 134.362 21.1831C134.896 20.9057 135.498 20.7671 136.17 20.7671C136.938 20.7671 137.637 20.9591 138.266 21.3431C138.906 21.7164 139.408 22.2444 139.77 22.9271C140.133 23.6097 140.314 24.3937 140.314 25.2791C140.314 26.1644 140.133 26.9591 139.77 27.6631C139.408 28.3564 138.906 28.9004 138.266 29.2951C137.637 29.6791 136.938 29.8711 136.17 29.8711C135.498 29.8711 134.901 29.7377 134.378 29.4711C133.856 29.1937 133.429 28.8524 133.098 28.4471V33.9191H131.274V20.9111H133.098V22.2071ZM138.458 25.2791C138.458 24.6711 138.33 24.1484 138.074 23.7111C137.829 23.2631 137.498 22.9271 137.082 22.7031C136.677 22.4684 136.24 22.3511 135.77 22.3511C135.312 22.3511 134.874 22.4684 134.458 22.7031C134.053 22.9377 133.722 23.2791 133.466 23.7271C133.221 24.1751 133.098 24.7031 133.098 25.3111C133.098 25.9191 133.221 26.4524 133.466 26.9111C133.722 27.3591 134.053 27.7004 134.458 27.9351C134.874 28.1697 135.312 28.2871 135.77 28.2871C136.24 28.2871 136.677 28.1697 137.082 27.9351C137.498 27.6897 137.829 27.3377 138.074 26.8791C138.33 26.4204 138.458 25.8871 138.458 25.2791ZM150.198 25.1031C150.198 25.4337 150.177 25.7324 150.134 25.9991H143.398C143.451 26.7031 143.713 27.2684 144.182 27.6951C144.651 28.1217 145.227 28.3351 145.91 28.3351C146.891 28.3351 147.585 27.9244 147.99 27.1031H149.958C149.691 27.9137 149.206 28.5804 148.502 29.1031C147.809 29.6151 146.945 29.8711 145.91 29.8711C145.067 29.8711 144.31 29.6844 143.638 29.3111C142.977 28.9271 142.454 28.3937 142.07 27.7111C141.697 27.0177 141.51 26.2177 141.51 25.3111C141.51 24.4044 141.691 23.6097 142.054 22.9271C142.427 22.2337 142.945 21.7004 143.606 21.3271C144.278 20.9537 145.046 20.7671 145.91 20.7671C146.742 20.7671 147.483 20.9484 148.134 21.3111C148.785 21.6737 149.291 22.1857 149.654 22.8471C150.017 23.4977 150.198 24.2497 150.198 25.1031ZM148.294 24.5271C148.283 23.8551 148.043 23.3164 147.574 22.9111C147.105 22.5057 146.523 22.3031 145.83 22.3031C145.201 22.3031 144.662 22.5057 144.214 22.9111C143.766 23.3057 143.499 23.8444 143.414 24.5271H148.294ZM164.085 20.9111L158.677 33.8711H156.789L158.581 29.5831L155.109 20.9111H157.141L159.621 27.6311L162.197 20.9111H164.085ZM169.286 29.8711C168.454 29.8711 167.702 29.6844 167.03 29.3111C166.358 28.9271 165.83 28.3937 165.446 27.7111C165.062 27.0177 164.87 26.2177 164.87 25.3111C164.87 24.4151 165.067 23.6204 165.462 22.9271C165.856 22.2337 166.395 21.7004 167.078 21.3271C167.76 20.9537 168.523 20.7671 169.366 20.7671C170.208 20.7671 170.971 20.9537 171.654 21.3271C172.336 21.7004 172.875 22.2337 173.27 22.9271C173.664 23.6204 173.862 24.4151 173.862 25.3111C173.862 26.2071 173.659 27.0017 173.254 27.6951C172.848 28.3884 172.294 28.9271 171.59 29.3111C170.896 29.6844 170.128 29.8711 169.286 29.8711ZM169.286 28.2871C169.755 28.2871 170.192 28.1751 170.598 27.9511C171.014 27.7271 171.35 27.3911 171.606 26.9431C171.862 26.4951 171.99 25.9511 171.99 25.3111C171.99 24.6711 171.867 24.1324 171.622 23.6951C171.376 23.2471 171.051 22.9111 170.646 22.6871C170.24 22.4631 169.803 22.3511 169.334 22.3511C168.864 22.3511 168.427 22.4631 168.022 22.6871C167.627 22.9111 167.312 23.2471 167.078 23.6951C166.843 24.1324 166.726 24.6711 166.726 25.3111C166.726 26.2604 166.966 26.9964 167.446 27.5191C167.936 28.0311 168.55 28.2871 169.286 28.2871ZM183.649 20.9111V29.7271H181.825V28.6871C181.537 29.0497 181.158 29.3377 180.689 29.5511C180.23 29.7537 179.74 29.8551 179.217 29.8551C178.524 29.8551 177.9 29.7111 177.345 29.4231C176.801 29.1351 176.369 28.7084 176.049 28.1431C175.74 27.5777 175.585 26.8951 175.585 26.0951V20.9111H177.393V25.8231C177.393 26.6124 177.59 27.2204 177.985 27.6471C178.38 28.0631 178.918 28.2711 179.601 28.2711C180.284 28.2711 180.822 28.0631 181.217 27.6471C181.622 27.2204 181.825 26.6124 181.825 25.8231V20.9111H183.649ZM187.879 22.1911C188.146 21.7431 188.498 21.3964 188.935 21.1511C189.383 20.8951 189.911 20.7671 190.519 20.7671V22.6551H190.055C189.341 22.6551 188.797 22.8364 188.423 23.1991C188.061 23.5617 187.879 24.1911 187.879 25.0871V29.7271H186.055V20.9111H187.879V22.1911ZM93.8772 49.2791C93.8772 48.3937 94.0585 47.6097 94.4212 46.9271C94.7945 46.2444 95.2958 45.7164 95.9252 45.3431C96.5652 44.9591 97.2692 44.7671 98.0372 44.7671C98.7305 44.7671 99.3332 44.9057 99.8452 45.1831C100.368 45.4497 100.784 45.7857 101.093 46.1911V44.9111H102.933V53.7271H101.093V52.4151C100.784 52.8311 100.363 53.1777 99.8292 53.4551C99.2958 53.7324 98.6878 53.8711 98.0052 53.8711C97.2478 53.8711 96.5545 53.6791 95.9252 53.2951C95.2958 52.9004 94.7945 52.3564 94.4212 51.6631C94.0585 50.9591 93.8772 50.1644 93.8772 49.2791ZM101.093 49.3111C101.093 48.7031 100.965 48.1751 100.709 47.7271C100.464 47.2791 100.139 46.9377 99.7332 46.7031C99.3278 46.4684 98.8905 46.3511 98.4212 46.3511C97.9518 46.3511 97.5145 46.4684 97.1092 46.7031C96.7038 46.9271 96.3732 47.2631 96.1172 47.7111C95.8718 48.1484 95.7492 48.6711 95.7492 49.2791C95.7492 49.8871 95.8718 50.4204 96.1172 50.8791C96.3732 51.3377 96.7038 51.6897 97.1092 51.9351C97.5252 52.1697 97.9625 52.2871 98.4212 52.2871C98.8905 52.2871 99.3278 52.1697 99.7332 51.9351C100.139 51.7004 100.464 51.3591 100.709 50.9111C100.965 50.4524 101.093 49.9191 101.093 49.3111ZM107.153 46.2071C107.462 45.8017 107.884 45.4604 108.417 45.1831C108.95 44.9057 109.553 44.7671 110.225 44.7671C110.993 44.7671 111.692 44.9591 112.321 45.3431C112.961 45.7164 113.462 46.2444 113.825 46.9271C114.188 47.6097 114.369 48.3937 114.369 49.2791C114.369 50.1644 114.188 50.9591 113.825 51.6631C113.462 52.3564 112.961 52.9004 112.321 53.2951C111.692 53.6791 110.993 53.8711 110.225 53.8711C109.553 53.8711 108.956 53.7377 108.433 53.4711C107.91 53.1937 107.484 52.8524 107.153 52.4471V57.9191H105.329V44.9111H107.153V46.2071ZM112.513 49.2791C112.513 48.6711 112.385 48.1484 112.129 47.7111C111.884 47.2631 111.553 46.9271 111.137 46.7031C110.732 46.4684 110.294 46.3511 109.825 46.3511C109.366 46.3511 108.929 46.4684 108.513 46.7031C108.108 46.9377 107.777 47.2791 107.521 47.7271C107.276 48.1751 107.153 48.7031 107.153 49.3111C107.153 49.9191 107.276 50.4524 107.521 50.9111C107.777 51.3591 108.108 51.7004 108.513 51.9351C108.929 52.1697 109.366 52.2871 109.825 52.2871C110.294 52.2871 110.732 52.1697 111.137 51.9351C111.553 51.6897 111.884 51.3377 112.129 50.8791C112.385 50.4204 112.513 49.8871 112.513 49.2791ZM117.997 46.2071C118.306 45.8017 118.727 45.4604 119.261 45.1831C119.794 44.9057 120.397 44.7671 121.069 44.7671C121.837 44.7671 122.535 44.9591 123.165 45.3431C123.805 45.7164 124.306 46.2444 124.669 46.9271C125.031 47.6097 125.213 48.3937 125.213 49.2791C125.213 50.1644 125.031 50.9591 124.669 51.6631C124.306 52.3564 123.805 52.9004 123.165 53.2951C122.535 53.6791 121.837 53.8711 121.069 53.8711C120.397 53.8711 119.799 53.7377 119.277 53.4711C118.754 53.1937 118.327 52.8524 117.997 52.4471V57.9191H116.173V44.9111H117.997V46.2071ZM123.357 49.2791C123.357 48.6711 123.229 48.1484 122.973 47.7111C122.727 47.2631 122.397 46.9271 121.981 46.7031C121.575 46.4684 121.138 46.3511 120.669 46.3511C120.21 46.3511 119.773 46.4684 119.357 46.7031C118.951 46.9377 118.621 47.2791 118.365 47.7271C118.119 48.1751 117.997 48.7031 117.997 49.3111C117.997 49.9191 118.119 50.4524 118.365 50.9111C118.621 51.3591 118.951 51.7004 119.357 51.9351C119.773 52.1697 120.21 52.2871 120.669 52.2871C121.138 52.2871 121.575 52.1697 121.981 51.9351C122.397 51.6897 122.727 51.3377 122.973 50.8791C123.229 50.4204 123.357 49.8871 123.357 49.2791Z" fill="#2F281E"/>
</g>
<defs>
<filter id="filter0_d_17_1326" x="-8" y="-5.27295" width="231.51" height="87.4287" filterUnits="userSpaceOnUse" color-interpolation-filters="sRGB">
<feFlood flood-opacity="0" result="BackgroundImageFix"/>
<feColorMatrix in="SourceAlpha" type="matrix" values="0 0 0 0 0 0 0 0 0 0 0 0 0 0 0 0 0 0 127 0" result="hardAlpha"/>
<feOffset dy="2"/>
<feGaussianBlur stdDeviation="4"/>
<feColorMatrix type="matrix" values="0 0 0 0 0.337255 0 0 0 0 0.458824 0 0 0 0 0.572549 0 0 0 0.1 0"/>
<feBlend mode="normal" in2="BackgroundImageFix" result="effect1_dropShadow_17_1326"/>
<feBlend mode="normal" in="SourceGraphic" in2="effect1_dropShadow_17_1326" result="shape"/>
</filter>
<filter id="filter1_d_17_1326" x="177.163" y="42.5024" width="38.0815" height="38.0815" filterUnits="userSpaceOnUse" color-interpolation-filters="sRGB">
<feFlood flood-opacity="0" result="BackgroundImageFix"/>
<feColorMatrix in="SourceAlpha" type="matrix" values="0 0 0 0 0 0 0 0 0 0 0 0 0 0 0 0 0 0 127 0" result="hardAlpha"/>
<feOffset dy="2"/>
<feGaussianBlur stdDeviation="7.5"/>
<feColorMatrix type="matrix" values="0 0 0 0 0.0901961 0 0 0 0 0.227451 0 0 0 0 0.337255 0 0 0 0.1 0"/>
<feBlend mode="normal" in2="BackgroundImageFix" result="effect1_dropShadow_17_1326"/>
<feBlend mode="normal" in="SourceGraphic" in2="effect1_dropShadow_17_1326" result="shape"/>
</filter>
<clipPath id="clip0_17_1326">
<rect width="215.51" height="62.8571" fill="white" transform="translate(0 0.727051)"/>
</clipPath>
</defs>
</svg>
