<svg width="600" height="556" fill="none" xmlns="http://www.w3.org/2000/svg"><path d="M87.866 509.822c117.163 61.203 307.105 61.203 424.268 0 117.162-61.203 117.148-160.425 0-221.628-117.149-61.203-307.105-61.203-424.268 0-117.162 61.203-117.148 160.425 0 221.628Z" fill="#F5F5F5"/><path d="M513.742 358.975c22.835 0 41.347-8.821 41.347-19.702 0-10.881-18.512-19.702-41.347-19.702-22.836 0-41.347 8.821-41.347 19.702 0 10.881 18.511 19.702 41.347 19.702ZM87.14 474.235c20.935 0 37.907-8.088 37.907-18.065 0-9.978-16.972-18.066-37.908-18.066-20.935 0-37.907 8.088-37.907 18.066 0 9.977 16.972 18.065 37.907 18.065ZM368.586 508.969c21.785 0 39.445-8.42 39.445-18.807 0-10.387-17.66-18.807-39.445-18.807s-39.446 8.42-39.446 18.807c0 10.387 17.661 18.807 39.446 18.807ZM172.798 418.975c21.785 0 39.446-8.42 39.446-18.807 0-10.386-17.661-18.807-39.446-18.807-21.785 0-39.445 8.421-39.445 18.807 0 10.387 17.66 18.807 39.445 18.807Z" fill="#E6E6E6"/><path d="M404.927 293.284c.965-11.592 27.532-55.079 35.656-61.818 8.124-6.74 22.471-23.771 16.29-33.447-6.18-9.677-24.344-5.37-41.403 24.791-13.227 23.393-17.338 75.13-17.338 75.13l6.795-4.656Z" fill="#02897A"/><path d="M401.292 292.193h-.112a.672.672 0 0 1-.567-.525.692.692 0 0 1-.007-.272c7.509-48.548 23.464-78.835 48.773-92.594a.698.698 0 0 1 .95.279.71.71 0 0 1 .057.534.7.7 0 0 1-.336.417c-24.904 13.536-40.62 43.501-48.073 91.588a.704.704 0 0 1-.685.573Z" fill="#fff"/><path d="M407.598 237.045s21.324-36.859 38.984-53.736c9.788-9.355 15.801-15.381 15.269-22.457-.391-5.369-4.852-8.236-14.444-5.873-19.114 4.699-29.364 24.065-35.964 45.752-4.684 15.27-3.845 36.314-3.845 36.314Z" fill="#37474F"/><path opacity=".2" d="M407.598 237.045s21.324-36.859 38.984-53.736c9.788-9.355 15.801-15.381 15.269-22.457-.391-5.369-4.852-8.236-14.444-5.873-19.114 4.699-29.364 24.065-35.964 45.752-4.684 15.27-3.845 36.314-3.845 36.314Z" fill="#00FFE3"/><path d="M410.073 230.99h-.098a.712.712 0 0 1-.587-.811c7.592-47.905 36.453-65.943 45.122-70.334a.702.702 0 0 1 .982.842.699.699 0 0 1-.353.403c-8.515 4.321-36.872 22.051-44.367 69.313a.698.698 0 0 1-.699.587Z" fill="#fff"/><path d="m527.039 128.244-4.614-8.669 3.705-10.711v-6.558l-11.354 6.558v6.558l4.88 8.473a.688.688 0 0 0 .336.294l7.047 4.055Z" fill="#11B5E4"/><path opacity=".1" d="m527.039 128.244-4.614-8.669 3.705-10.711v-6.558l-11.354 6.558v6.558l4.88 8.473a.688.688 0 0 0 .336.294l7.047 4.055Z" fill="#000"/><path d="m500.696 87.54 31.265-18.178a7.583 7.583 0 0 1 6.81 0l2.796 1.608a7.493 7.493 0 0 1 3.412 5.901v25.337a7.54 7.54 0 0 1-3.412 5.901l-31.293 18.178a7.585 7.585 0 0 1-6.81 0l-2.796-1.609a7.501 7.501 0 0 1-3.398-5.9V93.413a7.549 7.549 0 0 1 3.426-5.873Z" fill="#11B5E4"/><path opacity=".3" d="m500.696 87.54 31.265-18.178a7.583 7.583 0 0 1 6.81 0l2.796 1.608a7.493 7.493 0 0 1 3.412 5.901v25.337a7.54 7.54 0 0 1-3.412 5.901l-31.293 18.178a7.585 7.585 0 0 1-6.81 0l-2.796-1.609a7.501 7.501 0 0 1-3.398-5.9V93.413a7.549 7.549 0 0 1 3.426-5.873Z" fill="#fff"/><path d="M510.288 126.259c-1.888 1.076-3.412.209-3.412-1.972V98.95a7.533 7.533 0 0 1 3.412-5.9l31.293-18.178c1.888-1.091 3.412-.21 3.412 1.971v25.337a7.53 7.53 0 0 1-3.412 5.901" fill="#11B5E4"/><path d="M497.298 118.75a7.504 7.504 0 0 0 3.398 5.901l2.796 1.608a7.592 7.592 0 0 0 6.223.265c-1.594.615-2.797-.293-2.797-2.237V98.95a6.988 6.988 0 0 1 1.007-3.356l-9.592-5.593a6.991 6.991 0 0 0-.993 3.356l-.042 25.393Z" fill="#11B5E4"/><path opacity=".1" d="M497.298 118.75a7.504 7.504 0 0 0 3.398 5.901l2.796 1.608a7.592 7.592 0 0 0 6.223.265c-1.594.615-2.797-.293-2.797-2.237V98.95a6.988 6.988 0 0 1 1.007-3.356l-9.592-5.593a6.991 6.991 0 0 0-.993 3.356l-.042 25.393Z" fill="#000"/><path d="m521.894 119.533 4.88 8.459a.736.736 0 0 0 1.085.204.75.75 0 0 0 .243-.329l5.16-14.892v-6.558l-11.368 6.558v6.558Z" fill="#11B5E4"/><path d="m525.949 110.877-3.496-.922c-3.328-.881-7.299-2.797-7.299-7.09a11.18 11.18 0 0 1 5.411-8.543 3.4 3.4 0 0 1 4.8.873c.339.505.535 1.092.57 1.7.349-2.797 2.614-7.188 5.369-8.782 2.992-1.72 5.411-.699 5.411 2.293 0 4.28-3.957 10.795-7.285 15.521l-3.481 4.95Z" fill="#fff"/><path d="M63.676 194.788 94.97 176.68a7.504 7.504 0 0 1 6.809 0l2.797 1.595a7.54 7.54 0 0 1 3.398 5.9v25.337a7.557 7.557 0 0 1-3.398 5.901l-31.252 18.108a7.52 7.52 0 0 1-6.823 0l-2.797-1.594a7.546 7.546 0 0 1-3.44-5.957v-25.281a7.498 7.498 0 0 1 3.412-5.901Z" fill="#FF7800"/><path opacity=".3" d="M63.676 194.788 94.97 176.68a7.504 7.504 0 0 1 6.809 0l2.797 1.595a7.54 7.54 0 0 1 3.398 5.9v25.337a7.557 7.557 0 0 1-3.398 5.901l-31.252 18.108a7.52 7.52 0 0 1-6.823 0l-2.797-1.594a7.546 7.546 0 0 1-3.44-5.957v-25.281a7.498 7.498 0 0 1 3.412-5.901Z" fill="#fff"/><path d="m90.006 235.521-4.615-8.684 3.72-10.711v-6.558l-11.368 6.614v6.558l4.894 8.39a.714.714 0 0 0 .321.294l7.048 4.097Z" fill="#FF7800"/><path opacity=".1" d="m90.006 235.521-4.615-8.684 3.72-10.711v-6.558l-11.368 6.614v6.558l4.894 8.39a.714.714 0 0 0 .321.294l7.048 4.097Z" fill="#000"/><path d="M73.324 233.521c-1.888 1.091-3.412.21-3.412-1.972v-25.337a7.511 7.511 0 0 1 3.412-5.886l31.308-18.178c1.873-1.077 3.398-.196 3.398 1.972v25.336a7.561 7.561 0 0 1-.996 3.356 7.568 7.568 0 0 1-2.402 2.545" fill="#FF7800"/><path d="M60.264 225.97a7.537 7.537 0 0 0 3.412 5.901l2.797 1.594a7.67 7.67 0 0 0 6.236.279c-1.608.602-2.797-.307-2.797-2.251v-25.281a6.996 6.996 0 0 1 .993-3.356l-9.578-5.523a6.991 6.991 0 0 0-1.007 3.356l-.056 25.281Z" fill="#FF7800"/><path opacity=".1" d="M60.264 225.97a7.537 7.537 0 0 0 3.412 5.901l2.797 1.594a7.67 7.67 0 0 0 6.236.279c-1.608.602-2.797-.307-2.797-2.251v-25.281a6.996 6.996 0 0 1 .993-3.356l-9.578-5.523a6.991 6.991 0 0 0-1.007 3.356l-.056 25.281Z" fill="#000"/><path d="m84.874 226.795 4.88 8.39a.732.732 0 0 0 .697.357.722.722 0 0 0 .617-.483l5.16-14.892v-6.558l-11.354 6.558v6.628Z" fill="#FF7800"/><path d="M77.1 211.666a6.993 6.993 0 0 0-3.203 5.593c0 2.041 1.399 2.796 3.203 1.846a7.107 7.107 0 0 0 3.202-5.594c.014-2.041-1.385-2.922-3.203-1.845ZM88.915 204.828a7.075 7.075 0 0 0-3.216 5.593c0 2.042 1.398 2.867 3.216 1.846a7.107 7.107 0 0 0 3.202-5.593c0-2.042-1.44-2.867-3.202-1.846ZM100.717 198.004a7.104 7.104 0 0 0-3.203 5.594c0 2.041 1.399 2.796 3.203 1.845a7 7 0 0 0 3.202-5.593c0-2.055-1.427-2.88-3.202-1.846Z" fill="#fff"/><path d="M395.503 11.236 259.561 89.68a13.405 13.405 0 0 0-4.28 4.52 13.409 13.409 0 0 0-1.774 5.967v300.897c0 3.859 2.713 5.425 6.054 3.495l135.942-78.443a13.396 13.396 0 0 0 6.054-10.488V14.732c0-3.86-2.713-5.426-6.054-3.496Z" fill="#37474F"/><path d="m259.562 89.68 135.941-78.444c2.992-1.72 5.467-.643 5.956 2.363a13.53 13.53 0 0 0-5.956-9.354l-4.936-2.797a13.382 13.382 0 0 0-12.109 0L242.517 79.85a12.34 12.34 0 0 0-4.279 4.516l17.045 9.788a12.347 12.347 0 0 1 4.279-4.474Z" fill="#455A64"/><path d="M236.462 391.22a13.37 13.37 0 0 0 6.054 10.487l4.936 2.796a13.506 13.506 0 0 0 11.075.49c-2.797 1.076-5.02-.532-5.02-3.985V100.125c.07-2.11.682-4.166 1.776-5.97l-17.045-9.789a12.366 12.366 0 0 0-1.776 5.971V391.22Z" fill="#263238"/><path d="m262.82 127.154 129.425-74.683c1.999-1.16 3.635-.223 3.635 2.098v227.794a8.068 8.068 0 0 1-3.635 6.292L262.82 363.324c-2 1.16-3.636.224-3.636-2.098v-227.78a8.018 8.018 0 0 1 3.636-6.292Z" fill="#FAFAFA"/><path d="M326.162 62.134a4.719 4.719 0 0 0-2.126 3.691c0 1.398.951 1.916 2.126 1.23a4.695 4.695 0 0 0 2.125-3.691c0-1.356-.951-1.902-2.125-1.23ZM306.041 83.78a9.41 9.41 0 0 0-2.976 3.191 9.409 9.409 0 0 0-1.219 4.191c0 2.713 1.901 3.817 4.195 2.461a9.417 9.417 0 0 0 4.264-7.383c0-2.713-1.915-3.817-4.264-2.46ZM316.458 82.856c0 1.818 1.398 2.503 3.034 1.538l27.966-16.178a6.493 6.493 0 0 0 3.02-5.034c0-1.803-1.398-2.489-3.02-1.524l-27.966 16.178a6.491 6.491 0 0 0-3.034 5.02Z" fill="#263238"/><path d="M245.886 136.159a7.49 7.49 0 0 1 3.412 5.901c0 2.167-1.524 3.048-3.412 1.971a7.557 7.557 0 0 1-3.397-5.915c.027-2.167 1.524-3.034 3.397-1.957ZM245.886 162.404a7.531 7.531 0 0 1 3.412 5.901c0 2.181-1.524 3.062-3.412 1.972a7.56 7.56 0 0 1-3.37-5.831c0-2.237 1.497-3.118 3.37-2.042Z" fill="#37474F"/><path d="M244.838 136.676a7.532 7.532 0 0 1 3.411 5.901c0 2.181-1.524 3.062-3.411 1.971a7.567 7.567 0 0 1-3.412-5.901c0-2.167 1.538-3.048 3.412-1.971ZM244.838 162.936a7.538 7.538 0 0 1 3.411 5.901c0 2.181-1.524 3.062-3.411 1.971a7.567 7.567 0 0 1-3.412-5.901c0-2.181 1.538-3.062 3.412-1.971Z" fill="#455A64"/><path d="M327.532 336.043a18.573 18.573 0 0 0-8.39 14.556c0 5.37 3.762 7.537 8.39 4.866a18.594 18.594 0 0 0 8.39-14.57c.014-5.369-3.748-7.536-8.39-4.852Z" fill="#263238"/><path d="M289.653 360.08c-1.189 0-1.315-1.398-1.315-1.902v-227.78a7.42 7.42 0 0 1 3.286-5.691l129.425-74.682a2.799 2.799 0 0 1 1.273-.392c1.188 0 1.314 1.314 1.314 1.888v227.794a7.366 7.366 0 0 1-3.286 5.677l-129.425 74.682c-.382.243-.82.383-1.272.406Z" fill="#fff" stroke="#141414" stroke-miterlimit="10"/><path d="M422.322 50.332c.531 0 .615.741.615 1.189v227.794a6.664 6.664 0 0 1-2.936 5.076l-129.425 74.682a2.042 2.042 0 0 1-.923.308c-.532 0-.616-.755-.616-1.203v-227.78a6.679 6.679 0 0 1 2.937-5.076L421.399 50.64c.275-.182.594-.288.923-.308Zm0-1.398a3.3 3.3 0 0 0-1.622.49l-129.425 74.682a8.007 8.007 0 0 0-3.636 6.292v227.78c0 1.65.825 2.601 2.014 2.601a3.334 3.334 0 0 0 1.622-.503L420.7 285.607a8.027 8.027 0 0 0 3.635-6.292V51.521c0-1.636-.825-2.587-2.013-2.587Z" fill="#37474F" stroke="#141414" stroke-miterlimit="10"/><path d="M424.293 51.52c0-2.32-1.622-3.257-3.635-2.097l-129.425 74.683a8.007 8.007 0 0 0-3.636 6.292v18.667l136.696-78.877V51.52Z" fill="#37474F"/><path opacity=".1" d="M424.293 51.52c0-2.32-1.622-3.257-3.635-2.097l-129.425 74.683a8.007 8.007 0 0 0-3.636 6.292v18.667l136.696-78.877V51.52Z" fill="#000"/><path d="M301.902 128.412a1.495 1.495 0 0 0-1.399.182 5.6 5.6 0 0 0-2.489 4.307 1.396 1.396 0 0 0 .546 1.314 1.404 1.404 0 0 0 1.398-.196 5.598 5.598 0 0 0 2.475-4.292 1.4 1.4 0 0 0-.531-1.315Z" fill="#fff"/><path d="m304.852 123.644-.308.182v-.629c0-.881-.615-1.245-1.398-.797l-5.873 3.384a3.072 3.072 0 0 0-1.398 2.391v.643l-.322.182a4.07 4.07 0 0 0-1.845 3.188v5.691c0 1.174.824 1.664 1.845 1.076l9.271-5.355a4.087 4.087 0 0 0 1.846-3.202v-5.719c.028-1.147-.797-1.622-1.818-1.035Zm-4.363 11.298c-.451.276-.967.43-1.496.448a1.962 1.962 0 0 1-.979-.252 2.465 2.465 0 0 1-1.076-2.237 6.528 6.528 0 0 1 .874-2.976 6.535 6.535 0 0 1 2.146-2.24 2.388 2.388 0 0 1 2.475-.196 2.424 2.424 0 0 1 1.063 2.238 6.578 6.578 0 0 1-3.007 5.215Zm4.195-7.592c-.475.265-.853 0-.853-.504a1.866 1.866 0 0 1 .853-1.482c.475-.28.867 0 .867.489-.011.295-.09.584-.23.844-.141.259-.34.483-.581.653h-.056ZM416.855 57.267l-9.047 5.216a3.987 3.987 0 0 0-1.804 3.118v5.593c0 1.133.811 1.608 1.804 1.035l5.383-3.104 2.111 2.111a.353.353 0 0 0 .376.065.353.353 0 0 0 .212-.316v-3.426l.965-.56a3.977 3.977 0 0 0 1.845-3.118v-5.593c0-1.132-.853-1.594-1.845-1.02Z" fill="#fff"/><path d="M305.062 145.737c4.726-2.685 8.557-.503 8.557 4.894a18.803 18.803 0 0 1-8.557 14.71c-4.74 2.797-8.572.545-8.572-4.894a18.65 18.65 0 0 1 8.572-14.71ZM322.093 139.151l28.399-16.388c1.678-.965 3.034-.28 3.034 1.524a6.487 6.487 0 0 1-3.034 5.034l-28.399 16.388c-1.664.965-3.02.279-3.02-1.524a6.502 6.502 0 0 1 3.02-5.034Z" fill="#37474F"/><path opacity=".7" d="m322.093 139.151 28.399-16.388c1.678-.965 3.034-.28 3.034 1.524a6.487 6.487 0 0 1-3.034 5.034l-28.399 16.388c-1.664.965-3.02.279-3.02-1.524a6.502 6.502 0 0 1 3.02-5.034Z" fill="#fff"/><path d="m321.142 150.771 19.478-11.187c1.147-.657 2.07-.195 2.07 1.049a4.467 4.467 0 0 1-2.07 3.454l-19.478 11.186c-1.147.657-2.069.182-2.069-1.063a4.436 4.436 0 0 1 2.069-3.439Z" fill="#37474F"/><path opacity=".7" d="m321.142 150.771 19.478-11.187c1.147-.657 2.07-.195 2.07 1.049a4.467 4.467 0 0 1-2.07 3.454l-19.478 11.186c-1.147.657-2.069.182-2.069-1.063a4.436 4.436 0 0 1 2.069-3.439Z" fill="#fff"/><path d="M305.062 292.752c4.726-2.684 8.557-.489 8.557 4.894a18.801 18.801 0 0 1-8.557 14.71c-4.74 2.797-8.572.546-8.572-4.894a18.705 18.705 0 0 1 8.572-14.71ZM322.093 286.181l28.399-16.402c1.678-.965 3.034-.28 3.034 1.524a6.495 6.495 0 0 1-3.034 5.034l-28.399 16.402c-1.664.964-3.02.279-3.02-1.539a6.503 6.503 0 0 1 3.02-5.019Z" fill="#37474F"/><path opacity=".7" d="m322.093 286.181 28.399-16.402c1.678-.965 3.034-.28 3.034 1.524a6.495 6.495 0 0 1-3.034 5.034l-28.399 16.402c-1.664.964-3.02.279-3.02-1.539a6.503 6.503 0 0 1 3.02-5.019Z" fill="#fff"/><path d="M321.142 297.786 340.62 286.6c1.147-.657 2.07-.196 2.07 1.049a4.463 4.463 0 0 1-2.07 3.454l-19.478 11.186c-1.147.657-2.069.182-2.069-1.049a4.454 4.454 0 0 1 2.069-3.454Z" fill="#37474F"/><path opacity=".7" d="M321.142 297.786 340.62 286.6c1.147-.657 2.07-.196 2.07 1.049a4.463 4.463 0 0 1-2.07 3.454l-19.478 11.186c-1.147.657-2.069.182-2.069-1.049a4.454 4.454 0 0 1 2.069-3.454Z" fill="#fff"/><path d="m302.405 173.479 107.542-62.084c1.678-.965 3.034-.182 3.034 1.748v107.402a6.716 6.716 0 0 1-3.034 5.258L302.405 288.25c-1.678.965-3.02.182-3.02-1.748v-107.78a6.667 6.667 0 0 1 3.02-5.243Z" fill="#F5F5F5"/><path d="M341.878 198.075a2.67 2.67 0 0 0-4.698.545l-37.753 71.704v16.178c0 1.93 1.398 2.713 3.02 1.748l107.542-62.126a6.703 6.703 0 0 0 3.034-5.257v-35.796l-20.429-36.286c-1.132-2.027-2.713-1.901-3.538.266l-27.196 72.081-19.982-23.057Z" fill="#37474F"/><path opacity=".3" d="M341.878 198.075a2.67 2.67 0 0 0-4.698.545l-37.753 71.704v16.178c0 1.93 1.398 2.713 3.02 1.748l107.542-62.126a6.703 6.703 0 0 0 3.034-5.257v-35.796l-20.429-36.286c-1.132-2.027-2.713-1.901-3.538.266l-27.196 72.081-19.982-23.057Z" fill="#00564C"/><path d="M310.725 202.535c9.48-5.439 17.185-18.695 17.185-29.601 0-5.594-2.014-9.425-5.216-11.187l-20.289 11.704a6.673 6.673 0 0 0-3.02 5.243v25.365c3.02 1.357 6.977.937 11.34-1.524Z" fill="#37474F"/><path opacity=".6" d="M310.725 202.535c9.48-5.439 17.185-18.695 17.185-29.601 0-5.594-2.014-9.425-5.216-11.187l-20.289 11.704a6.673 6.673 0 0 0-3.02 5.243v25.365c3.02 1.357 6.977.937 11.34-1.524Z" fill="#fff"/><path d="m302.405 321.054 107.542-62.098c1.678-.965 3.034-.28 3.034 1.538a6.485 6.485 0 0 1-3.034 5.02l-107.542 62.098c-1.678.965-3.02.279-3.02-1.538a6.442 6.442 0 0 1 3.02-5.02Z" fill="#37474F"/><path opacity=".6" d="m302.405 321.054 107.542-62.098c1.678-.965 3.034-.28 3.034 1.538a6.485 6.485 0 0 1-3.034 5.02l-107.542 62.098c-1.678.965-3.02.279-3.02-1.538a6.442 6.442 0 0 1 3.02-5.02Z" fill="#fff"/><path d="m302.405 334.17 107.542-62.056c1.678-.965 3.034-.28 3.034 1.538a6.488 6.488 0 0 1-3.034 5.02L302.405 340.77c-1.678.964-3.02.279-3.02-1.539a6.465 6.465 0 0 1 3.02-5.061Z" fill="#37474F"/><path opacity=".6" d="m302.405 334.17 107.542-62.056c1.678-.965 3.034-.28 3.034 1.538a6.488 6.488 0 0 1-3.034 5.02L302.405 340.77c-1.678.964-3.02.279-3.02-1.539a6.465 6.465 0 0 1 3.02-5.061Z" fill="#fff"/><path d="m318.988 115.017 76.724-44.256c2.349-1.398 4.195-.252 4.195 2.447a9.304 9.304 0 0 1-4.195 7.327l-76.71 44.13c-2.349 1.398-4.194.279-4.194-2.377a9.305 9.305 0 0 1 4.18-7.271Z" fill="#FAFAFA"/><path d="m544.406 198.956 5.439 9.969-8.46 7.257-7.76-12.291 10.781-4.935Z" fill="#F28F8F"/><path d="M523.991 176.737c5.397 0 11.34 2.013 13.382 6.25l8.389 17.395s-4.768 6.991-12.333 6.488l-9.438-30.133Z" fill="#E0E0E0"/><path d="M543.986 210.477c1.58-2.936 1.972-3.076 2.909-3.719.936-.643 6.697-1.496 9.088-1.706 2.797-.238 3.818.28 3.035 2.699a121.62 121.62 0 0 1-7.887 17.702c-.755.993-.895 1.916-4.069 2.237-2.95.28-6.655.448-7.746.504-1.091.056-2.601.349-1.636-2.867a104.675 104.675 0 0 1 4.335-10.669c1.216-2.67 1.971-4.181 1.971-4.181Z" fill="#37474F"/><path d="M480.98 309.406c-1.399-.699-2.196 1.006-3.412 2.377a10.11 10.11 0 0 0-2.391 3.579c-.294 1.608 1.174 4.195 2.796 5.594 1.622 1.398 3.496 2.419 4.083 5.495a7.525 7.525 0 0 0 4.978 6.292c3.496 1.51 8.18 1.021 9.788 0 1.874-1.216.154-2.559-2.475-6.334-3.439-4.922-6.124-8.39-6.124-13.046l-7.243-3.957Z" fill="#263238"/><path d="m483.735 305.365-2.797 4.195a3.96 3.96 0 0 0 .951 5.509l.084.07a4.295 4.295 0 0 0 5.411-.853l4.419-4.81-8.068-4.111Z" fill="#FFA8A7"/><path d="M535.666 224.488c.182 5.286-1.314 26.637-4.963 36.076-3.65 9.438-5.761 15.311-6.908 17.283-1.147 1.971-34.23 34.16-34.23 34.16s-5.593-.406-6.502-5.845c0 0 13.549-23.044 16.486-27.77 2.936-4.726 13.339-11.969 13.339-11.969l-.95-41.334 23.728-.601Z" fill="#37474F"/><path d="M486.657 219.342c0-.909 2.796-11.354 4.195-16.178l10.249 3.524-2.405 7.607-9.019 9.326a3.8 3.8 0 0 1-3.02-4.279ZM528.378 336.975l6.995-1.59-2.316-10.185-6.995 1.59 2.316 10.185Z" fill="#FFA8A7"/><path d="M535.667 224.488h-33.559c-.733 4.9-1.154 9.841-1.259 14.794-.265 14.542 13.27 40.956 13.27 40.956a55.571 55.571 0 0 0 .867 17.604c2.964 11.578 11.046 31.196 11.046 31.196s5.076.713 7.579-2.209c0 0-4.474-39.81-5.677-50.003-1.3-11.047-4.656-31.196-4.656-31.196a51.087 51.087 0 0 0 5.998-7.187 35.788 35.788 0 0 0 6.377-13.983" fill="#37474F"/><path d="M512.917 177.03c-6.433 1.552-15.2 3.566-17.731 10.529-2.531 6.964-6.18 19.311-6.18 19.311 1.398 2.447 9.159 4.474 11.857 3.062l1.259-4.195v18.709c5.034 5.481 22.568 8.026 33.559 0v-34.957c0-5.593-3.105-12.305-11.676-12.794l-11.088.335Z" fill="#11B5E4"/><path d="m502.122 205.779 3.23-10.165-3.23 14.71v-4.545Z" fill="#E0E0E0"/><path d="M510.497 148.463a3.842 3.842 0 0 0-3.16 1.119c-1.398 1.398-1.076 3.957 0 9.872l4.195.475-1.035-11.466ZM534.981 146.757a6.63 6.63 0 0 0 2.573-.489c1.287-.741 1.622.727.909 2a5.99 5.99 0 0 1-4.866 3.244c0-.182-1.202-3.286-1.202-3.286l2.586-1.469Z" fill="#263238"/><path d="M512.469 159.929c-.615.378-1.51-.825-2.279-1.622a2.703 2.703 0 0 0-3.71-.353 2.697 2.697 0 0 0-.821 1.08c-1.272 2.685 1.622 6.265 3.328 7.439a2.96 2.96 0 0 0 3.482.308l.447 10.277a10.99 10.99 0 0 0 8.264 6.279c6.041.811 4.796-4.195 2.797-6.6v-3.734c1.511.319 3.064.395 4.6.224.783-.21 2.657-2.475 3.873-5.02a22.801 22.801 0 0 0 1.608-16.472c-2.167-9.2-12.053-9.48-17.94-5.775-5.886 3.706-3.649 13.969-3.649 13.969Z" fill="#FFA8A7"/><path d="M512.469 160.978c-.308 0-1.496-1.971-2.279-2.671-1.077-.978.307-9.788.307-9.788a6.05 6.05 0 0 1 1.049-5.593c2.126-2.237 6.236-1.859 9.243-1.957a27.296 27.296 0 0 0 10.767-2.168c4.278-1.859 4.6-2.069 5.117-.195a10.424 10.424 0 0 1-1.817 9.06l-1.399 2.266s-1.3 1.09-5.285 1.58c-3.985.489-10.781-1.664-11.634-1.776-1.161-.154-1.398.965-2.028 4.027-.531 2.643-.978 7.201-2.041 7.215Z" fill="#263238"/><path d="m510.511 149.163-3.775-2.028a2.091 2.091 0 0 1 1.201-1.057 2.09 2.09 0 0 1 1.596.106 2.254 2.254 0 0 1 .978 2.979Z" fill="#263238"/><path d="M523.977 173.003a43.299 43.299 0 0 1-7.537-2.167 6.541 6.541 0 0 1-2.699-2.671 8.746 8.746 0 0 0 1.539 3.146c1.398 1.832 8.697 3.174 8.697 3.174v-1.482Z" fill="#F28F8F"/><path d="M524.159 159.734a1.15 1.15 0 0 1-1.119 1.16 1.14 1.14 0 0 1-.803-.355 1.16 1.16 0 0 1-.316-.819 1.15 1.15 0 0 1 1.119-1.161 1.155 1.155 0 0 1 .803.356 1.162 1.162 0 0 1 .316.819ZM522.97 155.497l-2.391 1.398a1.396 1.396 0 0 1 .134-1.564c.117-.144.262-.264.426-.352a1.396 1.396 0 0 1 1.831.518Z" fill="#263238"/><path d="m523.474 167.242 2.559.965a1.399 1.399 0 0 1-1.734.839 1.404 1.404 0 0 1-.788-.73 1.406 1.406 0 0 1-.037-1.074Z" fill="#F28F8F"/><path d="m534.143 156.434-2.182-1.678a1.397 1.397 0 0 1 1.902-.294 1.397 1.397 0 0 1 .28 1.972ZM533.471 159.412a1.15 1.15 0 0 1-1.118 1.161 1.155 1.155 0 0 1-.803-.356 1.145 1.145 0 0 1-.316-.819 1.146 1.146 0 0 1 1.119-1.161 1.158 1.158 0 0 1 1.118 1.175Z" fill="#263238"/><path d="m528.2 159.272-1.049 6.656 3.677-.433-2.628-6.223Z" fill="#F28F8F"/><path d="m534.576 331.988-.224-1.007c.727.14 3.873 5.356 6.992 7.621 3.411 2.475 6.362 3.943 7.886 5.062 2.041 1.496-.909 4.558-5.929 4.838-2.489.126-6.991-.629-8.39-1.958-1.398-1.328-2.405-3.524-3.523-4.474-1.119-.951-3.342-1.79-4.111-3.007a8.924 8.924 0 0 1-.434-3.761c0-1.314.098-2.797.546-2.727l.167.755a8.615 8.615 0 0 0 4.195.937c1.217-.056 3.412-.321 2.825-2.279ZM527.067 270.058s-2.978-21.156-3.775-24.428a33.75 33.75 0 0 0 6.628-4.74 56.192 56.192 0 0 1-4.531 5.663l1.678 23.505ZM509.099 269.317s3.58 8.907 5.034 10.879c0 0-.364 6.795-.322 8.166l-1.873 1.636a42.922 42.922 0 0 1 .839-9.159 55.271 55.271 0 0 1-3.678-11.522Z" fill="#263238"/><path d="M498.738 214.295s28.203 3.02 31.517 1.999c3.314-1.02 7.761-4.306 10.096-5.705 2.335-1.398 4.111-1.482 4.111-.909 0 .574-2.042 3.692-2.503 4.992-.462 1.301 2.195 1.301 5.705.49 3.51-.811 4.908-2.797 5.817-1.65.909 1.146-1.944 6.991-7.761 9.186-5.817 2.196-10.137.728-14.947.937-4.811.21-34.44 2.098-41.11 0a5.89 5.89 0 0 1 2.307-5.691 21.28 21.28 0 0 1 6.768-3.649ZM342.382 349.019c.07-.909 1.79-10.697 2.964-16.178l11.508 3.524-1.846 7.676-9.564 9.257a3.803 3.803 0 0 1-3.062-4.279Z" fill="#FFA8A7"/><path d="M367.607 266.157h5.593a15.562 15.562 0 0 1 15.563 15.563v39.655h-36.719V281.72a15.566 15.566 0 0 1 15.563-15.563Z" fill="#263238"/><path d="m398.048 328.45 5.439 9.97-8.474 7.243-7.746-12.291 10.781-4.922Z" fill="#F28F8F"/><path d="M377.633 306.218c5.397 0 11.34 2.013 13.381 6.25l8.39 17.394s-4.768 6.992-12.333 6.503l-9.438-30.147Z" fill="#455A64"/><path d="M381.995 478.724a49.259 49.259 0 0 0 6.237 6.879c.367.296.66.674.853 1.105.237.727.545 2.475-2.685 3.188a11.686 11.686 0 0 1-9.495-2.055c-2.363-1.902-2.083-5.244-4.264-7.439-1.622-1.608-3.818-2.238-5.034-4.195-.853-1.398-.392-3.062.377-5.118.77-2.055 1.315-3.929 2.056-3.663l-.252 1.034c.769 1.636 5.593 2.671 7.956 1.888a91.142 91.142 0 0 0 4.251 8.376Z" fill="#263238"/><path d="M383.897 481.129a32.919 32.919 0 0 1-1.902-2.405 57.863 57.863 0 0 1-3.314-6.39 5.733 5.733 0 0 1-.307-4.195l1.594-5.384-8.39-1.929-1.818 7.537c-.391 1.719.853 3.425 3.132 5.914 2.28 2.489 4.908 7.971 6.992 9.523 2.083 1.552 3.789 1.706 4.852 1.174 1.063-.531 1.328-1.021-.839-3.845Z" fill="#FFA8A7"/><path d="M359.427 483.464v-1.189c.475 1.399 2.629 7.355 5.901 10.348 2.614 2.363 6.166 5.117 7.061 7.76.895 2.643-4.936 3.678-7.369 3.244a15.005 15.005 0 0 1-8.474-4.544c-1.398-1.72-2.293-3.762-3.299-5.118-1.007-1.356-3.3-2.796-3.832-4.419a9.96 9.96 0 0 1 .462-4.334c.391-1.398.797-3.062 1.3-2.937v.979a6.631 6.631 0 0 0 4.195 1.399c1.146 0 4.069-.266 4.055-1.189Z" fill="#263238"/><path d="m367.691 494.706-2.363-2.097a24.225 24.225 0 0 1-5.034-8.04 11.33 11.33 0 0 1-.867-4.349v-4.712h-8.25v7.872c.392 1.72 4.195 6.278 6.334 9.257a12.045 12.045 0 0 0 7.467 4.978c3.146.419 4.782-.56 2.713-2.909Z" fill="#FFA8A7"/><path d="M352.813 355.158c-6.39 13.982.238 63.216.238 63.216-.196 2.279-2.797 6.74-3.748 16.779-1.146 11.802 1.79 41.418 1.79 41.418a8.918 8.918 0 0 0 8.39.335s7.872-44.619 9.355-56.351l4.726-37.642 6.991 36.733a46.67 46.67 0 0 0-4.614 9.173c-1.664 5.188-5.034 34.748-5.034 34.748a10.097 10.097 0 0 0 8.53 2.502s16.15-40.55 16.877-48.828c.433-4.964-6.81-64.069-6.81-64.069l-36.691 1.986Z" fill="#37474F"/><path d="m373.508 382.858 1.118-8.083s8.796-1.817 12.781-5.593a22.754 22.754 0 0 1-10.389 6.908l-1.175 7.802 1.398 18.08-3.733-19.114Z" fill="#263238"/><path d="M364.167 306.595a16.208 16.208 0 0 0-10.837 8.865 13.986 13.986 0 0 0-.391 10.571l5.635 16.542s-2.671 6.474-5.789 12.584c14.36 8.013 32.273 3.804 36.593-2.041.182-1.245-.07-6.838.28-13.186.363-6.782 1.3-14.444.238-18.625-1.986-7.788-5.691-15.087-13.06-15.087l-12.669.377Z" fill="#F03E3D"/><path d="M361.972 306.595c-4.894.685-12.081 1.678-14.57 13.312-2.489 11.634-3.23 15.898-3.23 15.898a16.268 16.268 0 0 0 12.137 4.643l2.531-8.949 3.132-24.904Z" fill="#455A64"/><path d="M364.754 316.411a6.435 6.435 0 0 1-5.942-3.97 6.44 6.44 0 0 1-.49-2.462v-18.723h6.432v25.155Z" fill="#263238"/><path d="M382.736 273.582c1.944 1.146 4.335 6.026 4.097 16.248-.196 8.669-3.006 10.822-4.418 11.438-1.413.615-4.125.237-6.768-.21v5.201s3.649 4.195 3.426 6.642c-.224 2.447-5.286 2.951-8.712.616a22.39 22.39 0 0 1-5.593-5.873v-12.585a3.336 3.336 0 0 1-2.262 1.208 3.328 3.328 0 0 1-2.45-.76c-2.922-1.944-3.034-6.74-1.328-8.39 1.706-1.65 5.355-1.175 6.04 1.202a20.834 20.834 0 0 0 9.788-2.936 15.76 15.76 0 0 0 8.18-11.801Z" fill="#FFA8A7"/><path d="M377.157 287.662a1.087 1.087 0 0 1-.652 1.011 1.09 1.09 0 1 1-.495-2.087 1.103 1.103 0 0 1 1.147 1.076Z" fill="#263238"/><path d="m377.451 295.003 2.531.811a1.305 1.305 0 0 1-1.13.964 1.309 1.309 0 0 1-.52-.055 1.4 1.4 0 0 1-.881-1.72Z" fill="#F28F8F"/><path d="m386.092 284.306-2.195-1.524a1.287 1.287 0 0 1 1.832-.377 1.4 1.4 0 0 1 .363 1.901ZM385.589 286.865a1.12 1.12 0 0 1-1.035 1.189 1.134 1.134 0 0 1-1.147-1.077 1.096 1.096 0 0 1 .622-1.042c.13-.062.27-.097.413-.104a1.082 1.082 0 0 1 .788.28 1.09 1.09 0 0 1 .359.754Z" fill="#263238"/><path d="m380.443 286.25.182 6.558 3.454-1.077-3.636-5.481ZM375.647 301.058c-2.796-.364-8.529-2.014-9.424-4.279a5.826 5.826 0 0 0 2.013 2.895c1.706 1.468 7.411 3.132 7.411 3.132v-1.748Z" fill="#F28F8F"/><path d="M397.614 339.958c1.58-2.936 1.972-3.062 2.923-3.705.95-.644 6.697-1.51 9.088-1.72 2.797-.238 3.818.279 3.035 2.712a123.645 123.645 0 0 1-7.942 17.689c-.756 1.007-.909 1.929-4.07 2.237-3.16.308-6.669.447-7.76.517-1.091.07-2.601.336-1.622-2.88a106.399 106.399 0 0 1 4.321-10.669c1.272-2.643 2.027-4.181 2.027-4.181Z" fill="#37474F"/><path d="M355.008 344.097s25.575 2.699 28.889 1.678 7.76-4.335 10.151-5.705 4.111-1.482 4.111-.923c0 .56-2.041 3.706-2.517 4.992-.475 1.287 2.21 1.3 5.705.489 3.496-.811 4.908-2.796 5.831-1.649.923 1.146-1.943 6.991-7.76 9.186-5.817 2.196-10.138.741-14.948.937-4.81.196-32.356 2.349-39.026.252a5.89 5.89 0 0 1 2.307-5.691 20.397 20.397 0 0 1 7.257-3.566Z" fill="#FFA8A7"/><path d="M356.854 337.525a86.779 86.779 0 0 0 2.797-9.075s-.462 6.754-2.364 10.376l-.433-1.301Z" fill="#37474F"/><path d="m149.922 254.369-4.544 9.816 8.46 7.244 7.313-12.347-11.229-4.713Z" fill="#F28F8F"/><path d="M170.785 231.913c-5.398 0-11.34 2.028-13.382 6.251-2.041 4.222-8.39 17.408-8.39 17.408s4.769 6.992 12.333 6.488l9.439-30.147Z" fill="#37474F"/><path d="M194.192 387.668h-7.467v10.864h7.467v-10.864ZM167.94 374.225l-7.463.257.374 10.858 7.462-.256-.373-10.859Z" fill="#FFA8A7"/><path d="M193.688 281.594c0 7.131.923 53.219.923 53.219.182 2.041 2.098 5.831 1.678 13.703-.559 10.697-1.482 40.41-1.482 40.41s-3.496 3.468-8.39 0c0 0-6.767-40.382-8.096-50.981-1.174-9.243-3.146-34.37-3.146-34.37l-6.921 29.574s1.216 6.991 1.496 11.857-1.273 33.265-1.273 33.265a8.178 8.178 0 0 1-8.124.308s-5.984-41.417-6.753-45.85c-.769-4.432 5.243-51.135 5.243-51.135h34.845Z" fill="#37474F"/><path d="M182.46 232.249h.112a14.789 14.789 0 0 1 11.186 14.388v34.957c-5.229 5.691-23.463 8.39-34.957 0v-36.355c0-5.803 3.23-12.795 12.137-13.312l11.522.322Z" fill="#02897A"/><path d="M184.977 202.507a4 4 0 0 1 3.286 1.161c1.399 1.398 1.119 4.125 0 10.263l-4.362.504 1.076-11.928ZM159.514 200.801a6.972 6.972 0 0 1-2.726-.545c-1.398-.769-1.692.755-.965 2.069a6.238 6.238 0 0 0 5.076 3.37c0-.181 1.244-3.397 1.244-3.397l-2.629-1.497Z" fill="#263238"/><path d="M182.922 214.435c.657.391 1.58-.853 2.377-1.692a2.793 2.793 0 0 1 3.865-.365c.375.299.666.69.847 1.134 1.398 2.796-1.692 6.516-3.454 7.732a3.102 3.102 0 0 1-3.635.322l-.462 10.683a11.41 11.41 0 0 1-8.599 6.53c-6.278.853-4.978-4.321-2.923-6.866v-3.887c-1.565.34-3.175.425-4.768.252-.825-.224-2.796-2.587-4.041-5.23-1.398-2.964-3.761-8.222-1.664-17.129 2.252-9.578 12.585-9.872 18.653-6.013 6.069 3.86 3.804 14.529 3.804 14.529Z" fill="#FFA8A7"/><path d="M182.922 215.525c.335 0 1.566-2.041 2.377-2.796 1.118-1.021-.322-10.236-.322-10.236s1.133-3.481-1.076-5.803c-2.21-2.321-6.502-1.929-9.635-2.041a28.082 28.082 0 0 1-11.186-2.251c-4.446-1.93-4.782-2.154-5.327-.21a10.835 10.835 0 0 0 1.887 9.424l2.21.811s1.188 1.063 5.341 1.566a62.43 62.43 0 0 0 11.494-.209c1.202-.168 1.398.992 2.111 4.195.56 2.796 1.035 7.536 2.126 7.55Z" fill="#263238"/><path d="m184.963 203.234 3.929-2.111a2.147 2.147 0 0 0-2.133-1.226 2.15 2.15 0 0 0-.831.247 2.351 2.351 0 0 0-.965 3.09Z" fill="#263238"/><path d="M170.952 228.026a43.56 43.56 0 0 0 7.845-2.251 6.641 6.641 0 0 0 2.796-2.797 9.076 9.076 0 0 1-1.594 3.272c-1.482 1.902-9.061 3.3-9.061 3.3l.014-1.524Z" fill="#F28F8F"/><path d="M172.351 212.98a1.172 1.172 0 0 0 2.019.788 1.17 1.17 0 0 0 .233-1.281 1.168 1.168 0 0 0-1.919-.346 1.188 1.188 0 0 0-.333.839ZM173.581 208.59l2.503 1.398a1.507 1.507 0 0 0-.587-1.985 1.396 1.396 0 0 0-1.916.587Z" fill="#263238"/><path d="m172.435 220.88-2.657 1.007a1.393 1.393 0 0 0 1.254.962c.186.01.374-.017.55-.081a1.485 1.485 0 0 0 .853-1.888Z" fill="#F28F8F"/><path d="m161.962 209.555 2.251-1.762a1.396 1.396 0 0 0-1.986-.308 1.508 1.508 0 0 0-.265 2.07ZM162.661 212.659a1.186 1.186 0 0 0 1.16 1.202 1.204 1.204 0 0 0 1.175-1.216c.018-.164.001-.33-.05-.487a1.163 1.163 0 0 0-.639-.714 1.18 1.18 0 0 0-.958 0 1.187 1.187 0 0 0-.639.714 1.164 1.164 0 0 0-.049.487v.014Z" fill="#263238"/><path d="m168.603 211.554-.391 7.005-3.65-1.244 4.041-5.761Z" fill="#F28F8F"/><path d="M186.725 394.841v-1.077c-.713.308-2.377 6.642-5.327 9.341-2.363 2.139-5.594 4.628-6.391 6.991-.797 2.363 4.475 3.86 6.67 3.468 2.559-.447 6.992-2.251 8.096-3.915 1.105-1.664 1.636-4.125 2.531-5.356.895-1.23 2.993-2.586 3.482-3.999a9.065 9.065 0 0 0-.434-3.915c-.349-1.314-.713-2.796-1.16-2.643v.811a5.86 5.86 0 0 1-3.734 1.259c-1.076.084-3.747-.126-3.733-.965ZM160.787 383.026c-.392 0-.713.559-1.566 1.482a15.97 15.97 0 0 1-4.391 3.16c-2.796 1.398-8.222 3.552-10.683 4.656-1.524.699-1.398 2.545.126 3.608 1.524 1.063 5.425 1.818 10.026.783 2.503-.559 5.775-2.867 7.83-2.797 2.056.07 5.929.098 7.453-.951 1.524-1.048.923-3.299.489-5.229-.433-1.93-1.146-5.314-1.845-5.174v.657c-.895 1.399-5.468 1.916-7.439.923v-1.118Z" fill="#263238"/><path d="M150.803 265.668c-1.58-2.951-1.971-3.076-2.922-3.72-.951-.643-6.698-1.51-9.089-1.706-2.797-.237-3.817.28-3.034 2.699a124.587 124.587 0 0 0 7.886 17.702c.755.993.909 1.916 4.069 2.224 3.16.307 6.67.447 7.76.517 1.091.07 2.601.336 1.622-2.88a107.689 107.689 0 0 0-4.32-10.669c-1.147-2.643-1.972-4.167-1.972-4.167Z" fill="#37474F"/><path d="M208.119 274.533c-.07-.923-2.797-11.354-4.195-16.178l-10.236 3.523 2.406 7.593 9.004 9.327a3.791 3.791 0 0 0 3.021-4.265Z" fill="#FFA8A7"/><path d="M196.052 269.471s-28.218 3.02-31.532 2c-3.314-1.021-7.76-4.335-10.151-5.705-2.391-1.371-4.111-1.483-4.111-.909 0 .573 2.041 3.691 2.517 4.978.475 1.286-2.209 1.3-5.705.489s-4.908-2.797-5.831-1.65c-.923 1.147 1.944 6.991 7.76 9.187 5.817 2.195 10.138.741 14.948.937 4.81.195 34.44 2.097 41.11 0a5.854 5.854 0 0 0-2.308-5.677 21.465 21.465 0 0 0-6.697-3.65Z" fill="#FFA8A7"/><path d="M184.823 233.046c4.433 1.468 13.228 2.209 16.067 11.801 2.838 9.592 4.265 15.815 4.265 15.815-1.678 2.237-8.39 4.824-11.466 3.859l-8.866-31.475Z" fill="#455A64"/><path d="m193.689 264.521-3.035-10.767 3.035 15.158v-4.391ZM130.039 287.145c-.14.182-1.329 2.153-1.329 2.153l-5.467 7.831-5.327 7.984a1.401 1.401 0 0 1-1.553.545l-.363-.125c-1.846-.686-4.614-1.846-8.292-3.538-2.95-1.398-2.797-1.804-2.797-2.307a6.362 6.362 0 0 1 0-1.203c.602-1.146 2.461-4.013 4.964-7.634 4.447-6.46 6.586-9.327 7.915-11.187a1.4 1.4 0 0 1 1.748-.461c2.391.797 7.243 2.88 9.788 3.915h.111c1.371.741.616 3.971.602 4.027Z" fill="#37474F"/><path d="m130.178 286.893-1.398 2.405-5.341 7.985-5.593 7.788a1.401 1.401 0 0 1-1.553.545l-.363-.125c-1.846-.686-4.614-1.846-8.292-3.538-2.95-1.398-2.796-1.804-2.796-2.307a6.2 6.2 0 0 1 0-1.203c2.796 1.231 11.647 5.426 11.941 5.272.699-.336 6.698-9.956 9.886-14.864 1.594-2.447 2.307-3.482 2.796-4.321a.913.913 0 0 0 .228-.744.933.933 0 0 0-.423-.654h-.112a2.277 2.277 0 0 1 1.188 1.664 2.166 2.166 0 0 1-.168 2.097Z" fill="#37474F"/><path opacity=".1" d="m130.178 286.893-1.398 2.405-5.341 7.985-5.593 7.788a1.401 1.401 0 0 1-1.553.545l-.363-.125c-1.846-.686-4.614-1.846-8.292-3.538-2.95-1.398-2.796-1.804-2.796-2.307a6.2 6.2 0 0 1 0-1.203c2.796 1.231 11.647 5.426 11.941 5.272.699-.336 6.698-9.956 9.886-14.864 1.594-2.447 2.307-3.482 2.796-4.321a.913.913 0 0 0 .228-.744.933.933 0 0 0-.423-.654h-.112a2.277 2.277 0 0 1 1.188 1.664 2.166 2.166 0 0 1-.168 2.097Z" fill="#000"/><path d="m117.86 281.496 9.815 4.111-10.459 15.549-9.76-4.489 10.404-15.171Z" fill="#FAFAFA"/><path d="M115.105 335.679c2.685-.769 6.74-10.752 9.788-22.078 3.048-11.327 4.656-13.829 4.754-17.395.098-3.566-.154-8.25-.154-8.25l-5.313 7.761a14.008 14.008 0 0 0-1.398-4.293c-.686-1.398-1.972-2.503-3.021-1.664-.559.447.923 2.363.602 6.642a22.31 22.31 0 0 0 .503 5.075l-9.872 23.911 4.111 10.291Z" fill="#FFA8A7"/><path d="M75.38 286.096c-3.118-.88-5.761.783-7.23 5.747a194.031 194.031 0 0 0-5.593 28.497c-.419 3.454-.895 7.649 2.406 7.971 2.516.251 9.788-1.147 11.06-2.405 1.706-1.65 1.398-8.306 1.398-8.306h-3.775s.81-5.244 1.049-6.838c.839-5.355 2.083-12.109 2.083-12.109l-1.398-12.557Z" fill="#F28F8F"/><path d="m93.683 281.188-1.272 11.201-11.047 1.286 1.594-14.864 10.725 2.377Z" fill="#FFA8A7"/><path d="M70.038 264.843c.91-10.348 6.516-14.599 10.851-15.633 8.753-2.056 17.395.881 20.974 6.991a15.368 15.368 0 0 1 0 12.109c-1.901 4.335-31.783-3.495-31.783-3.495" fill="#263238"/><path d="M102.409 270.408s1.58 4.265 1.16 4.586a6.126 6.126 0 0 1-2.055.364l.895-4.95Z" fill="#FFA8A7"/><path d="M97.696 256.928c2.084 1.79 5.593 5.034 4.657 13.983-1.035 9.257-3.272 11.76-4.783 12.655-1.006.601-5.467-.448-7.536-1.664-2.573-1.524-8.278-5.454-10.012-10.753-2.056-6.237-1.02-13.675 3.482-15.619a14.754 14.754 0 0 1 14.192 1.398Z" fill="#FFA8A7"/><path d="M100.269 257.166a16.468 16.468 0 0 1-5.97 12.99s-1.3-3.37-4.195-2.601c-2.895.769-2.797 4.587-.728 6.656a4.194 4.194 0 0 0 4.349 1.189 12.696 12.696 0 0 1-3.537 6.991 16.435 16.435 0 0 1-16.5-5.733c-6.39-7.677-4.503-19.87 5.481-23.463a19.968 19.968 0 0 1 21.1 3.971ZM80.036 449.696l4.768 6.627a15.79 15.79 0 0 1-6.921 1.399c-4.265.168-5.44-1.231-5.593-1.566-.728-1.552.405-4.335.713-6.726l7.033.266Z" fill="#263238"/><path d="M84.51 453.122s5.775-.378 9.788-.881c4.013-.504 7.16 1.398 6.223 3.09-.937 1.692-3.146 3.02-6.572 4.195-2.923.992-6.446 1.706-9.508 2.614-3.063.909-5.146 2.028-6.922 1.399-1.986-.685-2.797-1.482-2.67-2.923a62.24 62.24 0 0 1 1.607-6.082l8.054-1.412Z" fill="#263238"/><path d="M72.29 443.012s.713 6.013.769 7.313c.056 1.3 5.872 1.706 6.991-.657l.182-7.355-7.942.699Z" fill="#F28F8F"/><path d="m78.148 446.717-2.027 9.131s-.21 1.105 4.558 1.818c4.768.713 12.207-2.489 13.48-3.132 1.272-.644 1.398-1.944-3.258-1.692-4.657.251-6.32.279-6.32.279l1.523-4.055-7.956-2.349Z" fill="#FFA8A7"/><path d="M72.29 324.479c-3.986 6.195-7.761 11.648-8.572 18.612-1.706 14.71 3.887 31.517 5.076 42.396a19.671 19.671 0 0 0-3.762 10.613c0 4.502 7.257 46.912 7.257 46.912s5.272 1.608 7.929-.699l4.992-78.024-2.63-9.495-10.29-30.315Z" fill="#455A64"/><path d="m85.21 364.288-2.63-9.494a63.654 63.654 0 0 1-14.22-5.593s2.699 4.894 10.404 7.579l4.013 12.207.35 27.965 2.083-32.664Z" fill="#37474F"/><path d="M72.29 324.479c-2.126 3.468-7.23 9.425-6.139 15.13 1.314 6.991 5.034 11.787 16.43 15.185l10.683 38.691s-5.593 5.215-7.257 10.165c-1.664 4.95-7.859 43.067-7.859 43.067s1.902 3.105 7.915 2.349c0 0 20.974-47.807 22.372-50.883a15.477 15.477 0 0 0 1.776-10.389c-.671-5.006-7.803-59.847-7.803-59.847l-30.118-3.468Z" fill="#455A64"/><path d="M70.346 289.564a5.315 5.315 0 0 1 5.775-3.384c7.453 2.028 19.044 4.699 21.24 5.342 0 0-.993 14.36 7.592 19.422-.405 3.202-2.586 17.003-2.586 17.003s-10.32 5.006-18.807 2.545c-8.488-2.461-11.34-6.013-11.34-6.013l4.195-6.921c-.91-2.251-4.42-9.9-6.684-17.003a20.794 20.794 0 0 1 .615-10.991Z" fill="#FFB900"/><path d="M75.38 314.831a74.835 74.835 0 0 0 11.06 5.467 20.834 20.834 0 0 1-9.9-2.796l-1.16-2.671ZM104.772 309.867a15.38 15.38 0 0 1-7.146-6.712 14.838 14.838 0 0 0 7.146 11.075v-4.363Z" fill="#E0E0E0"/><path d="M97.43 291.522c4.685 1.398 7.593 1.845 10.124 4.111 3.328 2.992 6.768 19.911 7.467 23.407 1.217 6.055 2.559 12.347 1.245 15.171-.951 2.042-6.125 3.566-8.39-3.034-.476-1.398-.573-2.041-.993-3.3-2.139-6.32-5.355-18.401-5.355-18.401s-6.335-3.496-4.097-17.954Z" fill="#FFA8A7"/><path d="M74.722 253.195c-1.663.965-4.67 1.902-6.543 10.641a133.826 133.826 0 0 0-2.713 22.26c.07 2.713 5.69 10.25 17.548 9.537 11.858-.713 16.164-7.663 16.164-7.663s-5.83-2.377-5.369-12.584c0 0-2.055 4.041-7.69 2.013-5.636-2.027-11.397-24.204-11.397-24.204Z" fill="#263238"/></svg>