<svg xmlns="http://www.w3.org/2000/svg" width="528" height="393" fill="none"><path fill="#F5F5F5" d="M77.333 351.945c103.09 53.863 270.255 53.863 373.345 0 103.09-53.862 103.102-141.184 0-195.046-103.102-53.863-270.255-53.863-373.358 0-103.102 53.862-103.09 141.184.013 195.046Z"/><path fill="#02897A" d="M50.665 171.563s-.613-13.831-8.19-21.874-16.148-6.02-19.152-4.291c-3.003 1.728-4.818 6.314.638 9.244 5.456 2.931 17.055 8.767 19.225 14.395l7.48 2.526Z"/><path stroke="#fff" stroke-linecap="round" stroke-miterlimit="10" stroke-width=".997" d="M26.646 146.771c4.672 1.116 18.27 7.798 20.5 21.616"/><path fill="#02897A" d="M47.147 168.387c-.65-3.47-4.132-5.701-9.895-4.426-5.763 1.275-4.904 1.079-12.163-.368-7.258-1.447-12.04 1.753-12.408 4.524-.417 3.016 5.48 4.022 9.931 5.738 4.451 1.717 7.578 4.034 6.744 8.007-.711 3.396 0 6.204 5.235 7.16 4.647.846 9.417-2.072 11.538 2.232a6.818 6.818 0 0 0 9.49 2.452c9.76-11.182-8.472-25.319-8.472-25.319Z"/><path stroke="#fff" stroke-linecap="round" stroke-miterlimit="10" stroke-width=".997" d="M34.591 182.082a20.498 20.498 0 0 1 10.545-5.161"/><path stroke="#fff" stroke-linecap="round" stroke-miterlimit="10" stroke-width=".997" d="M17.855 166.327c7.504.147 29.819 7.933 36.023 19.838"/><path fill="#37474F" d="M62.006 244.429a28.283 28.283 0 0 1-8.165-3.518c-2.122-1.227-24.67-14.211-35.557-20.55a12.658 12.658 0 0 0-11.513-.171c-.74.4-1.36.993-1.79 1.716h-.405v1.398a4.303 4.303 0 0 0 2.563 3.494l35.703 20.623c1.877 1.067 5.15 3.053 5.947 4.671l-.552.319v1.41l16.761-9.674v-1.41l-2.992 1.692Z"/><path fill="#455A64" d="M6.771 218.743c-3.065 1.765-2.894 4.72.368 6.608l35.704 20.586c2.648 1.521 8.092 4.905 5.394 6.401l16.761-9.674c-2.66 1.557-8.325-1.557-11.157-3.2-2.121-1.226-24.67-14.211-35.557-20.562a12.686 12.686 0 0 0-11.513-.159Z"/><path fill="#37474F" d="m66.15 240.531-16.258 9.391a5.562 5.562 0 0 0-2.947 4.905 5.554 5.554 0 0 0 2.947 4.904l21.8 12.592a6.526 6.526 0 0 0 5.91 0l16.258-9.392a5.536 5.536 0 0 0 2.961-4.904 5.544 5.544 0 0 0-2.96-4.904l-21.8-12.592a6.513 6.513 0 0 0-5.91 0Z"/><path fill="#BA68C8" d="m49.893 249.922 16.258-9.391a6.513 6.513 0 0 1 5.91 0l21.8 12.579c1.63.944 1.63 2.452 0 3.421l-16.222 9.38a6.525 6.525 0 0 1-5.91 0l-21.836-12.617c-1.68-.907-1.68-2.452 0-3.372Z"/><path fill="#37474F" d="M143.848 293.755h-.392a5.324 5.324 0 0 0-2.158-2.109l-43.956-25.38c-1.9-1.091-3.678-2.182-2.452-4.965v-1.398l-16.92 9.809v1.397a9.81 9.81 0 0 1 8.313 1.606c1.692 1.067 30.554 17.681 43.956 25.381a12.658 12.658 0 0 0 11.451.208 3.677 3.677 0 0 0 2.183-3.102l-.025-1.447Z"/><path fill="#455A64" d="M86.307 271.269c1.692 1.054 30.555 17.68 43.956 25.38a12.7 12.7 0 0 0 11.452.208c3.053-1.765 2.893-4.732-.368-6.608l-43.956-25.381c-1.9-1.091-3.678-2.194-2.452-4.965l-16.92 9.809a9.802 9.802 0 0 1 8.288 1.557Z"/><path fill="#37474F" d="M129.441 289.746a.725.725 0 0 0 0 1.373 2.631 2.631 0 0 0 2.379 0 .727.727 0 0 0 .496-.687.722.722 0 0 0-.496-.686 2.627 2.627 0 0 0-2.379 0ZM121.129 284.952a.733.733 0 0 0-.354 1.116.733.733 0 0 0 .354.269 2.614 2.614 0 0 0 2.378 0 .733.733 0 0 0 .354-1.116.733.733 0 0 0-.354-.269 2.614 2.614 0 0 0-2.378 0ZM112.815 280.17a.725.725 0 0 0 0 1.373 2.646 2.646 0 0 0 2.391 0 .723.723 0 0 0 0-1.373 2.652 2.652 0 0 0-2.391 0ZM104.515 275.364a.72.72 0 0 0-.495.686.724.724 0 0 0 .495.687 2.631 2.631 0 0 0 2.379 0 .724.724 0 0 0 0-1.373 2.63 2.63 0 0 0-2.379 0ZM96.202 270.607a.721.721 0 0 0 0 1.373 2.629 2.629 0 0 0 2.379 0 .725.725 0 0 0 .359-1.11.714.714 0 0 0-.36-.263 2.615 2.615 0 0 0-2.378 0Z"/><path fill="#F0F0F0" d="M74.647 265.935a5.369 5.369 0 0 1-2.611-.613l-21.8-12.592c-.552-.319-.883-.723-.883-1.103s.331-.797.883-1.116l16.258-9.392a5.873 5.873 0 0 1 5.223 0l21.861 12.592c.564.319.883.723.883 1.104 0 .38-.319.796-.883 1.115l-16.258 9.392a5.366 5.366 0 0 1-2.673.613Z"/><path fill="#fff" d="M69.056 241.193a4.679 4.679 0 0 1 2.269.515l21.8 12.591c.441.258.54.479.54.528 0 .049-.099.257-.54.515l-16.258 9.392a5.252 5.252 0 0 1-4.537 0l-21.75-12.592c-.442-.258-.54-.479-.54-.515 0-.037.098-.27.54-.528l16.257-9.391c.701-.36 1.481-.537 2.269-.515h-.05Zm0-1.386a6.131 6.131 0 0 0-2.954.711l-16.258 9.392c-1.631.932-1.631 2.452 0 3.409l21.8 12.579a6.5 6.5 0 0 0 5.91 0l16.257-9.379c1.631-.944 1.631-2.452 0-3.421l-21.75-12.568a6.14 6.14 0 0 0-3.005-.723Z"/><path fill="#37474F" d="m53.706 241.315 16.258-9.379a6.513 6.513 0 0 1 5.91 0l21.787 12.579c1.631.944 1.631 2.452 0 3.409l-16.245 9.392a6.525 6.525 0 0 1-5.91 0l-21.8-12.605c-1.63-.919-1.63-2.452 0-3.396Z"/><path fill="#fff" d="M68.346 250.453a.284.284 0 0 1-.166.038.657.657 0 0 1-.212-.085l-.084-.048c-.081-.047-.128-.086-.141-.118-.013-.037.006-.071.057-.101l.808-.468-3.296-1.894-.736.583c-.047.027-.126.024-.238-.01a1.499 1.499 0 0 1-.295-.126c-.077-.044-.082-.096-.013-.155l1.044-.932a.509.509 0 0 1 .192-.06c.073-.012.128-.008.167.015l3.829 2.2.692-.402a.253.253 0 0 1 .167-.03.53.53 0 0 1 .212.078l.083.048c.081.047.129.088.141.126.013.032-.006.062-.057.092l-2.154 1.249Zm2.788-1.617c-.038.023-.113.019-.224-.01a1.37 1.37 0 0 1-.283-.118c-.051-.03-.08-.053-.084-.071l-.639-2.069a1.486 1.486 0 0 0-.18-.422.923.923 0 0 0-.29-.248 1.113 1.113 0 0 0-.616-.147 1.33 1.33 0 0 0-.628.187.937.937 0 0 0-.308.252c-.05.079-.1.177-.147.293-.013.067-.032.108-.057.123-.052.029-.152.036-.302.019a.897.897 0 0 1-.314-.077c-.09-.052-.114-.135-.071-.249a.99.99 0 0 1 .255-.371c.133-.131.282-.245.449-.341a2.628 2.628 0 0 1 1.225-.362 2.05 2.05 0 0 1 1.149.261c.15.086.268.178.353.277.09.096.165.221.226.374.06.153.122.366.187.64l.458 1.344 1.545-.896a.248.248 0 0 1 .16-.034.53.53 0 0 1 .212.078l.084.048c.08.047.128.088.141.126.013.032-.006.062-.058.092l-2.243 1.301Zm.597-3.328c-.188.109-.336.133-.443.072l-.469-.27c-.107-.061-.067-.147.121-.256l.142-.081c.188-.109.335-.133.442-.072l.47.27c.106.061.066.147-.122.256l-.141.081ZM74.326 247c-.188.109-.336.133-.443.071l-.469-.269c-.107-.062-.066-.147.122-.256l.14-.082c.189-.109.336-.133.443-.071l.47.269c.106.062.066.147-.122.256l-.141.082Zm2.295-1.294c-.394.228-.894.298-1.502.211-.603-.091-1.288-.356-2.054-.797-.767-.44-1.23-.834-1.389-1.182-.154-.351-.035-.64.358-.868.397-.23.9-.302 1.507-.214.608.088 1.295.352 2.062.792.766.441 1.227.836 1.382 1.187.154.35.033.641-.364.871Zm-.54-.317c.184-.107.194-.266.031-.478-.159-.215-.555-.504-1.189-.869-.634-.364-1.137-.591-1.509-.682-.368-.093-.644-.086-.828.02-.183.107-.194.266-.03.478.158.21.556.498 1.194.865.638.366 1.141.596 1.51.69.363.09.637.082.82-.024ZM79.562 244c-.393.228-.893.298-1.5.21-.604-.09-1.29-.355-2.056-.796-.766-.44-1.23-.834-1.388-1.182-.155-.351-.035-.64.358-.868.397-.23.9-.302 1.507-.214.608.088 1.295.352 2.061.792.767.441 1.228.836 1.382 1.187.155.35.034.641-.364.871Zm-.54-.318c.184-.106.195-.265.032-.477-.159-.215-.555-.504-1.19-.869-.633-.364-1.136-.591-1.508-.682-.368-.093-.644-.086-.828.02-.184.107-.194.266-.031.478.159.21.557.498 1.195.865.638.366 1.141.596 1.51.689.363.091.637.083.82-.024Z"/><path fill="#455A64" d="m204.662 237.355-38.413 22.18a5.535 5.535 0 0 0-2.961 4.904 5.543 5.543 0 0 0 2.961 4.905l71.653 41.38a6.59 6.59 0 0 0 5.909 0l38.414-22.18a5.54 5.54 0 0 0 0-9.809l-71.653-41.38a6.525 6.525 0 0 0-5.91 0Z"/><path fill="#455A64" d="m204.662 237.355-38.413 22.18a5.535 5.535 0 0 0-2.961 4.904 5.543 5.543 0 0 0 2.961 4.905l71.653 41.38a6.59 6.59 0 0 0 5.909 0l38.414-22.18a5.54 5.54 0 0 0 0-9.809l-71.653-41.38a6.525 6.525 0 0 0-5.91 0Z"/><path fill="#455A64" d="m204.662 237.355-38.413 22.18a5.535 5.535 0 0 0-2.961 4.904 5.543 5.543 0 0 0 2.961 4.905l71.653 41.38a6.59 6.59 0 0 0 5.909 0l38.414-22.18a5.54 5.54 0 0 0 0-9.809l-71.653-41.38a6.525 6.525 0 0 0-5.91 0Z"/><path fill="#000" d="m204.662 237.355-38.413 22.18a5.535 5.535 0 0 0-2.961 4.904 5.543 5.543 0 0 0 2.961 4.905l71.653 41.38a6.59 6.59 0 0 0 5.909 0l38.414-22.18a5.54 5.54 0 0 0 0-9.809l-71.653-41.38a6.525 6.525 0 0 0-5.91 0Z" opacity=".1"/><path fill="#455A64" d="m240.857 254.827-30.285-17.472a6.525 6.525 0 0 0-5.91 0l-38.413 22.18a5.535 5.535 0 0 0-2.961 4.904 5.543 5.543 0 0 0 2.961 4.905l71.653 41.38c.91.477 1.927.718 2.955.699v-56.596Z"/><path fill="#455A64" d="m237.914 304.3-71.665-41.381c-1.631-.932-1.631-2.452 0-3.409l38.413-22.155a6.528 6.528 0 0 1 5.91 0l71.653 41.381c1.631.931 1.631 2.452 0 3.408L243.812 304.3a6.502 6.502 0 0 1-5.898 0Z"/><path fill="#455A64" d="m237.914 304.3-71.665-41.381c-1.631-.932-1.631-2.452 0-3.409l38.413-22.155a6.528 6.528 0 0 1 5.91 0l71.653 41.381c1.631.931 1.631 2.452 0 3.408L243.812 304.3a6.502 6.502 0 0 1-5.898 0Z"/><path fill="#455A64" d="m237.914 304.3-71.665-41.381c-1.631-.932-1.631-2.452 0-3.409l38.413-22.155a6.528 6.528 0 0 1 5.91 0l71.653 41.381c1.631.931 1.631 2.452 0 3.408L243.812 304.3a6.502 6.502 0 0 1-5.898 0Z"/><path fill="#fff" d="m237.914 304.3-71.665-41.381c-1.631-.932-1.631-2.452 0-3.409l38.413-22.155a6.528 6.528 0 0 1 5.91 0l71.653 41.381c1.631.931 1.631 2.452 0 3.408L243.812 304.3a6.502 6.502 0 0 1-5.898 0Z" opacity=".2"/><path fill="#fff" d="m175.555 263.74 36.427-21.027a2.575 2.575 0 0 1 2.354 0l58.583 33.877c.14.05.261.143.346.265a.716.716 0 0 1 0 .831.722.722 0 0 1-.346.265l-36.415 21.027a2.593 2.593 0 0 1-2.367 0l-58.582-33.815a.724.724 0 0 1 0-1.423Z"/><path fill="#455A64" d="M260.645 291.806a4.155 4.155 0 0 1-3.8 0c-1.055-.601-1.055-1.582 0-2.195a4.22 4.22 0 0 1 3.8 0c1.055.613 1.055 1.594 0 2.195Z"/><path fill="#000" d="M260.645 291.806a4.155 4.155 0 0 1-3.8 0c-1.055-.601-1.055-1.582 0-2.195a4.22 4.22 0 0 1 3.8 0c1.055.613 1.055 1.594 0 2.195Z" opacity=".1"/><path fill="#455A64" d="M188.453 250.131a1.02 1.02 0 0 1-.956 0 .297.297 0 0 1-.192-.276.296.296 0 0 1 .192-.276 1.02 1.02 0 0 1 .956 0 .295.295 0 0 1 0 .552ZM186.921 254.52a2.159 2.159 0 0 1-1.937 0 .588.588 0 0 1 0-1.115 2.155 2.155 0 0 1 1.937 0 .585.585 0 0 1 .401.557.588.588 0 0 1-.401.558ZM188.282 252.571c-.356-.209-.344-.552 0-.773l6.351-3.678a1.518 1.518 0 0 1 1.324 0c.356.208.331.552 0 .772l-6.339 3.679a1.49 1.49 0 0 1-1.336 0Z"/><path fill="#455A64" d="M188.453 249.616a.293.293 0 0 1 0 .552 1.02 1.02 0 0 1-.956 0M186.921 254.52a2.159 2.159 0 0 1-1.937 0 .588.588 0 0 1 0-1.115 2.155 2.155 0 0 1 1.937 0 .585.585 0 0 1 .401.557.588.588 0 0 1-.401.558ZM188.282 252.571c-.356-.209-.344-.552 0-.773l6.351-3.678a1.518 1.518 0 0 1 1.324 0c.356.208.331.552 0 .772l-6.339 3.679a1.49 1.49 0 0 1-1.336 0Z"/><path fill="#455A64" d="M188.453 249.616a.293.293 0 0 1 0 .552 1.02 1.02 0 0 1-.956 0M186.921 254.52a2.159 2.159 0 0 1-1.937 0 .588.588 0 0 1 0-1.115 2.155 2.155 0 0 1 1.937 0 .585.585 0 0 1 .401.557.588.588 0 0 1-.401.558ZM188.282 252.571c-.356-.209-.344-.552 0-.773l6.351-3.678a1.518 1.518 0 0 1 1.324 0c.356.208.331.552 0 .772l-6.339 3.679a1.49 1.49 0 0 1-1.336 0Z"/><path fill="#000" d="M188.453 250.131a1.02 1.02 0 0 1-.956 0 .297.297 0 0 1-.192-.276.296.296 0 0 1 .192-.276 1.02 1.02 0 0 1 .956 0 .295.295 0 0 1 0 .552Z" opacity=".1"/><path fill="#000" d="M188.453 249.616a.293.293 0 0 1 0 .552 1.02 1.02 0 0 1-.956 0M186.921 254.52a2.159 2.159 0 0 1-1.937 0 .588.588 0 0 1 0-1.115 2.155 2.155 0 0 1 1.937 0 .585.585 0 0 1 .401.557.588.588 0 0 1-.401.558ZM188.282 252.571c-.356-.209-.344-.552 0-.773l6.351-3.678a1.518 1.518 0 0 1 1.324 0c.356.208.331.552 0 .772l-6.339 3.679a1.49 1.49 0 0 1-1.336 0Z" opacity=".1"/><path fill="#455A64" d="m459.898 227.73 60.581 34.968a5.542 5.542 0 0 1 0 9.809l-93.833 54.181a6.52 6.52 0 0 1-5.909 0l-60.569-34.981a5.54 5.54 0 0 1 0-9.808l93.882-54.169a6.497 6.497 0 0 1 5.848 0Z"/><path fill="#455A64" d="m459.898 227.73 60.581 34.968a5.542 5.542 0 0 1 0 9.809l-93.833 54.181a6.52 6.52 0 0 1-5.909 0l-60.569-34.981a5.54 5.54 0 0 1 0-9.808l93.882-54.169a6.497 6.497 0 0 1 5.848 0Z"/><path fill="#000" d="m459.898 227.73 60.581 34.968a5.542 5.542 0 0 1 0 9.809l-93.833 54.181a6.52 6.52 0 0 1-5.909 0l-60.569-34.981a5.54 5.54 0 0 1 0-9.808l93.882-54.169a6.497 6.497 0 0 1 5.848 0Z" opacity=".2"/><path fill="#455A64" d="m401.536 258.015 52.514-30.285a6.496 6.496 0 0 1 5.897 0l60.581 34.968a5.542 5.542 0 0 1 0 9.809l-93.832 54.181a6.138 6.138 0 0 1-2.955.699v-11.795l-22.205-57.577Z"/><path fill="#455A64" d="m426.647 320.288 93.832-54.181c1.631-.932 1.631-2.452 0-3.409l-60.581-34.968a6.5 6.5 0 0 0-5.897 0l-93.833 54.181c-1.631.932-1.631 2.452 0 3.409l60.569 34.968a6.524 6.524 0 0 0 5.91 0Z"/><path fill="#000" d="m426.647 320.288 93.832-54.181c1.631-.932 1.631-2.452 0-3.409l-60.581-34.968a6.5 6.5 0 0 0-5.897 0l-93.833 54.181c-1.631.932-1.631 2.452 0 3.409l60.569 34.968a6.524 6.524 0 0 0 5.91 0Z" opacity=".1"/><path fill="#FAFAFA" d="M511.174 266.928 452.591 233.1a2.682 2.682 0 0 0-2.366 0l-80.751 46.592a.716.716 0 0 0-.346.265.718.718 0 0 0 0 .831.722.722 0 0 0 .346.265l58.583 33.828a2.682 2.682 0 0 0 2.366 0l80.751-46.592a.72.72 0 0 0 .478-.68.721.721 0 0 0-.478-.681Z"/><path fill="#455A64" d="M393.015 301.357a4.158 4.158 0 0 0 3.801 0 1.153 1.153 0 0 0 0-2.195 4.16 4.16 0 0 0-3.801 0 1.153 1.153 0 0 0 0 2.195Z"/><path fill="#000" d="M393.015 301.357a4.158 4.158 0 0 0 3.801 0 1.153 1.153 0 0 0 0-2.195 4.16 4.16 0 0 0-3.801 0 1.153 1.153 0 0 0 0 2.195Z" opacity=".3"/><path fill="#455A64" d="M486.885 247.164a1.043 1.043 0 0 0 .968 0 .3.3 0 0 0 .14-.108.298.298 0 0 0 0-.336.293.293 0 0 0-.14-.108 1.032 1.032 0 0 0-.968 0 .286.286 0 0 0-.139.108.289.289 0 0 0 0 .336.292.292 0 0 0 .139.108ZM488.381 251.577a2.13 2.13 0 0 0 1.925 0 .59.59 0 0 0 .29-.901.59.59 0 0 0-.29-.214 2.137 2.137 0 0 0-1.925 0 .588.588 0 0 0 0 1.115ZM487.068 249.616c.356-.209.331-.552 0-.773l-6.351-3.678a1.453 1.453 0 0 0-1.324 0c-.356.196-.343.539 0 .76l6.351 3.678a1.437 1.437 0 0 0 1.324.013Z"/><g fill="#000" opacity=".3"><path d="M486.884 247.163a1.04 1.04 0 0 0 .969 0 .296.296 0 0 0 .139-.444.289.289 0 0 0-.139-.107 1.038 1.038 0 0 0-.969 0 .289.289 0 0 0-.139.107.296.296 0 0 0 .139.444ZM488.38 251.577a2.131 2.131 0 0 0 1.925 0 .585.585 0 0 0 .401-.558.587.587 0 0 0-.401-.558 2.142 2.142 0 0 0-1.925 0 .593.593 0 0 0-.401.558.588.588 0 0 0 .401.558ZM487.068 249.616c.356-.209.331-.552 0-.773l-6.351-3.678a1.453 1.453 0 0 0-1.324 0c-.356.196-.343.539 0 .76l6.351 3.678a1.437 1.437 0 0 0 1.324.013Z" opacity=".3"/></g><path fill="#455A64" d="m154.797 131.776-99.313 57.369a5.54 5.54 0 0 0 0 9.808l71.665 41.369a6.524 6.524 0 0 0 5.91 0l99.313-57.369a5.554 5.554 0 0 0 0-9.809l-71.665-41.368a6.515 6.515 0 0 0-5.91 0Z"/><path fill="#000" d="m154.797 131.776-99.313 57.369a5.54 5.54 0 0 0 0 9.808l71.665 41.369a6.524 6.524 0 0 0 5.91 0l99.313-57.369a5.554 5.554 0 0 0 0-9.809l-71.665-41.368a6.515 6.515 0 0 0-5.91 0Z" opacity=".2"/><path fill="#455A64" d="m130.055 146.06-74.62 43.085a5.541 5.541 0 0 0 0 9.808l71.665 41.369c.91.481 1.926.726 2.955.711V146.06Z"/><path fill="#000" d="m130.055 146.06-74.62 43.085a5.541 5.541 0 0 0 0 9.808l71.665 41.369c.91.481 1.926.726 2.955.711V146.06Z" opacity=".1"/><path fill="#455A64" d="m55.434 189.145 99.314-57.369a6.512 6.512 0 0 1 5.91 0l71.665 41.368c1.631.944 1.631 2.452 0 3.409l-99.314 57.368a6.512 6.512 0 0 1-5.909 0l-71.665-41.368c-1.631-.944-1.631-2.477 0-3.408Z"/><path fill="#455A64" d="M102.345 130.071 42.266 95.41a5.665 5.665 0 0 0-.71 2.881l5.137 85.949a6.831 6.831 0 0 0 2.979 5.003 6.34 6.34 0 0 0 5.714-.098l48.001-27.673-1.042-31.401Z"/><path fill="#000" d="M102.345 130.071 42.266 95.41a5.665 5.665 0 0 0-.71 2.881l5.137 85.949a6.831 6.831 0 0 0 2.979 5.003 6.34 6.34 0 0 0 5.714-.098l48.001-27.673-1.042-31.401Z" opacity=".2"/><path fill="#455A64" d="m66.518 189.145 88.279-50.969a6.528 6.528 0 0 1 5.91 0l2.452 1.385c1.631.945 1.631 2.453 0 3.409L74.88 193.939a6.525 6.525 0 0 1-5.91 0l-2.452-1.386c-1.63-.944-1.63-2.477 0-3.408Z"/><path fill="#000" d="m66.518 189.145 88.279-50.969a6.528 6.528 0 0 1 5.91 0l2.452 1.385c1.631.945 1.631 2.453 0 3.409L74.88 193.939a6.525 6.525 0 0 1-5.91 0l-2.452-1.386c-1.63-.944-1.63-2.477 0-3.408Z" opacity=".1"/><path fill="#455A64" d="m77.64 195.533 88.278-50.969a6.59 6.59 0 0 1 5.91 0l27.329 15.792c1.631.932 1.631 2.452 0 3.408l-88.278 50.969a6.528 6.528 0 0 1-5.91 0l-27.33-15.792c-1.667-.932-1.667-2.464 0-3.408Z"/><path fill="#000" d="m77.64 195.533 88.278-50.969a6.59 6.59 0 0 1 5.91 0l27.329 15.792c1.631.932 1.631 2.452 0 3.408l-88.278 50.969a6.528 6.528 0 0 1-5.91 0l-27.33-15.792c-1.667-.932-1.667-2.464 0-3.408Z" opacity=".1"/><path fill="#455A64" d="m149.623 198.733 27.33-15.78a6.523 6.523 0 0 1 5.909 0l10.704 6.192c1.631.931 1.631 2.452 0 3.408l-27.329 15.78a6.528 6.528 0 0 1-5.91 0l-10.716-6.192c-1.619-.932-1.619-2.464.012-3.408Z"/><path fill="#000" d="m149.623 198.733 27.33-15.78a6.523 6.523 0 0 1 5.909 0l10.704 6.192c1.631.931 1.631 2.452 0 3.408l-27.329 15.78a6.528 6.528 0 0 1-5.91 0l-10.716-6.192c-1.619-.932-1.619-2.464.012-3.408Z" opacity=".1"/><path fill="#393939" d="m158.083 167.945 2.747-1.593c.122-.074.11-.184 0-.258l-3.495-1.986a.51.51 0 0 0-.466 0l-2.746 1.581c-.123.074-.098.197 0 .27l3.421 1.974a.534.534 0 0 0 .539.012Zm-6.044-6.608-2.759 1.581c-.11.074-.098.184 0 .27l3.421 1.974a.486.486 0 0 0 .453 0l2.759-1.581c.11-.074.098-.184 0-.27l-3.421-1.974a.486.486 0 0 0-.453 0Zm-8.89 5.125-4.659 2.697c-.122 0-.11.184 0 .258l3.421 1.974a.538.538 0 0 0 .466 0l4.659-2.698c.111-.061.098-.184 0-.257l-3.421-1.974a.496.496 0 0 0-.466-.061v.061Zm4.905-2.808-2.759 1.594c-.11.061-.098.184 0 .258l3.458 1.961a.496.496 0 0 0 .453 0l2.759-1.594c.11-.061.098-.184 0-.257l-3.421-1.974a.497.497 0 0 0-.527-.049l.037.061Zm-10.802 6.229-2.746 1.594c-.123.061-.111.184 0 .257l3.42 1.986a.513.513 0 0 0 .466 0l2.747-1.581c.122-.074.098-.196 0-.27l-3.421-2.023a.547.547 0 0 0-.503-.025l.037.062Zm-4.022 2.329-2.746 1.582c-.123.073-.11.196 0 .27l3.421 1.974a.564.564 0 0 0 .466 0l2.746-1.594c.123-.074.098-.184 0-.27l-3.421-1.974a.483.483 0 0 0-.502-.049l.036.061Zm13.487 8.019 2.759-1.582c.11-.073.098-.184 0-.27l-3.421-1.974a.497.497 0 0 0-.453 0l-2.759 1.582c-.11.074-.098.184 0 .27l3.421 1.974a.492.492 0 0 0 .404-.061l.049.061Zm-4.021 2.329 2.759-1.593c.11-.062.098-.184 0-.258l-3.421-1.974a.466.466 0 0 0-.454 0l-2.759 1.594c-.11.061-.098.184 0 .257l3.421 1.974a.498.498 0 0 0 .38-.061l.074.061Zm-4.022 2.318 2.759-1.582c.11-.073.098-.196 0-.27l-3.507-2.072a.537.537 0 0 0-.453 0l-2.759 1.594c-.11.062-.098.184 0 .258l3.421 1.986a.485.485 0 0 0 .49.024l.049.062Zm-4.021 2.329 2.758-1.594c.111-.073.098-.183 0-.269l-3.42-1.974a.486.486 0 0 0-.454 0l-2.759 1.581c-.11.074-.098.184 0 .27l3.421 1.974a.54.54 0 0 0 .405-.049l.049.061Zm19.458-16.883 2.746-1.594c.123 0 .111-.184 0-.257l-3.421-1.974a.522.522 0 0 0-.466 0l-2.746 1.594c-.123.061-.098.184 0 .257l3.421 1.974c.07.021.143.026.215.015a.492.492 0 0 0 .202-.076l.049.061Zm-3.372 7.59 6.13-3.544c.123-.073.099-.184 0-.27l-8.312-4.794a.497.497 0 0 0-.454 0l-3.176 1.827c-.11.074-.098.184 0 .27l4.402 2.538c.135.074.147.196 0 .258l-2.538 1.471c-.11.061-.098.184 0 .257l3.421 1.974a.502.502 0 0 0 .478-.049l.049.062Zm-21.604-3.446-2.746 1.594c-.123.061-.111.184 0 .258l3.421 1.974a.535.535 0 0 0 .465 0l2.747-1.594c.123-.062.098-.184 0-.258l-3.421-1.974a.51.51 0 0 0-.466 0Zm-4.021 2.33-2.747 1.581c-.122.074-.11.184 0 .27l3.421 1.974a.51.51 0 0 0 .466 0l2.746-1.581c.123-.074.098-.184 0-.27l-3.42-1.974a.488.488 0 0 0-.43 0h-.036Zm-19.152 26.582a.497.497 0 0 0 .454 0l2.746-1.582c.123-.074.111-.184 0-.27l-3.421-1.974a.523.523 0 0 0-.466 0l-2.746 1.582c-.123.073-.098.184 0 .27l3.433 1.974Zm-13.021-8.007-2.759 1.582c-.11.073-.098.184 0 .27l3.421 1.974a.496.496 0 0 0 .454 0l2.758-1.582c.11-.074.099-.184 0-.27l-3.42-1.974a.5.5 0 0 0-.417 0h-.037Zm7.075 5.787a.495.495 0 0 0 .453 0l2.747-1.594c.122 0 .11-.184 0-.257l-3.433-1.974a.497.497 0 0 0-.454 0l-2.746 1.594c-.123.061-.11.184 0 .257l3.433 1.974Zm13.401 3.838 2.758-1.594c.111-.061.099-.184 0-.257l-3.42-1.974a.5.5 0 0 0-.454 0l-2.759 1.594c-.11.061-.098.183 0 .257l3.421 1.974a.5.5 0 0 0 .491 0h-.037Zm-4.476 2.305a.489.489 0 0 0 .454 0l2.759-1.582c.11-.073.098-.196 0-.269l-3.421-1.974a.537.537 0 0 0-.454 0l-2.758 1.594c-.111.073-.098.183 0 .257l3.42 1.974Zm-11.978-14.259-2.76 1.594c-.11.061-.097.183 0 .257l3.422 1.986a.485.485 0 0 0 .453 0l2.759-1.594c.11 0 .098-.184 0-.257l-3.42-1.974a.53.53 0 0 0-.418-.012h-.036Zm20.107-11.612-2.758 1.594c-.111.062-.098.184 0 .258l3.421 1.986a.482.482 0 0 0 .453 0l2.759-1.582c.11-.073.098-.196 0-.269l-3.421-1.974a.555.555 0 0 0-.417-.013h-.037Zm-16.049 9.331-2.759 1.594c-.11 0-.098.184 0 .257l3.421 1.974a.497.497 0 0 0 .454 0l2.758-1.593c.111-.062.098-.184 0-.258l-3.42-1.974a.498.498 0 0 0-.454 0Zm20.108-11.611-2.747 1.594c-.122 0-.11.184 0 .257l3.421 1.974a.5.5 0 0 0 .454 0l2.759-1.594c.11-.061.098-.183 0-.257l-3.421-1.974a.465.465 0 0 0-.466-.037v.037Zm-8.043 4.647-2.759 1.581c-.11.074-.098.184 0 .27l3.421 1.974a.537.537 0 0 0 .453 0l2.759-1.594c.11-.073.098-.184 0-.269l-3.421-1.974a.477.477 0 0 0-.223-.068.48.48 0 0 0-.23.043v.037Zm-4.022 2.317-2.759 1.594c-.11.061-.098.184 0 .258l3.421 1.974a.512.512 0 0 0 .454 0l2.759-1.594c.11-.062.098-.184 0-.258l-3.421-1.986a.507.507 0 0 0-.454-.025v.037Zm-4.021 2.33-2.759 1.581c-.111.074-.098.184 0 .27l3.421 1.974a.482.482 0 0 0 .453 0l2.759-1.582c.11-.073.098-.183 0-.269l-3.421-1.974a.477.477 0 0 0-.222-.074.48.48 0 0 0-.231.037v.037Zm21.517 3.371 2.747-1.581c.122-.074.11-.184 0-.27l-3.421-1.974a.498.498 0 0 0-.454 0l-2.783 1.545c-.11.074-.098.184 0 .27l3.421 1.974a.49.49 0 0 0 .49 0v.036Zm34.331-35.642-2.759 1.594c-.11.061-.098.184 0 .257l3.421 1.974a.496.496 0 0 0 .454 0l2.758-1.594c.111 0 .099-.183 0-.257l-3.42-1.974a.467.467 0 0 0-.417-.037l-.037.037Zm-4.904 2.808-2.759 1.594c-.11.061-.098.184 0 .257l3.421 1.974a.496.496 0 0 0 .453 0l2.759-1.594c.11 0 .098-.184 0-.257l-3.421-1.974a.498.498 0 0 0-.331-.037l-.122.037Zm8.889-5.125-2.636 1.545c-.111.073-.098.183 0 .269l3.421 1.974a.482.482 0 0 0 .453 0l2.759-1.581c.11-.074.098-.184 0-.27l-3.421-1.974a.494.494 0 0 0-.503 0l-.073.037Zm-20.206 21.824 2.759-1.594c.11-.073.098-.184 0-.27l-3.421-1.974a.497.497 0 0 0-.454 0l-2.759 1.582c-.11.074-.098.196 0 .27l3.421 1.974a.538.538 0 0 0 .527-.025l-.073.037Zm24.755-24.154a.512.512 0 0 0-.454 0l-2.759 1.594c-.11 0-.098.184 0 .257l3.421 1.974a.497.497 0 0 0 .454 0l2.758-1.593c.111-.062.099-.184 0-.258l-3.42-1.974Zm-38.843 37.948 2.759-1.594c.11 0 .098-.184 0-.258l-3.421-1.974a.509.509 0 0 0-.454 0l-2.783 1.557c-.11.062-.098.184 0 .258l3.421 1.974a.506.506 0 0 0 .478.024v.013Zm49.326-28.482 2.746-1.582c.123-.074.111-.184 0-.27l-3.421-1.974a.51.51 0 0 0-.466 0l-2.746 1.582c-.123.073-.098.184 0 .27l3.384 1.949a.49.49 0 0 0 .503.012v.013Zm-8.914-.491 2.759-1.594c.11-.073.098-.184 0-.27l-3.421-1.974a.497.497 0 0 0-.454 0l-2.734 1.558c-.11.073-.098.183 0 .269l3.421 1.974a.55.55 0 0 0 .429.025v.012Zm3.323-6.13a.54.54 0 0 0-.454 0l-2.759 1.594c-.11.061-.098.183 0 .257l3.421 1.986a.486.486 0 0 0 .454 0l2.759-1.581c.11-.074.098-.197 0-.27l-3.421-1.986Zm.846-.491 8.313 4.794a.495.495 0 0 0 .453 0l2.747-1.594c.122-.061.11-.184 0-.257l-8.313-4.794a.466.466 0 0 0-.454 0l-2.759 1.594c-.134.024-.122.147.013.22v.037Zm-9.343 5.113-2.759 1.594c-.11 0-.098.184 0 .257l3.421 1.974a.496.496 0 0 0 .454 0l2.758-1.594c.111-.061.098-.183 0-.257l-3.42-1.974a.506.506 0 0 0-.454-.037v.037Zm-30.272 17.484-2.734 1.545c-.111.074-.099.184 0 .27l3.42 1.974a.497.497 0 0 0 .454 0l2.759-1.582c.11-.074.098-.184 0-.27l-3.421-1.974a.49.49 0 0 0-.478 0v.037Zm39.884-13.156a.502.502 0 0 0 .454 0l2.747-1.594c.122-.061.11-.184 0-.257l-3.421-1.974a.489.489 0 0 0-.466 0l-2.747 1.594c-.122 0-.098.184 0 .257l3.433 1.974Zm-35.863 10.826-2.758 1.594c-.111.062-.099.184 0 .258l3.42 1.974a.512.512 0 0 0 .454 0l2.759-1.594c.11 0 .098-.184 0-.258l-3.421-1.974a.502.502 0 0 0-.454-.036v.036Zm-29.549 26.975a.512.512 0 0 0 .454 0l2.747-1.594c.122-.062.11-.184 0-.258l-3.421-1.974a.524.524 0 0 0-.466 0l-2.747 1.594c-.122.061-.098.184 0 .258l3.433 1.974Zm-6.633-6.106-2.746 1.581c-.123.074-.098.184 0 .27l3.421 1.974a.482.482 0 0 0 .453 0l2.747-1.582c.122-.073.11-.184 0-.269l-3.421-1.974a.511.511 0 0 0-.454 0Zm11.133 3.678 2.747-1.582c.122-.073.11-.184 0-.27l-3.421-1.974a.522.522 0 0 0-.466 0l-2.747 1.582c-.122.074-.098.184 0 .27l3.421 1.974a.489.489 0 0 0 .442.049l.024-.049Zm4.022-2.317 2.746-1.582c.123-.074.111-.196 0-.27l-3.421-1.974a.564.564 0 0 0-.465 0l-2.747 1.594c-.123.061-.098.184 0 .258l3.421 1.986a.498.498 0 0 0 .441.037l.025-.049Zm4.021-2.318 2.747-1.594c.122-.061.11-.184 0-.257l-3.421-1.986a.51.51 0 0 0-.466 0l-2.746 1.593c-.123.062-.098.184 0 .258l3.42 1.974a.53.53 0 0 0 .442.061l.024-.049Zm-15.154-1.422-2.747 1.594c-.122 0-.098.184 0 .257l3.421 1.987a.497.497 0 0 0 .454 0l2.746-1.582c.123-.074.111-.196 0-.27l-3.42-1.974a.575.575 0 0 0-.479.037l.025-.049Zm4.021-2.317-2.771 1.667c-.122.061-.098.184 0 .258l3.421 1.974a.512.512 0 0 0 .454 0l2.746-1.594c.123-.062.111-.184 0-.258l-3.42-1.974a.492.492 0 0 0-.454-.024l.024-.049Zm16.099-9.294-2.759 1.594c-.11 0-.098.184 0 .257l3.421 1.987a.497.497 0 0 0 .454 0l2.759-1.582c.11-.074.098-.196 0-.27l-3.495-1.913a.539.539 0 0 0-.404-.024l.024-.049Zm-4.022 2.329-2.758 1.582c-.111.074-.098.196 0 .27l3.421 1.974a.536.536 0 0 0 .453 0l2.747-1.594c.122-.074.11-.184 0-.27l-3.433-1.913a.497.497 0 0 0-.454 0l.024-.049Zm8.044-4.646-2.759 1.593c-.11.062-.098.184 0 .258l3.421 1.974a.496.496 0 0 0 .453 0l2.759-1.594c.11-.061.098-.184 0-.257l-3.421-1.974a.501.501 0 0 0-.417.049l-.036-.049Zm-16.099 9.293-2.746 1.582c-.123.074-.098.184 0 .27l3.42 1.974a.497.497 0 0 0 .454 0l2.746-1.582c.123-.073.111-.184 0-.27l-3.42-1.974a.514.514 0 0 0-.478.049l.024-.049Zm4.022-2.329-2.747 1.594c-.122.061-.098.184 0 .257l3.421 1.974a.496.496 0 0 0 .454 0l2.746-1.594c.123 0 .11-.184 0-.257l-3.421-1.974a.513.513 0 0 0-.245-.033.514.514 0 0 0-.233.082l.025-.049Zm-1.974 16.944 2.758-1.581c.111-.074.098-.184 0-.27l-3.42-1.974a.489.489 0 0 0-.454 0l-2.759 1.582c-.11.073-.098.184 0 .269l3.421 1.974a.487.487 0 0 0 .429.049l.025-.049Zm-24.645-2.979-3.42-1.974a.497.497 0 0 0-.454 0l-2.759 1.68c-.11.061-.098.184 0 .257l3.42 1.974a.497.497 0 0 0 .454 0l2.76-1.594c.122-.098.11-.22-.025-.294l.024-.049Zm6.376 1.962-3.433-1.974a.486.486 0 0 0-.454 0l-4.23 2.452c-.123.061-.098.184 0 .257l3.42 1.987a.496.496 0 0 0 .455 0l4.23-2.453c.134-.073.122-.073-.013-.22l.025-.049Zm-11.673-5.763-3.42-1.974a.497.497 0 0 0-.454 0l-3.396 1.95c-.11.073-.098.183 0 .269l3.482 2.036a.496.496 0 0 0 .454 0l3.396-1.95c.061-.086.049-.196-.086-.282l.024-.049Zm2.6-1.496a.497.497 0 0 0 .453 0l2.747-1.594c.123-.061.11-.184 0-.257l-3.433-1.974a.497.497 0 0 0-.454 0l-2.746 1.594c-.123.061-.11.184 0 .257l3.433 1.974Zm15.019 9.478-3.433-1.986a.486.486 0 0 0-.453 0l-5.26 3.089c-.123.074-.11.184 0 .27l3.42 1.974a.51.51 0 0 0 .466 0l5.285-3.053c.098-.049.086-.171-.049-.245l.024-.049Zm2.98 3.923-3.421-1.986a.497.497 0 0 0-.454 0l-3.396 1.95c-.11.073-.098.184 0 .269l3.421 1.974a.486.486 0 0 0 .454 0l3.396-1.949c.135-.074.135-.074-.025-.209l.025-.049Zm11.905-30.652a.54.54 0 0 0 .454 0l2.746-1.594c.123 0 .111-.184 0-.257l-3.421-1.987a.522.522 0 0 0-.465 0l-2.747 1.582c-.123.074-.098.196 0 .27l3.433 1.986Zm-8.092 4.684a.497.497 0 0 0 .454 0l2.746-1.582c.123-.073.11-.184 0-.27l-3.433-1.974a.497.497 0 0 0-.454 0l-2.746 1.582c-.123.074-.11.184 0 .27l3.433 1.974Zm-17.84 10.299a.497.497 0 0 0 .454 0l2.746-1.582c.123-.073.11-.184 0-.269l-3.42-1.913a.51.51 0 0 0-.466 0l-2.747 1.582c-.122.073-.098.183 0 .269l3.433 1.913Zm21.862-12.629a.46.46 0 0 0 .453 0l2.747-1.594c.122-.061.11-.184 0-.257l-3.433-1.974a.5.5 0 0 0-.454 0l-2.747 1.594c-.122.061-.11.184 0 .257l3.434 1.974Zm-8.056 4.647a.524.524 0 0 0 .466 0l2.746-1.594c.123-.061.099-.184 0-.257l-3.42-1.974a.5.5 0 0 0-.454 0l-2.746 1.594c-.123 0-.111.184 0 .257l3.408 1.974Zm2.452 24.056a.52.52 0 0 0-.466 0l-4.23 2.452c-.11 0-.098.184 0 .258l3.421 1.974a.54.54 0 0 0 .454 0l4.23-2.452c.122-.062.11-.184 0-.258l-3.409-1.974Zm-8.227-20.721a.54.54 0 0 0 .454 0l2.746-1.594c.123-.073.111-.184 0-.257l-3.421-1.987a.52.52 0 0 0-.465 0l-2.747 1.582c-.122.074-.098.196 0 .27l3.433 1.986Zm-4.021 2.317a.497.497 0 0 0 .453 0l2.747-1.594c.122 0 .11-.183 0-.257l-3.421-1.974a.523.523 0 0 0-.466 0l-2.746 1.594c-.123.061-.098.184 0 .257l3.433 1.974Zm86.782-24.62a.536.536 0 0 0-.453 0l-6.78 3.912c-.111.073-.099.184 0 .269l3.42 1.974a.54.54 0 0 0 .454 0l6.78-3.911c.111-.073.098-.196 0-.27l-3.421-1.974Zm-8.889 5.138a.496.496 0 0 0-.453 0l-2.759 1.594c-.11.061-.098.184 0 .257l3.421 1.974a.496.496 0 0 0 .453 0l2.759-1.594c.11 0 .098-.184 0-.257l-3.421-1.974Zm-54.573 30.088 2.759-1.594c.11-.061.098-.184 0-.257l-3.421-1.974a.5.5 0 0 0-.454 0l-2.759 1.594c-.11.061-.098.184 0 .257l3.421 1.974a.464.464 0 0 0 .491 0h-.037Zm46.53-25.454a.497.497 0 0 0-.454 0l-2.758 1.582c-.111.074-.098.196 0 .27l3.421 1.974a.536.536 0 0 0 .453 0l2.759-1.594c.11 0 .098-.184 0-.258l-3.421-1.974Zm20.954-12.089a.46.46 0 0 0-.454 0l-2.758 1.594c-.111.061-.098.184 0 .258l3.482 1.949a.496.496 0 0 0 .453 0l2.759-1.594c.11-.061.098-.184 0-.257l-3.482-1.95Zm7.442-.355-8.276-4.794a.537.537 0 0 0-.453 0l-2.747 1.593c-.122.062-.11.184 0 .258l8.313 4.806a.486.486 0 0 0 .454 0l2.758-1.581c.135-.086.135-.172-.012-.282h-.037Zm-43.428 21.125a.497.497 0 0 0-.453 0l-3.397 1.95c-.11.073-.098.184 0 .269l3.421 1.974a.486.486 0 0 0 .454 0l3.396-1.949c.11-.074.098-.184 0-.27l-3.421-1.974Zm10.165-5.861a.541.541 0 0 0-.466 0l-4.23 2.453c-.111.073-.099.196 0 .269l3.42 1.974a.54.54 0 0 0 .454 0l4.23-2.452c.123-.061.11-.184 0-.257l-3.408-1.987Zm-19.483 11.244a.496.496 0 0 0-.454 0l-22.633 13.058c-.123.061-.111.184 0 .257l3.42 1.974a.527.527 0 0 0 .466 0l22.646-13.082c.123 0 .098-.184 0-.258l-3.445-1.949Zm-23.921 13.806a.486.486 0 0 0-.454 0l-3.384 1.949c-.122.074-.11.184 0 .27l3.433 1.974a.497.497 0 0 0 .454 0l3.384-1.95c.123-.073.098-.184 0-.27l-3.433-1.973Zm28.58-16.504a.497.497 0 0 0-.454 0l-3.384 1.95c-.122.073-.11.184 0 .27l3.421 1.974a.567.567 0 0 0 .466 0l3.384-1.962c.11 0 .098-.184 0-.258l-3.433-1.974Zm-33.203 19.213a.493.493 0 0 0-.453 0l-3.384 1.95c-.123.073-.098.184 0 .269l3.421 1.974a.536.536 0 0 0 .453 0l3.384-1.961c.123-.062.111-.184 0-.258l-3.421-1.974Zm42.558-24.522a.509.509 0 0 0-.454 0l-3.396 1.962c-.11.061-.098.184 0 .258l3.421 1.974a.509.509 0 0 0 .454 0l3.396-1.962c.11-.062.098-.184 0-.258l-3.421-1.974Zm14.394-8.374a.536.536 0 0 0-.453 0l-2.759 1.594c-.11.074-.098.184 0 .257l3.421 1.987a.497.497 0 0 0 .454 0l2.758-1.582c.111-.073.098-.196 0-.27l-3.421-1.986Zm8.73-6.449 2.747-1.594c.122-.061.098-.184 0-.258l-3.421-1.974a.509.509 0 0 0-.454 0l-2.746 1.594c-.123.062-.111.184 0 .258l3.421 1.974a.519.519 0 0 0 .453 0Zm-18.673-.515 2.746-1.582c.123-.073.111-.196 0-.27l-3.42-1.974a.57.57 0 0 0-.466 0l-2.747 1.594c-.122.074-.098.184 0 .258l3.421 1.986a.49.49 0 0 0 .466-.012Zm-8.448 16.16 8.043-4.647c.111 0 .098-.184 0-.258l-3.421-1.986a.493.493 0 0 0-.453 0l-8.043 4.647c-.123 0-.111.184 0 .258l3.42 1.974a.536.536 0 0 0 .454.012Zm22.609-13.34a.51.51 0 0 0 .466 0l2.747-1.582c.122-.073.098-.184 0-.27l-3.421-1.974a.497.497 0 0 0-.454 0l-2.759 1.631c-.122.074-.11.184 0 .27l3.421 1.925Zm-4.426-2.808 2.746-1.582c.123-.073.111-.196 0-.269l-3.433-1.974a.536.536 0 0 0-.453 0l-2.747 1.594c-.122.061-.11.184 0 .257l3.421 1.986a.486.486 0 0 0 .491-.012h-.025Zm-22.204 18.465 2.746-1.582c.123-.073.098-.183 0-.269l-3.421-1.974a.537.537 0 0 0-.454 0l-2.746 1.594c-.123.073-.11.184 0 .269l3.421 1.974a.513.513 0 0 0 .478-.012h-.024Zm17.766-10.495a.47.47 0 0 0 .453 0l2.759-1.594c.11-.061.098-.184 0-.258l-3.47-1.986a.509.509 0 0 0-.454 0l-2.758 1.594c-.111 0-.098.184 0 .257l3.47 1.987Zm-37.862 22.069 2.759-1.581c.11-.074.098-.184 0-.27l-3.421-1.974a.54.54 0 0 0-.454 0l-2.759 1.594c-.11.073-.098.184 0 .27l3.47 1.961a.491.491 0 0 0 .405 0Zm4.021-2.317 2.759-1.594c.11-.061.098-.184 0-.257l-3.506-1.962a.502.502 0 0 0-.454 0l-2.759 1.594c-.11 0-.098.184 0 .257l3.421 1.974a.5.5 0 0 0 .539.025v-.037Zm-8.043 4.647 2.759-1.594c.11 0 .098-.184 0-.257l-3.421-1.987a.497.497 0 0 0-.453 0l-2.759 1.582c-.111.074-.098.196 0 .27l3.421 1.974a.543.543 0 0 0 .453.049v-.037Zm16.099-9.294 2.746-1.594c.111-.061.098-.184 0-.257l-3.42-1.974a.502.502 0 0 0-.454 0l-2.747 1.594c-.122.061-.11.184 0 .257l3.421 1.974a.484.484 0 0 0 .454.037v-.037Zm-4.034 2.318 2.759-1.582c.11-.074.098-.184 0-.27l-3.421-1.974a.497.497 0 0 0-.454 0l-2.758 1.582c-.111.073-.099.184 0 .27l3.42 1.974a.494.494 0 0 0 .454.036v-.036Zm8.055-4.635 2.747-1.594c.122 0 .098-.184 0-.258l-3.421-1.986a.497.497 0 0 0-.454 0l-2.746 1.582c-.123.073-.11.196 0 .27l3.421 1.974a.559.559 0 0 0 .453.049v-.037Zm16.847-35.25a.497.497 0 0 0 .454 0l2.758-1.582c.111-.074.098-.184 0-.27l-.907-.527a.51.51 0 0 0-.466 0l-2.746 1.594c-.123.061-.098.184 0 .258l.907.527Zm-19.703 12.825a.493.493 0 0 0 .453 0l2.759-1.582c.11-.074.098-.184 0-.27l-3.421-1.974a.497.497 0 0 0-.453 0l-2.759 1.582c-.111.073-.098.184 0 .27l3.421 1.974Zm8.043-4.647a.537.537 0 0 0 .453 0l2.759-1.594c.111 0 .098-.184 0-.258l-3.421-1.986a.494.494 0 0 0-.453 0l-2.759 1.582c-.11.073-.098.196 0 .269l3.421 1.987Zm-12.948 7.479a.54.54 0 0 0 .454 0l2.746-1.594c.123 0 .098-.184 0-.257l-3.42-1.987a.497.497 0 0 0-.454 0l-2.747 1.582c-.122.073-.11.196 0 .27l3.421 1.986Zm8.926-5.162a.466.466 0 0 0 .454 0l2.722-1.52c.11-.062.098-.184 0-.258l-3.421-1.974a.509.509 0 0 0-.454 0l-2.758 1.594c-.111.061-.098.184 0 .258l3.457 1.9Zm-16.981 9.809a.523.523 0 0 0 .466 0l2.746-1.582c.123-.073.098-.184 0-.27l-3.421-1.974a.493.493 0 0 0-.453 0l-2.747 1.582c-.122.074-.11.184 0 .27l3.409 1.974Zm4.021-2.317a.525.525 0 0 0 .466 0l2.747-1.594c.122-.062.098-.184 0-.258l-3.421-1.974a.509.509 0 0 0-.454 0l-2.746 1.594c-.123 0-.11.184 0 .258l3.408 1.974Zm20.599-13.34a.497.497 0 0 0 .453 0l2.747-1.582c.122-.074.11-.196 0-.27l-.907-.527a.513.513 0 0 0-.466 0l-2.747 1.582c-.122.073-.098.184 0 .269l.92.528Zm12.065-6.977a.46.46 0 0 0 .453 0l2.759-1.594c.11-.061.098-.184 0-.257l-.907-.527a.513.513 0 0 0-.466 0l-2.747 1.581c-.122.074-.098.184 0 .27l.908.527Zm7.184 4.157a.544.544 0 0 0 .454 0l2.759-1.594c.11-.074.098-.184 0-.27l-3.421-1.974a.486.486 0 0 0-.454 0l-2.758 1.582c-.111.073-.098.184 0 .269l3.42 1.987Zm11.109 10.826 2.746-1.594c.123-.073.098-.184 0-.27l-3.421-1.974a.493.493 0 0 0-.453 0l-2.747 1.582c-.122.074-.11.184 0 .27l3.384 1.986a.568.568 0 0 0 .491 0Zm-26.337-10.324a.5.5 0 0 0 .454 0l2.759-1.594c.11 0 .098-.184 0-.257l-.908-.527a.522.522 0 0 0-.465 0l-2.747 1.594c-.123 0-.098.184 0 .257l.907.527ZM125.8 173.769a.525.525 0 0 0 .466 0l2.747-1.594c.122 0 .098-.183 0-.257l-3.421-1.974a.5.5 0 0 0-.454 0l-2.746 1.594c-.123 0-.111.184 0 .257l3.408 1.974Z"/><path fill="#455A64" d="M49.721 189.243a6.831 6.831 0 0 1-2.98-5.003l-5.136-85.949a6.13 6.13 0 0 1 2.93-5.248l99.313-57.368a6.269 6.269 0 0 1 5.493 0 6.878 6.878 0 0 1 2.98 5.014l5.137 85.949a6.132 6.132 0 0 1-2.759 5.113L55.386 189.12a6.341 6.341 0 0 1-5.665.123Z"/><path fill="#fff" d="M49.721 189.243a6.831 6.831 0 0 1-2.98-5.003l-5.136-85.949a6.13 6.13 0 0 1 2.93-5.248l99.313-57.368a6.269 6.269 0 0 1 5.493 0 6.878 6.878 0 0 1 2.98 5.014l5.137 85.949a6.132 6.132 0 0 1-2.759 5.113L55.386 189.12a6.341 6.341 0 0 1-5.665.123Z" opacity=".4"/><path fill="#455A64" d="m49.893 96.354 99.313-57.369a1.937 1.937 0 0 1 3.163 1.704l5.138 85.949a6.122 6.122 0 0 1-.736 2.904 6.113 6.113 0 0 1-2.023 2.209L55.435 189.12a1.941 1.941 0 0 1-2.147.203 1.937 1.937 0 0 1-1.005-1.907l-5.137-85.962a6.033 6.033 0 0 1 2.747-5.1Z"/><path fill="#fff" d="m52.247 98.426 95.377-55.064a1.546 1.546 0 0 1 2.526 1.361l4.475 74.927a4.897 4.897 0 0 1-2.194 4.083l-94.642 54.659a1.567 1.567 0 0 1-1.727.164 1.569 1.569 0 0 1-.824-1.525l-5.161-74.547a4.78 4.78 0 0 1 2.17-4.058Z"/><path fill="#455A64" d="m318.444 184.449 12.715-7.357a6.834 6.834 0 0 0 3.053-6.706l-4.684-24.351 5.542-3.2 27.685 22.401c.368 1.95 9.061 18.919 6.401 28.323-2.355 8.288-15.94 9.183-17.485 10.054l-33.227-12.788v-6.376Z"/><path fill="#455A64" d="m351.671 203.637 12.703-7.356a6.819 6.819 0 0 0 3.065-6.707l-4.684-24.338 5.53-3.2 5.358 27.844a10.294 10.294 0 0 1-.826 5.737 10.3 10.3 0 0 1-3.796 4.379l-17.35 10.017v-6.376Z"/><path fill="#000" d="m351.671 203.637 12.703-7.356a6.819 6.819 0 0 0 3.065-6.707l-4.684-24.338 5.53-3.2 5.358 27.844a10.294 10.294 0 0 1-.826 5.737 10.3 10.3 0 0 1-3.796 4.379l-17.35 10.017v-6.376Z" opacity=".3"/><path fill="#455A64" d="m318.444 184.449 33.227 19.188v6.401l-33.227-19.189v-6.4Z"/><path fill="#fff" d="m318.444 184.449 33.227 19.188v6.401l-33.227-19.189v-6.4Z" opacity=".4"/><path fill="#455A64" d="M287.951 22.911a6.332 6.332 0 0 0-2.771 5.015v101.937a6.55 6.55 0 0 0 2.955 5.113l127.06 73.357a5.544 5.544 0 0 0 8.497-4.904V101.491a6.52 6.52 0 0 0-2.955-5.112L293.677 23.02a6.326 6.326 0 0 0-5.726-.11Z"/><path fill="#455A64" d="M415.195 208.333a5.543 5.543 0 0 0 8.497-4.904V101.492a6.062 6.062 0 0 0-.858-2.906l-98.873 57.074 91.234 52.673Z"/><path fill="#22343D" d="M415.489 208.112a5.54 5.54 0 0 0 5.701.086 5.544 5.544 0 0 0 2.759-4.99l-.551-101.95a6.134 6.134 0 0 0-.883-2.905l-98.566 57.626 91.54 52.133Z" opacity=".2"/><path fill="#455A64" d="M285.18 129.863V27.926c0-1.888 1.324-2.648 2.955-1.717l127.06 73.37a6.517 6.517 0 0 1 2.955 5.113v101.937c0 1.888-1.324 2.648-2.955 1.704l-127.06-73.357a6.55 6.55 0 0 1-2.955-5.113Z"/><path fill="#22343D" d="M285.18 129.863V27.926c0-1.888 1.324-2.648 2.955-1.717l127.06 73.37a6.517 6.517 0 0 1 2.955 5.113v101.937c0 1.888-1.324 2.648-2.955 1.704l-127.06-73.357a6.55 6.55 0 0 1-2.955-5.113Z" opacity=".4"/><path fill="#fff" d="m290.318 30.672 122.707 70.844a5.234 5.234 0 0 1 2.354 4.095v90.498c0 1.508-1.054 2.121-2.354 1.373l-122.707-70.843a5.226 5.226 0 0 1-2.367-4.095v-90.51c0-1.509 1.055-2.122 2.367-1.362Z"/><path fill="#37474F" d="m271.154 179.729-27.342 15.779a5.542 5.542 0 0 0 0 9.809l88.278 50.969a6.527 6.527 0 0 0 5.91 0l27.342-15.78a5.554 5.554 0 0 0 0-9.809l-88.279-50.968a6.485 6.485 0 0 0-5.909 0Z"/><path fill="#263238" d="M335.045 256.972a5.946 5.946 0 0 0 2.955-.711l27.342-15.78a5.552 5.552 0 0 0 0-9.808l-2.844-1.643h-27.453v27.942Z"/><path fill="#455A64" d="m365.354 230.722-88.278-50.969a6.528 6.528 0 0 0-5.91 0l-27.342 15.792c-1.631.932-1.631 2.452 0 3.409l88.279 50.968a6.565 6.565 0 0 0 5.897 0l27.342-15.792c1.655-.932 1.655-2.464.012-3.408Z"/><path fill="#37474F" d="M352.763 228.196a.544.544 0 0 1-.454 0l-2.71-1.57c-.11 0-.098-.183 0-.257l.895-.515a.5.5 0 0 1 .454 0l2.71 1.569c.11.062.098.184 0 .258l-.895.515ZM348.802 225.915a.537.537 0 0 1-.454 0l-2.709-1.569c-.111 0-.098-.184 0-.257l.895-.515a.51.51 0 0 1 .441 0l2.722 1.569c.111.061.098.184 0 .257l-.895.515ZM356.723 230.489a.473.473 0 0 1-.442 0l-2.709-1.557c-.123-.074-.111-.184 0-.27l.895-.515a.486.486 0 0 1 .454 0l2.709 1.557c.123.074.111.184 0 .27l-.907.515ZM360.695 232.781a.538.538 0 0 1-.454 0l-2.709-1.557c-.123-.061-.098-.184 0-.257l.895-.515a.51.51 0 0 1 .441 0l2.722 1.569c.11.074.098.184 0 .258l-.895.502ZM321.779 214.721l-3.384 1.937c-.123.086-.147.197 0 .27l4.585 2.648a.544.544 0 0 0 .454 0l3.372-1.949c.135-.074.147-.184 0-.257l-4.598-2.649a.486.486 0 0 0-.429 0ZM270.234 184.964l-3.371 1.949c-.135.074-.147.197 0 .258l2.709 1.569a.5.5 0 0 0 .454 0l3.372-1.949c.135-.074.147-.184 0-.258l-2.71-1.557a.493.493 0 0 0-.454-.012ZM274.207 187.257l-3.372 1.949c-.135.074-.147.184 0 .258l2.709 1.569a.544.544 0 0 0 .454 0l3.372-1.949c.135-.074.147-.197 0-.258l-2.722-1.569a.51.51 0 0 0-.441 0ZM266.936 198.12l3.371-1.95c.135-.085.148-.196 0-.257l-2.623-1.619a.473.473 0 0 0-.442 0l-3.372 1.95c-.134.074-.147.196 0 .257l2.588 1.619a.487.487 0 0 0 .478 0ZM270.896 200.351l3.372-1.949c.135-.074.147-.184 0-.258l-2.71-1.557a.497.497 0 0 0-.453 0l-3.372 1.95c-.135.073-.147.196 0 .257l2.722 1.57a.472.472 0 0 0 .441-.013ZM274.869 202.644l3.371-1.949c.123-.074.148-.196 0-.258l-2.709-1.569a.5.5 0 0 0-.454 0l-3.372 1.949c-.134.074-.147.184 0 .258l2.71 1.557a.493.493 0 0 0 .454.012ZM278.829 204.937l3.372-1.95c.135-.085.147-.196 0-.257l-2.722-1.569a.462.462 0 0 0-.441 0l-3.372 1.949c-.135.074-.147.196 0 .258l2.71 1.569a.494.494 0 0 0 .453 0ZM278.167 189.537l-3.372 1.95c-.135.086-.147.196 0 .257l2.722 1.57a.473.473 0 0 0 .442 0l3.371-1.95c.135-.073.147-.196 0-.257l-2.709-1.57a.54.54 0 0 0-.454 0ZM282.127 191.83l-3.408 1.95c-.135.073-.148.196 0 .257l2.709 1.569a.5.5 0 0 0 .454 0l3.372-1.949c.122-.074.147-.184 0-.258l-2.71-1.557a.495.495 0 0 0-.417-.012ZM309.947 218.963c.135-.073.148-.184 0-.257l-2.709-1.557a.486.486 0 0 0-.454 0l-3.372 1.949c-.134.074-.147.196 0 .258l2.71 1.569a.496.496 0 0 0 .454 0l3.371-1.962ZM313.846 210.136l-3.372 1.949c-.134.086-.147.196 0 .258l2.71 1.569a.486.486 0 0 0 .454 0l3.372-1.949c.134-.074.147-.197 0-.258l-2.735-1.582a.497.497 0 0 0-.429.013ZM295.762 220.275l3.371-1.949c.135-.074.148-.196 0-.258l-2.672-1.557a.515.515 0 0 0-.454 0l-3.372 1.937c-.135.086-.147.197 0 .27l2.722 1.557a.457.457 0 0 0 .405 0ZM303.106 220.619c.122-.086.147-.196 0-.27l-2.71-1.557a.486.486 0 0 0-.454 0l-3.371 1.949c-.135.074-.147.196 0 .258l2.709 1.569a.5.5 0 0 0 .454 0l3.372-1.949ZM309.886 207.855l-3.372 1.95c-.135.073-.159.183 0 .257l2.71 1.557a.486.486 0 0 0 .454 0l3.371-1.949c.135-.074.148-.197 0-.258l-2.709-1.569a.516.516 0 0 0-.454.012ZM290.06 196.403l-3.372 1.95c-.135.086-.147.196 0 .257l2.722 1.57a.473.473 0 0 0 .442 0l3.371-1.95c.135-.073.148-.196 0-.257l-2.709-1.57a.54.54 0 0 0-.454 0ZM305.914 205.562l-3.372 1.95c-.135.073-.147.196 0 .257l2.71 1.57a.48.48 0 0 0 .441 0l3.384-1.938c.123-.085.147-.196 0-.269l-2.71-1.558a.492.492 0 0 0-.453-.012ZM286.075 194.123l-3.372 1.949c-.134.074-.147.184 0 .258l2.71 1.557a.498.498 0 0 0 .454 0l3.372-1.95c.134-.073.147-.196 0-.257l-2.722-1.569a.515.515 0 0 0-.442.012ZM294.021 198.696l-3.372 1.95c-.135.073-.147.196 0 .257l2.709 1.569a.475.475 0 0 0 .442 0l3.384-1.949c.122-.074.147-.184 0-.258l-2.71-1.557a.492.492 0 0 0-.453-.012ZM297.993 200.989l-3.335 1.949c-.135.074-.147.184 0 .258l2.71 1.557a.486.486 0 0 0 .453 0l3.372-1.949c.135-.074.147-.197 0-.258l-2.722-1.569a.513.513 0 0 0-.478.012ZM302.015 203.27l-3.372 1.949c-.135.086-.147.196 0 .257l2.71 1.57a.493.493 0 0 0 .453 0l3.372-1.95c.135-.073.147-.196 0-.257l-2.71-1.569a.538.538 0 0 0-.453 0ZM286.762 209.51l3.371-1.949c.123-.074.148-.196 0-.258l-2.709-1.569a.5.5 0 0 0-.454 0l-3.347 1.974c-.135.073-.147.184 0 .257l2.71 1.557a.484.484 0 0 0 .429-.012ZM282.789 207.218l3.372-1.95c.135-.074.147-.184 0-.257l-2.709-1.558a.497.497 0 0 0-.454 0l-3.335 2.023c-.135.074-.147.197 0 .258l2.722 1.569a.474.474 0 0 0 .404-.085ZM275.102 193.35l-3.372 1.938c-.135.085-.147.196 0 .269l2.71 1.557a.482.482 0 0 0 .453 0l3.372-1.949c.123-.074.147-.196 0-.258l-2.71-1.569a.498.498 0 0 0-.453.012ZM271.142 191.058l-3.372 1.949c-.135.074-.147.184 0 .258l2.722 1.569a.51.51 0 0 0 .441 0l3.372-1.95c.135-.073.147-.196 0-.257l-2.71-1.569a.537.537 0 0 0-.453 0ZM305.987 216.72c.135-.074.147-.196 0-.258l-2.71-1.569a.46.46 0 0 0-.441 0l-3.372 1.949c-.135.074-.159.197 0 .258l2.71 1.569a.486.486 0 0 0 .453 0l3.36-1.949ZM298.643 216.376l3.371-1.949c.123-.074.148-.196 0-.258l-2.709-1.569a.5.5 0 0 0-.454 0l-3.372 1.949c-.135.074-.147.184 0 .258l2.71 1.557a.459.459 0 0 0 .454.012ZM294.658 214.059l3.372-1.949c.135-.074.147-.184 0-.258l-2.649-1.471a.482.482 0 0 0-.453 0l-3.372 1.949c-.135.074-.147.196 0 .258l2.71 1.569a.494.494 0 0 0 .392-.098ZM290.722 211.803l3.372-1.949c.135-.086.147-.197 0-.258l-2.722-1.569a.462.462 0 0 0-.441 0l-3.372 1.949c-.135.086-.147.196 0 .258l2.71 1.569a.482.482 0 0 0 .453 0ZM298.888 207.083l-3.372 1.937c-.135.086-.147.196 0 .27l2.71 1.557a.466.466 0 0 0 .441 0l3.384-1.95c.123-.073.147-.196 0-.257l-2.71-1.57a.505.505 0 0 0-.453.013ZM283.035 197.924l-3.372 1.949c-.135.074-.147.184 0 .258l2.722 1.569a.51.51 0 0 0 .441 0l3.372-1.949c.135-.074.147-.197 0-.258l-2.71-1.569a.536.536 0 0 0-.453 0ZM286.995 200.216l-3.372 1.938c-.135.085-.147.196 0 .269l2.71 1.558a.493.493 0 0 0 .453 0l3.372-1.95c.123-.074.147-.196 0-.257l-2.71-1.57a.498.498 0 0 0-.453.012ZM279.074 195.668l-3.372 1.949c-.134.074-.147.196 0 .258l2.71 1.569a.496.496 0 0 0 .454 0l3.372-1.937c.134-.086.147-.196 0-.27l-2.722-1.569a.462.462 0 0 0-.442 0ZM294.928 204.79l-3.372 1.913c-.135.073-.147.183 0 .257l2.71 1.569a.536.536 0 0 0 .453 0l3.372-1.949c.135-.074.147-.196 0-.258l-2.71-1.569a.547.547 0 0 0-.453.037ZM290.98 202.497l-3.372 1.949c-.135.074-.147.197 0 .258l2.709 1.569a.5.5 0 0 0 .454 0l3.372-1.937c.135-.086.147-.196 0-.27l-2.722-1.557a.46.46 0 0 0-.441-.012ZM314.753 216.168l-3.384 1.949c-.122.074-.147.197 0 .258l2.71 1.569a.496.496 0 0 0 .454 0l3.371-1.937c.135-.086.148-.196 0-.27l-2.709-1.557a.467.467 0 0 0-.442-.012ZM318.922 218.473l-5.492 3.176c-.135.073-.148.196 0 .257l2.709 1.569a.54.54 0 0 0 .454 0l5.493-3.175c.135-.074.159-.184 0-.258l-2.71-1.569a.537.537 0 0 0-.454 0Z"/><path fill="#37474F" d="m310.781 219.478-3.372 1.938c-.135.073-.147.196 0 .257l5.898 3.421a.536.536 0 0 0 .453 0l3.372-1.95c.135-.073.147-.196 0-.257l-5.91-3.409a.495.495 0 0 0-.441 0ZM302.861 209.302l-3.372 1.949c-.135.074-.159.196 0 .258l2.71 1.569a.495.495 0 0 0 .453 0l3.372-1.937c.135-.086.147-.196 0-.27l-2.71-1.557a.466.466 0 0 0-.453-.012ZM310.781 213.887l-3.372 1.938c-.135.085-.147.196 0 .257l2.71 1.569a.458.458 0 0 0 .441 0l3.372-1.949c.135-.074.159-.196 0-.258l-2.71-1.569a.496.496 0 0 0-.441.012ZM306.821 211.607l-3.372 1.949c-.135.074-.147.184 0 .258l2.71 1.569a.537.537 0 0 0 .453 0l3.372-1.949c.135-.074.147-.196 0-.258l-2.71-1.569a.536.536 0 0 0-.453 0ZM291.801 217.983l3.372-1.95c.135-.074.147-.196 0-.257l-2.722-1.57a.51.51 0 0 0-.441 0l-3.372 1.95c-.135.073-.147.184 0 .257l2.71 1.57a.537.537 0 0 0 .453 0ZM314.41 214.635l2.71 1.57a.484.484 0 0 0 .441 0l3.372-1.95c.135-.073.16-.184 0-.257l-2.709-1.557a.489.489 0 0 0-.454 0l-3.372 1.949c-.123.061-.123.184.012.245ZM262.338 190.028l4.169 2.452a.493.493 0 0 0 .453 0l3.372-1.95c.123-.073.147-.196 0-.257l-4.169-2.452a.537.537 0 0 0-.453 0l-3.372 1.949c-.11.074-.123.184 0 .258ZM272.723 183.811l3.335 1.925a.496.496 0 0 0 .454 0l3.433-1.961c.135-.086.147-.197 0-.27l-3.348-1.925a.51.51 0 0 0-.441 0l-3.372 1.949c-.196.098-.196.209-.061.282ZM257.201 192.713l5.21 3.016a.544.544 0 0 0 .454 0l3.372-1.95c.135-.085.147-.196 0-.257l-5.223-3.016a.54.54 0 0 0-.454 0l-3.372 1.949c-.086.086-.11.196.013.258ZM305.166 225.977l3.335 1.937a.536.536 0 0 0 .453 0l3.372-1.95c.135-.073.147-.183 0-.257l-3.347-1.925a.497.497 0 0 0-.442 0l-3.371 1.949c-.098.074-.111.184 0 .246ZM252.382 195.508l3.335 1.925a.54.54 0 0 0 .454 0l3.372-1.949c.135-.086.147-.196 0-.258l-3.335-1.937a.54.54 0 0 0-.454 0l-3.372 1.95c-.098.085-.122.196 0 .269ZM302.787 196.992c.135-.074.147-.196 0-.258l-2.722-1.569a.472.472 0 0 0-.441 0l-3.372 1.937c-.135.086-.147.196 0 .27l2.709 1.557a.489.489 0 0 0 .454 0l3.372-1.937ZM310.72 201.565c.122-.073.147-.184 0-.257l-2.71-1.57a.54.54 0 0 0-.454 0l-3.372 1.95c-.134.073-.147.196 0 .257l2.71 1.57a.54.54 0 0 0 .454 0l3.372-1.95ZM306.747 199.346c.135-.086.147-.196 0-.258l-2.709-1.569a.486.486 0 0 0-.454 0l-3.372 1.949c-.135.074-.147.197 0 .258l2.722 1.569a.497.497 0 0 0 .442 0l3.371-1.949ZM314.68 203.858c.135-.074.147-.196 0-.258l-2.722-1.569a.484.484 0 0 0-.441 0l-3.372 1.974c-.135.074-.147.184 0 .258l2.71 1.557a.493.493 0 0 0 .453 0l3.372-1.962ZM299.562 228.024c-.135.074-.147.196 0 .258l4.169 2.452a.54.54 0 0 0 .454 0l3.371-1.95c.135-.073.148-.196 0-.257l-4.181-2.452a.455.455 0 0 0-.441 0l-3.372 1.949ZM297.11 193.755c.123-.074.147-.184 0-.258l-2.636-1.508a.537.537 0 0 0-.453 0l-3.372 1.95c-.135.073-.147.184 0 .257l2.709 1.57a.528.528 0 0 0 .442 0l3.31-2.011ZM293.187 191.474c.135-.085.147-.196 0-.269l-2.71-1.557a.486.486 0 0 0-.454 0l-3.371 1.949c-.135.074-.147.196 0 .257l2.722 1.57a.48.48 0 0 0 .441 0l3.372-1.95ZM285.266 186.889c.123-.074.147-.184 0-.258l-2.71-1.569a.537.537 0 0 0-.453 0l-3.384 2.023c-.135.074-.148.184 0 .258l2.709 1.569a.54.54 0 0 0 .454 0l3.384-2.023ZM289.226 189.182c.135-.074.147-.197 0-.258l-2.722-1.569a.468.468 0 0 0-.441 0l-3.372 1.937c-.135.086-.147.196 0 .27l2.71 1.557a.497.497 0 0 0 .454 0l3.371-1.937ZM287.841 215.69l3.372-1.937c.134-.086.147-.197 0-.27l-2.686-1.557a.482.482 0 0 0-.453 0l-3.372 1.949c-.135.074-.147.196 0 .258l2.71 1.569a.499.499 0 0 0 .429-.012ZM257.605 203.809c-.135.074-.147.196 0 .257l3.335 1.938a.54.54 0 0 0 .454 0l3.372-1.95c.122-.073.147-.196 0-.257l-3.335-1.999a.497.497 0 0 0-.454 0l-3.372 2.011ZM247.588 198.034c-.122.074-.147.184 0 .258l4.169 2.452a.497.497 0 0 0 .454 0l3.371-1.95c.135-.073.147-.196 0-.257l-4.168-2.452a.5.5 0 0 0-.454 0l-3.372 1.949ZM262.203 206.457c-.134.086-.147.197 0 .258l22.328 12.898a.51.51 0 0 0 .441 0l3.372-1.949c.135-.074.159-.184 0-.258l-22.327-12.91a.5.5 0 0 0-.442 0l-3.372 1.961ZM290.367 222.728c-.135.073-.148.183 0 .257l3.335 1.925a.495.495 0 0 0 .453 0l3.372-1.937c.135-.086.147-.196 0-.27l-3.335-1.925a.54.54 0 0 0-.454 0l-3.371 1.95ZM285.769 220.067c-.123.086-.147.196 0 .27l3.335 1.925a.509.509 0 0 0 .453 0l3.372-1.95c.135-.073.147-.184 0-.257l-3.335-1.925a.47.47 0 0 0-.441 0l-3.384 1.937ZM294.952 225.376c-.135.073-.147.184 0 .257l3.335 1.925a.462.462 0 0 0 .441 0l3.384-1.949c.123-.086.148-.196 0-.258l-3.335-1.937a.536.536 0 0 0-.453 0l-3.372 1.962ZM252.971 201.161c-.135.073-.148.196 0 .257l3.335 1.925a.482.482 0 0 0 .453 0l3.372-1.949c.135-.074.147-.197 0-.258l-3.335-1.925a.497.497 0 0 0-.454 0l-3.371 1.95Z"/><path fill="#37474F" d="m308.979 227.902 3.372-1.95c.134-.073.147-.184 0-.257l-7.884-4.574a.497.497 0 0 0-.454 0l-3.372 1.95c-.134.086-.147.196 0 .257l7.933 4.586a.54.54 0 0 0 .405-.012ZM260.082 199.677l3.372-1.949c.135-.074.147-.197 0-.258l-2.71-1.569a.496.496 0 0 0-.453 0l-3.372 1.937c-.135.086-.147.196 0 .27l2.722 1.557a.468.468 0 0 0 .441.012ZM279.945 211.116l3.372-1.949c.135-.074.147-.184 0-.258l-2.722-1.569a.514.514 0 0 0-.442 0l-3.371 1.95c-.135.073-.148.184 0 .257l2.709 1.569a.54.54 0 0 0 .454 0ZM275.948 208.824l3.372-1.938c.134-.085.147-.196 0-.269l-2.71-1.557a.486.486 0 0 0-.454 0l-3.372 1.949c-.122.074-.147.196 0 .257l2.71 1.57a.5.5 0 0 0 .454-.012ZM283.868 213.409l3.372-1.949c.135-.074.147-.196 0-.258l-2.71-1.569a.496.496 0 0 0-.453 0l-3.335 1.974c-.135.086-.148.196 0 .27l2.721 1.557a.464.464 0 0 0 .405-.025ZM268.015 204.25l3.371-1.949c.135-.074.148-.184 0-.258l-2.721-1.569a.514.514 0 0 0-.442 0l-3.372 1.95c-.134.073-.147.183 0 .257l2.71 1.569a.54.54 0 0 0 .454 0ZM271.975 206.543l3.372-1.949c.135-.074.147-.197 0-.258l-2.71-1.569a.495.495 0 0 0-.453 0l-3.274 1.962c-.135.085-.147.196 0 .269l2.722 1.557c.112.04.235.036.343-.012ZM264.005 201.958l3.372-1.938c.135-.086.147-.196 0-.269l-2.71-1.558a.493.493 0 0 0-.453 0l-3.372 1.95c-.123.073-.147.196 0 .257l2.71 1.57a.51.51 0 0 0 .453-.012ZM327.272 227.338l3.372-1.95c.135-.073.147-.196 0-.257l-2.722-1.57a.524.524 0 0 0-.442 0l-3.371 1.95c-.135.073-.147.184 0 .257l2.709 1.57a.544.544 0 0 0 .454 0ZM332.336 220.803l-3.347 1.949c-.135.074-.148.196 0 .257l2.709 1.57a.54.54 0 0 0 .454 0l3.372-1.95c.135-.073.147-.183 0-.257l-2.722-1.569a.51.51 0 0 0-.466 0ZM336.345 223.095l-3.421 1.999c-.135.086-.147.196 0 .27l2.722 1.557a.473.473 0 0 0 .442 0l3.371-1.95c.135-.073.147-.196 0-.257l-2.709-1.57a.5.5 0 0 0-.405-.049ZM331.232 229.63l3.372-1.949c.135-.074.147-.196 0-.258l-2.709-1.569a.5.5 0 0 0-.454 0l-3.372 1.937c-.135.086-.147.196 0 .27l2.722 1.557a.47.47 0 0 0 .441.012ZM328.363 218.51l-3.371 1.949c-.135.074-.148.196 0 .258l2.709 1.569a.54.54 0 0 0 .454 0l3.372-1.949c.135-.086.147-.196 0-.258l-2.71-1.569a.486.486 0 0 0-.454 0ZM305.693 231.592c-.123.074-.147.184 0 .258l2.709 1.569a.54.54 0 0 0 .454 0l3.372-1.949c.135-.074.147-.184 0-.258l-2.71-1.569a.537.537 0 0 0-.454 0l-3.371 1.949ZM313.65 236.129c-.135.073-.147.196 0 .257l2.722 1.57a.484.484 0 0 0 .442 0l3.371-1.938c.135-.085.147-.196 0-.269l-2.709-1.557a.486.486 0 0 0-.454 0l-3.372 1.937ZM309.69 233.873c-.135.086-.147.196 0 .269l2.709 1.558a.497.497 0 0 0 .454 0l3.372-1.95c.135-.073.147-.196 0-.257l-2.722-1.57a.484.484 0 0 0-.441 0l-3.372 1.95ZM323.312 225.094l3.371-1.937c.135-.086.147-.197 0-.27l-2.709-1.557a.486.486 0 0 0-.454 0l-3.372 1.949c-.135.074-.147.196 0 .258l2.71 1.557a.509.509 0 0 0 .454 0ZM321.007 230.955c.134-.074.147-.197 0-.258l-2.722-1.569a.475.475 0 0 0-.442 0l-3.371 1.937c-.135.086-.148.196 0 .27l2.709 1.557a.497.497 0 0 0 .454 0l3.372-1.937ZM345.271 221.526c.135-.086.147-.196 0-.27l-2.71-1.557a.497.497 0 0 0-.453 0l-3.311 1.962c-.135.073-.147.196 0 .257l2.71 1.57a.509.509 0 0 0 .454 0l3.31-1.962ZM337.35 216.94c.123-.073.147-.184 0-.257l-2.709-1.57a.556.556 0 0 0-.227-.05.556.556 0 0 0-.227.05l-3.372 1.95c-.135.074-.147.196 0 .257l2.71 1.643a.537.537 0 0 0 .454 0l3.371-2.023ZM341.311 219.233c.135-.073.147-.196 0-.257l-2.722-1.57a.484.484 0 0 0-.442 0l-3.371 1.937c-.135.086-.147.197 0 .27l2.709 1.557a.486.486 0 0 0 .454 0l3.372-1.937ZM348.79 230.28l-3.372 1.937c-.135.086-.147.197 0 .27l2.71 1.557a.486.486 0 0 0 .454 0l3.371-1.949c.135-.074.148-.196 0-.258l-2.709-1.569a.505.505 0 0 0-.454.012ZM341.458 229.998c-.135.074-.147.184 0 .258l2.71 1.569a.536.536 0 0 0 .453 0l3.372-1.949c.135-.074.147-.184 0-.258l-2.722-1.569a.51.51 0 0 0-.441 0l-3.372 1.949ZM334.947 237.355l3.372-1.95c.135-.073.147-.196 0-.257l-2.722-1.57a.484.484 0 0 0-.441 0l-3.372 1.95c-.135.073-.147.184 0 .257l2.71 1.557a.48.48 0 0 0 .453.013ZM343.702 236.815l3.371-1.949c.135-.074.148-.196 0-.258l-2.709-1.569a.54.54 0 0 0-.454 0l-3.372 1.95c-.134.085-.147.196 0 .257l2.71 1.569a.486.486 0 0 0 .454 0ZM336.639 232.72c-.134.074-.147.184 0 .258l2.71 1.569a.54.54 0 0 0 .454 0l3.372-1.949c.134-.074.147-.197 0-.258l-2.722-1.569a.514.514 0 0 0-.442 0l-3.372 1.949ZM342.28 237.649c.134-.086.147-.196 0-.257l-2.71-1.57a.497.497 0 0 0-.454 0l-3.372 1.95c-.134.073-.147.196 0 .257l2.71 1.57c.071.032.149.05.227.05a.556.556 0 0 0 .227-.05l3.372-1.95ZM318.211 238.777c-.135.074-.147.184 0 .258l6.67 3.85a.497.497 0 0 0 .454 0l3.372-1.95c.134-.074.147-.196 0-.257l-6.683-3.863a.536.536 0 0 0-.453 0l-3.36 1.962ZM326.144 243.351c-.135.073-.147.196 0 .257l2.722 1.569a.472.472 0 0 0 .441 0l3.372-1.937c.135-.086.147-.196 0-.27l-2.71-1.557a.497.497 0 0 0-.453 0l-3.372 1.938ZM334.089 242.369l3.372-1.937c.134-.086.147-.196 0-.269l-2.673-1.582a.486.486 0 0 0-.454 0l-3.372 1.949c-.135.074-.147.197 0 .258l2.722 1.569a.471.471 0 0 0 .405.012ZM340.857 225.695l-3.372 1.949c-.135.074-.147.196 0 .258l2.71 1.569a.472.472 0 0 0 .441 0l3.384-1.937c.123-.086.147-.196 0-.27l-2.709-1.557a.497.497 0 0 0-.454-.012ZM336.039 228.478l-3.372 1.949c-.135.074-.147.197 0 .258l2.709 1.569a.502.502 0 0 0 .454 0l3.372-1.937c.123-.086.147-.196 0-.27l-2.71-1.557a.487.487 0 0 0-.453-.012ZM329.54 235.847c.123-.074.147-.184 0-.258l-2.709-1.569a.54.54 0 0 0-.454 0l-3.372 1.949c-.135.074-.147.184 0 .258l2.71 1.569a.537.537 0 0 0 .454 0l3.371-1.949ZM330.987 235.013l3.372-1.949c.123-.074.147-.184 0-.258l-2.685-1.582a.54.54 0 0 0-.454 0l-3.372 1.95c-.134.073-.147.196 0 .257l2.71 1.57a.509.509 0 0 0 .429.012ZM351.058 236.889l-2.71-1.557a.482.482 0 0 0-.453 0l-8.191 4.732c-.134.074-.147.197 0 .258l2.71 1.569a.54.54 0 0 0 .454 0l8.19-4.732c.135-.086.159-.197 0-.27ZM330.08 245.937l2.71 1.57a.536.536 0 0 0 .453 0l8.191-4.733c.134-.073.147-.184 0-.257l-2.637-1.631a.536.536 0 0 0-.453 0l-8.19 4.733c-.184.098-.197.208-.074.318ZM355.889 234.375c.123-.085.147-.196 0-.269l-2.71-1.557a.486.486 0 0 0-.453 0l-3.372 1.949c-.135.074-.147.196 0 .258l2.71 1.569a.508.508 0 0 0 .453 0l3.372-1.95ZM330.128 240.089l3.372-1.949c.135-.074.147-.197 0-.258l-2.722-1.569a.47.47 0 0 0-.441 0l-3.372 1.937c-.135.086-.147.196 0 .27l2.71 1.557a.487.487 0 0 0 .453.012ZM320.737 207.352c.135-.073.147-.184 0-.257l-2.685-1.619a.528.528 0 0 0-.442 0l-3.335 2.023c-.135.074-.147.184 0 .258l2.71 1.569a.537.537 0 0 0 .454 0l3.298-1.974ZM328.67 211.938c.122-.086.147-.196 0-.27l-2.71-1.557a.486.486 0 0 0-.454 0l-3.371 1.95c-.135.073-.148.196 0 .257l2.709 1.569a.5.5 0 0 0 .454 0l3.372-1.949ZM324.697 209.645c.135-.073.147-.196 0-.257l-2.71-1.57a.508.508 0 0 0-.453 0l-3.372 1.937c-.135.086-.147.197 0 .27l2.722 1.557a.462.462 0 0 0 .441 0l3.372-1.937ZM332.667 214.218c.135-.073.147-.183 0-.257l-2.722-1.569a.514.514 0 0 0-.442 0l-3.371 1.949c-.135.074-.147.184 0 .258l2.709 1.569a.54.54 0 0 0 .454 0l3.372-1.95ZM407.066 47.114v76.349a6.554 6.554 0 0 0 2.955 5.113l88.278 50.969c1.631.944 2.943.183 2.943-1.705v-76.349a6.512 6.512 0 0 0-2.943-5.112L410.021 45.41c-1.631-.944-2.955-.184-2.955 1.704Z"/><path fill="#459CDE" d="m410.021 128.576 88.278 50.969c1.631.944 2.943.183 2.943-1.705v-73.357l-94.176-54.377v73.357a6.517 6.517 0 0 0 2.955 5.113Z"/><path fill="#EBEBEB" d="m414.386 60.724 29.696 17.165a3.92 3.92 0 0 1 1.778 3.066v5.505c0 1.14-.797 1.594-1.778 1.03l-29.696-17.166a3.91 3.91 0 0 1-1.778-3.065v-5.505c0-1.14.797-1.594 1.778-1.03Z"/><path fill="#FAFAFA" d="M496.215 97.42a2.53 2.53 0 0 1 1.128 1.975c0 .723-.503 1.017-1.128.65a2.458 2.458 0 0 1-1.14-1.962c0-.724.502-1.018 1.14-.662ZM491.703 94.822a2.536 2.536 0 0 1 1.14 1.974c0 .723-.515 1.017-1.14.65a2.457 2.457 0 0 1-1.128-1.962c0-.724.503-1.018 1.128-.662ZM487.154 92.222a2.52 2.52 0 0 1 1.128 1.974c0 .724-.502 1.018-1.128.65a2.446 2.446 0 0 1-1.14-1.962c.049-.723.564-1.017 1.14-.662Z"/><path fill="#EBEBEB" d="m414.386 73.512 40.78 23.541a3.882 3.882 0 0 1 1.765 3.016c0 1.104-.785 1.533-1.765.969l-40.78-23.541a3.864 3.864 0 0 1-1.778-3.016c0-1.104.797-1.533 1.778-.969ZM414.386 82.377l40.78 23.541a3.856 3.856 0 0 1 1.765 3.016c0 1.103-.785 1.533-1.765.969l-40.78-23.541a3.903 3.903 0 0 1-1.778-3.017c0-1.103.797-1.532 1.778-.968ZM414.386 91.23l40.78 23.516a3.878 3.878 0 0 1 1.765 3.016c0 1.103-.785 1.532-1.765.968l-40.78-23.54a3.865 3.865 0 0 1-1.778-3.017c0-1.079.797-1.508 1.778-.944ZM414.386 100.094l40.78 23.541a3.856 3.856 0 0 1 1.765 3.016c0 1.091-.785 1.533-1.765.969l-40.78-23.541a3.908 3.908 0 0 1-1.778-3.017c0-1.103.797-1.532 1.778-.968ZM414.974 112.293l78.384 45.255a5.154 5.154 0 0 1 2.379 4.034v7.357c0 1.508-1.079 2.121-2.391 1.361l-78.286-45.28a5.234 5.234 0 0 1-2.366-4.083v-7.356c-.086-1.484.981-2.097 2.28-1.288Z"/><path fill="#FAFAFA" d="m464.239 89.513 29.573 17.165a3.977 3.977 0 0 1 1.778 3.077l.123 40.609c0 1.128-.785 1.593-1.766 1.029l-29.696-17.165a3.907 3.907 0 0 1-1.778-3.065V90.53c0-1.128.797-1.532 1.766-1.017Z"/><path fill="#263238" d="M468.015 106.641c4.206 2.452 7.614.454 7.614-4.402a15.51 15.51 0 0 0-2.133-7.356l-9.257-5.383c-.969-.564-1.766-.11-1.766 1.018v10.14a15.861 15.861 0 0 0 5.542 5.983ZM495.651 131.494l-5.567-18.992c-.416-1.447-1.324-1.533-2.023-.196l-8.153 15.559-3.323-8.877c-.527-1.41-1.459-1.447-2.084-.074l-7.725 16.835 27.171 15.693c.821.479 1.508.209 1.704-.551v-19.397Z"/><path fill="#FFB900" d="M193.358 19.944 227.419.327c1.3-.76 2.354-.148 2.354 1.36v71.31a5.233 5.233 0 0 1-2.354 4.095L193.358 96.71c-1.3.748-2.366.135-2.366-1.373V24.014a5.256 5.256 0 0 1 2.366-4.071Z"/><path fill="#FAFAFA" d="m190.992 34.105 38.781-22.388v51.177l-38.781 22.389V34.105Z"/><path fill="#455A64" d="M207.777 49.04c.417-1.447 1.422-1.595 2.244-.332l4.144 6.4 7.773-23.295c.478-1.435 1.423-1.508 2.121-.172l5.714 11.035V62.82l-31.216 18.023 9.22-31.805ZM190.991 46.967a6.132 6.132 0 0 0 5.542-.736 18.396 18.396 0 0 0 8.338-14.418 6.5 6.5 0 0 0-1.643-4.77l-12.261 7.062.024 12.862Z"/><path fill="#FAFAFA" d="M196.57 22.188c1.116-.65 2.023-.123 2.023 1.165a4.411 4.411 0 0 1-2.023 3.482c-1.115.637-2.01.122-2.01-1.227a4.427 4.427 0 0 1 2.01-3.42ZM202.443 19.282l11.366-6.56c.466-.257.846-.073.846.43a1.815 1.815 0 0 1-.846 1.397l-11.366 6.56c-.466.27-.846.073-.846-.43a1.815 1.815 0 0 1 .846-1.397ZM202.443 22.409l6.253-3.679c.466-.27.846-.073.846.43a1.815 1.815 0 0 1-.846 1.397l-6.253 3.678c-.466.27-.846.086-.846-.416a1.814 1.814 0 0 1 .846-1.41ZM199.084 89.635h-.662c-.858 0-1.888-.404-1.888-1.643a2.883 2.883 0 0 1 1.312-2.268c.564-.319 1.042-.184 1.226.282a2.879 2.879 0 0 1 1.226-1.692c.723-.417 1.312-.086 1.312.748a7.359 7.359 0 0 1-1.876 3.813l-.65.76ZM209.015 78.956l4.757-2.734c.221-.135.393 0 .393.22v3.36a.904.904 0 0 1-.393.686l-4.757 2.735c-.209.135-.392 0-.392-.221v-3.36a.928.928 0 0 1 .392-.686Z"/><path fill="#FAFAFA" d="M209.738 83.725c0 .442.172.479.368.086l1.055-2.06-1.423.773v1.201ZM225.666 71.403l-2.735-.883v1.312a5.589 5.589 0 0 0-2.672 3.029 2.132 2.132 0 0 0 .266 1.665 2.157 2.157 0 0 0 1.389.959 2.028 2.028 0 0 1-.724-1.668c.16-1.152.81-1.557 1.741-1.962v1.533l2.735-3.985Z"/><path fill="#404E4C" d="M176.34 2.975v76.349a6.523 6.523 0 0 1-2.943 5.112l-88.279 50.969c-1.63.944-2.942.184-2.942-1.704V57.352a6.509 6.509 0 0 1 2.942-5.113l88.279-50.968c1.631-.944 2.943-.184 2.943 1.704Z"/><path fill="#02897A" d="m173.397 84.436-88.279 50.969c-1.63.944-2.942.184-2.942-1.704V60.344L176.34 5.967v73.357a6.523 6.523 0 0 1-2.943 5.112Z"/><path fill="#EBEBEB" d="M169.032 16.584 139.336 33.75a3.918 3.918 0 0 0-1.777 3.065v5.505c0 1.14.797 1.594 1.777 1.03l29.696-17.165a3.91 3.91 0 0 0 1.778-3.065v-5.506c.013-1.14-.797-1.594-1.778-1.03Z"/><path fill="#FAFAFA" d="M87.203 53.282a2.527 2.527 0 0 0-1.128 1.974c0 .723.502 1.017 1.128.65a2.452 2.452 0 0 0 1.14-1.962c0-.724-.503-1.018-1.14-.663ZM91.715 50.682a2.538 2.538 0 0 0-1.14 1.974c0 .724.515 1.018 1.14.65a2.453 2.453 0 0 0 1.128-1.962c0-.723-.49-1.017-1.128-.662ZM96.214 48.083a2.526 2.526 0 0 0-1.128 1.974c0 .723.503 1.018 1.128.65a2.452 2.452 0 0 0 1.14-1.962c0-.723-.514-1.018-1.14-.662Z"/><path fill="#EBEBEB" d="m169.032 29.373-40.78 23.54a3.895 3.895 0 0 0-1.765 3.017c0 1.103.785 1.532 1.765.968l40.78-23.54a3.864 3.864 0 0 0 1.778-3.017c.012-1.103-.797-1.532-1.778-.968ZM169.032 38.237l-40.78 23.541a3.843 3.843 0 0 0-1.765 3.017c0 1.103.785 1.532 1.765.968l40.78-23.54a3.903 3.903 0 0 0 1.778-3.017c.012-1.104-.797-1.533-1.778-.969ZM169.032 47.09l-40.78 23.516a3.894 3.894 0 0 0-1.765 3.016c0 1.104.785 1.533 1.765.969l40.78-23.54a3.865 3.865 0 0 0 1.778-3.017c.012-1.08-.797-1.508-1.778-.944ZM169.032 55.954l-40.78 23.541a3.843 3.843 0 0 0-1.765 3.016c0 1.092.785 1.533 1.765.97l40.78-23.542a3.903 3.903 0 0 0 1.778-3.016c.012-1.104-.797-1.533-1.778-.969ZM168.444 68.154 90.06 113.409a5.155 5.155 0 0 0-2.342 4.083v7.357c0 1.508 1.079 2.121 2.378 1.361l78.299-45.28a5.24 5.24 0 0 0 2.366-4.083V69.49c.061-1.532-1.018-2.145-2.317-1.336Z"/><path fill="#FAFAFA" d="M119.179 45.373 89.606 62.54a3.985 3.985 0 0 0-1.778 3.077l-.122 40.608c0 1.128.784 1.594 1.765 1.03l29.696-17.165a3.909 3.909 0 0 0 1.778-3.065V46.39c0-1.128-.797-1.533-1.766-1.018Z"/><path fill="#263238" d="M115.403 62.502c-4.205 2.452-7.614.453-7.614-4.402a15.51 15.51 0 0 1 2.133-7.357l9.257-5.382c.969-.564 1.766-.11 1.766 1.018v10.14a15.85 15.85 0 0 1-5.542 5.983ZM87.767 87.355l5.566-18.993c.417-1.446 1.324-1.532 2.023-.196l8.154 15.56 3.322-8.877c.528-1.41 1.459-1.447 2.085-.074l7.724 16.834-27.17 15.694c-.834.478-1.508.209-1.704-.552V87.355Z"/><path fill="#F03E3D" d="M356.882 80.01v71.003c0 .736-.515 1.03-1.14.662l-96.788-55.873a2.543 2.543 0 0 1-1.153-1.998V22.789c0-.736.515-1.03 1.153-.663l96.788 55.837a2.575 2.575 0 0 1 1.14 2.047Z"/><path fill="#37474F" d="m258.954 22.139 96.788 55.824a2.574 2.574 0 0 1 1.14 1.998v5.04l-99.081-57.308v-4.904c0-.724.515-1.018 1.153-.65Z"/><path fill="#FAFAFA" d="M352.713 78.171a2.448 2.448 0 0 1 1.14 1.974c0 .724-.502 1.018-1.14.65a2.447 2.447 0 0 1-1.128-1.962c0-.723.503-1.017 1.128-.662ZM348.213 75.572a2.538 2.538 0 0 1 1.141 1.974c0 .723-.515 1.017-1.141.65a2.454 2.454 0 0 1-1.128-1.962c0-.724.503-1.018 1.128-.662ZM343.701 72.973a2.519 2.519 0 0 1 1.128 1.974c0 .723-.502 1.017-1.128.65a2.445 2.445 0 0 1-1.14-1.962c.012-.724.527-1.018 1.14-.662Z"/><path fill="#fff" d="M276.83 45.25c-4.622-2.672-8.362-.502-8.362 4.82a18.462 18.462 0 0 0 8.362 14.48c4.61 2.66 8.35.502 8.35-4.831a18.476 18.476 0 0 0-8.35-14.468Z"/><path fill="#263238" d="M276.266 49.088c-1.496-.87-2.709-.171-2.709 1.57a6.004 6.004 0 0 0 2.709 4.696c1.496.858 2.71.159 2.71-1.57a5.981 5.981 0 0 0-2.71-4.696ZM271.546 58.664c0-2.845 1.986-3.997 4.451-2.575l1.532.895a9.812 9.812 0 0 1 4.463 7.712v.76a6.35 6.35 0 0 1-5.162-.907 16.374 16.374 0 0 1-5.284-5.223v-.662Z"/><path fill="#fff" d="m292.132 55.084 13.009 7.516a2.984 2.984 0 0 1 1.41 2.33c0 .845-.625 1.164-1.41.71l-13.009-7.515a2.963 2.963 0 0 1-1.41-2.33c0-.846.625-1.128 1.41-.711ZM292.132 62.538 313.331 74.8a2.987 2.987 0 0 1 1.398 2.33c0 .846-.625 1.226-1.398.711l-21.199-12.26a2.963 2.963 0 0 1-1.41-2.33c0-.846.625-1.165 1.41-.712ZM292.132 68.154l21.199 12.26a3.027 3.027 0 0 1 1.398 2.33c0 .847-.625 1.227-1.398.712l-21.199-12.261a3.012 3.012 0 0 1-1.41-2.342c0-.834.625-1.153 1.41-.699ZM351.659 133.272v8.227c0 .748-.515 1.067-1.165.686l-23.296-13.425-2.072-1.226a2.614 2.614 0 0 1-1.226-2.048v-8.239c0-.748.527-1.055 1.226-.687l25.343 14.64a2.59 2.59 0 0 1 1.19 2.072ZM351.659 89.844v35.654c0 .761-.515 1.067-1.165.687l-23.296-13.487-2.072-1.226a2.59 2.59 0 0 1-1.226-2.035V73.855c0-.76.527-1.054 1.226-.686l25.368 14.603a2.602 2.602 0 0 1 1.165 2.072Z"/><path fill="#263238" d="M323.961 73.855v9.012a12.778 12.778 0 0 0 4.218 4.304c3.556 2.047 6.425.392 6.425-3.679a12.821 12.821 0 0 0-1.557-5.7l-7.896-4.562c-.662-.43-1.19-.172-1.19.625ZM351.659 112.759v12.739c0 .761-.515 1.067-1.165.687l-23.296-13.487 6.977-14.713 4.414 9.588 7.037-14.247 6.033 19.433Z"/><path fill="#fff" d="m264.79 63.924 51.937 29.978a3.528 3.528 0 0 1 1.766 2.624c0 .883-.785 1.14-1.766.576l-51.888-29.966a3.526 3.526 0 0 1-1.815-2.66c0-.858.785-1.128 1.766-.552ZM264.79 71.943l51.937 29.953a3.53 3.53 0 0 1 1.766 2.624c0 .883-.785 1.14-1.766.576L264.79 75.143a3.537 3.537 0 0 1-1.766-2.624c0-.883.785-1.14 1.766-.576ZM264.79 79.961l51.937 29.966a3.529 3.529 0 0 1 1.766 2.612c0 .895-.785 1.152-1.766.588l-51.888-29.965a3.537 3.537 0 0 1-1.766-2.624c-.049-.883.736-1.14 1.717-.577ZM264.79 87.992l51.937 29.954a3.52 3.52 0 0 1 1.766 2.624c0 .882-.785 1.14-1.766.576l-51.888-29.954a3.536 3.536 0 0 1-1.766-2.623c-.049-.883.736-1.14 1.717-.577Z"/><path fill="#B9B9B9" d="m224.231 277.289-8.718-5.101a1.437 1.437 0 0 1-.71-2.2c.176-.244.425-.427.71-.522l34.061-19.617a5.17 5.17 0 0 1 4.721 0l8.717 5.1a1.432 1.432 0 0 1 .71 2.2 1.432 1.432 0 0 1-.71.522l-34.061 19.618a5.254 5.254 0 0 1-4.72 0Z"/><path fill="#fff" d="m218.91 269.528 6.633-3.826a3.477 3.477 0 0 1 3.114 0l6.633 3.826a.957.957 0 0 1 0 1.802l-6.633 3.838a3.49 3.49 0 0 1-3.114 0l-6.633-3.838a.955.955 0 0 1 0-1.802Z"/><path fill="#37474F" d="m223.851 270.3 3.604 2.084a.562.562 0 0 0 .761-.208l1.728-2.992c.148-.269 0-.441-.269-.38l-5.763 1.116c-.294.049-.368.233-.061.38Z"/><path fill="#fff" d="M234.297 263.863a2.719 2.719 0 0 0 2.452 0l16.295-9.404c.687-.405.724-1.03.074-1.41a2.696 2.696 0 0 0-2.453 0l-16.307 9.404c-.674.405-.711 1.03-.061 1.41ZM238.662 266.352a2.719 2.719 0 0 0 2.452 0l7.357-4.291c.686-.405.723-1.03.073-1.398a2.678 2.678 0 0 0-2.452 0l-7.356 4.291c-.687.405-.724 1.03-.074 1.398Z"/><path fill="#FF7800" d="m207.605 267.688-8.717-5.088a1.443 1.443 0 0 1-.973-1.367 1.442 1.442 0 0 1 .973-1.367l34.061-19.618a5.254 5.254 0 0 1 4.72 0l8.718 5.101a1.447 1.447 0 0 1 0 2.734l-34.061 19.618a5.184 5.184 0 0 1-4.721-.013Z"/><path fill="#fff" d="m202.321 259.939 6.633-3.825a3.412 3.412 0 0 1 3.114 0l6.633 3.825a.955.955 0 0 1 0 1.803l-6.633 3.813a3.412 3.412 0 0 1-3.114 0l-6.633-3.825a.962.962 0 0 1-.62-.896.954.954 0 0 1 .62-.895Z"/><path fill="#37474F" d="m207.262 260.712 3.592 2.072a.58.58 0 0 0 .43.056.563.563 0 0 0 .343-.264l1.729-2.98c.147-.27 0-.441-.27-.38l-5.763 1.104c-.294.061-.331.232-.061.392Z"/><path fill="#fff" d="M217.708 254.263a2.734 2.734 0 0 0 2.452 0l16.295-9.417c.687-.392.724-1.03.074-1.398a2.697 2.697 0 0 0-2.452 0l-16.307 9.417c-.675.429-.712 1.03-.062 1.398ZM222.073 256.764a2.684 2.684 0 0 0 2.452 0l7.357-4.279c.687-.405.723-1.03.073-1.41a2.69 2.69 0 0 0-2.452 0l-7.356 4.291c-.687.38-.724 1.018-.074 1.398Z"/><path fill="#37474F" d="m458.28 268.424 10.875-6.351c1.631-.944 1.631-2.452 0-3.409l-42.496-24.521a6.475 6.475 0 0 0-5.885 0l-10.863 6.351c-1.631.944-1.631 2.452 0 3.408l42.484 24.522a6.497 6.497 0 0 0 5.885 0Z"/><path fill="#F03E3D" d="m434.825 241.524-8.276-4.782a4.267 4.267 0 0 0-3.887 0l-8.276 4.782a1.22 1.22 0 0 0-.732 1.121 1.225 1.225 0 0 0 .732 1.122l8.276 4.77a4.26 4.26 0 0 0 3.887 0l8.276-4.77a1.23 1.23 0 0 0 .731-1.122 1.224 1.224 0 0 0-.731-1.121Z"/><path fill="#fff" d="m424.182 240.445-3.335 1.924c-.662.381-.588.81.148.957l6.13 1.226c.748.147 1.018-.258.625-.895l-1.692-2.734a1.421 1.421 0 0 0-1.876-.478ZM462.351 261.288a3.404 3.404 0 0 1-3.041 0l-20.329-11.746c-.87-.49-.907-1.226-.098-1.741a3.388 3.388 0 0 1 3.029 0l20.34 11.746c.871.491.908 1.275.099 1.741ZM445.884 258.002a3.371 3.371 0 0 1-3.041 0l-9.195-5.358c-.859-.49-.895-1.226-.086-1.741a3.385 3.385 0 0 1 3.028 0l9.208 5.358c.895.491.895 1.275.086 1.741Z"/><path fill="#37474F" d="m429.528 284.768 10.876-6.364c1.63-.944 1.63-2.452 0-3.408l-42.497-24.522a6.47 6.47 0 0 0-5.885 0l-10.888 6.351c-1.618.944-1.618 2.452 0 3.409l42.497 24.522a6.572 6.572 0 0 0 5.897.012Z"/><path fill="#fff" d="M401.977 255.464a13.49 13.49 0 0 0-12.162 0c-3.36 1.937-3.36 5.088 0 7.026a13.49 13.49 0 0 0 12.162 0c3.36-1.938 3.36-5.089 0-7.026ZM433.635 277.62a3.295 3.295 0 0 1-3.028 0l-20.341-11.746c-.859-.491-.895-1.226-.086-1.741a3.372 3.372 0 0 1 3.028 0l20.341 11.746c.883.49.883 1.275.086 1.741ZM417.181 274.334a3.331 3.331 0 0 1-3.04 0l-9.196-5.358c-.858-.491-.907-1.226-.086-1.741a3.388 3.388 0 0 1 3.028 0l9.208 5.358c.859.502.895 1.275.086 1.741Z"/><path fill="#F03E3D" d="m392.267 260.724-.392-.821c-.515-1.079-.822-2.551.662-3.409a3.974 3.974 0 0 1 3.678 0c.785.454.956 1.116.515 1.668a4.08 4.08 0 0 1 2.894.294 1.12 1.12 0 0 1 .751 1.054 1.12 1.12 0 0 1-.751 1.055c-1.447.833-3.997.674-5.886.38l-1.471-.221Z"/></svg>